M48
; DRILL file {KiCad 5.1.5} date Fri 26 Jun 2020 12:26:18 AM CEST
; FORMAT={-:-/ absolute / inch / decimal}
; #@! TF.CreationDate,2020-06-26T00:26:18+02:00
; #@! TF.GenerationSoftware,Kicad,Pcbnew,5.1.5
; #@! TF.FileFunction,Plated,1,2,PTH
FMAT,2
INCH
T1C0.0157
T2C0.0295
T3C0.0315
T4C0.0354
T5C0.0394
T6C0.0728
%
G90
G05
T1
X4.7244Y-4.252
X4.7244Y-4.3307
X4.7244Y-4.4094
X4.7244Y-4.4882
X4.7244Y-4.5669
X4.7244Y-4.6457
X4.8031Y-4.3307
X4.8031Y-4.4882
X4.8031Y-4.5669
X4.9094Y-3.6732
X5.0079Y-3.4134
X5.0079Y-3.6102
X5.1024Y-4.1181
X5.1181Y-3.7402
X5.1181Y-4.3307
X5.1929Y-4.315
X5.2323Y-4.1654
X5.2598Y-3.9646
X5.3031Y-3.3386
X5.3031Y-3.3819
X5.3031Y-3.4291
X5.311Y-4.2244
X5.3307Y-3.6457
X5.3504Y-3.8504
X5.4252Y-5.2362
X5.5472Y-3.748
X5.5945Y-3.5276
X5.9055Y-5.252
X5.9843Y-4.4488
X5.9961Y-5.252
X6.2205Y-4.4488
X6.3386Y-4.685
X6.3386Y-4.7638
X6.7323Y-3.8189
T2
X5.4394Y-3.2677
X5.4894Y-3.2677
X5.5394Y-3.2677
X5.2323Y-3.6693
X5.2323Y-3.7193
X5.2323Y-3.7693
X5.9276Y-4.063
X5.9776Y-4.063
X6.0276Y-4.063
X6.5118Y-4.2402
X6.5118Y-4.2902
X6.5118Y-4.3402
T3
X5.6772Y-3.2992
X5.874Y-3.2992
X5.2953Y-2.9685
X5.2953Y-3.1654
X5.563Y-3.8976
X5.6417Y-3.8976
X4.7913Y-4.4094
X4.7913Y-4.8094
X4.8323Y-4.0276
X5.2323Y-4.0276
X5.8031Y-5.7496
X5.8031Y-6.1496
X4.8031Y-3.3386
X5.2031Y-3.3386
X6.0394Y-3.1614
X6.0394Y-3.5614
X5.3976Y-4.4331
X5.7976Y-4.4331
X6.7362Y-3.189
X6.7362Y-3.589
X6.2677Y-3.6669
X6.2677Y-4.0669
X4.8307Y-3.7244
X5.0276Y-3.7244
X4.8307Y-4.2559
X5.0276Y-4.2559
X6.0039Y-4.2638
X6.2008Y-4.2638
X6.4488Y-4.4425
X6.4488Y-4.8425
X5.3937Y-3.7614
X5.3937Y-4.1614
X5.3937Y-3.5787
X5.7937Y-3.5787
X5.3937Y-4.3071
X5.7937Y-4.3071
X6.7362Y-3.7126
X6.7362Y-3.9094
X6.185Y-2.6709
X6.185Y-3.0709
X4.9449Y-4.5
X5.0236Y-4.5
X4.8307Y-3.8976
X5.2307Y-3.8976
X4.9134Y-3.0669
X5.1102Y-3.0669
X5.4622Y-3.4331
X5.8622Y-3.4331
X5.4953Y-4.0787
X5.7953Y-4.0787
X5.8346Y-3.874
X6.0315Y-3.874
X6.1693Y-3.2654
X6.1693Y-3.6654
X6.2913Y-3.1614
X6.4882Y-3.1614
X5.4921Y-4.1929
X5.7921Y-4.1929
X6.4362Y-4.1299
X6.7362Y-4.1299
X6.8071Y-4.4425
X6.8071Y-4.8425
X6.4362Y-4.0118
X6.7362Y-4.0118
X5.3228Y-2.2008
X5.3228Y-2.5008
X5.4528Y-2.2008
X5.4528Y-2.5008
X5.1496Y-4.4094
X5.1496Y-4.8094
X4.8031Y-3.1969
X5.2031Y-3.1969
X6.4331Y-3.815
X6.4331Y-3.8937
X5.9031Y-4.4331
X6.3031Y-4.4331
X5.6299Y-3.689
X6.0299Y-3.689
X5.4173Y-2.7008
X5.4173Y-3.1008
X6.6299Y-4.4425
X6.6299Y-4.8425
X6.4882Y-3.3937
X6.4882Y-3.5906
T4
X5.7402Y-5.4173
X5.8402Y-5.4173
X6.2008Y-2.252
X6.3008Y-2.252
T5
X4.9331Y-2.9134
X5.0315Y-2.9134
X5.1299Y-2.9134
X4.8543Y-5.1811
X4.9543Y-5.1811
X5.0543Y-5.1811
X5.1543Y-5.1811
X6.4134Y-5.1811
X6.5134Y-5.1811
X6.6134Y-5.1811
X6.7134Y-5.1811
X4.8551Y-4.9291
X4.9551Y-4.9291
X5.0551Y-4.9291
X5.1551Y-4.9291
X6.4134Y-4.9409
X6.5134Y-4.9409
X6.6134Y-4.9409
X6.7134Y-4.9409
X5.0394Y-2.1496
X5.0394Y-2.2496
X5.0394Y-2.3496
X6.4409Y-2.9134
X6.5394Y-2.9134
X6.6378Y-2.9134
X5.6949Y-3.1654
X5.7933Y-3.1654
X5.8917Y-3.1654
T6
X5.6083Y-2.5689
X5.6933Y-2.0689
X5.7933Y-2.5689
X5.8933Y-2.0689
X5.9783Y-2.5689
X5.563Y-4.7362
X5.563Y-4.9252
X5.563Y-5.1142
X5.7717Y-4.7362
X5.7717Y-4.9252
X5.7717Y-5.1142
X5.9803Y-4.7362
X5.9803Y-4.9252
X5.9803Y-5.1142
T6
G00X4.9498Y-5.3498
M15
G01X4.8809Y-5.3498
M16
G05
G00X4.9498Y-5.9888
M15
G01X4.8809Y-5.9888
M16
G05
G00X5.1998Y-5.3498
M15
G01X5.1309Y-5.3498
M16
G05
G00X5.1998Y-5.9888
M15
G01X5.1309Y-5.9888
M16
G05
G00X5.4498Y-5.3498
M15
G01X5.3809Y-5.3498
M16
G05
G00X5.4498Y-5.9888
M15
G01X5.3809Y-5.9888
M16
G05
G00X6.1368Y-5.3498
M15
G01X6.2057Y-5.3498
M16
G05
G00X6.1368Y-5.9888
M15
G01X6.2057Y-5.9888
M16
G05
G00X6.3868Y-5.3498
M15
G01X6.4557Y-5.3498
M16
G05
G00X6.3868Y-5.9888
M15
G01X6.4557Y-5.9888
M16
G05
G00X6.6368Y-5.3498
M15
G01X6.7057Y-5.3498
M16
G05
G00X6.6368Y-5.9888
M15
G01X6.7057Y-5.9888
M16
G05
T0
M30
