G04 #@! TF.GenerationSoftware,KiCad,Pcbnew,5.1.5*
G04 #@! TF.CreationDate,2020-06-24T19:21:06+02:00*
G04 #@! TF.ProjectId,bigmuff,6269676d-7566-4662-9e6b-696361645f70,rev?*
G04 #@! TF.SameCoordinates,Original*
G04 #@! TF.FileFunction,Legend,Top*
G04 #@! TF.FilePolarity,Positive*
%FSLAX46Y46*%
G04 Gerber Fmt 4.6, Leading zero omitted, Abs format (unit mm)*
G04 Created by KiCad (PCBNEW 5.1.5) date 2020-06-24 19:21:06*
%MOMM*%
%LPD*%
G04 APERTURE LIST*
%ADD10C,0.120000*%
%ADD11C,0.150000*%
G04 APERTURE END LIST*
D10*
X132270000Y-126530000D02*
X132270000Y-123870000D01*
X124590000Y-126530000D02*
X132270000Y-126530000D01*
X124590000Y-123870000D02*
X132270000Y-123870000D01*
X124590000Y-126530000D02*
X124590000Y-123870000D01*
X123320000Y-126530000D02*
X121990000Y-126530000D01*
X121990000Y-126530000D02*
X121990000Y-125200000D01*
X121970000Y-132930000D02*
X121970000Y-131600000D01*
X123300000Y-132930000D02*
X121970000Y-132930000D01*
X124570000Y-132930000D02*
X124570000Y-130270000D01*
X124570000Y-130270000D02*
X132250000Y-130270000D01*
X124570000Y-132930000D02*
X132250000Y-132930000D01*
X132250000Y-132930000D02*
X132250000Y-130270000D01*
X171850000Y-126830000D02*
X171850000Y-124170000D01*
X164170000Y-126830000D02*
X171850000Y-126830000D01*
X164170000Y-124170000D02*
X171850000Y-124170000D01*
X164170000Y-126830000D02*
X164170000Y-124170000D01*
X162900000Y-126830000D02*
X161570000Y-126830000D01*
X161570000Y-126830000D02*
X161570000Y-125500000D01*
X161570000Y-132930000D02*
X161570000Y-131600000D01*
X162900000Y-132930000D02*
X161570000Y-132930000D01*
X164170000Y-132930000D02*
X164170000Y-130270000D01*
X164170000Y-130270000D02*
X171850000Y-130270000D01*
X164170000Y-132930000D02*
X171850000Y-132930000D01*
X171850000Y-132930000D02*
X171850000Y-130270000D01*
X153400000Y-81340000D02*
X153400000Y-82110000D01*
X153400000Y-89420000D02*
X153400000Y-88650000D01*
X152030000Y-82110000D02*
X152030000Y-88650000D01*
X154770000Y-82110000D02*
X152030000Y-82110000D01*
X154770000Y-88650000D02*
X154770000Y-82110000D01*
X152030000Y-88650000D02*
X154770000Y-88650000D01*
X172300000Y-79600000D02*
X169900000Y-79600000D01*
X172300000Y-77200000D02*
X172300000Y-79600000D01*
X169900000Y-77200000D02*
X172300000Y-77200000D01*
X169900000Y-79600000D02*
X169900000Y-77200000D01*
X173470000Y-100520000D02*
X168730000Y-100520000D01*
X173470000Y-93080000D02*
X168730000Y-93080000D01*
X168730000Y-93080000D02*
X168730000Y-100520000D01*
X173470000Y-93080000D02*
X173470000Y-100520000D01*
X154420000Y-96030000D02*
X154420000Y-100770000D01*
X146980000Y-96030000D02*
X146980000Y-100770000D01*
X146980000Y-100770000D02*
X154420000Y-100770000D01*
X146980000Y-96030000D02*
X154420000Y-96030000D01*
X149961389Y-101509878D02*
G75*
G03X153850000Y-101500000I1948611J-1690122D01*
G01*
X153850000Y-101500000D02*
X150000000Y-101500000D01*
X150980000Y-112600000D02*
X151750000Y-112600000D01*
X159060000Y-112600000D02*
X158290000Y-112600000D01*
X151750000Y-113970000D02*
X158290000Y-113970000D01*
X151750000Y-111230000D02*
X151750000Y-113970000D01*
X158290000Y-111230000D02*
X151750000Y-111230000D01*
X158290000Y-113970000D02*
X158290000Y-111230000D01*
X135870000Y-81620000D02*
X133130000Y-81620000D01*
X135870000Y-74180000D02*
X133130000Y-74180000D01*
X133130000Y-74180000D02*
X133130000Y-81620000D01*
X135870000Y-74180000D02*
X135870000Y-81620000D01*
X150420000Y-82430000D02*
X150420000Y-85170000D01*
X142980000Y-82430000D02*
X142980000Y-85170000D01*
X142980000Y-85170000D02*
X150420000Y-85170000D01*
X142980000Y-82430000D02*
X150420000Y-82430000D01*
X161930000Y-84980000D02*
X167670000Y-84980000D01*
X161930000Y-92420000D02*
X167670000Y-92420000D01*
X167670000Y-92420000D02*
X167670000Y-84980000D01*
X161930000Y-92420000D02*
X161930000Y-84980000D01*
X166020000Y-77930000D02*
X166020000Y-82670000D01*
X158580000Y-77930000D02*
X158580000Y-82670000D01*
X158580000Y-82670000D02*
X166020000Y-82670000D01*
X158580000Y-77930000D02*
X166020000Y-77930000D01*
X151280000Y-109670000D02*
X151280000Y-106930000D01*
X158720000Y-109670000D02*
X158720000Y-106930000D01*
X158720000Y-106930000D02*
X151280000Y-106930000D01*
X158720000Y-109670000D02*
X151280000Y-109670000D01*
X131020000Y-76530000D02*
X131020000Y-79270000D01*
X123580000Y-76530000D02*
X123580000Y-79270000D01*
X123580000Y-79270000D02*
X131020000Y-79270000D01*
X123580000Y-76530000D02*
X131020000Y-76530000D01*
X121480000Y-110970000D02*
X121480000Y-105230000D01*
X128920000Y-110970000D02*
X128920000Y-105230000D01*
X128920000Y-105230000D02*
X121480000Y-105230000D01*
X128920000Y-110970000D02*
X121480000Y-110970000D01*
X128920000Y-92230000D02*
X128920000Y-96970000D01*
X121480000Y-92230000D02*
X121480000Y-96970000D01*
X121480000Y-96970000D02*
X128920000Y-96970000D01*
X121480000Y-92230000D02*
X128920000Y-92230000D01*
X142129000Y-67280000D02*
X152170000Y-67280000D01*
X150520000Y-79520000D02*
X152170000Y-79520000D01*
X148021000Y-79520000D02*
X148780000Y-79520000D01*
X145521000Y-79520000D02*
X146280000Y-79520000D01*
X142129000Y-79520000D02*
X143779000Y-79520000D01*
X152170000Y-71216000D02*
X152170000Y-67280000D01*
X152170000Y-79520000D02*
X152170000Y-75583000D01*
X142129000Y-71216000D02*
X142129000Y-67280000D01*
X142129000Y-79520000D02*
X142129000Y-75583000D01*
X122779000Y-60880000D02*
X132820000Y-60880000D01*
X131170000Y-73120000D02*
X132820000Y-73120000D01*
X128671000Y-73120000D02*
X129430000Y-73120000D01*
X126171000Y-73120000D02*
X126930000Y-73120000D01*
X122779000Y-73120000D02*
X124429000Y-73120000D01*
X132820000Y-64816000D02*
X132820000Y-60880000D01*
X132820000Y-73120000D02*
X132820000Y-69183000D01*
X122779000Y-64816000D02*
X122779000Y-60880000D01*
X122779000Y-73120000D02*
X122779000Y-69183000D01*
X119800000Y-73400000D02*
X119800000Y-71000000D01*
X122200000Y-73400000D02*
X119800000Y-73400000D01*
X122200000Y-71000000D02*
X122200000Y-73400000D01*
X119800000Y-71000000D02*
X122200000Y-71000000D01*
X139300000Y-79700000D02*
X139300000Y-77300000D01*
X141700000Y-79700000D02*
X139300000Y-79700000D01*
X141700000Y-77300000D02*
X141700000Y-79700000D01*
X139300000Y-77300000D02*
X141700000Y-77300000D01*
X120800000Y-89000000D02*
X120800000Y-86600000D01*
X123200000Y-89000000D02*
X120800000Y-89000000D01*
X123200000Y-86600000D02*
X123200000Y-89000000D01*
X120800000Y-86600000D02*
X123200000Y-86600000D01*
X119100000Y-101800000D02*
X121500000Y-101800000D01*
X119100000Y-104200000D02*
X119100000Y-101800000D01*
X121500000Y-104200000D02*
X119100000Y-104200000D01*
X121500000Y-101800000D02*
X121500000Y-104200000D01*
X125000000Y-122900000D02*
X125000000Y-120500000D01*
X127400000Y-122900000D02*
X125000000Y-122900000D01*
X127400000Y-120500000D02*
X127400000Y-122900000D01*
X125000000Y-120500000D02*
X127400000Y-120500000D01*
X153500000Y-52300000D02*
X151650000Y-52300000D01*
X147750000Y-52300000D02*
X146550000Y-52300000D01*
X142550000Y-52300000D02*
X140800000Y-52300000D01*
X153500000Y-61140000D02*
X153500000Y-52300000D01*
X140800000Y-61140000D02*
X153500000Y-61140000D01*
X140800000Y-52300000D02*
X140800000Y-61140000D01*
X161079000Y-60880000D02*
X171120000Y-60880000D01*
X169470000Y-73120000D02*
X171120000Y-73120000D01*
X166971000Y-73120000D02*
X167730000Y-73120000D01*
X164471000Y-73120000D02*
X165230000Y-73120000D01*
X161079000Y-73120000D02*
X162729000Y-73120000D01*
X171120000Y-64816000D02*
X171120000Y-60880000D01*
X171120000Y-73120000D02*
X171120000Y-69183000D01*
X161079000Y-64816000D02*
X161079000Y-60880000D01*
X161079000Y-73120000D02*
X161079000Y-69183000D01*
X136800000Y-133600000D02*
X156400000Y-133600000D01*
X136800000Y-116600000D02*
X136800000Y-133600000D01*
X156400000Y-116600000D02*
X136800000Y-116600000D01*
X156400000Y-133600000D02*
X156400000Y-116600000D01*
X147400000Y-147080000D02*
X147400000Y-147850000D01*
X147400000Y-155160000D02*
X147400000Y-154390000D01*
X146030000Y-147850000D02*
X146030000Y-154390000D01*
X148770000Y-147850000D02*
X146030000Y-147850000D01*
X148770000Y-154390000D02*
X148770000Y-147850000D01*
X146030000Y-154390000D02*
X148770000Y-154390000D01*
X147860000Y-87200000D02*
X147090000Y-87200000D01*
X139780000Y-87200000D02*
X140550000Y-87200000D01*
X147090000Y-85830000D02*
X140550000Y-85830000D01*
X147090000Y-88570000D02*
X147090000Y-85830000D01*
X140550000Y-88570000D02*
X147090000Y-88570000D01*
X140550000Y-85830000D02*
X140550000Y-88570000D01*
X137600000Y-77720000D02*
X137600000Y-76950000D01*
X137600000Y-69640000D02*
X137600000Y-70410000D01*
X138970000Y-76950000D02*
X138970000Y-70410000D01*
X136230000Y-76950000D02*
X138970000Y-76950000D01*
X136230000Y-70410000D02*
X136230000Y-76950000D01*
X138970000Y-70410000D02*
X136230000Y-70410000D01*
X146120000Y-90900000D02*
X145350000Y-90900000D01*
X138040000Y-90900000D02*
X138810000Y-90900000D01*
X145350000Y-89530000D02*
X138810000Y-89530000D01*
X145350000Y-92270000D02*
X145350000Y-89530000D01*
X138810000Y-92270000D02*
X145350000Y-92270000D01*
X138810000Y-89530000D02*
X138810000Y-92270000D01*
X137000000Y-96580000D02*
X137000000Y-97350000D01*
X137000000Y-104660000D02*
X137000000Y-103890000D01*
X135630000Y-97350000D02*
X135630000Y-103890000D01*
X138370000Y-97350000D02*
X135630000Y-97350000D01*
X138370000Y-103890000D02*
X138370000Y-97350000D01*
X135630000Y-103890000D02*
X138370000Y-103890000D01*
X156700000Y-83980000D02*
X156700000Y-84750000D01*
X156700000Y-92060000D02*
X156700000Y-91290000D01*
X155330000Y-84750000D02*
X155330000Y-91290000D01*
X158070000Y-84750000D02*
X155330000Y-84750000D01*
X158070000Y-91290000D02*
X158070000Y-84750000D01*
X155330000Y-91290000D02*
X158070000Y-91290000D01*
X163800000Y-113880000D02*
X163800000Y-114650000D01*
X163800000Y-121960000D02*
X163800000Y-121190000D01*
X162430000Y-114650000D02*
X162430000Y-121190000D01*
X165170000Y-114650000D02*
X162430000Y-114650000D01*
X165170000Y-121190000D02*
X165170000Y-114650000D01*
X162430000Y-121190000D02*
X165170000Y-121190000D01*
X168400000Y-113880000D02*
X168400000Y-114650000D01*
X168400000Y-121960000D02*
X168400000Y-121190000D01*
X167030000Y-114650000D02*
X167030000Y-121190000D01*
X169770000Y-114650000D02*
X167030000Y-114650000D01*
X169770000Y-121190000D02*
X169770000Y-114650000D01*
X167030000Y-121190000D02*
X169770000Y-121190000D01*
X171100000Y-90120000D02*
X171100000Y-89350000D01*
X171100000Y-82040000D02*
X171100000Y-82810000D01*
X172470000Y-89350000D02*
X172470000Y-82810000D01*
X169730000Y-89350000D02*
X172470000Y-89350000D01*
X169730000Y-82810000D02*
X169730000Y-89350000D01*
X172470000Y-82810000D02*
X169730000Y-82810000D01*
X172900000Y-113880000D02*
X172900000Y-114650000D01*
X172900000Y-121960000D02*
X172900000Y-121190000D01*
X171530000Y-114650000D02*
X171530000Y-121190000D01*
X174270000Y-114650000D02*
X171530000Y-114650000D01*
X174270000Y-121190000D02*
X174270000Y-114650000D01*
X171530000Y-121190000D02*
X174270000Y-121190000D01*
X159200000Y-94180000D02*
X159200000Y-94950000D01*
X159200000Y-102260000D02*
X159200000Y-101490000D01*
X157830000Y-94950000D02*
X157830000Y-101490000D01*
X160570000Y-94950000D02*
X157830000Y-94950000D01*
X160570000Y-101490000D02*
X160570000Y-94950000D01*
X157830000Y-101490000D02*
X160570000Y-101490000D01*
X146120000Y-109400000D02*
X145350000Y-109400000D01*
X138040000Y-109400000D02*
X138810000Y-109400000D01*
X145350000Y-108030000D02*
X138810000Y-108030000D01*
X145350000Y-110770000D02*
X145350000Y-108030000D01*
X138810000Y-110770000D02*
X145350000Y-110770000D01*
X138810000Y-108030000D02*
X138810000Y-110770000D01*
X131120000Y-84800000D02*
X130350000Y-84800000D01*
X123040000Y-84800000D02*
X123810000Y-84800000D01*
X130350000Y-83430000D02*
X123810000Y-83430000D01*
X130350000Y-86170000D02*
X130350000Y-83430000D01*
X123810000Y-86170000D02*
X130350000Y-86170000D01*
X123810000Y-83430000D02*
X123810000Y-86170000D01*
X152120000Y-93700000D02*
X151350000Y-93700000D01*
X144040000Y-93700000D02*
X144810000Y-93700000D01*
X151350000Y-92330000D02*
X144810000Y-92330000D01*
X151350000Y-95070000D02*
X151350000Y-92330000D01*
X144810000Y-95070000D02*
X151350000Y-95070000D01*
X144810000Y-92330000D02*
X144810000Y-95070000D01*
X131120000Y-81200000D02*
X130350000Y-81200000D01*
X123040000Y-81200000D02*
X123810000Y-81200000D01*
X130350000Y-79830000D02*
X123810000Y-79830000D01*
X130350000Y-82570000D02*
X130350000Y-79830000D01*
X123810000Y-82570000D02*
X130350000Y-82570000D01*
X123810000Y-79830000D02*
X123810000Y-82570000D01*
X157100000Y-68880000D02*
X157100000Y-69650000D01*
X157100000Y-76960000D02*
X157100000Y-76190000D01*
X155730000Y-69650000D02*
X155730000Y-76190000D01*
X158470000Y-69650000D02*
X155730000Y-69650000D01*
X158470000Y-76190000D02*
X158470000Y-69650000D01*
X155730000Y-76190000D02*
X158470000Y-76190000D01*
X146220000Y-112600000D02*
X145450000Y-112600000D01*
X138140000Y-112600000D02*
X138910000Y-112600000D01*
X145450000Y-111230000D02*
X138910000Y-111230000D01*
X145450000Y-113970000D02*
X145450000Y-111230000D01*
X138910000Y-113970000D02*
X145450000Y-113970000D01*
X138910000Y-111230000D02*
X138910000Y-113970000D01*
X123780000Y-102300000D02*
X124550000Y-102300000D01*
X131860000Y-102300000D02*
X131090000Y-102300000D01*
X124550000Y-103670000D02*
X131090000Y-103670000D01*
X124550000Y-100930000D02*
X124550000Y-103670000D01*
X131090000Y-100930000D02*
X124550000Y-100930000D01*
X131090000Y-103670000D02*
X131090000Y-100930000D01*
X131820000Y-99000000D02*
X131050000Y-99000000D01*
X123740000Y-99000000D02*
X124510000Y-99000000D01*
X131050000Y-97630000D02*
X124510000Y-97630000D01*
X131050000Y-100370000D02*
X131050000Y-97630000D01*
X124510000Y-100370000D02*
X131050000Y-100370000D01*
X124510000Y-97630000D02*
X124510000Y-100370000D01*
X130800000Y-121120000D02*
X130800000Y-120350000D01*
X130800000Y-113040000D02*
X130800000Y-113810000D01*
X132170000Y-120350000D02*
X132170000Y-113810000D01*
X129430000Y-120350000D02*
X132170000Y-120350000D01*
X129430000Y-113810000D02*
X129430000Y-120350000D01*
X132170000Y-113810000D02*
X129430000Y-113810000D01*
X121700000Y-121120000D02*
X121700000Y-120350000D01*
X121700000Y-113040000D02*
X121700000Y-113810000D01*
X123070000Y-120350000D02*
X123070000Y-113810000D01*
X120330000Y-120350000D02*
X123070000Y-120350000D01*
X120330000Y-113810000D02*
X120330000Y-120350000D01*
X123070000Y-113810000D02*
X120330000Y-113810000D01*
X141298611Y-84690122D02*
G75*
G03X137410000Y-84700000I-1948611J1690122D01*
G01*
X137410000Y-84700000D02*
X141260000Y-84700000D01*
X163709878Y-110838611D02*
G75*
G03X163700000Y-106950000I1690122J1948611D01*
G01*
X163700000Y-106950000D02*
X163700000Y-110800000D01*
X131209878Y-96338611D02*
G75*
G03X131200000Y-92450000I1690122J1948611D01*
G01*
X131200000Y-92450000D02*
X131200000Y-96300000D01*
X139620000Y-58190000D02*
X137380000Y-58190000D01*
X139620000Y-58430000D02*
X137380000Y-58430000D01*
X139620000Y-58310000D02*
X137380000Y-58310000D01*
X138500000Y-62480000D02*
X138500000Y-61830000D01*
X138500000Y-56940000D02*
X138500000Y-57590000D01*
X139620000Y-61830000D02*
X139620000Y-57590000D01*
X137380000Y-61830000D02*
X139620000Y-61830000D01*
X137380000Y-57590000D02*
X137380000Y-61830000D01*
X139620000Y-57590000D02*
X137380000Y-57590000D01*
X136320000Y-58190000D02*
X134080000Y-58190000D01*
X136320000Y-58430000D02*
X134080000Y-58430000D01*
X136320000Y-58310000D02*
X134080000Y-58310000D01*
X135200000Y-62480000D02*
X135200000Y-61830000D01*
X135200000Y-56940000D02*
X135200000Y-57590000D01*
X136320000Y-61830000D02*
X136320000Y-57590000D01*
X134080000Y-61830000D02*
X136320000Y-61830000D01*
X134080000Y-57590000D02*
X134080000Y-61830000D01*
X136320000Y-57590000D02*
X134080000Y-57590000D01*
X144510000Y-136055000D02*
X144510000Y-139145000D01*
X149570000Y-137600000D02*
G75*
G03X149570000Y-137600000I-2500000J0D01*
G01*
X150060000Y-137599538D02*
G75*
G02X144510000Y-139144830I-2990000J-462D01*
G01*
X150060000Y-137600462D02*
G75*
G03X144510000Y-136055170I-2990000J462D01*
G01*
X168810000Y-106020000D02*
X168810000Y-103780000D01*
X168570000Y-106020000D02*
X168570000Y-103780000D01*
X168690000Y-106020000D02*
X168690000Y-103780000D01*
X164520000Y-104900000D02*
X165170000Y-104900000D01*
X170060000Y-104900000D02*
X169410000Y-104900000D01*
X165170000Y-106020000D02*
X169410000Y-106020000D01*
X165170000Y-103780000D02*
X165170000Y-106020000D01*
X169410000Y-103780000D02*
X165170000Y-103780000D01*
X169410000Y-106020000D02*
X169410000Y-103780000D01*
X165770000Y-100780000D02*
X165770000Y-103020000D01*
X166010000Y-100780000D02*
X166010000Y-103020000D01*
X165890000Y-100780000D02*
X165890000Y-103020000D01*
X170060000Y-101900000D02*
X169410000Y-101900000D01*
X164520000Y-101900000D02*
X165170000Y-101900000D01*
X169410000Y-100780000D02*
X165170000Y-100780000D01*
X169410000Y-103020000D02*
X169410000Y-100780000D01*
X165170000Y-103020000D02*
X169410000Y-103020000D01*
X165170000Y-100780000D02*
X165170000Y-103020000D01*
X144910000Y-104720000D02*
X144910000Y-102480000D01*
X144670000Y-104720000D02*
X144670000Y-102480000D01*
X144790000Y-104720000D02*
X144790000Y-102480000D01*
X140620000Y-103600000D02*
X141270000Y-103600000D01*
X146160000Y-103600000D02*
X145510000Y-103600000D01*
X141270000Y-104720000D02*
X145510000Y-104720000D01*
X141270000Y-102480000D02*
X141270000Y-104720000D01*
X145510000Y-102480000D02*
X141270000Y-102480000D01*
X145510000Y-104720000D02*
X145510000Y-102480000D01*
X141790000Y-105380000D02*
X141790000Y-107620000D01*
X142030000Y-105380000D02*
X142030000Y-107620000D01*
X141910000Y-105380000D02*
X141910000Y-107620000D01*
X146080000Y-106500000D02*
X145430000Y-106500000D01*
X140540000Y-106500000D02*
X141190000Y-106500000D01*
X145430000Y-105380000D02*
X141190000Y-105380000D01*
X145430000Y-107620000D02*
X145430000Y-105380000D01*
X141190000Y-107620000D02*
X145430000Y-107620000D01*
X141190000Y-105380000D02*
X141190000Y-107620000D01*
X161675000Y-100454775D02*
X162175000Y-100454775D01*
X161925000Y-100704775D02*
X161925000Y-100204775D01*
X163116000Y-95299000D02*
X163684000Y-95299000D01*
X162882000Y-95339000D02*
X163918000Y-95339000D01*
X162723000Y-95379000D02*
X164077000Y-95379000D01*
X162595000Y-95419000D02*
X164205000Y-95419000D01*
X162485000Y-95459000D02*
X164315000Y-95459000D01*
X162389000Y-95499000D02*
X164411000Y-95499000D01*
X162302000Y-95539000D02*
X164498000Y-95539000D01*
X162222000Y-95579000D02*
X164578000Y-95579000D01*
X162149000Y-95619000D02*
X164651000Y-95619000D01*
X162081000Y-95659000D02*
X164719000Y-95659000D01*
X162017000Y-95699000D02*
X164783000Y-95699000D01*
X161957000Y-95739000D02*
X164843000Y-95739000D01*
X161900000Y-95779000D02*
X164900000Y-95779000D01*
X161846000Y-95819000D02*
X164954000Y-95819000D01*
X161795000Y-95859000D02*
X165005000Y-95859000D01*
X164440000Y-95899000D02*
X165053000Y-95899000D01*
X161747000Y-95899000D02*
X162360000Y-95899000D01*
X164440000Y-95939000D02*
X165099000Y-95939000D01*
X161701000Y-95939000D02*
X162360000Y-95939000D01*
X164440000Y-95979000D02*
X165143000Y-95979000D01*
X161657000Y-95979000D02*
X162360000Y-95979000D01*
X164440000Y-96019000D02*
X165185000Y-96019000D01*
X161615000Y-96019000D02*
X162360000Y-96019000D01*
X164440000Y-96059000D02*
X165226000Y-96059000D01*
X161574000Y-96059000D02*
X162360000Y-96059000D01*
X164440000Y-96099000D02*
X165264000Y-96099000D01*
X161536000Y-96099000D02*
X162360000Y-96099000D01*
X164440000Y-96139000D02*
X165301000Y-96139000D01*
X161499000Y-96139000D02*
X162360000Y-96139000D01*
X164440000Y-96179000D02*
X165337000Y-96179000D01*
X161463000Y-96179000D02*
X162360000Y-96179000D01*
X164440000Y-96219000D02*
X165371000Y-96219000D01*
X161429000Y-96219000D02*
X162360000Y-96219000D01*
X164440000Y-96259000D02*
X165404000Y-96259000D01*
X161396000Y-96259000D02*
X162360000Y-96259000D01*
X164440000Y-96299000D02*
X165435000Y-96299000D01*
X161365000Y-96299000D02*
X162360000Y-96299000D01*
X164440000Y-96339000D02*
X165465000Y-96339000D01*
X161335000Y-96339000D02*
X162360000Y-96339000D01*
X164440000Y-96379000D02*
X165495000Y-96379000D01*
X161305000Y-96379000D02*
X162360000Y-96379000D01*
X164440000Y-96419000D02*
X165522000Y-96419000D01*
X161278000Y-96419000D02*
X162360000Y-96419000D01*
X164440000Y-96459000D02*
X165549000Y-96459000D01*
X161251000Y-96459000D02*
X162360000Y-96459000D01*
X164440000Y-96499000D02*
X165575000Y-96499000D01*
X161225000Y-96499000D02*
X162360000Y-96499000D01*
X164440000Y-96539000D02*
X165600000Y-96539000D01*
X161200000Y-96539000D02*
X162360000Y-96539000D01*
X164440000Y-96579000D02*
X165624000Y-96579000D01*
X161176000Y-96579000D02*
X162360000Y-96579000D01*
X164440000Y-96619000D02*
X165647000Y-96619000D01*
X161153000Y-96619000D02*
X162360000Y-96619000D01*
X164440000Y-96659000D02*
X165668000Y-96659000D01*
X161132000Y-96659000D02*
X162360000Y-96659000D01*
X164440000Y-96699000D02*
X165690000Y-96699000D01*
X161110000Y-96699000D02*
X162360000Y-96699000D01*
X164440000Y-96739000D02*
X165710000Y-96739000D01*
X161090000Y-96739000D02*
X162360000Y-96739000D01*
X164440000Y-96779000D02*
X165729000Y-96779000D01*
X161071000Y-96779000D02*
X162360000Y-96779000D01*
X164440000Y-96819000D02*
X165748000Y-96819000D01*
X161052000Y-96819000D02*
X162360000Y-96819000D01*
X164440000Y-96859000D02*
X165765000Y-96859000D01*
X161035000Y-96859000D02*
X162360000Y-96859000D01*
X164440000Y-96899000D02*
X165782000Y-96899000D01*
X161018000Y-96899000D02*
X162360000Y-96899000D01*
X164440000Y-96939000D02*
X165798000Y-96939000D01*
X161002000Y-96939000D02*
X162360000Y-96939000D01*
X164440000Y-96979000D02*
X165814000Y-96979000D01*
X160986000Y-96979000D02*
X162360000Y-96979000D01*
X164440000Y-97019000D02*
X165828000Y-97019000D01*
X160972000Y-97019000D02*
X162360000Y-97019000D01*
X164440000Y-97059000D02*
X165842000Y-97059000D01*
X160958000Y-97059000D02*
X162360000Y-97059000D01*
X164440000Y-97099000D02*
X165855000Y-97099000D01*
X160945000Y-97099000D02*
X162360000Y-97099000D01*
X164440000Y-97139000D02*
X165868000Y-97139000D01*
X160932000Y-97139000D02*
X162360000Y-97139000D01*
X164440000Y-97179000D02*
X165880000Y-97179000D01*
X160920000Y-97179000D02*
X162360000Y-97179000D01*
X164440000Y-97220000D02*
X165891000Y-97220000D01*
X160909000Y-97220000D02*
X162360000Y-97220000D01*
X164440000Y-97260000D02*
X165901000Y-97260000D01*
X160899000Y-97260000D02*
X162360000Y-97260000D01*
X164440000Y-97300000D02*
X165911000Y-97300000D01*
X160889000Y-97300000D02*
X162360000Y-97300000D01*
X164440000Y-97340000D02*
X165920000Y-97340000D01*
X160880000Y-97340000D02*
X162360000Y-97340000D01*
X164440000Y-97380000D02*
X165928000Y-97380000D01*
X160872000Y-97380000D02*
X162360000Y-97380000D01*
X164440000Y-97420000D02*
X165936000Y-97420000D01*
X160864000Y-97420000D02*
X162360000Y-97420000D01*
X164440000Y-97460000D02*
X165943000Y-97460000D01*
X160857000Y-97460000D02*
X162360000Y-97460000D01*
X164440000Y-97500000D02*
X165950000Y-97500000D01*
X160850000Y-97500000D02*
X162360000Y-97500000D01*
X164440000Y-97540000D02*
X165956000Y-97540000D01*
X160844000Y-97540000D02*
X162360000Y-97540000D01*
X164440000Y-97580000D02*
X165961000Y-97580000D01*
X160839000Y-97580000D02*
X162360000Y-97580000D01*
X164440000Y-97620000D02*
X165965000Y-97620000D01*
X160835000Y-97620000D02*
X162360000Y-97620000D01*
X164440000Y-97660000D02*
X165969000Y-97660000D01*
X160831000Y-97660000D02*
X162360000Y-97660000D01*
X164440000Y-97700000D02*
X165973000Y-97700000D01*
X160827000Y-97700000D02*
X162360000Y-97700000D01*
X164440000Y-97740000D02*
X165976000Y-97740000D01*
X160824000Y-97740000D02*
X162360000Y-97740000D01*
X164440000Y-97780000D02*
X165978000Y-97780000D01*
X160822000Y-97780000D02*
X162360000Y-97780000D01*
X164440000Y-97820000D02*
X165979000Y-97820000D01*
X160821000Y-97820000D02*
X162360000Y-97820000D01*
X160820000Y-97860000D02*
X162360000Y-97860000D01*
X164440000Y-97860000D02*
X165980000Y-97860000D01*
X160820000Y-97900000D02*
X162360000Y-97900000D01*
X164440000Y-97900000D02*
X165980000Y-97900000D01*
X166020000Y-97900000D02*
G75*
G03X166020000Y-97900000I-2620000J0D01*
G01*
X139745225Y-97275000D02*
X139745225Y-97775000D01*
X139495225Y-97525000D02*
X139995225Y-97525000D01*
X144901000Y-98716000D02*
X144901000Y-99284000D01*
X144861000Y-98482000D02*
X144861000Y-99518000D01*
X144821000Y-98323000D02*
X144821000Y-99677000D01*
X144781000Y-98195000D02*
X144781000Y-99805000D01*
X144741000Y-98085000D02*
X144741000Y-99915000D01*
X144701000Y-97989000D02*
X144701000Y-100011000D01*
X144661000Y-97902000D02*
X144661000Y-100098000D01*
X144621000Y-97822000D02*
X144621000Y-100178000D01*
X144581000Y-97749000D02*
X144581000Y-100251000D01*
X144541000Y-97681000D02*
X144541000Y-100319000D01*
X144501000Y-97617000D02*
X144501000Y-100383000D01*
X144461000Y-97557000D02*
X144461000Y-100443000D01*
X144421000Y-97500000D02*
X144421000Y-100500000D01*
X144381000Y-97446000D02*
X144381000Y-100554000D01*
X144341000Y-97395000D02*
X144341000Y-100605000D01*
X144301000Y-100040000D02*
X144301000Y-100653000D01*
X144301000Y-97347000D02*
X144301000Y-97960000D01*
X144261000Y-100040000D02*
X144261000Y-100699000D01*
X144261000Y-97301000D02*
X144261000Y-97960000D01*
X144221000Y-100040000D02*
X144221000Y-100743000D01*
X144221000Y-97257000D02*
X144221000Y-97960000D01*
X144181000Y-100040000D02*
X144181000Y-100785000D01*
X144181000Y-97215000D02*
X144181000Y-97960000D01*
X144141000Y-100040000D02*
X144141000Y-100826000D01*
X144141000Y-97174000D02*
X144141000Y-97960000D01*
X144101000Y-100040000D02*
X144101000Y-100864000D01*
X144101000Y-97136000D02*
X144101000Y-97960000D01*
X144061000Y-100040000D02*
X144061000Y-100901000D01*
X144061000Y-97099000D02*
X144061000Y-97960000D01*
X144021000Y-100040000D02*
X144021000Y-100937000D01*
X144021000Y-97063000D02*
X144021000Y-97960000D01*
X143981000Y-100040000D02*
X143981000Y-100971000D01*
X143981000Y-97029000D02*
X143981000Y-97960000D01*
X143941000Y-100040000D02*
X143941000Y-101004000D01*
X143941000Y-96996000D02*
X143941000Y-97960000D01*
X143901000Y-100040000D02*
X143901000Y-101035000D01*
X143901000Y-96965000D02*
X143901000Y-97960000D01*
X143861000Y-100040000D02*
X143861000Y-101065000D01*
X143861000Y-96935000D02*
X143861000Y-97960000D01*
X143821000Y-100040000D02*
X143821000Y-101095000D01*
X143821000Y-96905000D02*
X143821000Y-97960000D01*
X143781000Y-100040000D02*
X143781000Y-101122000D01*
X143781000Y-96878000D02*
X143781000Y-97960000D01*
X143741000Y-100040000D02*
X143741000Y-101149000D01*
X143741000Y-96851000D02*
X143741000Y-97960000D01*
X143701000Y-100040000D02*
X143701000Y-101175000D01*
X143701000Y-96825000D02*
X143701000Y-97960000D01*
X143661000Y-100040000D02*
X143661000Y-101200000D01*
X143661000Y-96800000D02*
X143661000Y-97960000D01*
X143621000Y-100040000D02*
X143621000Y-101224000D01*
X143621000Y-96776000D02*
X143621000Y-97960000D01*
X143581000Y-100040000D02*
X143581000Y-101247000D01*
X143581000Y-96753000D02*
X143581000Y-97960000D01*
X143541000Y-100040000D02*
X143541000Y-101268000D01*
X143541000Y-96732000D02*
X143541000Y-97960000D01*
X143501000Y-100040000D02*
X143501000Y-101290000D01*
X143501000Y-96710000D02*
X143501000Y-97960000D01*
X143461000Y-100040000D02*
X143461000Y-101310000D01*
X143461000Y-96690000D02*
X143461000Y-97960000D01*
X143421000Y-100040000D02*
X143421000Y-101329000D01*
X143421000Y-96671000D02*
X143421000Y-97960000D01*
X143381000Y-100040000D02*
X143381000Y-101348000D01*
X143381000Y-96652000D02*
X143381000Y-97960000D01*
X143341000Y-100040000D02*
X143341000Y-101365000D01*
X143341000Y-96635000D02*
X143341000Y-97960000D01*
X143301000Y-100040000D02*
X143301000Y-101382000D01*
X143301000Y-96618000D02*
X143301000Y-97960000D01*
X143261000Y-100040000D02*
X143261000Y-101398000D01*
X143261000Y-96602000D02*
X143261000Y-97960000D01*
X143221000Y-100040000D02*
X143221000Y-101414000D01*
X143221000Y-96586000D02*
X143221000Y-97960000D01*
X143181000Y-100040000D02*
X143181000Y-101428000D01*
X143181000Y-96572000D02*
X143181000Y-97960000D01*
X143141000Y-100040000D02*
X143141000Y-101442000D01*
X143141000Y-96558000D02*
X143141000Y-97960000D01*
X143101000Y-100040000D02*
X143101000Y-101455000D01*
X143101000Y-96545000D02*
X143101000Y-97960000D01*
X143061000Y-100040000D02*
X143061000Y-101468000D01*
X143061000Y-96532000D02*
X143061000Y-97960000D01*
X143021000Y-100040000D02*
X143021000Y-101480000D01*
X143021000Y-96520000D02*
X143021000Y-97960000D01*
X142980000Y-100040000D02*
X142980000Y-101491000D01*
X142980000Y-96509000D02*
X142980000Y-97960000D01*
X142940000Y-100040000D02*
X142940000Y-101501000D01*
X142940000Y-96499000D02*
X142940000Y-97960000D01*
X142900000Y-100040000D02*
X142900000Y-101511000D01*
X142900000Y-96489000D02*
X142900000Y-97960000D01*
X142860000Y-100040000D02*
X142860000Y-101520000D01*
X142860000Y-96480000D02*
X142860000Y-97960000D01*
X142820000Y-100040000D02*
X142820000Y-101528000D01*
X142820000Y-96472000D02*
X142820000Y-97960000D01*
X142780000Y-100040000D02*
X142780000Y-101536000D01*
X142780000Y-96464000D02*
X142780000Y-97960000D01*
X142740000Y-100040000D02*
X142740000Y-101543000D01*
X142740000Y-96457000D02*
X142740000Y-97960000D01*
X142700000Y-100040000D02*
X142700000Y-101550000D01*
X142700000Y-96450000D02*
X142700000Y-97960000D01*
X142660000Y-100040000D02*
X142660000Y-101556000D01*
X142660000Y-96444000D02*
X142660000Y-97960000D01*
X142620000Y-100040000D02*
X142620000Y-101561000D01*
X142620000Y-96439000D02*
X142620000Y-97960000D01*
X142580000Y-100040000D02*
X142580000Y-101565000D01*
X142580000Y-96435000D02*
X142580000Y-97960000D01*
X142540000Y-100040000D02*
X142540000Y-101569000D01*
X142540000Y-96431000D02*
X142540000Y-97960000D01*
X142500000Y-100040000D02*
X142500000Y-101573000D01*
X142500000Y-96427000D02*
X142500000Y-97960000D01*
X142460000Y-100040000D02*
X142460000Y-101576000D01*
X142460000Y-96424000D02*
X142460000Y-97960000D01*
X142420000Y-100040000D02*
X142420000Y-101578000D01*
X142420000Y-96422000D02*
X142420000Y-97960000D01*
X142380000Y-100040000D02*
X142380000Y-101579000D01*
X142380000Y-96421000D02*
X142380000Y-97960000D01*
X142340000Y-96420000D02*
X142340000Y-97960000D01*
X142340000Y-100040000D02*
X142340000Y-101580000D01*
X142300000Y-96420000D02*
X142300000Y-97960000D01*
X142300000Y-100040000D02*
X142300000Y-101580000D01*
X144920000Y-99000000D02*
G75*
G03X144920000Y-99000000I-2620000J0D01*
G01*
X129154775Y-116025000D02*
X129154775Y-115525000D01*
X129404775Y-115775000D02*
X128904775Y-115775000D01*
X123999000Y-114584000D02*
X123999000Y-114016000D01*
X124039000Y-114818000D02*
X124039000Y-113782000D01*
X124079000Y-114977000D02*
X124079000Y-113623000D01*
X124119000Y-115105000D02*
X124119000Y-113495000D01*
X124159000Y-115215000D02*
X124159000Y-113385000D01*
X124199000Y-115311000D02*
X124199000Y-113289000D01*
X124239000Y-115398000D02*
X124239000Y-113202000D01*
X124279000Y-115478000D02*
X124279000Y-113122000D01*
X124319000Y-115551000D02*
X124319000Y-113049000D01*
X124359000Y-115619000D02*
X124359000Y-112981000D01*
X124399000Y-115683000D02*
X124399000Y-112917000D01*
X124439000Y-115743000D02*
X124439000Y-112857000D01*
X124479000Y-115800000D02*
X124479000Y-112800000D01*
X124519000Y-115854000D02*
X124519000Y-112746000D01*
X124559000Y-115905000D02*
X124559000Y-112695000D01*
X124599000Y-113260000D02*
X124599000Y-112647000D01*
X124599000Y-115953000D02*
X124599000Y-115340000D01*
X124639000Y-113260000D02*
X124639000Y-112601000D01*
X124639000Y-115999000D02*
X124639000Y-115340000D01*
X124679000Y-113260000D02*
X124679000Y-112557000D01*
X124679000Y-116043000D02*
X124679000Y-115340000D01*
X124719000Y-113260000D02*
X124719000Y-112515000D01*
X124719000Y-116085000D02*
X124719000Y-115340000D01*
X124759000Y-113260000D02*
X124759000Y-112474000D01*
X124759000Y-116126000D02*
X124759000Y-115340000D01*
X124799000Y-113260000D02*
X124799000Y-112436000D01*
X124799000Y-116164000D02*
X124799000Y-115340000D01*
X124839000Y-113260000D02*
X124839000Y-112399000D01*
X124839000Y-116201000D02*
X124839000Y-115340000D01*
X124879000Y-113260000D02*
X124879000Y-112363000D01*
X124879000Y-116237000D02*
X124879000Y-115340000D01*
X124919000Y-113260000D02*
X124919000Y-112329000D01*
X124919000Y-116271000D02*
X124919000Y-115340000D01*
X124959000Y-113260000D02*
X124959000Y-112296000D01*
X124959000Y-116304000D02*
X124959000Y-115340000D01*
X124999000Y-113260000D02*
X124999000Y-112265000D01*
X124999000Y-116335000D02*
X124999000Y-115340000D01*
X125039000Y-113260000D02*
X125039000Y-112235000D01*
X125039000Y-116365000D02*
X125039000Y-115340000D01*
X125079000Y-113260000D02*
X125079000Y-112205000D01*
X125079000Y-116395000D02*
X125079000Y-115340000D01*
X125119000Y-113260000D02*
X125119000Y-112178000D01*
X125119000Y-116422000D02*
X125119000Y-115340000D01*
X125159000Y-113260000D02*
X125159000Y-112151000D01*
X125159000Y-116449000D02*
X125159000Y-115340000D01*
X125199000Y-113260000D02*
X125199000Y-112125000D01*
X125199000Y-116475000D02*
X125199000Y-115340000D01*
X125239000Y-113260000D02*
X125239000Y-112100000D01*
X125239000Y-116500000D02*
X125239000Y-115340000D01*
X125279000Y-113260000D02*
X125279000Y-112076000D01*
X125279000Y-116524000D02*
X125279000Y-115340000D01*
X125319000Y-113260000D02*
X125319000Y-112053000D01*
X125319000Y-116547000D02*
X125319000Y-115340000D01*
X125359000Y-113260000D02*
X125359000Y-112032000D01*
X125359000Y-116568000D02*
X125359000Y-115340000D01*
X125399000Y-113260000D02*
X125399000Y-112010000D01*
X125399000Y-116590000D02*
X125399000Y-115340000D01*
X125439000Y-113260000D02*
X125439000Y-111990000D01*
X125439000Y-116610000D02*
X125439000Y-115340000D01*
X125479000Y-113260000D02*
X125479000Y-111971000D01*
X125479000Y-116629000D02*
X125479000Y-115340000D01*
X125519000Y-113260000D02*
X125519000Y-111952000D01*
X125519000Y-116648000D02*
X125519000Y-115340000D01*
X125559000Y-113260000D02*
X125559000Y-111935000D01*
X125559000Y-116665000D02*
X125559000Y-115340000D01*
X125599000Y-113260000D02*
X125599000Y-111918000D01*
X125599000Y-116682000D02*
X125599000Y-115340000D01*
X125639000Y-113260000D02*
X125639000Y-111902000D01*
X125639000Y-116698000D02*
X125639000Y-115340000D01*
X125679000Y-113260000D02*
X125679000Y-111886000D01*
X125679000Y-116714000D02*
X125679000Y-115340000D01*
X125719000Y-113260000D02*
X125719000Y-111872000D01*
X125719000Y-116728000D02*
X125719000Y-115340000D01*
X125759000Y-113260000D02*
X125759000Y-111858000D01*
X125759000Y-116742000D02*
X125759000Y-115340000D01*
X125799000Y-113260000D02*
X125799000Y-111845000D01*
X125799000Y-116755000D02*
X125799000Y-115340000D01*
X125839000Y-113260000D02*
X125839000Y-111832000D01*
X125839000Y-116768000D02*
X125839000Y-115340000D01*
X125879000Y-113260000D02*
X125879000Y-111820000D01*
X125879000Y-116780000D02*
X125879000Y-115340000D01*
X125920000Y-113260000D02*
X125920000Y-111809000D01*
X125920000Y-116791000D02*
X125920000Y-115340000D01*
X125960000Y-113260000D02*
X125960000Y-111799000D01*
X125960000Y-116801000D02*
X125960000Y-115340000D01*
X126000000Y-113260000D02*
X126000000Y-111789000D01*
X126000000Y-116811000D02*
X126000000Y-115340000D01*
X126040000Y-113260000D02*
X126040000Y-111780000D01*
X126040000Y-116820000D02*
X126040000Y-115340000D01*
X126080000Y-113260000D02*
X126080000Y-111772000D01*
X126080000Y-116828000D02*
X126080000Y-115340000D01*
X126120000Y-113260000D02*
X126120000Y-111764000D01*
X126120000Y-116836000D02*
X126120000Y-115340000D01*
X126160000Y-113260000D02*
X126160000Y-111757000D01*
X126160000Y-116843000D02*
X126160000Y-115340000D01*
X126200000Y-113260000D02*
X126200000Y-111750000D01*
X126200000Y-116850000D02*
X126200000Y-115340000D01*
X126240000Y-113260000D02*
X126240000Y-111744000D01*
X126240000Y-116856000D02*
X126240000Y-115340000D01*
X126280000Y-113260000D02*
X126280000Y-111739000D01*
X126280000Y-116861000D02*
X126280000Y-115340000D01*
X126320000Y-113260000D02*
X126320000Y-111735000D01*
X126320000Y-116865000D02*
X126320000Y-115340000D01*
X126360000Y-113260000D02*
X126360000Y-111731000D01*
X126360000Y-116869000D02*
X126360000Y-115340000D01*
X126400000Y-113260000D02*
X126400000Y-111727000D01*
X126400000Y-116873000D02*
X126400000Y-115340000D01*
X126440000Y-113260000D02*
X126440000Y-111724000D01*
X126440000Y-116876000D02*
X126440000Y-115340000D01*
X126480000Y-113260000D02*
X126480000Y-111722000D01*
X126480000Y-116878000D02*
X126480000Y-115340000D01*
X126520000Y-113260000D02*
X126520000Y-111721000D01*
X126520000Y-116879000D02*
X126520000Y-115340000D01*
X126560000Y-116880000D02*
X126560000Y-115340000D01*
X126560000Y-113260000D02*
X126560000Y-111720000D01*
X126600000Y-116880000D02*
X126600000Y-115340000D01*
X126600000Y-113260000D02*
X126600000Y-111720000D01*
X129220000Y-114300000D02*
G75*
G03X129220000Y-114300000I-2620000J0D01*
G01*
D11*
X153852380Y-86042857D02*
X153376190Y-86376190D01*
X153852380Y-86614285D02*
X152852380Y-86614285D01*
X152852380Y-86233333D01*
X152900000Y-86138095D01*
X152947619Y-86090476D01*
X153042857Y-86042857D01*
X153185714Y-86042857D01*
X153280952Y-86090476D01*
X153328571Y-86138095D01*
X153376190Y-86233333D01*
X153376190Y-86614285D01*
X153852380Y-85090476D02*
X153852380Y-85661904D01*
X153852380Y-85376190D02*
X152852380Y-85376190D01*
X152995238Y-85471428D01*
X153090476Y-85566666D01*
X153138095Y-85661904D01*
X153280952Y-84519047D02*
X153233333Y-84614285D01*
X153185714Y-84661904D01*
X153090476Y-84709523D01*
X153042857Y-84709523D01*
X152947619Y-84661904D01*
X152900000Y-84614285D01*
X152852380Y-84519047D01*
X152852380Y-84328571D01*
X152900000Y-84233333D01*
X152947619Y-84185714D01*
X153042857Y-84138095D01*
X153090476Y-84138095D01*
X153185714Y-84185714D01*
X153233333Y-84233333D01*
X153280952Y-84328571D01*
X153280952Y-84519047D01*
X153328571Y-84614285D01*
X153376190Y-84661904D01*
X153471428Y-84709523D01*
X153661904Y-84709523D01*
X153757142Y-84661904D01*
X153804761Y-84614285D01*
X153852380Y-84519047D01*
X153852380Y-84328571D01*
X153804761Y-84233333D01*
X153757142Y-84185714D01*
X153661904Y-84138095D01*
X153471428Y-84138095D01*
X153376190Y-84185714D01*
X153328571Y-84233333D01*
X153280952Y-84328571D01*
X169838095Y-75752380D02*
X170409523Y-75752380D01*
X170123809Y-76752380D02*
X170123809Y-75752380D01*
X170742857Y-76752380D02*
X170742857Y-75752380D01*
X171123809Y-75752380D01*
X171219047Y-75800000D01*
X171266666Y-75847619D01*
X171314285Y-75942857D01*
X171314285Y-76085714D01*
X171266666Y-76180952D01*
X171219047Y-76228571D01*
X171123809Y-76276190D01*
X170742857Y-76276190D01*
X172171428Y-76085714D02*
X172171428Y-76752380D01*
X171933333Y-75704761D02*
X171695238Y-76419047D01*
X172314285Y-76419047D01*
X174957142Y-96966666D02*
X175004761Y-97014285D01*
X175052380Y-97157142D01*
X175052380Y-97252380D01*
X175004761Y-97395238D01*
X174909523Y-97490476D01*
X174814285Y-97538095D01*
X174623809Y-97585714D01*
X174480952Y-97585714D01*
X174290476Y-97538095D01*
X174195238Y-97490476D01*
X174100000Y-97395238D01*
X174052380Y-97252380D01*
X174052380Y-97157142D01*
X174100000Y-97014285D01*
X174147619Y-96966666D01*
X175052380Y-96490476D02*
X175052380Y-96300000D01*
X175004761Y-96204761D01*
X174957142Y-96157142D01*
X174814285Y-96061904D01*
X174623809Y-96014285D01*
X174242857Y-96014285D01*
X174147619Y-96061904D01*
X174100000Y-96109523D01*
X174052380Y-96204761D01*
X174052380Y-96395238D01*
X174100000Y-96490476D01*
X174147619Y-96538095D01*
X174242857Y-96585714D01*
X174480952Y-96585714D01*
X174576190Y-96538095D01*
X174623809Y-96490476D01*
X174671428Y-96395238D01*
X174671428Y-96204761D01*
X174623809Y-96109523D01*
X174576190Y-96061904D01*
X174480952Y-96014285D01*
X155533333Y-98757142D02*
X155485714Y-98804761D01*
X155342857Y-98852380D01*
X155247619Y-98852380D01*
X155104761Y-98804761D01*
X155009523Y-98709523D01*
X154961904Y-98614285D01*
X154914285Y-98423809D01*
X154914285Y-98280952D01*
X154961904Y-98090476D01*
X155009523Y-97995238D01*
X155104761Y-97900000D01*
X155247619Y-97852380D01*
X155342857Y-97852380D01*
X155485714Y-97900000D01*
X155533333Y-97947619D01*
X156390476Y-97852380D02*
X156200000Y-97852380D01*
X156104761Y-97900000D01*
X156057142Y-97947619D01*
X155961904Y-98090476D01*
X155914285Y-98280952D01*
X155914285Y-98661904D01*
X155961904Y-98757142D01*
X156009523Y-98804761D01*
X156104761Y-98852380D01*
X156295238Y-98852380D01*
X156390476Y-98804761D01*
X156438095Y-98757142D01*
X156485714Y-98661904D01*
X156485714Y-98423809D01*
X156438095Y-98328571D01*
X156390476Y-98280952D01*
X156295238Y-98233333D01*
X156104761Y-98233333D01*
X156009523Y-98280952D01*
X155961904Y-98328571D01*
X155914285Y-98423809D01*
X156004761Y-103747619D02*
X155909523Y-103700000D01*
X155814285Y-103604761D01*
X155671428Y-103461904D01*
X155576190Y-103414285D01*
X155480952Y-103414285D01*
X155528571Y-103652380D02*
X155433333Y-103604761D01*
X155338095Y-103509523D01*
X155290476Y-103319047D01*
X155290476Y-102985714D01*
X155338095Y-102795238D01*
X155433333Y-102700000D01*
X155528571Y-102652380D01*
X155719047Y-102652380D01*
X155814285Y-102700000D01*
X155909523Y-102795238D01*
X155957142Y-102985714D01*
X155957142Y-103319047D01*
X155909523Y-103509523D01*
X155814285Y-103604761D01*
X155719047Y-103652380D01*
X155528571Y-103652380D01*
X156338095Y-102747619D02*
X156385714Y-102700000D01*
X156480952Y-102652380D01*
X156719047Y-102652380D01*
X156814285Y-102700000D01*
X156861904Y-102747619D01*
X156909523Y-102842857D01*
X156909523Y-102938095D01*
X156861904Y-103080952D01*
X156290476Y-103652380D01*
X156909523Y-103652380D01*
X154557142Y-113052380D02*
X154223809Y-112576190D01*
X153985714Y-113052380D02*
X153985714Y-112052380D01*
X154366666Y-112052380D01*
X154461904Y-112100000D01*
X154509523Y-112147619D01*
X154557142Y-112242857D01*
X154557142Y-112385714D01*
X154509523Y-112480952D01*
X154461904Y-112528571D01*
X154366666Y-112576190D01*
X153985714Y-112576190D01*
X155509523Y-113052380D02*
X154938095Y-113052380D01*
X155223809Y-113052380D02*
X155223809Y-112052380D01*
X155128571Y-112195238D01*
X155033333Y-112290476D01*
X154938095Y-112338095D01*
X156461904Y-113052380D02*
X155890476Y-113052380D01*
X156176190Y-113052380D02*
X156176190Y-112052380D01*
X156080952Y-112195238D01*
X155985714Y-112290476D01*
X155890476Y-112338095D01*
X134857142Y-72942857D02*
X134904761Y-72990476D01*
X134952380Y-73133333D01*
X134952380Y-73228571D01*
X134904761Y-73371428D01*
X134809523Y-73466666D01*
X134714285Y-73514285D01*
X134523809Y-73561904D01*
X134380952Y-73561904D01*
X134190476Y-73514285D01*
X134095238Y-73466666D01*
X134000000Y-73371428D01*
X133952380Y-73228571D01*
X133952380Y-73133333D01*
X134000000Y-72990476D01*
X134047619Y-72942857D01*
X134952380Y-71990476D02*
X134952380Y-72561904D01*
X134952380Y-72276190D02*
X133952380Y-72276190D01*
X134095238Y-72371428D01*
X134190476Y-72466666D01*
X134238095Y-72561904D01*
X133952380Y-71657142D02*
X133952380Y-71038095D01*
X134333333Y-71371428D01*
X134333333Y-71228571D01*
X134380952Y-71133333D01*
X134428571Y-71085714D01*
X134523809Y-71038095D01*
X134761904Y-71038095D01*
X134857142Y-71085714D01*
X134904761Y-71133333D01*
X134952380Y-71228571D01*
X134952380Y-71514285D01*
X134904761Y-71609523D01*
X134857142Y-71657142D01*
X146057142Y-84157142D02*
X146009523Y-84204761D01*
X145866666Y-84252380D01*
X145771428Y-84252380D01*
X145628571Y-84204761D01*
X145533333Y-84109523D01*
X145485714Y-84014285D01*
X145438095Y-83823809D01*
X145438095Y-83680952D01*
X145485714Y-83490476D01*
X145533333Y-83395238D01*
X145628571Y-83300000D01*
X145771428Y-83252380D01*
X145866666Y-83252380D01*
X146009523Y-83300000D01*
X146057142Y-83347619D01*
X147009523Y-84252380D02*
X146438095Y-84252380D01*
X146723809Y-84252380D02*
X146723809Y-83252380D01*
X146628571Y-83395238D01*
X146533333Y-83490476D01*
X146438095Y-83538095D01*
X147390476Y-83347619D02*
X147438095Y-83300000D01*
X147533333Y-83252380D01*
X147771428Y-83252380D01*
X147866666Y-83300000D01*
X147914285Y-83347619D01*
X147961904Y-83442857D01*
X147961904Y-83538095D01*
X147914285Y-83680952D01*
X147342857Y-84252380D01*
X147961904Y-84252380D01*
X161157142Y-89342857D02*
X161204761Y-89390476D01*
X161252380Y-89533333D01*
X161252380Y-89628571D01*
X161204761Y-89771428D01*
X161109523Y-89866666D01*
X161014285Y-89914285D01*
X160823809Y-89961904D01*
X160680952Y-89961904D01*
X160490476Y-89914285D01*
X160395238Y-89866666D01*
X160300000Y-89771428D01*
X160252380Y-89628571D01*
X160252380Y-89533333D01*
X160300000Y-89390476D01*
X160347619Y-89342857D01*
X161252380Y-88390476D02*
X161252380Y-88961904D01*
X161252380Y-88676190D02*
X160252380Y-88676190D01*
X160395238Y-88771428D01*
X160490476Y-88866666D01*
X160538095Y-88961904D01*
X161252380Y-87438095D02*
X161252380Y-88009523D01*
X161252380Y-87723809D02*
X160252380Y-87723809D01*
X160395238Y-87819047D01*
X160490476Y-87914285D01*
X160538095Y-88009523D01*
X161657142Y-77157142D02*
X161609523Y-77204761D01*
X161466666Y-77252380D01*
X161371428Y-77252380D01*
X161228571Y-77204761D01*
X161133333Y-77109523D01*
X161085714Y-77014285D01*
X161038095Y-76823809D01*
X161038095Y-76680952D01*
X161085714Y-76490476D01*
X161133333Y-76395238D01*
X161228571Y-76300000D01*
X161371428Y-76252380D01*
X161466666Y-76252380D01*
X161609523Y-76300000D01*
X161657142Y-76347619D01*
X162609523Y-77252380D02*
X162038095Y-77252380D01*
X162323809Y-77252380D02*
X162323809Y-76252380D01*
X162228571Y-76395238D01*
X162133333Y-76490476D01*
X162038095Y-76538095D01*
X163228571Y-76252380D02*
X163323809Y-76252380D01*
X163419047Y-76300000D01*
X163466666Y-76347619D01*
X163514285Y-76442857D01*
X163561904Y-76633333D01*
X163561904Y-76871428D01*
X163514285Y-77061904D01*
X163466666Y-77157142D01*
X163419047Y-77204761D01*
X163323809Y-77252380D01*
X163228571Y-77252380D01*
X163133333Y-77204761D01*
X163085714Y-77157142D01*
X163038095Y-77061904D01*
X162990476Y-76871428D01*
X162990476Y-76633333D01*
X163038095Y-76442857D01*
X163085714Y-76347619D01*
X163133333Y-76300000D01*
X163228571Y-76252380D01*
X160033333Y-108657142D02*
X159985714Y-108704761D01*
X159842857Y-108752380D01*
X159747619Y-108752380D01*
X159604761Y-108704761D01*
X159509523Y-108609523D01*
X159461904Y-108514285D01*
X159414285Y-108323809D01*
X159414285Y-108180952D01*
X159461904Y-107990476D01*
X159509523Y-107895238D01*
X159604761Y-107800000D01*
X159747619Y-107752380D01*
X159842857Y-107752380D01*
X159985714Y-107800000D01*
X160033333Y-107847619D01*
X160366666Y-107752380D02*
X161033333Y-107752380D01*
X160604761Y-108752380D01*
X121833333Y-78257142D02*
X121785714Y-78304761D01*
X121642857Y-78352380D01*
X121547619Y-78352380D01*
X121404761Y-78304761D01*
X121309523Y-78209523D01*
X121261904Y-78114285D01*
X121214285Y-77923809D01*
X121214285Y-77780952D01*
X121261904Y-77590476D01*
X121309523Y-77495238D01*
X121404761Y-77400000D01*
X121547619Y-77352380D01*
X121642857Y-77352380D01*
X121785714Y-77400000D01*
X121833333Y-77447619D01*
X122690476Y-77685714D02*
X122690476Y-78352380D01*
X122452380Y-77304761D02*
X122214285Y-78019047D01*
X122833333Y-78019047D01*
X130133333Y-108457142D02*
X130085714Y-108504761D01*
X129942857Y-108552380D01*
X129847619Y-108552380D01*
X129704761Y-108504761D01*
X129609523Y-108409523D01*
X129561904Y-108314285D01*
X129514285Y-108123809D01*
X129514285Y-107980952D01*
X129561904Y-107790476D01*
X129609523Y-107695238D01*
X129704761Y-107600000D01*
X129847619Y-107552380D01*
X129942857Y-107552380D01*
X130085714Y-107600000D01*
X130133333Y-107647619D01*
X130466666Y-107552380D02*
X131085714Y-107552380D01*
X130752380Y-107933333D01*
X130895238Y-107933333D01*
X130990476Y-107980952D01*
X131038095Y-108028571D01*
X131085714Y-108123809D01*
X131085714Y-108361904D01*
X131038095Y-108457142D01*
X130990476Y-108504761D01*
X130895238Y-108552380D01*
X130609523Y-108552380D01*
X130514285Y-108504761D01*
X130466666Y-108457142D01*
X125033333Y-91657142D02*
X124985714Y-91704761D01*
X124842857Y-91752380D01*
X124747619Y-91752380D01*
X124604761Y-91704761D01*
X124509523Y-91609523D01*
X124461904Y-91514285D01*
X124414285Y-91323809D01*
X124414285Y-91180952D01*
X124461904Y-90990476D01*
X124509523Y-90895238D01*
X124604761Y-90800000D01*
X124747619Y-90752380D01*
X124842857Y-90752380D01*
X124985714Y-90800000D01*
X125033333Y-90847619D01*
X125414285Y-90847619D02*
X125461904Y-90800000D01*
X125557142Y-90752380D01*
X125795238Y-90752380D01*
X125890476Y-90800000D01*
X125938095Y-90847619D01*
X125985714Y-90942857D01*
X125985714Y-91038095D01*
X125938095Y-91180952D01*
X125366666Y-91752380D01*
X125985714Y-91752380D01*
X140552380Y-70919047D02*
X140552380Y-70347619D01*
X141552380Y-70633333D02*
X140552380Y-70633333D01*
X141552380Y-69871428D02*
X141504761Y-69966666D01*
X141457142Y-70014285D01*
X141361904Y-70061904D01*
X141076190Y-70061904D01*
X140980952Y-70014285D01*
X140933333Y-69966666D01*
X140885714Y-69871428D01*
X140885714Y-69728571D01*
X140933333Y-69633333D01*
X140980952Y-69585714D01*
X141076190Y-69538095D01*
X141361904Y-69538095D01*
X141457142Y-69585714D01*
X141504761Y-69633333D01*
X141552380Y-69728571D01*
X141552380Y-69871428D01*
X140885714Y-69109523D02*
X141552380Y-69109523D01*
X140980952Y-69109523D02*
X140933333Y-69061904D01*
X140885714Y-68966666D01*
X140885714Y-68823809D01*
X140933333Y-68728571D01*
X141028571Y-68680952D01*
X141552380Y-68680952D01*
X141504761Y-67823809D02*
X141552380Y-67919047D01*
X141552380Y-68109523D01*
X141504761Y-68204761D01*
X141409523Y-68252380D01*
X141028571Y-68252380D01*
X140933333Y-68204761D01*
X140885714Y-68109523D01*
X140885714Y-67919047D01*
X140933333Y-67823809D01*
X141028571Y-67776190D01*
X141123809Y-67776190D01*
X141219047Y-68252380D01*
X129271428Y-144452380D02*
X129271428Y-143452380D01*
X129747619Y-144452380D02*
X129747619Y-143452380D01*
X130319047Y-144452380D01*
X130319047Y-143452380D01*
X130795238Y-144452380D02*
X130795238Y-143452380D01*
X131176190Y-143452380D01*
X131271428Y-143500000D01*
X131319047Y-143547619D01*
X131366666Y-143642857D01*
X131366666Y-143785714D01*
X131319047Y-143880952D01*
X131271428Y-143928571D01*
X131176190Y-143976190D01*
X130795238Y-143976190D01*
X131795238Y-143452380D02*
X131795238Y-144261904D01*
X131842857Y-144357142D01*
X131890476Y-144404761D01*
X131985714Y-144452380D01*
X132176190Y-144452380D01*
X132271428Y-144404761D01*
X132319047Y-144357142D01*
X132366666Y-144261904D01*
X132366666Y-143452380D01*
X132700000Y-143452380D02*
X133271428Y-143452380D01*
X132985714Y-144452380D02*
X132985714Y-143452380D01*
X160695238Y-143552380D02*
X160885714Y-143552380D01*
X160980952Y-143600000D01*
X161076190Y-143695238D01*
X161123809Y-143885714D01*
X161123809Y-144219047D01*
X161076190Y-144409523D01*
X160980952Y-144504761D01*
X160885714Y-144552380D01*
X160695238Y-144552380D01*
X160600000Y-144504761D01*
X160504761Y-144409523D01*
X160457142Y-144219047D01*
X160457142Y-143885714D01*
X160504761Y-143695238D01*
X160600000Y-143600000D01*
X160695238Y-143552380D01*
X161552380Y-143552380D02*
X161552380Y-144361904D01*
X161600000Y-144457142D01*
X161647619Y-144504761D01*
X161742857Y-144552380D01*
X161933333Y-144552380D01*
X162028571Y-144504761D01*
X162076190Y-144457142D01*
X162123809Y-144361904D01*
X162123809Y-143552380D01*
X162457142Y-143552380D02*
X163028571Y-143552380D01*
X162742857Y-144552380D02*
X162742857Y-143552380D01*
X163361904Y-144552380D02*
X163361904Y-143552380D01*
X163742857Y-143552380D01*
X163838095Y-143600000D01*
X163885714Y-143647619D01*
X163933333Y-143742857D01*
X163933333Y-143885714D01*
X163885714Y-143980952D01*
X163838095Y-144028571D01*
X163742857Y-144076190D01*
X163361904Y-144076190D01*
X164361904Y-143552380D02*
X164361904Y-144361904D01*
X164409523Y-144457142D01*
X164457142Y-144504761D01*
X164552380Y-144552380D01*
X164742857Y-144552380D01*
X164838095Y-144504761D01*
X164885714Y-144457142D01*
X164933333Y-144361904D01*
X164933333Y-143552380D01*
X165266666Y-143552380D02*
X165838095Y-143552380D01*
X165552380Y-144552380D02*
X165552380Y-143552380D01*
X120452380Y-65595238D02*
X121452380Y-65261904D01*
X120452380Y-64928571D01*
X121452380Y-64452380D02*
X121404761Y-64547619D01*
X121357142Y-64595238D01*
X121261904Y-64642857D01*
X120976190Y-64642857D01*
X120880952Y-64595238D01*
X120833333Y-64547619D01*
X120785714Y-64452380D01*
X120785714Y-64309523D01*
X120833333Y-64214285D01*
X120880952Y-64166666D01*
X120976190Y-64119047D01*
X121261904Y-64119047D01*
X121357142Y-64166666D01*
X121404761Y-64214285D01*
X121452380Y-64309523D01*
X121452380Y-64452380D01*
X121452380Y-63547619D02*
X121404761Y-63642857D01*
X121309523Y-63690476D01*
X120452380Y-63690476D01*
X120785714Y-62738095D02*
X121452380Y-62738095D01*
X120785714Y-63166666D02*
X121309523Y-63166666D01*
X121404761Y-63119047D01*
X121452380Y-63023809D01*
X121452380Y-62880952D01*
X121404761Y-62785714D01*
X121357142Y-62738095D01*
X121452380Y-62261904D02*
X120785714Y-62261904D01*
X120880952Y-62261904D02*
X120833333Y-62214285D01*
X120785714Y-62119047D01*
X120785714Y-61976190D01*
X120833333Y-61880952D01*
X120928571Y-61833333D01*
X121452380Y-61833333D01*
X120928571Y-61833333D02*
X120833333Y-61785714D01*
X120785714Y-61690476D01*
X120785714Y-61547619D01*
X120833333Y-61452380D01*
X120928571Y-61404761D01*
X121452380Y-61404761D01*
X121404761Y-60547619D02*
X121452380Y-60642857D01*
X121452380Y-60833333D01*
X121404761Y-60928571D01*
X121309523Y-60976190D01*
X120928571Y-60976190D01*
X120833333Y-60928571D01*
X120785714Y-60833333D01*
X120785714Y-60642857D01*
X120833333Y-60547619D01*
X120928571Y-60500000D01*
X121023809Y-60500000D01*
X121119047Y-60976190D01*
X120000000Y-69654380D02*
X120190476Y-69654380D01*
X120285714Y-69702000D01*
X120380952Y-69797238D01*
X120428571Y-69987714D01*
X120428571Y-70321047D01*
X120380952Y-70511523D01*
X120285714Y-70606761D01*
X120190476Y-70654380D01*
X120000000Y-70654380D01*
X119904761Y-70606761D01*
X119809523Y-70511523D01*
X119761904Y-70321047D01*
X119761904Y-69987714D01*
X119809523Y-69797238D01*
X119904761Y-69702000D01*
X120000000Y-69654380D01*
X120857142Y-69654380D02*
X120857142Y-70463904D01*
X120904761Y-70559142D01*
X120952380Y-70606761D01*
X121047619Y-70654380D01*
X121238095Y-70654380D01*
X121333333Y-70606761D01*
X121380952Y-70559142D01*
X121428571Y-70463904D01*
X121428571Y-69654380D01*
X121761904Y-69654380D02*
X122333333Y-69654380D01*
X122047619Y-70654380D02*
X122047619Y-69654380D01*
X139252380Y-77061904D02*
X139252380Y-76490476D01*
X140252380Y-76776190D02*
X139252380Y-76776190D01*
X140252380Y-76157142D02*
X139252380Y-76157142D01*
X139252380Y-75776190D01*
X139300000Y-75680952D01*
X139347619Y-75633333D01*
X139442857Y-75585714D01*
X139585714Y-75585714D01*
X139680952Y-75633333D01*
X139728571Y-75680952D01*
X139776190Y-75776190D01*
X139776190Y-76157142D01*
X139252380Y-74680952D02*
X139252380Y-75157142D01*
X139728571Y-75204761D01*
X139680952Y-75157142D01*
X139633333Y-75061904D01*
X139633333Y-74823809D01*
X139680952Y-74728571D01*
X139728571Y-74680952D01*
X139823809Y-74633333D01*
X140061904Y-74633333D01*
X140157142Y-74680952D01*
X140204761Y-74728571D01*
X140252380Y-74823809D01*
X140252380Y-75061904D01*
X140204761Y-75157142D01*
X140157142Y-75204761D01*
X120738095Y-89552380D02*
X121309523Y-89552380D01*
X121023809Y-90552380D02*
X121023809Y-89552380D01*
X121642857Y-90552380D02*
X121642857Y-89552380D01*
X122023809Y-89552380D01*
X122119047Y-89600000D01*
X122166666Y-89647619D01*
X122214285Y-89742857D01*
X122214285Y-89885714D01*
X122166666Y-89980952D01*
X122119047Y-90028571D01*
X122023809Y-90076190D01*
X121642857Y-90076190D01*
X122547619Y-89552380D02*
X123166666Y-89552380D01*
X122833333Y-89933333D01*
X122976190Y-89933333D01*
X123071428Y-89980952D01*
X123119047Y-90028571D01*
X123166666Y-90123809D01*
X123166666Y-90361904D01*
X123119047Y-90457142D01*
X123071428Y-90504761D01*
X122976190Y-90552380D01*
X122690476Y-90552380D01*
X122595238Y-90504761D01*
X122547619Y-90457142D01*
X119204761Y-101166666D02*
X119680952Y-101166666D01*
X119109523Y-101452380D02*
X119442857Y-100452380D01*
X119776190Y-101452380D01*
X120919047Y-101452380D02*
X120871428Y-101452380D01*
X120776190Y-101404761D01*
X120633333Y-101261904D01*
X120395238Y-100976190D01*
X120300000Y-100833333D01*
X120252380Y-100690476D01*
X120252380Y-100595238D01*
X120300000Y-100500000D01*
X120395238Y-100452380D01*
X120442857Y-100452380D01*
X120538095Y-100500000D01*
X120585714Y-100595238D01*
X120585714Y-100642857D01*
X120538095Y-100738095D01*
X120490476Y-100785714D01*
X120204761Y-100976190D01*
X120157142Y-101023809D01*
X120109523Y-101119047D01*
X120109523Y-101261904D01*
X120157142Y-101357142D01*
X120204761Y-101404761D01*
X120300000Y-101452380D01*
X120442857Y-101452380D01*
X120538095Y-101404761D01*
X120585714Y-101357142D01*
X120728571Y-101166666D01*
X120776190Y-101023809D01*
X120776190Y-100928571D01*
X121347619Y-101452380D02*
X121347619Y-100452380D01*
X125676190Y-120154380D02*
X125676190Y-119154380D01*
X126152380Y-120154380D02*
X126152380Y-119154380D01*
X126723809Y-120154380D01*
X126723809Y-119154380D01*
X145816666Y-56404761D02*
X145959523Y-56452380D01*
X146197619Y-56452380D01*
X146292857Y-56404761D01*
X146340476Y-56357142D01*
X146388095Y-56261904D01*
X146388095Y-56166666D01*
X146340476Y-56071428D01*
X146292857Y-56023809D01*
X146197619Y-55976190D01*
X146007142Y-55928571D01*
X145911904Y-55880952D01*
X145864285Y-55833333D01*
X145816666Y-55738095D01*
X145816666Y-55642857D01*
X145864285Y-55547619D01*
X145911904Y-55500000D01*
X146007142Y-55452380D01*
X146245238Y-55452380D01*
X146388095Y-55500000D01*
X146721428Y-55452380D02*
X146959523Y-56452380D01*
X147150000Y-55738095D01*
X147340476Y-56452380D01*
X147578571Y-55452380D01*
X148483333Y-56452380D02*
X147911904Y-56452380D01*
X148197619Y-56452380D02*
X148197619Y-55452380D01*
X148102380Y-55595238D01*
X148007142Y-55690476D01*
X147911904Y-55738095D01*
X163728571Y-60204761D02*
X163871428Y-60252380D01*
X164109523Y-60252380D01*
X164204761Y-60204761D01*
X164252380Y-60157142D01*
X164300000Y-60061904D01*
X164300000Y-59966666D01*
X164252380Y-59871428D01*
X164204761Y-59823809D01*
X164109523Y-59776190D01*
X163919047Y-59728571D01*
X163823809Y-59680952D01*
X163776190Y-59633333D01*
X163728571Y-59538095D01*
X163728571Y-59442857D01*
X163776190Y-59347619D01*
X163823809Y-59300000D01*
X163919047Y-59252380D01*
X164157142Y-59252380D01*
X164300000Y-59300000D01*
X165157142Y-59585714D02*
X165157142Y-60252380D01*
X164728571Y-59585714D02*
X164728571Y-60109523D01*
X164776190Y-60204761D01*
X164871428Y-60252380D01*
X165014285Y-60252380D01*
X165109523Y-60204761D01*
X165157142Y-60157142D01*
X165585714Y-60204761D02*
X165680952Y-60252380D01*
X165871428Y-60252380D01*
X165966666Y-60204761D01*
X166014285Y-60109523D01*
X166014285Y-60061904D01*
X165966666Y-59966666D01*
X165871428Y-59919047D01*
X165728571Y-59919047D01*
X165633333Y-59871428D01*
X165585714Y-59776190D01*
X165585714Y-59728571D01*
X165633333Y-59633333D01*
X165728571Y-59585714D01*
X165871428Y-59585714D01*
X165966666Y-59633333D01*
X166300000Y-59585714D02*
X166680952Y-59585714D01*
X166442857Y-59252380D02*
X166442857Y-60109523D01*
X166490476Y-60204761D01*
X166585714Y-60252380D01*
X166680952Y-60252380D01*
X167442857Y-60252380D02*
X167442857Y-59728571D01*
X167395238Y-59633333D01*
X167300000Y-59585714D01*
X167109523Y-59585714D01*
X167014285Y-59633333D01*
X167442857Y-60204761D02*
X167347619Y-60252380D01*
X167109523Y-60252380D01*
X167014285Y-60204761D01*
X166966666Y-60109523D01*
X166966666Y-60014285D01*
X167014285Y-59919047D01*
X167109523Y-59871428D01*
X167347619Y-59871428D01*
X167442857Y-59823809D01*
X167919047Y-60252380D02*
X167919047Y-59585714D01*
X167919047Y-59252380D02*
X167871428Y-59300000D01*
X167919047Y-59347619D01*
X167966666Y-59300000D01*
X167919047Y-59252380D01*
X167919047Y-59347619D01*
X168395238Y-59585714D02*
X168395238Y-60252380D01*
X168395238Y-59680952D02*
X168442857Y-59633333D01*
X168538095Y-59585714D01*
X168680952Y-59585714D01*
X168776190Y-59633333D01*
X168823809Y-59728571D01*
X168823809Y-60252380D01*
X147852380Y-151762857D02*
X147376190Y-152096190D01*
X147852380Y-152334285D02*
X146852380Y-152334285D01*
X146852380Y-151953333D01*
X146900000Y-151858095D01*
X146947619Y-151810476D01*
X147042857Y-151762857D01*
X147185714Y-151762857D01*
X147280952Y-151810476D01*
X147328571Y-151858095D01*
X147376190Y-151953333D01*
X147376190Y-152334285D01*
X146947619Y-151381904D02*
X146900000Y-151334285D01*
X146852380Y-151239047D01*
X146852380Y-151000952D01*
X146900000Y-150905714D01*
X146947619Y-150858095D01*
X147042857Y-150810476D01*
X147138095Y-150810476D01*
X147280952Y-150858095D01*
X147852380Y-151429523D01*
X147852380Y-150810476D01*
X146852380Y-150477142D02*
X146852380Y-149858095D01*
X147233333Y-150191428D01*
X147233333Y-150048571D01*
X147280952Y-149953333D01*
X147328571Y-149905714D01*
X147423809Y-149858095D01*
X147661904Y-149858095D01*
X147757142Y-149905714D01*
X147804761Y-149953333D01*
X147852380Y-150048571D01*
X147852380Y-150334285D01*
X147804761Y-150429523D01*
X147757142Y-150477142D01*
X143357142Y-87652380D02*
X143023809Y-87176190D01*
X142785714Y-87652380D02*
X142785714Y-86652380D01*
X143166666Y-86652380D01*
X143261904Y-86700000D01*
X143309523Y-86747619D01*
X143357142Y-86842857D01*
X143357142Y-86985714D01*
X143309523Y-87080952D01*
X143261904Y-87128571D01*
X143166666Y-87176190D01*
X142785714Y-87176190D01*
X143738095Y-86747619D02*
X143785714Y-86700000D01*
X143880952Y-86652380D01*
X144119047Y-86652380D01*
X144214285Y-86700000D01*
X144261904Y-86747619D01*
X144309523Y-86842857D01*
X144309523Y-86938095D01*
X144261904Y-87080952D01*
X143690476Y-87652380D01*
X144309523Y-87652380D01*
X144690476Y-86747619D02*
X144738095Y-86700000D01*
X144833333Y-86652380D01*
X145071428Y-86652380D01*
X145166666Y-86700000D01*
X145214285Y-86747619D01*
X145261904Y-86842857D01*
X145261904Y-86938095D01*
X145214285Y-87080952D01*
X144642857Y-87652380D01*
X145261904Y-87652380D01*
X138052380Y-74142857D02*
X137576190Y-74476190D01*
X138052380Y-74714285D02*
X137052380Y-74714285D01*
X137052380Y-74333333D01*
X137100000Y-74238095D01*
X137147619Y-74190476D01*
X137242857Y-74142857D01*
X137385714Y-74142857D01*
X137480952Y-74190476D01*
X137528571Y-74238095D01*
X137576190Y-74333333D01*
X137576190Y-74714285D01*
X137147619Y-73761904D02*
X137100000Y-73714285D01*
X137052380Y-73619047D01*
X137052380Y-73380952D01*
X137100000Y-73285714D01*
X137147619Y-73238095D01*
X137242857Y-73190476D01*
X137338095Y-73190476D01*
X137480952Y-73238095D01*
X138052380Y-73809523D01*
X138052380Y-73190476D01*
X138052380Y-72238095D02*
X138052380Y-72809523D01*
X138052380Y-72523809D02*
X137052380Y-72523809D01*
X137195238Y-72619047D01*
X137290476Y-72714285D01*
X137338095Y-72809523D01*
X141437142Y-91352380D02*
X141103809Y-90876190D01*
X140865714Y-91352380D02*
X140865714Y-90352380D01*
X141246666Y-90352380D01*
X141341904Y-90400000D01*
X141389523Y-90447619D01*
X141437142Y-90542857D01*
X141437142Y-90685714D01*
X141389523Y-90780952D01*
X141341904Y-90828571D01*
X141246666Y-90876190D01*
X140865714Y-90876190D01*
X141818095Y-90447619D02*
X141865714Y-90400000D01*
X141960952Y-90352380D01*
X142199047Y-90352380D01*
X142294285Y-90400000D01*
X142341904Y-90447619D01*
X142389523Y-90542857D01*
X142389523Y-90638095D01*
X142341904Y-90780952D01*
X141770476Y-91352380D01*
X142389523Y-91352380D01*
X143008571Y-90352380D02*
X143103809Y-90352380D01*
X143199047Y-90400000D01*
X143246666Y-90447619D01*
X143294285Y-90542857D01*
X143341904Y-90733333D01*
X143341904Y-90971428D01*
X143294285Y-91161904D01*
X143246666Y-91257142D01*
X143199047Y-91304761D01*
X143103809Y-91352380D01*
X143008571Y-91352380D01*
X142913333Y-91304761D01*
X142865714Y-91257142D01*
X142818095Y-91161904D01*
X142770476Y-90971428D01*
X142770476Y-90733333D01*
X142818095Y-90542857D01*
X142865714Y-90447619D01*
X142913333Y-90400000D01*
X143008571Y-90352380D01*
X137452380Y-101262857D02*
X136976190Y-101596190D01*
X137452380Y-101834285D02*
X136452380Y-101834285D01*
X136452380Y-101453333D01*
X136500000Y-101358095D01*
X136547619Y-101310476D01*
X136642857Y-101262857D01*
X136785714Y-101262857D01*
X136880952Y-101310476D01*
X136928571Y-101358095D01*
X136976190Y-101453333D01*
X136976190Y-101834285D01*
X137452380Y-100310476D02*
X137452380Y-100881904D01*
X137452380Y-100596190D02*
X136452380Y-100596190D01*
X136595238Y-100691428D01*
X136690476Y-100786666D01*
X136738095Y-100881904D01*
X137452380Y-99834285D02*
X137452380Y-99643809D01*
X137404761Y-99548571D01*
X137357142Y-99500952D01*
X137214285Y-99405714D01*
X137023809Y-99358095D01*
X136642857Y-99358095D01*
X136547619Y-99405714D01*
X136500000Y-99453333D01*
X136452380Y-99548571D01*
X136452380Y-99739047D01*
X136500000Y-99834285D01*
X136547619Y-99881904D01*
X136642857Y-99929523D01*
X136880952Y-99929523D01*
X136976190Y-99881904D01*
X137023809Y-99834285D01*
X137071428Y-99739047D01*
X137071428Y-99548571D01*
X137023809Y-99453333D01*
X136976190Y-99405714D01*
X136880952Y-99358095D01*
X157152380Y-88442857D02*
X156676190Y-88776190D01*
X157152380Y-89014285D02*
X156152380Y-89014285D01*
X156152380Y-88633333D01*
X156200000Y-88538095D01*
X156247619Y-88490476D01*
X156342857Y-88442857D01*
X156485714Y-88442857D01*
X156580952Y-88490476D01*
X156628571Y-88538095D01*
X156676190Y-88633333D01*
X156676190Y-89014285D01*
X157152380Y-87490476D02*
X157152380Y-88061904D01*
X157152380Y-87776190D02*
X156152380Y-87776190D01*
X156295238Y-87871428D01*
X156390476Y-87966666D01*
X156438095Y-88061904D01*
X156152380Y-87157142D02*
X156152380Y-86490476D01*
X157152380Y-86919047D01*
X164252380Y-118542857D02*
X163776190Y-118876190D01*
X164252380Y-119114285D02*
X163252380Y-119114285D01*
X163252380Y-118733333D01*
X163300000Y-118638095D01*
X163347619Y-118590476D01*
X163442857Y-118542857D01*
X163585714Y-118542857D01*
X163680952Y-118590476D01*
X163728571Y-118638095D01*
X163776190Y-118733333D01*
X163776190Y-119114285D01*
X164252380Y-117590476D02*
X164252380Y-118161904D01*
X164252380Y-117876190D02*
X163252380Y-117876190D01*
X163395238Y-117971428D01*
X163490476Y-118066666D01*
X163538095Y-118161904D01*
X163252380Y-116733333D02*
X163252380Y-116923809D01*
X163300000Y-117019047D01*
X163347619Y-117066666D01*
X163490476Y-117161904D01*
X163680952Y-117209523D01*
X164061904Y-117209523D01*
X164157142Y-117161904D01*
X164204761Y-117114285D01*
X164252380Y-117019047D01*
X164252380Y-116828571D01*
X164204761Y-116733333D01*
X164157142Y-116685714D01*
X164061904Y-116638095D01*
X163823809Y-116638095D01*
X163728571Y-116685714D01*
X163680952Y-116733333D01*
X163633333Y-116828571D01*
X163633333Y-117019047D01*
X163680952Y-117114285D01*
X163728571Y-117161904D01*
X163823809Y-117209523D01*
X168952380Y-118542857D02*
X168476190Y-118876190D01*
X168952380Y-119114285D02*
X167952380Y-119114285D01*
X167952380Y-118733333D01*
X168000000Y-118638095D01*
X168047619Y-118590476D01*
X168142857Y-118542857D01*
X168285714Y-118542857D01*
X168380952Y-118590476D01*
X168428571Y-118638095D01*
X168476190Y-118733333D01*
X168476190Y-119114285D01*
X168952380Y-117590476D02*
X168952380Y-118161904D01*
X168952380Y-117876190D02*
X167952380Y-117876190D01*
X168095238Y-117971428D01*
X168190476Y-118066666D01*
X168238095Y-118161904D01*
X167952380Y-116685714D02*
X167952380Y-117161904D01*
X168428571Y-117209523D01*
X168380952Y-117161904D01*
X168333333Y-117066666D01*
X168333333Y-116828571D01*
X168380952Y-116733333D01*
X168428571Y-116685714D01*
X168523809Y-116638095D01*
X168761904Y-116638095D01*
X168857142Y-116685714D01*
X168904761Y-116733333D01*
X168952380Y-116828571D01*
X168952380Y-117066666D01*
X168904761Y-117161904D01*
X168857142Y-117209523D01*
X171552380Y-86642857D02*
X171076190Y-86976190D01*
X171552380Y-87214285D02*
X170552380Y-87214285D01*
X170552380Y-86833333D01*
X170600000Y-86738095D01*
X170647619Y-86690476D01*
X170742857Y-86642857D01*
X170885714Y-86642857D01*
X170980952Y-86690476D01*
X171028571Y-86738095D01*
X171076190Y-86833333D01*
X171076190Y-87214285D01*
X171552380Y-85690476D02*
X171552380Y-86261904D01*
X171552380Y-85976190D02*
X170552380Y-85976190D01*
X170695238Y-86071428D01*
X170790476Y-86166666D01*
X170838095Y-86261904D01*
X170885714Y-84833333D02*
X171552380Y-84833333D01*
X170504761Y-85071428D02*
X171219047Y-85309523D01*
X171219047Y-84690476D01*
X173352380Y-118562857D02*
X172876190Y-118896190D01*
X173352380Y-119134285D02*
X172352380Y-119134285D01*
X172352380Y-118753333D01*
X172400000Y-118658095D01*
X172447619Y-118610476D01*
X172542857Y-118562857D01*
X172685714Y-118562857D01*
X172780952Y-118610476D01*
X172828571Y-118658095D01*
X172876190Y-118753333D01*
X172876190Y-119134285D01*
X173352380Y-117610476D02*
X173352380Y-118181904D01*
X173352380Y-117896190D02*
X172352380Y-117896190D01*
X172495238Y-117991428D01*
X172590476Y-118086666D01*
X172638095Y-118181904D01*
X172352380Y-117277142D02*
X172352380Y-116658095D01*
X172733333Y-116991428D01*
X172733333Y-116848571D01*
X172780952Y-116753333D01*
X172828571Y-116705714D01*
X172923809Y-116658095D01*
X173161904Y-116658095D01*
X173257142Y-116705714D01*
X173304761Y-116753333D01*
X173352380Y-116848571D01*
X173352380Y-117134285D01*
X173304761Y-117229523D01*
X173257142Y-117277142D01*
X159652380Y-98542857D02*
X159176190Y-98876190D01*
X159652380Y-99114285D02*
X158652380Y-99114285D01*
X158652380Y-98733333D01*
X158700000Y-98638095D01*
X158747619Y-98590476D01*
X158842857Y-98542857D01*
X158985714Y-98542857D01*
X159080952Y-98590476D01*
X159128571Y-98638095D01*
X159176190Y-98733333D01*
X159176190Y-99114285D01*
X159652380Y-97590476D02*
X159652380Y-98161904D01*
X159652380Y-97876190D02*
X158652380Y-97876190D01*
X158795238Y-97971428D01*
X158890476Y-98066666D01*
X158938095Y-98161904D01*
X158747619Y-97209523D02*
X158700000Y-97161904D01*
X158652380Y-97066666D01*
X158652380Y-96828571D01*
X158700000Y-96733333D01*
X158747619Y-96685714D01*
X158842857Y-96638095D01*
X158938095Y-96638095D01*
X159080952Y-96685714D01*
X159652380Y-97257142D01*
X159652380Y-96638095D01*
X141557142Y-109852380D02*
X141223809Y-109376190D01*
X140985714Y-109852380D02*
X140985714Y-108852380D01*
X141366666Y-108852380D01*
X141461904Y-108900000D01*
X141509523Y-108947619D01*
X141557142Y-109042857D01*
X141557142Y-109185714D01*
X141509523Y-109280952D01*
X141461904Y-109328571D01*
X141366666Y-109376190D01*
X140985714Y-109376190D01*
X142509523Y-109852380D02*
X141938095Y-109852380D01*
X142223809Y-109852380D02*
X142223809Y-108852380D01*
X142128571Y-108995238D01*
X142033333Y-109090476D01*
X141938095Y-109138095D01*
X143128571Y-108852380D02*
X143223809Y-108852380D01*
X143319047Y-108900000D01*
X143366666Y-108947619D01*
X143414285Y-109042857D01*
X143461904Y-109233333D01*
X143461904Y-109471428D01*
X143414285Y-109661904D01*
X143366666Y-109757142D01*
X143319047Y-109804761D01*
X143223809Y-109852380D01*
X143128571Y-109852380D01*
X143033333Y-109804761D01*
X142985714Y-109757142D01*
X142938095Y-109661904D01*
X142890476Y-109471428D01*
X142890476Y-109233333D01*
X142938095Y-109042857D01*
X142985714Y-108947619D01*
X143033333Y-108900000D01*
X143128571Y-108852380D01*
X126833333Y-85252380D02*
X126500000Y-84776190D01*
X126261904Y-85252380D02*
X126261904Y-84252380D01*
X126642857Y-84252380D01*
X126738095Y-84300000D01*
X126785714Y-84347619D01*
X126833333Y-84442857D01*
X126833333Y-84585714D01*
X126785714Y-84680952D01*
X126738095Y-84728571D01*
X126642857Y-84776190D01*
X126261904Y-84776190D01*
X127309523Y-85252380D02*
X127500000Y-85252380D01*
X127595238Y-85204761D01*
X127642857Y-85157142D01*
X127738095Y-85014285D01*
X127785714Y-84823809D01*
X127785714Y-84442857D01*
X127738095Y-84347619D01*
X127690476Y-84300000D01*
X127595238Y-84252380D01*
X127404761Y-84252380D01*
X127309523Y-84300000D01*
X127261904Y-84347619D01*
X127214285Y-84442857D01*
X127214285Y-84680952D01*
X127261904Y-84776190D01*
X127309523Y-84823809D01*
X127404761Y-84871428D01*
X127595238Y-84871428D01*
X127690476Y-84823809D01*
X127738095Y-84776190D01*
X127785714Y-84680952D01*
X148033333Y-94152380D02*
X147700000Y-93676190D01*
X147461904Y-94152380D02*
X147461904Y-93152380D01*
X147842857Y-93152380D01*
X147938095Y-93200000D01*
X147985714Y-93247619D01*
X148033333Y-93342857D01*
X148033333Y-93485714D01*
X147985714Y-93580952D01*
X147938095Y-93628571D01*
X147842857Y-93676190D01*
X147461904Y-93676190D01*
X148604761Y-93580952D02*
X148509523Y-93533333D01*
X148461904Y-93485714D01*
X148414285Y-93390476D01*
X148414285Y-93342857D01*
X148461904Y-93247619D01*
X148509523Y-93200000D01*
X148604761Y-93152380D01*
X148795238Y-93152380D01*
X148890476Y-93200000D01*
X148938095Y-93247619D01*
X148985714Y-93342857D01*
X148985714Y-93390476D01*
X148938095Y-93485714D01*
X148890476Y-93533333D01*
X148795238Y-93580952D01*
X148604761Y-93580952D01*
X148509523Y-93628571D01*
X148461904Y-93676190D01*
X148414285Y-93771428D01*
X148414285Y-93961904D01*
X148461904Y-94057142D01*
X148509523Y-94104761D01*
X148604761Y-94152380D01*
X148795238Y-94152380D01*
X148890476Y-94104761D01*
X148938095Y-94057142D01*
X148985714Y-93961904D01*
X148985714Y-93771428D01*
X148938095Y-93676190D01*
X148890476Y-93628571D01*
X148795238Y-93580952D01*
X127033333Y-81652380D02*
X126700000Y-81176190D01*
X126461904Y-81652380D02*
X126461904Y-80652380D01*
X126842857Y-80652380D01*
X126938095Y-80700000D01*
X126985714Y-80747619D01*
X127033333Y-80842857D01*
X127033333Y-80985714D01*
X126985714Y-81080952D01*
X126938095Y-81128571D01*
X126842857Y-81176190D01*
X126461904Y-81176190D01*
X127366666Y-80652380D02*
X128033333Y-80652380D01*
X127604761Y-81652380D01*
X157552380Y-73086666D02*
X157076190Y-73420000D01*
X157552380Y-73658095D02*
X156552380Y-73658095D01*
X156552380Y-73277142D01*
X156600000Y-73181904D01*
X156647619Y-73134285D01*
X156742857Y-73086666D01*
X156885714Y-73086666D01*
X156980952Y-73134285D01*
X157028571Y-73181904D01*
X157076190Y-73277142D01*
X157076190Y-73658095D01*
X156552380Y-72229523D02*
X156552380Y-72420000D01*
X156600000Y-72515238D01*
X156647619Y-72562857D01*
X156790476Y-72658095D01*
X156980952Y-72705714D01*
X157361904Y-72705714D01*
X157457142Y-72658095D01*
X157504761Y-72610476D01*
X157552380Y-72515238D01*
X157552380Y-72324761D01*
X157504761Y-72229523D01*
X157457142Y-72181904D01*
X157361904Y-72134285D01*
X157123809Y-72134285D01*
X157028571Y-72181904D01*
X156980952Y-72229523D01*
X156933333Y-72324761D01*
X156933333Y-72515238D01*
X156980952Y-72610476D01*
X157028571Y-72658095D01*
X157123809Y-72705714D01*
X142133333Y-113052380D02*
X141800000Y-112576190D01*
X141561904Y-113052380D02*
X141561904Y-112052380D01*
X141942857Y-112052380D01*
X142038095Y-112100000D01*
X142085714Y-112147619D01*
X142133333Y-112242857D01*
X142133333Y-112385714D01*
X142085714Y-112480952D01*
X142038095Y-112528571D01*
X141942857Y-112576190D01*
X141561904Y-112576190D01*
X143038095Y-112052380D02*
X142561904Y-112052380D01*
X142514285Y-112528571D01*
X142561904Y-112480952D01*
X142657142Y-112433333D01*
X142895238Y-112433333D01*
X142990476Y-112480952D01*
X143038095Y-112528571D01*
X143085714Y-112623809D01*
X143085714Y-112861904D01*
X143038095Y-112957142D01*
X142990476Y-113004761D01*
X142895238Y-113052380D01*
X142657142Y-113052380D01*
X142561904Y-113004761D01*
X142514285Y-112957142D01*
X127733333Y-102752380D02*
X127400000Y-102276190D01*
X127161904Y-102752380D02*
X127161904Y-101752380D01*
X127542857Y-101752380D01*
X127638095Y-101800000D01*
X127685714Y-101847619D01*
X127733333Y-101942857D01*
X127733333Y-102085714D01*
X127685714Y-102180952D01*
X127638095Y-102228571D01*
X127542857Y-102276190D01*
X127161904Y-102276190D01*
X128590476Y-102085714D02*
X128590476Y-102752380D01*
X128352380Y-101704761D02*
X128114285Y-102419047D01*
X128733333Y-102419047D01*
X127613333Y-99452380D02*
X127280000Y-98976190D01*
X127041904Y-99452380D02*
X127041904Y-98452380D01*
X127422857Y-98452380D01*
X127518095Y-98500000D01*
X127565714Y-98547619D01*
X127613333Y-98642857D01*
X127613333Y-98785714D01*
X127565714Y-98880952D01*
X127518095Y-98928571D01*
X127422857Y-98976190D01*
X127041904Y-98976190D01*
X127946666Y-98452380D02*
X128565714Y-98452380D01*
X128232380Y-98833333D01*
X128375238Y-98833333D01*
X128470476Y-98880952D01*
X128518095Y-98928571D01*
X128565714Y-99023809D01*
X128565714Y-99261904D01*
X128518095Y-99357142D01*
X128470476Y-99404761D01*
X128375238Y-99452380D01*
X128089523Y-99452380D01*
X127994285Y-99404761D01*
X127946666Y-99357142D01*
X131252380Y-117366666D02*
X130776190Y-117700000D01*
X131252380Y-117938095D02*
X130252380Y-117938095D01*
X130252380Y-117557142D01*
X130300000Y-117461904D01*
X130347619Y-117414285D01*
X130442857Y-117366666D01*
X130585714Y-117366666D01*
X130680952Y-117414285D01*
X130728571Y-117461904D01*
X130776190Y-117557142D01*
X130776190Y-117938095D01*
X130347619Y-116985714D02*
X130300000Y-116938095D01*
X130252380Y-116842857D01*
X130252380Y-116604761D01*
X130300000Y-116509523D01*
X130347619Y-116461904D01*
X130442857Y-116414285D01*
X130538095Y-116414285D01*
X130680952Y-116461904D01*
X131252380Y-117033333D01*
X131252380Y-116414285D01*
X122152380Y-117266666D02*
X121676190Y-117600000D01*
X122152380Y-117838095D02*
X121152380Y-117838095D01*
X121152380Y-117457142D01*
X121200000Y-117361904D01*
X121247619Y-117314285D01*
X121342857Y-117266666D01*
X121485714Y-117266666D01*
X121580952Y-117314285D01*
X121628571Y-117361904D01*
X121676190Y-117457142D01*
X121676190Y-117838095D01*
X122152380Y-116314285D02*
X122152380Y-116885714D01*
X122152380Y-116600000D02*
X121152380Y-116600000D01*
X121295238Y-116695238D01*
X121390476Y-116790476D01*
X121438095Y-116885714D01*
X135404761Y-83547619D02*
X135309523Y-83500000D01*
X135214285Y-83404761D01*
X135071428Y-83261904D01*
X134976190Y-83214285D01*
X134880952Y-83214285D01*
X134928571Y-83452380D02*
X134833333Y-83404761D01*
X134738095Y-83309523D01*
X134690476Y-83119047D01*
X134690476Y-82785714D01*
X134738095Y-82595238D01*
X134833333Y-82500000D01*
X134928571Y-82452380D01*
X135119047Y-82452380D01*
X135214285Y-82500000D01*
X135309523Y-82595238D01*
X135357142Y-82785714D01*
X135357142Y-83119047D01*
X135309523Y-83309523D01*
X135214285Y-83404761D01*
X135119047Y-83452380D01*
X134928571Y-83452380D01*
X136214285Y-82785714D02*
X136214285Y-83452380D01*
X135976190Y-82404761D02*
X135738095Y-83119047D01*
X136357142Y-83119047D01*
X169507619Y-108985238D02*
X169460000Y-109080476D01*
X169364761Y-109175714D01*
X169221904Y-109318571D01*
X169174285Y-109413809D01*
X169174285Y-109509047D01*
X169412380Y-109461428D02*
X169364761Y-109556666D01*
X169269523Y-109651904D01*
X169079047Y-109699523D01*
X168745714Y-109699523D01*
X168555238Y-109651904D01*
X168460000Y-109556666D01*
X168412380Y-109461428D01*
X168412380Y-109270952D01*
X168460000Y-109175714D01*
X168555238Y-109080476D01*
X168745714Y-109032857D01*
X169079047Y-109032857D01*
X169269523Y-109080476D01*
X169364761Y-109175714D01*
X169412380Y-109270952D01*
X169412380Y-109461428D01*
X168412380Y-108699523D02*
X168412380Y-108080476D01*
X168793333Y-108413809D01*
X168793333Y-108270952D01*
X168840952Y-108175714D01*
X168888571Y-108128095D01*
X168983809Y-108080476D01*
X169221904Y-108080476D01*
X169317142Y-108128095D01*
X169364761Y-108175714D01*
X169412380Y-108270952D01*
X169412380Y-108556666D01*
X169364761Y-108651904D01*
X169317142Y-108699523D01*
X132804761Y-91447619D02*
X132709523Y-91400000D01*
X132614285Y-91304761D01*
X132471428Y-91161904D01*
X132376190Y-91114285D01*
X132280952Y-91114285D01*
X132328571Y-91352380D02*
X132233333Y-91304761D01*
X132138095Y-91209523D01*
X132090476Y-91019047D01*
X132090476Y-90685714D01*
X132138095Y-90495238D01*
X132233333Y-90400000D01*
X132328571Y-90352380D01*
X132519047Y-90352380D01*
X132614285Y-90400000D01*
X132709523Y-90495238D01*
X132757142Y-90685714D01*
X132757142Y-91019047D01*
X132709523Y-91209523D01*
X132614285Y-91304761D01*
X132519047Y-91352380D01*
X132328571Y-91352380D01*
X133709523Y-91352380D02*
X133138095Y-91352380D01*
X133423809Y-91352380D02*
X133423809Y-90352380D01*
X133328571Y-90495238D01*
X133233333Y-90590476D01*
X133138095Y-90638095D01*
X138952380Y-60838095D02*
X137952380Y-60838095D01*
X137952380Y-60600000D01*
X138000000Y-60457142D01*
X138095238Y-60361904D01*
X138190476Y-60314285D01*
X138380952Y-60266666D01*
X138523809Y-60266666D01*
X138714285Y-60314285D01*
X138809523Y-60361904D01*
X138904761Y-60457142D01*
X138952380Y-60600000D01*
X138952380Y-60838095D01*
X137952380Y-59933333D02*
X137952380Y-59266666D01*
X138952380Y-59695238D01*
X140752380Y-56161904D02*
X139752380Y-56161904D01*
X140752380Y-55590476D02*
X140180952Y-56019047D01*
X139752380Y-55590476D02*
X140323809Y-56161904D01*
X135652380Y-60938095D02*
X134652380Y-60938095D01*
X134652380Y-60700000D01*
X134700000Y-60557142D01*
X134795238Y-60461904D01*
X134890476Y-60414285D01*
X135080952Y-60366666D01*
X135223809Y-60366666D01*
X135414285Y-60414285D01*
X135509523Y-60461904D01*
X135604761Y-60557142D01*
X135652380Y-60700000D01*
X135652380Y-60938095D01*
X134652380Y-59509523D02*
X134652380Y-59700000D01*
X134700000Y-59795238D01*
X134747619Y-59842857D01*
X134890476Y-59938095D01*
X135080952Y-59985714D01*
X135461904Y-59985714D01*
X135557142Y-59938095D01*
X135604761Y-59890476D01*
X135652380Y-59795238D01*
X135652380Y-59604761D01*
X135604761Y-59509523D01*
X135557142Y-59461904D01*
X135461904Y-59414285D01*
X135223809Y-59414285D01*
X135128571Y-59461904D01*
X135080952Y-59509523D01*
X135033333Y-59604761D01*
X135033333Y-59795238D01*
X135080952Y-59890476D01*
X135128571Y-59938095D01*
X135223809Y-59985714D01*
X133952380Y-56161904D02*
X132952380Y-56161904D01*
X133952380Y-55590476D02*
X133380952Y-56019047D01*
X132952380Y-55590476D02*
X133523809Y-56161904D01*
X144695238Y-141928571D02*
X145028571Y-141928571D01*
X145171428Y-142452380D02*
X144695238Y-142452380D01*
X144695238Y-141452380D01*
X145171428Y-141452380D01*
X145933333Y-141928571D02*
X145600000Y-141928571D01*
X145600000Y-142452380D02*
X145600000Y-141452380D01*
X146076190Y-141452380D01*
X146790476Y-141928571D02*
X146457142Y-141928571D01*
X146457142Y-142452380D02*
X146457142Y-141452380D01*
X146933333Y-141452380D01*
X147314285Y-141928571D02*
X147647619Y-141928571D01*
X147790476Y-142452380D02*
X147314285Y-142452380D01*
X147314285Y-141452380D01*
X147790476Y-141452380D01*
X148790476Y-142357142D02*
X148742857Y-142404761D01*
X148600000Y-142452380D01*
X148504761Y-142452380D01*
X148361904Y-142404761D01*
X148266666Y-142309523D01*
X148219047Y-142214285D01*
X148171428Y-142023809D01*
X148171428Y-141880952D01*
X148219047Y-141690476D01*
X148266666Y-141595238D01*
X148361904Y-141500000D01*
X148504761Y-141452380D01*
X148600000Y-141452380D01*
X148742857Y-141500000D01*
X148790476Y-141547619D01*
X149076190Y-141452380D02*
X149647619Y-141452380D01*
X149361904Y-142452380D02*
X149361904Y-141452380D01*
X166461904Y-105352380D02*
X166461904Y-104352380D01*
X166700000Y-104352380D01*
X166842857Y-104400000D01*
X166938095Y-104495238D01*
X166985714Y-104590476D01*
X167033333Y-104780952D01*
X167033333Y-104923809D01*
X166985714Y-105114285D01*
X166938095Y-105209523D01*
X166842857Y-105304761D01*
X166700000Y-105352380D01*
X166461904Y-105352380D01*
X167890476Y-104685714D02*
X167890476Y-105352380D01*
X167652380Y-104304761D02*
X167414285Y-105019047D01*
X168033333Y-105019047D01*
X170838095Y-107152380D02*
X170838095Y-106152380D01*
X171409523Y-107152380D02*
X170980952Y-106580952D01*
X171409523Y-106152380D02*
X170838095Y-106723809D01*
X166551904Y-102352380D02*
X166551904Y-101352380D01*
X166790000Y-101352380D01*
X166932857Y-101400000D01*
X167028095Y-101495238D01*
X167075714Y-101590476D01*
X167123333Y-101780952D01*
X167123333Y-101923809D01*
X167075714Y-102114285D01*
X167028095Y-102209523D01*
X166932857Y-102304761D01*
X166790000Y-102352380D01*
X166551904Y-102352380D01*
X167456666Y-101352380D02*
X168075714Y-101352380D01*
X167742380Y-101733333D01*
X167885238Y-101733333D01*
X167980476Y-101780952D01*
X168028095Y-101828571D01*
X168075714Y-101923809D01*
X168075714Y-102161904D01*
X168028095Y-102257142D01*
X167980476Y-102304761D01*
X167885238Y-102352380D01*
X167599523Y-102352380D01*
X167504285Y-102304761D01*
X167456666Y-102257142D01*
X161438095Y-102352380D02*
X161438095Y-101352380D01*
X162009523Y-102352380D02*
X161580952Y-101780952D01*
X162009523Y-101352380D02*
X161438095Y-101923809D01*
X142361904Y-104052380D02*
X142361904Y-103052380D01*
X142600000Y-103052380D01*
X142742857Y-103100000D01*
X142838095Y-103195238D01*
X142885714Y-103290476D01*
X142933333Y-103480952D01*
X142933333Y-103623809D01*
X142885714Y-103814285D01*
X142838095Y-103909523D01*
X142742857Y-104004761D01*
X142600000Y-104052380D01*
X142361904Y-104052380D01*
X143314285Y-103147619D02*
X143361904Y-103100000D01*
X143457142Y-103052380D01*
X143695238Y-103052380D01*
X143790476Y-103100000D01*
X143838095Y-103147619D01*
X143885714Y-103242857D01*
X143885714Y-103338095D01*
X143838095Y-103480952D01*
X143266666Y-104052380D01*
X143885714Y-104052380D01*
X148438095Y-104052380D02*
X148438095Y-103052380D01*
X149009523Y-104052380D02*
X148580952Y-103480952D01*
X149009523Y-103052380D02*
X148438095Y-103623809D01*
X142861904Y-106952380D02*
X142861904Y-105952380D01*
X143100000Y-105952380D01*
X143242857Y-106000000D01*
X143338095Y-106095238D01*
X143385714Y-106190476D01*
X143433333Y-106380952D01*
X143433333Y-106523809D01*
X143385714Y-106714285D01*
X143338095Y-106809523D01*
X143242857Y-106904761D01*
X143100000Y-106952380D01*
X142861904Y-106952380D01*
X144385714Y-106952380D02*
X143814285Y-106952380D01*
X144100000Y-106952380D02*
X144100000Y-105952380D01*
X144004761Y-106095238D01*
X143909523Y-106190476D01*
X143814285Y-106238095D01*
X137738095Y-107952380D02*
X137738095Y-106952380D01*
X138309523Y-107952380D02*
X137880952Y-107380952D01*
X138309523Y-106952380D02*
X137738095Y-107523809D01*
X163233333Y-94757142D02*
X163185714Y-94804761D01*
X163042857Y-94852380D01*
X162947619Y-94852380D01*
X162804761Y-94804761D01*
X162709523Y-94709523D01*
X162661904Y-94614285D01*
X162614285Y-94423809D01*
X162614285Y-94280952D01*
X162661904Y-94090476D01*
X162709523Y-93995238D01*
X162804761Y-93900000D01*
X162947619Y-93852380D01*
X163042857Y-93852380D01*
X163185714Y-93900000D01*
X163233333Y-93947619D01*
X163804761Y-94280952D02*
X163709523Y-94233333D01*
X163661904Y-94185714D01*
X163614285Y-94090476D01*
X163614285Y-94042857D01*
X163661904Y-93947619D01*
X163709523Y-93900000D01*
X163804761Y-93852380D01*
X163995238Y-93852380D01*
X164090476Y-93900000D01*
X164138095Y-93947619D01*
X164185714Y-94042857D01*
X164185714Y-94090476D01*
X164138095Y-94185714D01*
X164090476Y-94233333D01*
X163995238Y-94280952D01*
X163804761Y-94280952D01*
X163709523Y-94328571D01*
X163661904Y-94376190D01*
X163614285Y-94471428D01*
X163614285Y-94661904D01*
X163661904Y-94757142D01*
X163709523Y-94804761D01*
X163804761Y-94852380D01*
X163995238Y-94852380D01*
X164090476Y-94804761D01*
X164138095Y-94757142D01*
X164185714Y-94661904D01*
X164185714Y-94471428D01*
X164138095Y-94376190D01*
X164090476Y-94328571D01*
X163995238Y-94280952D01*
X142133333Y-95607142D02*
X142085714Y-95654761D01*
X141942857Y-95702380D01*
X141847619Y-95702380D01*
X141704761Y-95654761D01*
X141609523Y-95559523D01*
X141561904Y-95464285D01*
X141514285Y-95273809D01*
X141514285Y-95130952D01*
X141561904Y-94940476D01*
X141609523Y-94845238D01*
X141704761Y-94750000D01*
X141847619Y-94702380D01*
X141942857Y-94702380D01*
X142085714Y-94750000D01*
X142133333Y-94797619D01*
X143038095Y-94702380D02*
X142561904Y-94702380D01*
X142514285Y-95178571D01*
X142561904Y-95130952D01*
X142657142Y-95083333D01*
X142895238Y-95083333D01*
X142990476Y-95130952D01*
X143038095Y-95178571D01*
X143085714Y-95273809D01*
X143085714Y-95511904D01*
X143038095Y-95607142D01*
X142990476Y-95654761D01*
X142895238Y-95702380D01*
X142657142Y-95702380D01*
X142561904Y-95654761D01*
X142514285Y-95607142D01*
X126433333Y-118407142D02*
X126385714Y-118454761D01*
X126242857Y-118502380D01*
X126147619Y-118502380D01*
X126004761Y-118454761D01*
X125909523Y-118359523D01*
X125861904Y-118264285D01*
X125814285Y-118073809D01*
X125814285Y-117930952D01*
X125861904Y-117740476D01*
X125909523Y-117645238D01*
X126004761Y-117550000D01*
X126147619Y-117502380D01*
X126242857Y-117502380D01*
X126385714Y-117550000D01*
X126433333Y-117597619D01*
X127385714Y-118502380D02*
X126814285Y-118502380D01*
X127100000Y-118502380D02*
X127100000Y-117502380D01*
X127004761Y-117645238D01*
X126909523Y-117740476D01*
X126814285Y-117788095D01*
M02*
