M48
; DRILL file {KiCad 5.1.6} date Fri Sep 18 17:18:20 2020
; FORMAT={-:-/ absolute / inch / decimal}
; #@! TF.CreationDate,2020-09-18T17:18:20+02:00
; #@! TF.GenerationSoftware,Kicad,Pcbnew,5.1.6
; #@! TF.FileFunction,Plated,1,2,PTH
FMAT,2
INCH
T1C0.0157
T2C0.0315
T3C0.0354
T4C0.0394
T5C0.0472
%
G90
G05
T1
X4.9843Y-3.7283
X4.9843Y-3.811
X4.9843Y-3.8898
X4.9843Y-3.9685
X4.9843Y-4.0551
X4.9843Y-4.1654
X5.0669Y-3.0118
X5.2008Y-2.7362
X5.2717Y-3.2598
X5.374Y-3.4055
X5.4173Y-3.8858
X5.4173Y-3.9409
X5.4173Y-3.9921
X5.4291Y-4.5906
X5.4291Y-4.7717
X5.4291Y-4.9606
X5.4331Y-3.563
X5.563Y-3.1299
X5.6693Y-4.5787
X5.6732Y-4.0748
X5.6732Y-4.126
X5.6732Y-4.1772
X5.6732Y-4.9606
X5.6772Y-3.9803
X5.7835Y-3.9094
X5.8819Y-4.5827
X5.9134Y-3.7087
X5.9134Y-3.7598
X6.0472Y-3.8701
X6.0472Y-3.9173
X6.1181Y-4.5906
X6.1339Y-4.7835
T2
X4.7598Y-3.8386
X5.1598Y-3.8386
X5.7756Y-2.5236
X5.8543Y-2.5236
X5.9031Y-4.3543
X6.3031Y-4.3543
X5.3976Y-4.2244
X5.7976Y-4.2244
X4.8307Y-3.6654
X5.0276Y-3.6654
X6.1929Y-2.3205
X6.1929Y-2.7205
X6.5354Y-3.1614
X6.5354Y-3.3583
X5.7441Y-3.8031
X6.1441Y-3.8031
X4.9449Y-4.4409
X5.0236Y-4.4409
X6.1614Y-3.0331
X6.1614Y-3.4331
X6.2953Y-3.4543
X6.2953Y-3.8543
X5.437Y-2.915
X5.437Y-3.315
X6.4488Y-4.3835
X6.4488Y-4.7835
X4.7598Y-3.1299
X5.1598Y-3.1299
X5.2835Y-3.8795
X5.2835Y-4.2795
X5.9882Y-2.7362
X5.9882Y-2.9331
X6.4882Y-3.5354
X6.4882Y-3.6142
X4.7614Y-3.9882
X5.1614Y-3.9882
X5.3661Y-2.315
X5.3661Y-2.615
X5.0276Y-2.874
X5.2244Y-2.874
X6.2677Y-4.2205
X6.4646Y-4.2205
X6.752Y-3.0236
X6.752Y-3.4236
X4.7598Y-3.0
X5.1598Y-3.0
X6.6181Y-4.252
X6.7181Y-4.252
X6.8181Y-4.252
X5.2323Y-3.5354
X5.2323Y-3.6354
X5.2323Y-3.7354
X5.0Y-3.2598
X5.0Y-3.4567
X4.7913Y-4.3504
X4.7913Y-4.7504
X4.8937Y-4.185
X5.0906Y-4.185
X6.1693Y-4.0079
X6.3661Y-4.0079
X5.1496Y-4.3504
X5.1496Y-4.7504
X5.7087Y-2.2795
X5.9055Y-2.2795
X6.622Y-3.7795
X6.8189Y-3.7795
X5.6457Y-3.6693
X6.0457Y-3.6693
X5.4331Y-3.4724
X5.4331Y-3.6693
X5.8031Y-5.6906
X5.8031Y-6.0906
X6.8071Y-4.3835
X6.8071Y-4.7835
X6.6299Y-4.3835
X6.6299Y-4.7835
X5.5039Y-3.8228
X5.5827Y-3.8228
X6.5189Y-3.9646
X6.8189Y-3.9646
X5.4961Y-4.1063
X5.7961Y-4.1063
X5.4953Y-4.0
X5.7953Y-4.0
X6.5189Y-4.0827
X6.8189Y-4.0827
X6.315Y-2.8441
X6.315Y-3.2441
X5.9724Y-4.0157
X5.9724Y-4.1157
X5.9724Y-4.2157
X5.5039Y-2.311
X5.5039Y-2.711
X5.3976Y-4.3543
X5.7976Y-4.3543
X5.126Y-3.315
X5.226Y-3.315
X5.326Y-3.315
T3
X5.7402Y-5.3583
X5.8402Y-5.3583
T4
X5.6929Y-3.5433
X5.7913Y-3.5433
X5.8898Y-3.5433
X4.8346Y-5.122
X4.9346Y-5.122
X5.0346Y-5.122
X5.1346Y-5.122
X4.8346Y-4.8701
X4.9346Y-4.8701
X5.0346Y-4.8701
X5.1346Y-4.8701
X6.1535Y-2.0748
X6.4961Y-2.7362
X6.5945Y-2.7362
X6.6929Y-2.7362
X4.8937Y-2.7362
X4.9921Y-2.7362
X5.0906Y-2.7362
T5
X5.3819Y-2.0748
X5.4819Y-2.0748
X5.5819Y-2.0748
T5
G00X4.9626Y-5.2907
M15
G01X4.8681Y-5.2907
M16
G05
G00X4.9626Y-5.9297
M15
G01X4.8681Y-5.9297
M16
G05
G00X5.2126Y-5.2907
M15
G01X5.1181Y-5.2907
M16
G05
G00X5.2126Y-5.9297
M15
G01X5.1181Y-5.9297
M16
G05
G00X5.4626Y-5.2907
M15
G01X5.3681Y-5.2907
M16
G05
G00X5.4626Y-5.9297
M15
G01X5.3681Y-5.9297
M16
G05
G00X6.124Y-5.2907
M15
G01X6.2185Y-5.2907
M16
G05
G00X6.124Y-5.9297
M15
G01X6.2185Y-5.9297
M16
G05
G00X6.374Y-5.2907
M15
G01X6.4685Y-5.2907
M16
G05
G00X6.374Y-5.9297
M15
G01X6.4685Y-5.9297
M16
G05
G00X6.624Y-5.2907
M15
G01X6.7185Y-5.2907
M16
G05
G00X6.624Y-5.9297
M15
G01X6.7185Y-5.9297
M16
G05
G00X5.5394Y-4.689
M15
G01X5.5866Y-4.689
M16
G05
G00X5.5394Y-4.878
M15
G01X5.5866Y-4.878
M16
G05
G00X5.5394Y-5.0669
M15
G01X5.5866Y-5.0669
M16
G05
G00X5.748Y-4.689
M15
G01X5.7953Y-4.689
M16
G05
G00X5.748Y-4.878
M15
G01X5.7953Y-4.878
M16
G05
G00X5.748Y-5.0669
M15
G01X5.7953Y-5.0669
M16
G05
G00X5.9567Y-4.689
M15
G01X6.0039Y-4.689
M16
G05
G00X5.9567Y-4.878
M15
G01X6.0039Y-4.878
M16
G05
G00X5.9567Y-5.0669
M15
G01X6.0039Y-5.0669
M16
G05
T0
M30
