G04 #@! TF.GenerationSoftware,KiCad,Pcbnew,5.1.6*
G04 #@! TF.CreationDate,2020-09-18T17:18:22+02:00*
G04 #@! TF.ProjectId,bigmuff,6269676d-7566-4662-9e6b-696361645f70,rev?*
G04 #@! TF.SameCoordinates,Original*
G04 #@! TF.FileFunction,Legend,Top*
G04 #@! TF.FilePolarity,Positive*
%FSLAX46Y46*%
G04 Gerber Fmt 4.6, Leading zero omitted, Abs format (unit mm)*
G04 Created by KiCad (PCBNEW 5.1.6) date 2020-09-18 17:18:22*
%MOMM*%
%LPD*%
G01*
G04 APERTURE LIST*
%ADD10C,0.120000*%
%ADD11C,0.150000*%
G04 APERTURE END LIST*
D10*
X136800000Y-132400000D02*
X156400000Y-132400000D01*
X136800000Y-115400000D02*
X136800000Y-132400000D01*
X156400000Y-115400000D02*
X136800000Y-115400000D01*
X156400000Y-132400000D02*
X156400000Y-115400000D01*
X121779000Y-68620000D02*
X121779000Y-64683000D01*
X121779000Y-60316000D02*
X121779000Y-56380000D01*
X131820000Y-68620000D02*
X131820000Y-64683000D01*
X131820000Y-60316000D02*
X131820000Y-56380000D01*
X121779000Y-68620000D02*
X123429000Y-68620000D01*
X125171000Y-68620000D02*
X125930000Y-68620000D01*
X127671000Y-68620000D02*
X128430000Y-68620000D01*
X130170000Y-68620000D02*
X131820000Y-68620000D01*
X121779000Y-56380000D02*
X131820000Y-56380000D01*
X162479000Y-68620000D02*
X162479000Y-64683000D01*
X162479000Y-60316000D02*
X162479000Y-56380000D01*
X172520000Y-68620000D02*
X172520000Y-64683000D01*
X172520000Y-60316000D02*
X172520000Y-56380000D01*
X162479000Y-68620000D02*
X164129000Y-68620000D01*
X165871000Y-68620000D02*
X166630000Y-68620000D01*
X168371000Y-68620000D02*
X169130000Y-68620000D01*
X170870000Y-68620000D02*
X172520000Y-68620000D01*
X162479000Y-56380000D02*
X172520000Y-56380000D01*
X155130000Y-85390000D02*
X157870000Y-85390000D01*
X157870000Y-85390000D02*
X157870000Y-78850000D01*
X157870000Y-78850000D02*
X155130000Y-78850000D01*
X155130000Y-78850000D02*
X155130000Y-85390000D01*
X156500000Y-86160000D02*
X156500000Y-85390000D01*
X156500000Y-78080000D02*
X156500000Y-78850000D01*
X170400000Y-74300000D02*
X170400000Y-71900000D01*
X170400000Y-71900000D02*
X172800000Y-71900000D01*
X172800000Y-71900000D02*
X172800000Y-74300000D01*
X172800000Y-74300000D02*
X170400000Y-74300000D01*
X174420000Y-98370000D02*
X166980000Y-98370000D01*
X174420000Y-93630000D02*
X166980000Y-93630000D01*
X174420000Y-98370000D02*
X174420000Y-93630000D01*
X166980000Y-98370000D02*
X166980000Y-93630000D01*
X155480000Y-99430000D02*
X162920000Y-99430000D01*
X155480000Y-104170000D02*
X162920000Y-104170000D01*
X155480000Y-99430000D02*
X155480000Y-104170000D01*
X162920000Y-99430000D02*
X162920000Y-104170000D01*
X158290000Y-111970000D02*
X158290000Y-109230000D01*
X158290000Y-109230000D02*
X151750000Y-109230000D01*
X151750000Y-109230000D02*
X151750000Y-111970000D01*
X151750000Y-111970000D02*
X158290000Y-111970000D01*
X159060000Y-110600000D02*
X158290000Y-110600000D01*
X150980000Y-110600000D02*
X151750000Y-110600000D01*
X125630000Y-89020000D02*
X125630000Y-81580000D01*
X128370000Y-89020000D02*
X128370000Y-81580000D01*
X125630000Y-89020000D02*
X128370000Y-89020000D01*
X125630000Y-81580000D02*
X128370000Y-81580000D01*
X136630000Y-94420000D02*
X136630000Y-86980000D01*
X139370000Y-94420000D02*
X139370000Y-86980000D01*
X136630000Y-94420000D02*
X139370000Y-94420000D01*
X136630000Y-86980000D02*
X139370000Y-86980000D01*
X163130000Y-86520000D02*
X163130000Y-79080000D01*
X168870000Y-86520000D02*
X168870000Y-79080000D01*
X163130000Y-86520000D02*
X168870000Y-86520000D01*
X163130000Y-79080000D02*
X168870000Y-79080000D01*
X149730000Y-75720000D02*
X149730000Y-68280000D01*
X154470000Y-75720000D02*
X154470000Y-68280000D01*
X149730000Y-75720000D02*
X154470000Y-75720000D01*
X149730000Y-68280000D02*
X154470000Y-68280000D01*
X165420000Y-108570000D02*
X157980000Y-108570000D01*
X165420000Y-105830000D02*
X157980000Y-105830000D01*
X165420000Y-108570000D02*
X165420000Y-105830000D01*
X157980000Y-108570000D02*
X157980000Y-105830000D01*
X126480000Y-71630000D02*
X133920000Y-71630000D01*
X126480000Y-74370000D02*
X133920000Y-74370000D01*
X126480000Y-71630000D02*
X126480000Y-74370000D01*
X133920000Y-71630000D02*
X133920000Y-74370000D01*
X130520000Y-109170000D02*
X123080000Y-109170000D01*
X130520000Y-103430000D02*
X123080000Y-103430000D01*
X130520000Y-109170000D02*
X130520000Y-103430000D01*
X123080000Y-109170000D02*
X123080000Y-103430000D01*
X121480000Y-90730000D02*
X128920000Y-90730000D01*
X121480000Y-95470000D02*
X128920000Y-95470000D01*
X121480000Y-90730000D02*
X121480000Y-95470000D01*
X128920000Y-90730000D02*
X128920000Y-95470000D01*
X142079000Y-89120000D02*
X142079000Y-85183000D01*
X142079000Y-80816000D02*
X142079000Y-76880000D01*
X152120000Y-89120000D02*
X152120000Y-85183000D01*
X152120000Y-80816000D02*
X152120000Y-76880000D01*
X142079000Y-89120000D02*
X143729000Y-89120000D01*
X145471000Y-89120000D02*
X146230000Y-89120000D01*
X147971000Y-89120000D02*
X148730000Y-89120000D01*
X150470000Y-89120000D02*
X152120000Y-89120000D01*
X142079000Y-76880000D02*
X152120000Y-76880000D01*
X135100000Y-69400000D02*
X137500000Y-69400000D01*
X137500000Y-69400000D02*
X137500000Y-71800000D01*
X137500000Y-71800000D02*
X135100000Y-71800000D01*
X135100000Y-71800000D02*
X135100000Y-69400000D01*
X146400000Y-73900000D02*
X148800000Y-73900000D01*
X148800000Y-73900000D02*
X148800000Y-76300000D01*
X148800000Y-76300000D02*
X146400000Y-76300000D01*
X146400000Y-76300000D02*
X146400000Y-73900000D01*
X120200000Y-81600000D02*
X122600000Y-81600000D01*
X122600000Y-81600000D02*
X122600000Y-84000000D01*
X122600000Y-84000000D02*
X120200000Y-84000000D01*
X120200000Y-84000000D02*
X120200000Y-81600000D01*
X122500000Y-105000000D02*
X122500000Y-107400000D01*
X122500000Y-107400000D02*
X120100000Y-107400000D01*
X120100000Y-107400000D02*
X120100000Y-105000000D01*
X120100000Y-105000000D02*
X122500000Y-105000000D01*
X125000000Y-119000000D02*
X127400000Y-119000000D01*
X127400000Y-119000000D02*
X127400000Y-121400000D01*
X127400000Y-121400000D02*
X125000000Y-121400000D01*
X125000000Y-121400000D02*
X125000000Y-119000000D01*
X146030000Y-152890000D02*
X148770000Y-152890000D01*
X148770000Y-152890000D02*
X148770000Y-146350000D01*
X148770000Y-146350000D02*
X146030000Y-146350000D01*
X146030000Y-146350000D02*
X146030000Y-152890000D01*
X147400000Y-153660000D02*
X147400000Y-152890000D01*
X147400000Y-145580000D02*
X147400000Y-146350000D01*
X136730000Y-82390000D02*
X139470000Y-82390000D01*
X139470000Y-82390000D02*
X139470000Y-75850000D01*
X139470000Y-75850000D02*
X136730000Y-75850000D01*
X136730000Y-75850000D02*
X136730000Y-82390000D01*
X138100000Y-83160000D02*
X138100000Y-82390000D01*
X138100000Y-75080000D02*
X138100000Y-75850000D01*
X141170000Y-60510000D02*
X138430000Y-60510000D01*
X138430000Y-60510000D02*
X138430000Y-67050000D01*
X138430000Y-67050000D02*
X141170000Y-67050000D01*
X141170000Y-67050000D02*
X141170000Y-60510000D01*
X139800000Y-59740000D02*
X139800000Y-60510000D01*
X139800000Y-67820000D02*
X139800000Y-67050000D01*
X145210000Y-91830000D02*
X145210000Y-94570000D01*
X145210000Y-94570000D02*
X151750000Y-94570000D01*
X151750000Y-94570000D02*
X151750000Y-91830000D01*
X151750000Y-91830000D02*
X145210000Y-91830000D01*
X144440000Y-93200000D02*
X145210000Y-93200000D01*
X152520000Y-93200000D02*
X151750000Y-93200000D01*
X132830000Y-106890000D02*
X135570000Y-106890000D01*
X135570000Y-106890000D02*
X135570000Y-100350000D01*
X135570000Y-100350000D02*
X132830000Y-100350000D01*
X132830000Y-100350000D02*
X132830000Y-106890000D01*
X134200000Y-107660000D02*
X134200000Y-106890000D01*
X134200000Y-99580000D02*
X134200000Y-100350000D01*
X159030000Y-80590000D02*
X161770000Y-80590000D01*
X161770000Y-80590000D02*
X161770000Y-74050000D01*
X161770000Y-74050000D02*
X159030000Y-74050000D01*
X159030000Y-74050000D02*
X159030000Y-80590000D01*
X160400000Y-81360000D02*
X160400000Y-80590000D01*
X160400000Y-73280000D02*
X160400000Y-74050000D01*
X162430000Y-119690000D02*
X165170000Y-119690000D01*
X165170000Y-119690000D02*
X165170000Y-113150000D01*
X165170000Y-113150000D02*
X162430000Y-113150000D01*
X162430000Y-113150000D02*
X162430000Y-119690000D01*
X163800000Y-120460000D02*
X163800000Y-119690000D01*
X163800000Y-112380000D02*
X163800000Y-113150000D01*
X167030000Y-119690000D02*
X169770000Y-119690000D01*
X169770000Y-119690000D02*
X169770000Y-113150000D01*
X169770000Y-113150000D02*
X167030000Y-113150000D01*
X167030000Y-113150000D02*
X167030000Y-119690000D01*
X168400000Y-120460000D02*
X168400000Y-119690000D01*
X168400000Y-112380000D02*
X168400000Y-113150000D01*
X172870000Y-78610000D02*
X170130000Y-78610000D01*
X170130000Y-78610000D02*
X170130000Y-85150000D01*
X170130000Y-85150000D02*
X172870000Y-85150000D01*
X172870000Y-85150000D02*
X172870000Y-78610000D01*
X171500000Y-77840000D02*
X171500000Y-78610000D01*
X171500000Y-85920000D02*
X171500000Y-85150000D01*
X171530000Y-119690000D02*
X174270000Y-119690000D01*
X174270000Y-119690000D02*
X174270000Y-113150000D01*
X174270000Y-113150000D02*
X171530000Y-113150000D01*
X171530000Y-113150000D02*
X171530000Y-119690000D01*
X172900000Y-120460000D02*
X172900000Y-119690000D01*
X172900000Y-112380000D02*
X172900000Y-113150000D01*
X158530000Y-96090000D02*
X161270000Y-96090000D01*
X161270000Y-96090000D02*
X161270000Y-89550000D01*
X161270000Y-89550000D02*
X158530000Y-89550000D01*
X158530000Y-89550000D02*
X158530000Y-96090000D01*
X159900000Y-96860000D02*
X159900000Y-96090000D01*
X159900000Y-88780000D02*
X159900000Y-89550000D01*
X138910000Y-105930000D02*
X138910000Y-108670000D01*
X138910000Y-108670000D02*
X145450000Y-108670000D01*
X145450000Y-108670000D02*
X145450000Y-105930000D01*
X145450000Y-105930000D02*
X138910000Y-105930000D01*
X138140000Y-107300000D02*
X138910000Y-107300000D01*
X146220000Y-107300000D02*
X145450000Y-107300000D01*
X122710000Y-78130000D02*
X122710000Y-80870000D01*
X122710000Y-80870000D02*
X129250000Y-80870000D01*
X129250000Y-80870000D02*
X129250000Y-78130000D01*
X129250000Y-78130000D02*
X122710000Y-78130000D01*
X121940000Y-79500000D02*
X122710000Y-79500000D01*
X130020000Y-79500000D02*
X129250000Y-79500000D01*
X147710000Y-95230000D02*
X147710000Y-97970000D01*
X147710000Y-97970000D02*
X154250000Y-97970000D01*
X154250000Y-97970000D02*
X154250000Y-95230000D01*
X154250000Y-95230000D02*
X147710000Y-95230000D01*
X146940000Y-96600000D02*
X147710000Y-96600000D01*
X155020000Y-96600000D02*
X154250000Y-96600000D01*
X122710000Y-74830000D02*
X122710000Y-77570000D01*
X122710000Y-77570000D02*
X129250000Y-77570000D01*
X129250000Y-77570000D02*
X129250000Y-74830000D01*
X129250000Y-74830000D02*
X122710000Y-74830000D01*
X121940000Y-76200000D02*
X122710000Y-76200000D01*
X130020000Y-76200000D02*
X129250000Y-76200000D01*
X155930000Y-67290000D02*
X158670000Y-67290000D01*
X158670000Y-67290000D02*
X158670000Y-60750000D01*
X158670000Y-60750000D02*
X155930000Y-60750000D01*
X155930000Y-60750000D02*
X155930000Y-67290000D01*
X157300000Y-68060000D02*
X157300000Y-67290000D01*
X157300000Y-59980000D02*
X157300000Y-60750000D01*
X138910000Y-109230000D02*
X138910000Y-111970000D01*
X138910000Y-111970000D02*
X145450000Y-111970000D01*
X145450000Y-111970000D02*
X145450000Y-109230000D01*
X145450000Y-109230000D02*
X138910000Y-109230000D01*
X138140000Y-110600000D02*
X138910000Y-110600000D01*
X146220000Y-110600000D02*
X145450000Y-110600000D01*
X129290000Y-102670000D02*
X129290000Y-99930000D01*
X129290000Y-99930000D02*
X122750000Y-99930000D01*
X122750000Y-99930000D02*
X122750000Y-102670000D01*
X122750000Y-102670000D02*
X129290000Y-102670000D01*
X130060000Y-101300000D02*
X129290000Y-101300000D01*
X121980000Y-101300000D02*
X122750000Y-101300000D01*
X122710000Y-96130000D02*
X122710000Y-98870000D01*
X122710000Y-98870000D02*
X129250000Y-98870000D01*
X129250000Y-98870000D02*
X129250000Y-96130000D01*
X129250000Y-96130000D02*
X122710000Y-96130000D01*
X121940000Y-97500000D02*
X122710000Y-97500000D01*
X130020000Y-97500000D02*
X129250000Y-97500000D01*
X132170000Y-112310000D02*
X129430000Y-112310000D01*
X129430000Y-112310000D02*
X129430000Y-118850000D01*
X129430000Y-118850000D02*
X132170000Y-118850000D01*
X132170000Y-118850000D02*
X132170000Y-112310000D01*
X130800000Y-111540000D02*
X130800000Y-112310000D01*
X130800000Y-119620000D02*
X130800000Y-118850000D01*
X123070000Y-112310000D02*
X120330000Y-112310000D01*
X120330000Y-112310000D02*
X120330000Y-118850000D01*
X120330000Y-118850000D02*
X123070000Y-118850000D01*
X123070000Y-118850000D02*
X123070000Y-112310000D01*
X121700000Y-111540000D02*
X121700000Y-112310000D01*
X121700000Y-119620000D02*
X121700000Y-118850000D01*
X137420000Y-60490000D02*
X135180000Y-60490000D01*
X135180000Y-60490000D02*
X135180000Y-64730000D01*
X135180000Y-64730000D02*
X137420000Y-64730000D01*
X137420000Y-64730000D02*
X137420000Y-60490000D01*
X136300000Y-59840000D02*
X136300000Y-60490000D01*
X136300000Y-65380000D02*
X136300000Y-64730000D01*
X137420000Y-61210000D02*
X135180000Y-61210000D01*
X137420000Y-61330000D02*
X135180000Y-61330000D01*
X137420000Y-61090000D02*
X135180000Y-61090000D01*
X149570000Y-136100000D02*
G75*
G03*
X149570000Y-136100000I-2500000J0D01*
G01*
X144510000Y-134555000D02*
X144510000Y-137645000D01*
X150060000Y-136099538D02*
G75*
G02*
X144510000Y-137644830I-2990000J-462D01*
G01*
X150060000Y-136100462D02*
G75*
G03*
X144510000Y-134555170I-2990000J462D01*
G01*
X171510000Y-104820000D02*
X171510000Y-102580000D01*
X171510000Y-102580000D02*
X167270000Y-102580000D01*
X167270000Y-102580000D02*
X167270000Y-104820000D01*
X167270000Y-104820000D02*
X171510000Y-104820000D01*
X172160000Y-103700000D02*
X171510000Y-103700000D01*
X166620000Y-103700000D02*
X167270000Y-103700000D01*
X170790000Y-104820000D02*
X170790000Y-102580000D01*
X170670000Y-104820000D02*
X170670000Y-102580000D01*
X170910000Y-104820000D02*
X170910000Y-102580000D01*
X167270000Y-99580000D02*
X167270000Y-101820000D01*
X167270000Y-101820000D02*
X171510000Y-101820000D01*
X171510000Y-101820000D02*
X171510000Y-99580000D01*
X171510000Y-99580000D02*
X167270000Y-99580000D01*
X166620000Y-100700000D02*
X167270000Y-100700000D01*
X172160000Y-100700000D02*
X171510000Y-100700000D01*
X167990000Y-99580000D02*
X167990000Y-101820000D01*
X168110000Y-99580000D02*
X168110000Y-101820000D01*
X167870000Y-99580000D02*
X167870000Y-101820000D01*
X145510000Y-102720000D02*
X145510000Y-100480000D01*
X145510000Y-100480000D02*
X141270000Y-100480000D01*
X141270000Y-100480000D02*
X141270000Y-102720000D01*
X141270000Y-102720000D02*
X145510000Y-102720000D01*
X146160000Y-101600000D02*
X145510000Y-101600000D01*
X140620000Y-101600000D02*
X141270000Y-101600000D01*
X144790000Y-102720000D02*
X144790000Y-100480000D01*
X144670000Y-102720000D02*
X144670000Y-100480000D01*
X144910000Y-102720000D02*
X144910000Y-100480000D01*
X141290000Y-103180000D02*
X141290000Y-105420000D01*
X141290000Y-105420000D02*
X145530000Y-105420000D01*
X145530000Y-105420000D02*
X145530000Y-103180000D01*
X145530000Y-103180000D02*
X141290000Y-103180000D01*
X140640000Y-104300000D02*
X141290000Y-104300000D01*
X146180000Y-104300000D02*
X145530000Y-104300000D01*
X142010000Y-103180000D02*
X142010000Y-105420000D01*
X142130000Y-103180000D02*
X142130000Y-105420000D01*
X141890000Y-103180000D02*
X141890000Y-105420000D01*
X167420000Y-90800000D02*
G75*
G03*
X167420000Y-90800000I-2620000J0D01*
G01*
X165840000Y-90800000D02*
X167380000Y-90800000D01*
X162220000Y-90800000D02*
X163760000Y-90800000D01*
X165840000Y-90760000D02*
X167380000Y-90760000D01*
X162220000Y-90760000D02*
X163760000Y-90760000D01*
X162221000Y-90720000D02*
X163760000Y-90720000D01*
X165840000Y-90720000D02*
X167379000Y-90720000D01*
X162222000Y-90680000D02*
X163760000Y-90680000D01*
X165840000Y-90680000D02*
X167378000Y-90680000D01*
X162224000Y-90640000D02*
X163760000Y-90640000D01*
X165840000Y-90640000D02*
X167376000Y-90640000D01*
X162227000Y-90600000D02*
X163760000Y-90600000D01*
X165840000Y-90600000D02*
X167373000Y-90600000D01*
X162231000Y-90560000D02*
X163760000Y-90560000D01*
X165840000Y-90560000D02*
X167369000Y-90560000D01*
X162235000Y-90520000D02*
X163760000Y-90520000D01*
X165840000Y-90520000D02*
X167365000Y-90520000D01*
X162239000Y-90480000D02*
X163760000Y-90480000D01*
X165840000Y-90480000D02*
X167361000Y-90480000D01*
X162244000Y-90440000D02*
X163760000Y-90440000D01*
X165840000Y-90440000D02*
X167356000Y-90440000D01*
X162250000Y-90400000D02*
X163760000Y-90400000D01*
X165840000Y-90400000D02*
X167350000Y-90400000D01*
X162257000Y-90360000D02*
X163760000Y-90360000D01*
X165840000Y-90360000D02*
X167343000Y-90360000D01*
X162264000Y-90320000D02*
X163760000Y-90320000D01*
X165840000Y-90320000D02*
X167336000Y-90320000D01*
X162272000Y-90280000D02*
X163760000Y-90280000D01*
X165840000Y-90280000D02*
X167328000Y-90280000D01*
X162280000Y-90240000D02*
X163760000Y-90240000D01*
X165840000Y-90240000D02*
X167320000Y-90240000D01*
X162289000Y-90200000D02*
X163760000Y-90200000D01*
X165840000Y-90200000D02*
X167311000Y-90200000D01*
X162299000Y-90160000D02*
X163760000Y-90160000D01*
X165840000Y-90160000D02*
X167301000Y-90160000D01*
X162309000Y-90120000D02*
X163760000Y-90120000D01*
X165840000Y-90120000D02*
X167291000Y-90120000D01*
X162320000Y-90079000D02*
X163760000Y-90079000D01*
X165840000Y-90079000D02*
X167280000Y-90079000D01*
X162332000Y-90039000D02*
X163760000Y-90039000D01*
X165840000Y-90039000D02*
X167268000Y-90039000D01*
X162345000Y-89999000D02*
X163760000Y-89999000D01*
X165840000Y-89999000D02*
X167255000Y-89999000D01*
X162358000Y-89959000D02*
X163760000Y-89959000D01*
X165840000Y-89959000D02*
X167242000Y-89959000D01*
X162372000Y-89919000D02*
X163760000Y-89919000D01*
X165840000Y-89919000D02*
X167228000Y-89919000D01*
X162386000Y-89879000D02*
X163760000Y-89879000D01*
X165840000Y-89879000D02*
X167214000Y-89879000D01*
X162402000Y-89839000D02*
X163760000Y-89839000D01*
X165840000Y-89839000D02*
X167198000Y-89839000D01*
X162418000Y-89799000D02*
X163760000Y-89799000D01*
X165840000Y-89799000D02*
X167182000Y-89799000D01*
X162435000Y-89759000D02*
X163760000Y-89759000D01*
X165840000Y-89759000D02*
X167165000Y-89759000D01*
X162452000Y-89719000D02*
X163760000Y-89719000D01*
X165840000Y-89719000D02*
X167148000Y-89719000D01*
X162471000Y-89679000D02*
X163760000Y-89679000D01*
X165840000Y-89679000D02*
X167129000Y-89679000D01*
X162490000Y-89639000D02*
X163760000Y-89639000D01*
X165840000Y-89639000D02*
X167110000Y-89639000D01*
X162510000Y-89599000D02*
X163760000Y-89599000D01*
X165840000Y-89599000D02*
X167090000Y-89599000D01*
X162532000Y-89559000D02*
X163760000Y-89559000D01*
X165840000Y-89559000D02*
X167068000Y-89559000D01*
X162553000Y-89519000D02*
X163760000Y-89519000D01*
X165840000Y-89519000D02*
X167047000Y-89519000D01*
X162576000Y-89479000D02*
X163760000Y-89479000D01*
X165840000Y-89479000D02*
X167024000Y-89479000D01*
X162600000Y-89439000D02*
X163760000Y-89439000D01*
X165840000Y-89439000D02*
X167000000Y-89439000D01*
X162625000Y-89399000D02*
X163760000Y-89399000D01*
X165840000Y-89399000D02*
X166975000Y-89399000D01*
X162651000Y-89359000D02*
X163760000Y-89359000D01*
X165840000Y-89359000D02*
X166949000Y-89359000D01*
X162678000Y-89319000D02*
X163760000Y-89319000D01*
X165840000Y-89319000D02*
X166922000Y-89319000D01*
X162705000Y-89279000D02*
X163760000Y-89279000D01*
X165840000Y-89279000D02*
X166895000Y-89279000D01*
X162735000Y-89239000D02*
X163760000Y-89239000D01*
X165840000Y-89239000D02*
X166865000Y-89239000D01*
X162765000Y-89199000D02*
X163760000Y-89199000D01*
X165840000Y-89199000D02*
X166835000Y-89199000D01*
X162796000Y-89159000D02*
X163760000Y-89159000D01*
X165840000Y-89159000D02*
X166804000Y-89159000D01*
X162829000Y-89119000D02*
X163760000Y-89119000D01*
X165840000Y-89119000D02*
X166771000Y-89119000D01*
X162863000Y-89079000D02*
X163760000Y-89079000D01*
X165840000Y-89079000D02*
X166737000Y-89079000D01*
X162899000Y-89039000D02*
X163760000Y-89039000D01*
X165840000Y-89039000D02*
X166701000Y-89039000D01*
X162936000Y-88999000D02*
X163760000Y-88999000D01*
X165840000Y-88999000D02*
X166664000Y-88999000D01*
X162974000Y-88959000D02*
X163760000Y-88959000D01*
X165840000Y-88959000D02*
X166626000Y-88959000D01*
X163015000Y-88919000D02*
X163760000Y-88919000D01*
X165840000Y-88919000D02*
X166585000Y-88919000D01*
X163057000Y-88879000D02*
X163760000Y-88879000D01*
X165840000Y-88879000D02*
X166543000Y-88879000D01*
X163101000Y-88839000D02*
X163760000Y-88839000D01*
X165840000Y-88839000D02*
X166499000Y-88839000D01*
X163147000Y-88799000D02*
X163760000Y-88799000D01*
X165840000Y-88799000D02*
X166453000Y-88799000D01*
X163195000Y-88759000D02*
X166405000Y-88759000D01*
X163246000Y-88719000D02*
X166354000Y-88719000D01*
X163300000Y-88679000D02*
X166300000Y-88679000D01*
X163357000Y-88639000D02*
X166243000Y-88639000D01*
X163417000Y-88599000D02*
X166183000Y-88599000D01*
X163481000Y-88559000D02*
X166119000Y-88559000D01*
X163549000Y-88519000D02*
X166051000Y-88519000D01*
X163622000Y-88479000D02*
X165978000Y-88479000D01*
X163702000Y-88439000D02*
X165898000Y-88439000D01*
X163789000Y-88399000D02*
X165811000Y-88399000D01*
X163885000Y-88359000D02*
X165715000Y-88359000D01*
X163995000Y-88319000D02*
X165605000Y-88319000D01*
X164123000Y-88279000D02*
X165477000Y-88279000D01*
X164282000Y-88239000D02*
X165318000Y-88239000D01*
X164516000Y-88199000D02*
X165084000Y-88199000D01*
X163325000Y-93604775D02*
X163325000Y-93104775D01*
X163075000Y-93354775D02*
X163575000Y-93354775D01*
X143420000Y-97100000D02*
G75*
G03*
X143420000Y-97100000I-2620000J0D01*
G01*
X140800000Y-98140000D02*
X140800000Y-99680000D01*
X140800000Y-94520000D02*
X140800000Y-96060000D01*
X140840000Y-98140000D02*
X140840000Y-99680000D01*
X140840000Y-94520000D02*
X140840000Y-96060000D01*
X140880000Y-94521000D02*
X140880000Y-96060000D01*
X140880000Y-98140000D02*
X140880000Y-99679000D01*
X140920000Y-94522000D02*
X140920000Y-96060000D01*
X140920000Y-98140000D02*
X140920000Y-99678000D01*
X140960000Y-94524000D02*
X140960000Y-96060000D01*
X140960000Y-98140000D02*
X140960000Y-99676000D01*
X141000000Y-94527000D02*
X141000000Y-96060000D01*
X141000000Y-98140000D02*
X141000000Y-99673000D01*
X141040000Y-94531000D02*
X141040000Y-96060000D01*
X141040000Y-98140000D02*
X141040000Y-99669000D01*
X141080000Y-94535000D02*
X141080000Y-96060000D01*
X141080000Y-98140000D02*
X141080000Y-99665000D01*
X141120000Y-94539000D02*
X141120000Y-96060000D01*
X141120000Y-98140000D02*
X141120000Y-99661000D01*
X141160000Y-94544000D02*
X141160000Y-96060000D01*
X141160000Y-98140000D02*
X141160000Y-99656000D01*
X141200000Y-94550000D02*
X141200000Y-96060000D01*
X141200000Y-98140000D02*
X141200000Y-99650000D01*
X141240000Y-94557000D02*
X141240000Y-96060000D01*
X141240000Y-98140000D02*
X141240000Y-99643000D01*
X141280000Y-94564000D02*
X141280000Y-96060000D01*
X141280000Y-98140000D02*
X141280000Y-99636000D01*
X141320000Y-94572000D02*
X141320000Y-96060000D01*
X141320000Y-98140000D02*
X141320000Y-99628000D01*
X141360000Y-94580000D02*
X141360000Y-96060000D01*
X141360000Y-98140000D02*
X141360000Y-99620000D01*
X141400000Y-94589000D02*
X141400000Y-96060000D01*
X141400000Y-98140000D02*
X141400000Y-99611000D01*
X141440000Y-94599000D02*
X141440000Y-96060000D01*
X141440000Y-98140000D02*
X141440000Y-99601000D01*
X141480000Y-94609000D02*
X141480000Y-96060000D01*
X141480000Y-98140000D02*
X141480000Y-99591000D01*
X141521000Y-94620000D02*
X141521000Y-96060000D01*
X141521000Y-98140000D02*
X141521000Y-99580000D01*
X141561000Y-94632000D02*
X141561000Y-96060000D01*
X141561000Y-98140000D02*
X141561000Y-99568000D01*
X141601000Y-94645000D02*
X141601000Y-96060000D01*
X141601000Y-98140000D02*
X141601000Y-99555000D01*
X141641000Y-94658000D02*
X141641000Y-96060000D01*
X141641000Y-98140000D02*
X141641000Y-99542000D01*
X141681000Y-94672000D02*
X141681000Y-96060000D01*
X141681000Y-98140000D02*
X141681000Y-99528000D01*
X141721000Y-94686000D02*
X141721000Y-96060000D01*
X141721000Y-98140000D02*
X141721000Y-99514000D01*
X141761000Y-94702000D02*
X141761000Y-96060000D01*
X141761000Y-98140000D02*
X141761000Y-99498000D01*
X141801000Y-94718000D02*
X141801000Y-96060000D01*
X141801000Y-98140000D02*
X141801000Y-99482000D01*
X141841000Y-94735000D02*
X141841000Y-96060000D01*
X141841000Y-98140000D02*
X141841000Y-99465000D01*
X141881000Y-94752000D02*
X141881000Y-96060000D01*
X141881000Y-98140000D02*
X141881000Y-99448000D01*
X141921000Y-94771000D02*
X141921000Y-96060000D01*
X141921000Y-98140000D02*
X141921000Y-99429000D01*
X141961000Y-94790000D02*
X141961000Y-96060000D01*
X141961000Y-98140000D02*
X141961000Y-99410000D01*
X142001000Y-94810000D02*
X142001000Y-96060000D01*
X142001000Y-98140000D02*
X142001000Y-99390000D01*
X142041000Y-94832000D02*
X142041000Y-96060000D01*
X142041000Y-98140000D02*
X142041000Y-99368000D01*
X142081000Y-94853000D02*
X142081000Y-96060000D01*
X142081000Y-98140000D02*
X142081000Y-99347000D01*
X142121000Y-94876000D02*
X142121000Y-96060000D01*
X142121000Y-98140000D02*
X142121000Y-99324000D01*
X142161000Y-94900000D02*
X142161000Y-96060000D01*
X142161000Y-98140000D02*
X142161000Y-99300000D01*
X142201000Y-94925000D02*
X142201000Y-96060000D01*
X142201000Y-98140000D02*
X142201000Y-99275000D01*
X142241000Y-94951000D02*
X142241000Y-96060000D01*
X142241000Y-98140000D02*
X142241000Y-99249000D01*
X142281000Y-94978000D02*
X142281000Y-96060000D01*
X142281000Y-98140000D02*
X142281000Y-99222000D01*
X142321000Y-95005000D02*
X142321000Y-96060000D01*
X142321000Y-98140000D02*
X142321000Y-99195000D01*
X142361000Y-95035000D02*
X142361000Y-96060000D01*
X142361000Y-98140000D02*
X142361000Y-99165000D01*
X142401000Y-95065000D02*
X142401000Y-96060000D01*
X142401000Y-98140000D02*
X142401000Y-99135000D01*
X142441000Y-95096000D02*
X142441000Y-96060000D01*
X142441000Y-98140000D02*
X142441000Y-99104000D01*
X142481000Y-95129000D02*
X142481000Y-96060000D01*
X142481000Y-98140000D02*
X142481000Y-99071000D01*
X142521000Y-95163000D02*
X142521000Y-96060000D01*
X142521000Y-98140000D02*
X142521000Y-99037000D01*
X142561000Y-95199000D02*
X142561000Y-96060000D01*
X142561000Y-98140000D02*
X142561000Y-99001000D01*
X142601000Y-95236000D02*
X142601000Y-96060000D01*
X142601000Y-98140000D02*
X142601000Y-98964000D01*
X142641000Y-95274000D02*
X142641000Y-96060000D01*
X142641000Y-98140000D02*
X142641000Y-98926000D01*
X142681000Y-95315000D02*
X142681000Y-96060000D01*
X142681000Y-98140000D02*
X142681000Y-98885000D01*
X142721000Y-95357000D02*
X142721000Y-96060000D01*
X142721000Y-98140000D02*
X142721000Y-98843000D01*
X142761000Y-95401000D02*
X142761000Y-96060000D01*
X142761000Y-98140000D02*
X142761000Y-98799000D01*
X142801000Y-95447000D02*
X142801000Y-96060000D01*
X142801000Y-98140000D02*
X142801000Y-98753000D01*
X142841000Y-95495000D02*
X142841000Y-98705000D01*
X142881000Y-95546000D02*
X142881000Y-98654000D01*
X142921000Y-95600000D02*
X142921000Y-98600000D01*
X142961000Y-95657000D02*
X142961000Y-98543000D01*
X143001000Y-95717000D02*
X143001000Y-98483000D01*
X143041000Y-95781000D02*
X143041000Y-98419000D01*
X143081000Y-95849000D02*
X143081000Y-98351000D01*
X143121000Y-95922000D02*
X143121000Y-98278000D01*
X143161000Y-96002000D02*
X143161000Y-98198000D01*
X143201000Y-96089000D02*
X143201000Y-98111000D01*
X143241000Y-96185000D02*
X143241000Y-98015000D01*
X143281000Y-96295000D02*
X143281000Y-97905000D01*
X143321000Y-96423000D02*
X143321000Y-97777000D01*
X143361000Y-96582000D02*
X143361000Y-97618000D01*
X143401000Y-96816000D02*
X143401000Y-97384000D01*
X137995225Y-95625000D02*
X138495225Y-95625000D01*
X138245225Y-95375000D02*
X138245225Y-95875000D01*
X129220000Y-112800000D02*
G75*
G03*
X129220000Y-112800000I-2620000J0D01*
G01*
X126600000Y-111760000D02*
X126600000Y-110220000D01*
X126600000Y-115380000D02*
X126600000Y-113840000D01*
X126560000Y-111760000D02*
X126560000Y-110220000D01*
X126560000Y-115380000D02*
X126560000Y-113840000D01*
X126520000Y-115379000D02*
X126520000Y-113840000D01*
X126520000Y-111760000D02*
X126520000Y-110221000D01*
X126480000Y-115378000D02*
X126480000Y-113840000D01*
X126480000Y-111760000D02*
X126480000Y-110222000D01*
X126440000Y-115376000D02*
X126440000Y-113840000D01*
X126440000Y-111760000D02*
X126440000Y-110224000D01*
X126400000Y-115373000D02*
X126400000Y-113840000D01*
X126400000Y-111760000D02*
X126400000Y-110227000D01*
X126360000Y-115369000D02*
X126360000Y-113840000D01*
X126360000Y-111760000D02*
X126360000Y-110231000D01*
X126320000Y-115365000D02*
X126320000Y-113840000D01*
X126320000Y-111760000D02*
X126320000Y-110235000D01*
X126280000Y-115361000D02*
X126280000Y-113840000D01*
X126280000Y-111760000D02*
X126280000Y-110239000D01*
X126240000Y-115356000D02*
X126240000Y-113840000D01*
X126240000Y-111760000D02*
X126240000Y-110244000D01*
X126200000Y-115350000D02*
X126200000Y-113840000D01*
X126200000Y-111760000D02*
X126200000Y-110250000D01*
X126160000Y-115343000D02*
X126160000Y-113840000D01*
X126160000Y-111760000D02*
X126160000Y-110257000D01*
X126120000Y-115336000D02*
X126120000Y-113840000D01*
X126120000Y-111760000D02*
X126120000Y-110264000D01*
X126080000Y-115328000D02*
X126080000Y-113840000D01*
X126080000Y-111760000D02*
X126080000Y-110272000D01*
X126040000Y-115320000D02*
X126040000Y-113840000D01*
X126040000Y-111760000D02*
X126040000Y-110280000D01*
X126000000Y-115311000D02*
X126000000Y-113840000D01*
X126000000Y-111760000D02*
X126000000Y-110289000D01*
X125960000Y-115301000D02*
X125960000Y-113840000D01*
X125960000Y-111760000D02*
X125960000Y-110299000D01*
X125920000Y-115291000D02*
X125920000Y-113840000D01*
X125920000Y-111760000D02*
X125920000Y-110309000D01*
X125879000Y-115280000D02*
X125879000Y-113840000D01*
X125879000Y-111760000D02*
X125879000Y-110320000D01*
X125839000Y-115268000D02*
X125839000Y-113840000D01*
X125839000Y-111760000D02*
X125839000Y-110332000D01*
X125799000Y-115255000D02*
X125799000Y-113840000D01*
X125799000Y-111760000D02*
X125799000Y-110345000D01*
X125759000Y-115242000D02*
X125759000Y-113840000D01*
X125759000Y-111760000D02*
X125759000Y-110358000D01*
X125719000Y-115228000D02*
X125719000Y-113840000D01*
X125719000Y-111760000D02*
X125719000Y-110372000D01*
X125679000Y-115214000D02*
X125679000Y-113840000D01*
X125679000Y-111760000D02*
X125679000Y-110386000D01*
X125639000Y-115198000D02*
X125639000Y-113840000D01*
X125639000Y-111760000D02*
X125639000Y-110402000D01*
X125599000Y-115182000D02*
X125599000Y-113840000D01*
X125599000Y-111760000D02*
X125599000Y-110418000D01*
X125559000Y-115165000D02*
X125559000Y-113840000D01*
X125559000Y-111760000D02*
X125559000Y-110435000D01*
X125519000Y-115148000D02*
X125519000Y-113840000D01*
X125519000Y-111760000D02*
X125519000Y-110452000D01*
X125479000Y-115129000D02*
X125479000Y-113840000D01*
X125479000Y-111760000D02*
X125479000Y-110471000D01*
X125439000Y-115110000D02*
X125439000Y-113840000D01*
X125439000Y-111760000D02*
X125439000Y-110490000D01*
X125399000Y-115090000D02*
X125399000Y-113840000D01*
X125399000Y-111760000D02*
X125399000Y-110510000D01*
X125359000Y-115068000D02*
X125359000Y-113840000D01*
X125359000Y-111760000D02*
X125359000Y-110532000D01*
X125319000Y-115047000D02*
X125319000Y-113840000D01*
X125319000Y-111760000D02*
X125319000Y-110553000D01*
X125279000Y-115024000D02*
X125279000Y-113840000D01*
X125279000Y-111760000D02*
X125279000Y-110576000D01*
X125239000Y-115000000D02*
X125239000Y-113840000D01*
X125239000Y-111760000D02*
X125239000Y-110600000D01*
X125199000Y-114975000D02*
X125199000Y-113840000D01*
X125199000Y-111760000D02*
X125199000Y-110625000D01*
X125159000Y-114949000D02*
X125159000Y-113840000D01*
X125159000Y-111760000D02*
X125159000Y-110651000D01*
X125119000Y-114922000D02*
X125119000Y-113840000D01*
X125119000Y-111760000D02*
X125119000Y-110678000D01*
X125079000Y-114895000D02*
X125079000Y-113840000D01*
X125079000Y-111760000D02*
X125079000Y-110705000D01*
X125039000Y-114865000D02*
X125039000Y-113840000D01*
X125039000Y-111760000D02*
X125039000Y-110735000D01*
X124999000Y-114835000D02*
X124999000Y-113840000D01*
X124999000Y-111760000D02*
X124999000Y-110765000D01*
X124959000Y-114804000D02*
X124959000Y-113840000D01*
X124959000Y-111760000D02*
X124959000Y-110796000D01*
X124919000Y-114771000D02*
X124919000Y-113840000D01*
X124919000Y-111760000D02*
X124919000Y-110829000D01*
X124879000Y-114737000D02*
X124879000Y-113840000D01*
X124879000Y-111760000D02*
X124879000Y-110863000D01*
X124839000Y-114701000D02*
X124839000Y-113840000D01*
X124839000Y-111760000D02*
X124839000Y-110899000D01*
X124799000Y-114664000D02*
X124799000Y-113840000D01*
X124799000Y-111760000D02*
X124799000Y-110936000D01*
X124759000Y-114626000D02*
X124759000Y-113840000D01*
X124759000Y-111760000D02*
X124759000Y-110974000D01*
X124719000Y-114585000D02*
X124719000Y-113840000D01*
X124719000Y-111760000D02*
X124719000Y-111015000D01*
X124679000Y-114543000D02*
X124679000Y-113840000D01*
X124679000Y-111760000D02*
X124679000Y-111057000D01*
X124639000Y-114499000D02*
X124639000Y-113840000D01*
X124639000Y-111760000D02*
X124639000Y-111101000D01*
X124599000Y-114453000D02*
X124599000Y-113840000D01*
X124599000Y-111760000D02*
X124599000Y-111147000D01*
X124559000Y-114405000D02*
X124559000Y-111195000D01*
X124519000Y-114354000D02*
X124519000Y-111246000D01*
X124479000Y-114300000D02*
X124479000Y-111300000D01*
X124439000Y-114243000D02*
X124439000Y-111357000D01*
X124399000Y-114183000D02*
X124399000Y-111417000D01*
X124359000Y-114119000D02*
X124359000Y-111481000D01*
X124319000Y-114051000D02*
X124319000Y-111549000D01*
X124279000Y-113978000D02*
X124279000Y-111622000D01*
X124239000Y-113898000D02*
X124239000Y-111702000D01*
X124199000Y-113811000D02*
X124199000Y-111789000D01*
X124159000Y-113715000D02*
X124159000Y-111885000D01*
X124119000Y-113605000D02*
X124119000Y-111995000D01*
X124079000Y-113477000D02*
X124079000Y-112123000D01*
X124039000Y-113318000D02*
X124039000Y-112282000D01*
X123999000Y-113084000D02*
X123999000Y-112516000D01*
X129404775Y-114275000D02*
X128904775Y-114275000D01*
X129154775Y-114525000D02*
X129154775Y-114025000D01*
X145145225Y-62375000D02*
X145145225Y-62875000D01*
X144895225Y-62625000D02*
X145395225Y-62625000D01*
X150301000Y-63816000D02*
X150301000Y-64384000D01*
X150261000Y-63582000D02*
X150261000Y-64618000D01*
X150221000Y-63423000D02*
X150221000Y-64777000D01*
X150181000Y-63295000D02*
X150181000Y-64905000D01*
X150141000Y-63185000D02*
X150141000Y-65015000D01*
X150101000Y-63089000D02*
X150101000Y-65111000D01*
X150061000Y-63002000D02*
X150061000Y-65198000D01*
X150021000Y-62922000D02*
X150021000Y-65278000D01*
X149981000Y-62849000D02*
X149981000Y-65351000D01*
X149941000Y-62781000D02*
X149941000Y-65419000D01*
X149901000Y-62717000D02*
X149901000Y-65483000D01*
X149861000Y-62657000D02*
X149861000Y-65543000D01*
X149821000Y-62600000D02*
X149821000Y-65600000D01*
X149781000Y-62546000D02*
X149781000Y-65654000D01*
X149741000Y-62495000D02*
X149741000Y-65705000D01*
X149701000Y-65140000D02*
X149701000Y-65753000D01*
X149701000Y-62447000D02*
X149701000Y-63060000D01*
X149661000Y-65140000D02*
X149661000Y-65799000D01*
X149661000Y-62401000D02*
X149661000Y-63060000D01*
X149621000Y-65140000D02*
X149621000Y-65843000D01*
X149621000Y-62357000D02*
X149621000Y-63060000D01*
X149581000Y-65140000D02*
X149581000Y-65885000D01*
X149581000Y-62315000D02*
X149581000Y-63060000D01*
X149541000Y-65140000D02*
X149541000Y-65926000D01*
X149541000Y-62274000D02*
X149541000Y-63060000D01*
X149501000Y-65140000D02*
X149501000Y-65964000D01*
X149501000Y-62236000D02*
X149501000Y-63060000D01*
X149461000Y-65140000D02*
X149461000Y-66001000D01*
X149461000Y-62199000D02*
X149461000Y-63060000D01*
X149421000Y-65140000D02*
X149421000Y-66037000D01*
X149421000Y-62163000D02*
X149421000Y-63060000D01*
X149381000Y-65140000D02*
X149381000Y-66071000D01*
X149381000Y-62129000D02*
X149381000Y-63060000D01*
X149341000Y-65140000D02*
X149341000Y-66104000D01*
X149341000Y-62096000D02*
X149341000Y-63060000D01*
X149301000Y-65140000D02*
X149301000Y-66135000D01*
X149301000Y-62065000D02*
X149301000Y-63060000D01*
X149261000Y-65140000D02*
X149261000Y-66165000D01*
X149261000Y-62035000D02*
X149261000Y-63060000D01*
X149221000Y-65140000D02*
X149221000Y-66195000D01*
X149221000Y-62005000D02*
X149221000Y-63060000D01*
X149181000Y-65140000D02*
X149181000Y-66222000D01*
X149181000Y-61978000D02*
X149181000Y-63060000D01*
X149141000Y-65140000D02*
X149141000Y-66249000D01*
X149141000Y-61951000D02*
X149141000Y-63060000D01*
X149101000Y-65140000D02*
X149101000Y-66275000D01*
X149101000Y-61925000D02*
X149101000Y-63060000D01*
X149061000Y-65140000D02*
X149061000Y-66300000D01*
X149061000Y-61900000D02*
X149061000Y-63060000D01*
X149021000Y-65140000D02*
X149021000Y-66324000D01*
X149021000Y-61876000D02*
X149021000Y-63060000D01*
X148981000Y-65140000D02*
X148981000Y-66347000D01*
X148981000Y-61853000D02*
X148981000Y-63060000D01*
X148941000Y-65140000D02*
X148941000Y-66368000D01*
X148941000Y-61832000D02*
X148941000Y-63060000D01*
X148901000Y-65140000D02*
X148901000Y-66390000D01*
X148901000Y-61810000D02*
X148901000Y-63060000D01*
X148861000Y-65140000D02*
X148861000Y-66410000D01*
X148861000Y-61790000D02*
X148861000Y-63060000D01*
X148821000Y-65140000D02*
X148821000Y-66429000D01*
X148821000Y-61771000D02*
X148821000Y-63060000D01*
X148781000Y-65140000D02*
X148781000Y-66448000D01*
X148781000Y-61752000D02*
X148781000Y-63060000D01*
X148741000Y-65140000D02*
X148741000Y-66465000D01*
X148741000Y-61735000D02*
X148741000Y-63060000D01*
X148701000Y-65140000D02*
X148701000Y-66482000D01*
X148701000Y-61718000D02*
X148701000Y-63060000D01*
X148661000Y-65140000D02*
X148661000Y-66498000D01*
X148661000Y-61702000D02*
X148661000Y-63060000D01*
X148621000Y-65140000D02*
X148621000Y-66514000D01*
X148621000Y-61686000D02*
X148621000Y-63060000D01*
X148581000Y-65140000D02*
X148581000Y-66528000D01*
X148581000Y-61672000D02*
X148581000Y-63060000D01*
X148541000Y-65140000D02*
X148541000Y-66542000D01*
X148541000Y-61658000D02*
X148541000Y-63060000D01*
X148501000Y-65140000D02*
X148501000Y-66555000D01*
X148501000Y-61645000D02*
X148501000Y-63060000D01*
X148461000Y-65140000D02*
X148461000Y-66568000D01*
X148461000Y-61632000D02*
X148461000Y-63060000D01*
X148421000Y-65140000D02*
X148421000Y-66580000D01*
X148421000Y-61620000D02*
X148421000Y-63060000D01*
X148380000Y-65140000D02*
X148380000Y-66591000D01*
X148380000Y-61609000D02*
X148380000Y-63060000D01*
X148340000Y-65140000D02*
X148340000Y-66601000D01*
X148340000Y-61599000D02*
X148340000Y-63060000D01*
X148300000Y-65140000D02*
X148300000Y-66611000D01*
X148300000Y-61589000D02*
X148300000Y-63060000D01*
X148260000Y-65140000D02*
X148260000Y-66620000D01*
X148260000Y-61580000D02*
X148260000Y-63060000D01*
X148220000Y-65140000D02*
X148220000Y-66628000D01*
X148220000Y-61572000D02*
X148220000Y-63060000D01*
X148180000Y-65140000D02*
X148180000Y-66636000D01*
X148180000Y-61564000D02*
X148180000Y-63060000D01*
X148140000Y-65140000D02*
X148140000Y-66643000D01*
X148140000Y-61557000D02*
X148140000Y-63060000D01*
X148100000Y-65140000D02*
X148100000Y-66650000D01*
X148100000Y-61550000D02*
X148100000Y-63060000D01*
X148060000Y-65140000D02*
X148060000Y-66656000D01*
X148060000Y-61544000D02*
X148060000Y-63060000D01*
X148020000Y-65140000D02*
X148020000Y-66661000D01*
X148020000Y-61539000D02*
X148020000Y-63060000D01*
X147980000Y-65140000D02*
X147980000Y-66665000D01*
X147980000Y-61535000D02*
X147980000Y-63060000D01*
X147940000Y-65140000D02*
X147940000Y-66669000D01*
X147940000Y-61531000D02*
X147940000Y-63060000D01*
X147900000Y-65140000D02*
X147900000Y-66673000D01*
X147900000Y-61527000D02*
X147900000Y-63060000D01*
X147860000Y-65140000D02*
X147860000Y-66676000D01*
X147860000Y-61524000D02*
X147860000Y-63060000D01*
X147820000Y-65140000D02*
X147820000Y-66678000D01*
X147820000Y-61522000D02*
X147820000Y-63060000D01*
X147780000Y-65140000D02*
X147780000Y-66679000D01*
X147780000Y-61521000D02*
X147780000Y-63060000D01*
X147740000Y-61520000D02*
X147740000Y-63060000D01*
X147740000Y-65140000D02*
X147740000Y-66680000D01*
X147700000Y-61520000D02*
X147700000Y-63060000D01*
X147700000Y-65140000D02*
X147700000Y-66680000D01*
X150320000Y-64100000D02*
G75*
G03*
X150320000Y-64100000I-2620000J0D01*
G01*
X151620000Y-56530000D02*
X151620000Y-59270000D01*
X143380000Y-56530000D02*
X143380000Y-59270000D01*
X143380000Y-59270000D02*
X151620000Y-59270000D01*
X143380000Y-56530000D02*
X151620000Y-56530000D01*
X131200000Y-90400000D02*
X131200000Y-94250000D01*
X131787736Y-94642383D02*
G75*
G02*
X131200000Y-94250000I1112264J2302383D01*
G01*
X133998807Y-94696400D02*
G75*
G03*
X135500000Y-92340000I-1098807J2356400D01*
G01*
X133998807Y-89983600D02*
G75*
G02*
X135500000Y-92340000I-1098807J-2356400D01*
G01*
X131777955Y-90017369D02*
G75*
G03*
X131200000Y-90400000I1122045J-2322631D01*
G01*
X150000000Y-102600000D02*
X150000000Y-106450000D01*
X150577955Y-102217369D02*
G75*
G03*
X150000000Y-102600000I1122045J-2322631D01*
G01*
X152798807Y-102183600D02*
G75*
G02*
X154300000Y-104540000I-1098807J-2356400D01*
G01*
X152798807Y-106896400D02*
G75*
G03*
X154300000Y-104540000I-1098807J2356400D01*
G01*
X150587736Y-106842383D02*
G75*
G02*
X150000000Y-106450000I1112264J2302383D01*
G01*
X168700000Y-109700000D02*
X172550000Y-109700000D01*
X172942383Y-109112264D02*
G75*
G02*
X172550000Y-109700000I-2302383J1112264D01*
G01*
X172996400Y-106901193D02*
G75*
G03*
X170640000Y-105400000I-2356400J-1098807D01*
G01*
X168283600Y-106901193D02*
G75*
G02*
X170640000Y-105400000I2356400J-1098807D01*
G01*
X168317369Y-109122045D02*
G75*
G03*
X168700000Y-109700000I2322631J1122045D01*
G01*
X130800000Y-85900000D02*
X134650000Y-85900000D01*
X130417369Y-85322045D02*
G75*
G03*
X130800000Y-85900000I2322631J1122045D01*
G01*
X130383600Y-83101193D02*
G75*
G02*
X132740000Y-81600000I2356400J-1098807D01*
G01*
X135096400Y-83101193D02*
G75*
G03*
X132740000Y-81600000I-2356400J-1098807D01*
G01*
X135042383Y-85312264D02*
G75*
G02*
X134650000Y-85900000I-2302383J1112264D01*
G01*
X121700000Y-90100000D02*
X121700000Y-87700000D01*
X124100000Y-90100000D02*
X121700000Y-90100000D01*
X124100000Y-87700000D02*
X124100000Y-90100000D01*
X121700000Y-87700000D02*
X124100000Y-87700000D01*
X155300000Y-91800000D02*
X157700000Y-91800000D01*
X157700000Y-91800000D02*
X157700000Y-94200000D01*
X157700000Y-94200000D02*
X155300000Y-94200000D01*
X155300000Y-94200000D02*
X155300000Y-91800000D01*
X170300000Y-91000000D02*
X170300000Y-88600000D01*
X172700000Y-91000000D02*
X170300000Y-91000000D01*
X172700000Y-88600000D02*
X172700000Y-91000000D01*
X170300000Y-88600000D02*
X172700000Y-88600000D01*
X131750000Y-131430000D02*
X131750000Y-128770000D01*
X124070000Y-131430000D02*
X131750000Y-131430000D01*
X124070000Y-128770000D02*
X131750000Y-128770000D01*
X124070000Y-131430000D02*
X124070000Y-128770000D01*
X122800000Y-131430000D02*
X121470000Y-131430000D01*
X121470000Y-131430000D02*
X121470000Y-130100000D01*
X121470000Y-125030000D02*
X121470000Y-123700000D01*
X122800000Y-125030000D02*
X121470000Y-125030000D01*
X124070000Y-125030000D02*
X124070000Y-122370000D01*
X124070000Y-122370000D02*
X131750000Y-122370000D01*
X124070000Y-125030000D02*
X131750000Y-125030000D01*
X131750000Y-125030000D02*
X131750000Y-122370000D01*
D11*
X161171428Y-142952380D02*
X161171428Y-141952380D01*
X161647619Y-142952380D02*
X161647619Y-141952380D01*
X162219047Y-142952380D01*
X162219047Y-141952380D01*
X162695238Y-142952380D02*
X162695238Y-141952380D01*
X163076190Y-141952380D01*
X163171428Y-142000000D01*
X163219047Y-142047619D01*
X163266666Y-142142857D01*
X163266666Y-142285714D01*
X163219047Y-142380952D01*
X163171428Y-142428571D01*
X163076190Y-142476190D01*
X162695238Y-142476190D01*
X163695238Y-141952380D02*
X163695238Y-142761904D01*
X163742857Y-142857142D01*
X163790476Y-142904761D01*
X163885714Y-142952380D01*
X164076190Y-142952380D01*
X164171428Y-142904761D01*
X164219047Y-142857142D01*
X164266666Y-142761904D01*
X164266666Y-141952380D01*
X164600000Y-141952380D02*
X165171428Y-141952380D01*
X164885714Y-142952380D02*
X164885714Y-141952380D01*
X128795238Y-141852380D02*
X128985714Y-141852380D01*
X129080952Y-141900000D01*
X129176190Y-141995238D01*
X129223809Y-142185714D01*
X129223809Y-142519047D01*
X129176190Y-142709523D01*
X129080952Y-142804761D01*
X128985714Y-142852380D01*
X128795238Y-142852380D01*
X128700000Y-142804761D01*
X128604761Y-142709523D01*
X128557142Y-142519047D01*
X128557142Y-142185714D01*
X128604761Y-141995238D01*
X128700000Y-141900000D01*
X128795238Y-141852380D01*
X129652380Y-141852380D02*
X129652380Y-142661904D01*
X129700000Y-142757142D01*
X129747619Y-142804761D01*
X129842857Y-142852380D01*
X130033333Y-142852380D01*
X130128571Y-142804761D01*
X130176190Y-142757142D01*
X130223809Y-142661904D01*
X130223809Y-141852380D01*
X130557142Y-141852380D02*
X131128571Y-141852380D01*
X130842857Y-142852380D02*
X130842857Y-141852380D01*
X131461904Y-142852380D02*
X131461904Y-141852380D01*
X131842857Y-141852380D01*
X131938095Y-141900000D01*
X131985714Y-141947619D01*
X132033333Y-142042857D01*
X132033333Y-142185714D01*
X131985714Y-142280952D01*
X131938095Y-142328571D01*
X131842857Y-142376190D01*
X131461904Y-142376190D01*
X132461904Y-141852380D02*
X132461904Y-142661904D01*
X132509523Y-142757142D01*
X132557142Y-142804761D01*
X132652380Y-142852380D01*
X132842857Y-142852380D01*
X132938095Y-142804761D01*
X132985714Y-142757142D01*
X133033333Y-142661904D01*
X133033333Y-141852380D01*
X133366666Y-141852380D02*
X133938095Y-141852380D01*
X133652380Y-142852380D02*
X133652380Y-141852380D01*
X124028571Y-55052380D02*
X124361904Y-56052380D01*
X124695238Y-55052380D01*
X125171428Y-56052380D02*
X125076190Y-56004761D01*
X125028571Y-55957142D01*
X124980952Y-55861904D01*
X124980952Y-55576190D01*
X125028571Y-55480952D01*
X125076190Y-55433333D01*
X125171428Y-55385714D01*
X125314285Y-55385714D01*
X125409523Y-55433333D01*
X125457142Y-55480952D01*
X125504761Y-55576190D01*
X125504761Y-55861904D01*
X125457142Y-55957142D01*
X125409523Y-56004761D01*
X125314285Y-56052380D01*
X125171428Y-56052380D01*
X126076190Y-56052380D02*
X125980952Y-56004761D01*
X125933333Y-55909523D01*
X125933333Y-55052380D01*
X126885714Y-55385714D02*
X126885714Y-56052380D01*
X126457142Y-55385714D02*
X126457142Y-55909523D01*
X126504761Y-56004761D01*
X126600000Y-56052380D01*
X126742857Y-56052380D01*
X126838095Y-56004761D01*
X126885714Y-55957142D01*
X127361904Y-56052380D02*
X127361904Y-55385714D01*
X127361904Y-55480952D02*
X127409523Y-55433333D01*
X127504761Y-55385714D01*
X127647619Y-55385714D01*
X127742857Y-55433333D01*
X127790476Y-55528571D01*
X127790476Y-56052380D01*
X127790476Y-55528571D02*
X127838095Y-55433333D01*
X127933333Y-55385714D01*
X128076190Y-55385714D01*
X128171428Y-55433333D01*
X128219047Y-55528571D01*
X128219047Y-56052380D01*
X129076190Y-56004761D02*
X128980952Y-56052380D01*
X128790476Y-56052380D01*
X128695238Y-56004761D01*
X128647619Y-55909523D01*
X128647619Y-55528571D01*
X128695238Y-55433333D01*
X128790476Y-55385714D01*
X128980952Y-55385714D01*
X129076190Y-55433333D01*
X129123809Y-55528571D01*
X129123809Y-55623809D01*
X128647619Y-55719047D01*
X130076190Y-56052380D02*
X129504761Y-56052380D01*
X129790476Y-56052380D02*
X129790476Y-55052380D01*
X129695238Y-55195238D01*
X129600000Y-55290476D01*
X129504761Y-55338095D01*
X164652380Y-55704761D02*
X164795238Y-55752380D01*
X165033333Y-55752380D01*
X165128571Y-55704761D01*
X165176190Y-55657142D01*
X165223809Y-55561904D01*
X165223809Y-55466666D01*
X165176190Y-55371428D01*
X165128571Y-55323809D01*
X165033333Y-55276190D01*
X164842857Y-55228571D01*
X164747619Y-55180952D01*
X164700000Y-55133333D01*
X164652380Y-55038095D01*
X164652380Y-54942857D01*
X164700000Y-54847619D01*
X164747619Y-54800000D01*
X164842857Y-54752380D01*
X165080952Y-54752380D01*
X165223809Y-54800000D01*
X166080952Y-55085714D02*
X166080952Y-55752380D01*
X165652380Y-55085714D02*
X165652380Y-55609523D01*
X165700000Y-55704761D01*
X165795238Y-55752380D01*
X165938095Y-55752380D01*
X166033333Y-55704761D01*
X166080952Y-55657142D01*
X166509523Y-55704761D02*
X166604761Y-55752380D01*
X166795238Y-55752380D01*
X166890476Y-55704761D01*
X166938095Y-55609523D01*
X166938095Y-55561904D01*
X166890476Y-55466666D01*
X166795238Y-55419047D01*
X166652380Y-55419047D01*
X166557142Y-55371428D01*
X166509523Y-55276190D01*
X166509523Y-55228571D01*
X166557142Y-55133333D01*
X166652380Y-55085714D01*
X166795238Y-55085714D01*
X166890476Y-55133333D01*
X167223809Y-55085714D02*
X167604761Y-55085714D01*
X167366666Y-54752380D02*
X167366666Y-55609523D01*
X167414285Y-55704761D01*
X167509523Y-55752380D01*
X167604761Y-55752380D01*
X168366666Y-55752380D02*
X168366666Y-55228571D01*
X168319047Y-55133333D01*
X168223809Y-55085714D01*
X168033333Y-55085714D01*
X167938095Y-55133333D01*
X168366666Y-55704761D02*
X168271428Y-55752380D01*
X168033333Y-55752380D01*
X167938095Y-55704761D01*
X167890476Y-55609523D01*
X167890476Y-55514285D01*
X167938095Y-55419047D01*
X168033333Y-55371428D01*
X168271428Y-55371428D01*
X168366666Y-55323809D01*
X168842857Y-55752380D02*
X168842857Y-55085714D01*
X168842857Y-54752380D02*
X168795238Y-54800000D01*
X168842857Y-54847619D01*
X168890476Y-54800000D01*
X168842857Y-54752380D01*
X168842857Y-54847619D01*
X169319047Y-55085714D02*
X169319047Y-55752380D01*
X169319047Y-55180952D02*
X169366666Y-55133333D01*
X169461904Y-55085714D01*
X169604761Y-55085714D01*
X169700000Y-55133333D01*
X169747619Y-55228571D01*
X169747619Y-55752380D01*
X170747619Y-55752380D02*
X170176190Y-55752380D01*
X170461904Y-55752380D02*
X170461904Y-54752380D01*
X170366666Y-54895238D01*
X170271428Y-54990476D01*
X170176190Y-55038095D01*
X156952380Y-82782857D02*
X156476190Y-83116190D01*
X156952380Y-83354285D02*
X155952380Y-83354285D01*
X155952380Y-82973333D01*
X156000000Y-82878095D01*
X156047619Y-82830476D01*
X156142857Y-82782857D01*
X156285714Y-82782857D01*
X156380952Y-82830476D01*
X156428571Y-82878095D01*
X156476190Y-82973333D01*
X156476190Y-83354285D01*
X156952380Y-81830476D02*
X156952380Y-82401904D01*
X156952380Y-82116190D02*
X155952380Y-82116190D01*
X156095238Y-82211428D01*
X156190476Y-82306666D01*
X156238095Y-82401904D01*
X156380952Y-81259047D02*
X156333333Y-81354285D01*
X156285714Y-81401904D01*
X156190476Y-81449523D01*
X156142857Y-81449523D01*
X156047619Y-81401904D01*
X156000000Y-81354285D01*
X155952380Y-81259047D01*
X155952380Y-81068571D01*
X156000000Y-80973333D01*
X156047619Y-80925714D01*
X156142857Y-80878095D01*
X156190476Y-80878095D01*
X156285714Y-80925714D01*
X156333333Y-80973333D01*
X156380952Y-81068571D01*
X156380952Y-81259047D01*
X156428571Y-81354285D01*
X156476190Y-81401904D01*
X156571428Y-81449523D01*
X156761904Y-81449523D01*
X156857142Y-81401904D01*
X156904761Y-81354285D01*
X156952380Y-81259047D01*
X156952380Y-81068571D01*
X156904761Y-80973333D01*
X156857142Y-80925714D01*
X156761904Y-80878095D01*
X156571428Y-80878095D01*
X156476190Y-80925714D01*
X156428571Y-80973333D01*
X156380952Y-81068571D01*
X167538095Y-72652380D02*
X168109523Y-72652380D01*
X167823809Y-73652380D02*
X167823809Y-72652380D01*
X168442857Y-73652380D02*
X168442857Y-72652380D01*
X168823809Y-72652380D01*
X168919047Y-72700000D01*
X168966666Y-72747619D01*
X169014285Y-72842857D01*
X169014285Y-72985714D01*
X168966666Y-73080952D01*
X168919047Y-73128571D01*
X168823809Y-73176190D01*
X168442857Y-73176190D01*
X169871428Y-72985714D02*
X169871428Y-73652380D01*
X169633333Y-72604761D02*
X169395238Y-73319047D01*
X170014285Y-73319047D01*
X173033333Y-93257142D02*
X172985714Y-93304761D01*
X172842857Y-93352380D01*
X172747619Y-93352380D01*
X172604761Y-93304761D01*
X172509523Y-93209523D01*
X172461904Y-93114285D01*
X172414285Y-92923809D01*
X172414285Y-92780952D01*
X172461904Y-92590476D01*
X172509523Y-92495238D01*
X172604761Y-92400000D01*
X172747619Y-92352380D01*
X172842857Y-92352380D01*
X172985714Y-92400000D01*
X173033333Y-92447619D01*
X173509523Y-93352380D02*
X173700000Y-93352380D01*
X173795238Y-93304761D01*
X173842857Y-93257142D01*
X173938095Y-93114285D01*
X173985714Y-92923809D01*
X173985714Y-92542857D01*
X173938095Y-92447619D01*
X173890476Y-92400000D01*
X173795238Y-92352380D01*
X173604761Y-92352380D01*
X173509523Y-92400000D01*
X173461904Y-92447619D01*
X173414285Y-92542857D01*
X173414285Y-92780952D01*
X173461904Y-92876190D01*
X173509523Y-92923809D01*
X173604761Y-92971428D01*
X173795238Y-92971428D01*
X173890476Y-92923809D01*
X173938095Y-92876190D01*
X173985714Y-92780952D01*
X161933333Y-99057142D02*
X161885714Y-99104761D01*
X161742857Y-99152380D01*
X161647619Y-99152380D01*
X161504761Y-99104761D01*
X161409523Y-99009523D01*
X161361904Y-98914285D01*
X161314285Y-98723809D01*
X161314285Y-98580952D01*
X161361904Y-98390476D01*
X161409523Y-98295238D01*
X161504761Y-98200000D01*
X161647619Y-98152380D01*
X161742857Y-98152380D01*
X161885714Y-98200000D01*
X161933333Y-98247619D01*
X162790476Y-98152380D02*
X162600000Y-98152380D01*
X162504761Y-98200000D01*
X162457142Y-98247619D01*
X162361904Y-98390476D01*
X162314285Y-98580952D01*
X162314285Y-98961904D01*
X162361904Y-99057142D01*
X162409523Y-99104761D01*
X162504761Y-99152380D01*
X162695238Y-99152380D01*
X162790476Y-99104761D01*
X162838095Y-99057142D01*
X162885714Y-98961904D01*
X162885714Y-98723809D01*
X162838095Y-98628571D01*
X162790476Y-98580952D01*
X162695238Y-98533333D01*
X162504761Y-98533333D01*
X162409523Y-98580952D01*
X162361904Y-98628571D01*
X162314285Y-98723809D01*
X154557142Y-111052380D02*
X154223809Y-110576190D01*
X153985714Y-111052380D02*
X153985714Y-110052380D01*
X154366666Y-110052380D01*
X154461904Y-110100000D01*
X154509523Y-110147619D01*
X154557142Y-110242857D01*
X154557142Y-110385714D01*
X154509523Y-110480952D01*
X154461904Y-110528571D01*
X154366666Y-110576190D01*
X153985714Y-110576190D01*
X155509523Y-111052380D02*
X154938095Y-111052380D01*
X155223809Y-111052380D02*
X155223809Y-110052380D01*
X155128571Y-110195238D01*
X155033333Y-110290476D01*
X154938095Y-110338095D01*
X156461904Y-111052380D02*
X155890476Y-111052380D01*
X156176190Y-111052380D02*
X156176190Y-110052380D01*
X156080952Y-110195238D01*
X155985714Y-110290476D01*
X155890476Y-110338095D01*
X125157142Y-83642857D02*
X125204761Y-83690476D01*
X125252380Y-83833333D01*
X125252380Y-83928571D01*
X125204761Y-84071428D01*
X125109523Y-84166666D01*
X125014285Y-84214285D01*
X124823809Y-84261904D01*
X124680952Y-84261904D01*
X124490476Y-84214285D01*
X124395238Y-84166666D01*
X124300000Y-84071428D01*
X124252380Y-83928571D01*
X124252380Y-83833333D01*
X124300000Y-83690476D01*
X124347619Y-83642857D01*
X125252380Y-82690476D02*
X125252380Y-83261904D01*
X125252380Y-82976190D02*
X124252380Y-82976190D01*
X124395238Y-83071428D01*
X124490476Y-83166666D01*
X124538095Y-83261904D01*
X124252380Y-82357142D02*
X124252380Y-81738095D01*
X124633333Y-82071428D01*
X124633333Y-81928571D01*
X124680952Y-81833333D01*
X124728571Y-81785714D01*
X124823809Y-81738095D01*
X125061904Y-81738095D01*
X125157142Y-81785714D01*
X125204761Y-81833333D01*
X125252380Y-81928571D01*
X125252380Y-82214285D01*
X125204761Y-82309523D01*
X125157142Y-82357142D01*
X140557142Y-89042857D02*
X140604761Y-89090476D01*
X140652380Y-89233333D01*
X140652380Y-89328571D01*
X140604761Y-89471428D01*
X140509523Y-89566666D01*
X140414285Y-89614285D01*
X140223809Y-89661904D01*
X140080952Y-89661904D01*
X139890476Y-89614285D01*
X139795238Y-89566666D01*
X139700000Y-89471428D01*
X139652380Y-89328571D01*
X139652380Y-89233333D01*
X139700000Y-89090476D01*
X139747619Y-89042857D01*
X140652380Y-88090476D02*
X140652380Y-88661904D01*
X140652380Y-88376190D02*
X139652380Y-88376190D01*
X139795238Y-88471428D01*
X139890476Y-88566666D01*
X139938095Y-88661904D01*
X139747619Y-87709523D02*
X139700000Y-87661904D01*
X139652380Y-87566666D01*
X139652380Y-87328571D01*
X139700000Y-87233333D01*
X139747619Y-87185714D01*
X139842857Y-87138095D01*
X139938095Y-87138095D01*
X140080952Y-87185714D01*
X140652380Y-87757142D01*
X140652380Y-87138095D01*
X166957142Y-78557142D02*
X166909523Y-78604761D01*
X166766666Y-78652380D01*
X166671428Y-78652380D01*
X166528571Y-78604761D01*
X166433333Y-78509523D01*
X166385714Y-78414285D01*
X166338095Y-78223809D01*
X166338095Y-78080952D01*
X166385714Y-77890476D01*
X166433333Y-77795238D01*
X166528571Y-77700000D01*
X166671428Y-77652380D01*
X166766666Y-77652380D01*
X166909523Y-77700000D01*
X166957142Y-77747619D01*
X167909523Y-78652380D02*
X167338095Y-78652380D01*
X167623809Y-78652380D02*
X167623809Y-77652380D01*
X167528571Y-77795238D01*
X167433333Y-77890476D01*
X167338095Y-77938095D01*
X168861904Y-78652380D02*
X168290476Y-78652380D01*
X168576190Y-78652380D02*
X168576190Y-77652380D01*
X168480952Y-77795238D01*
X168385714Y-77890476D01*
X168290476Y-77938095D01*
X155957142Y-72742857D02*
X156004761Y-72790476D01*
X156052380Y-72933333D01*
X156052380Y-73028571D01*
X156004761Y-73171428D01*
X155909523Y-73266666D01*
X155814285Y-73314285D01*
X155623809Y-73361904D01*
X155480952Y-73361904D01*
X155290476Y-73314285D01*
X155195238Y-73266666D01*
X155100000Y-73171428D01*
X155052380Y-73028571D01*
X155052380Y-72933333D01*
X155100000Y-72790476D01*
X155147619Y-72742857D01*
X156052380Y-71790476D02*
X156052380Y-72361904D01*
X156052380Y-72076190D02*
X155052380Y-72076190D01*
X155195238Y-72171428D01*
X155290476Y-72266666D01*
X155338095Y-72361904D01*
X155052380Y-71171428D02*
X155052380Y-71076190D01*
X155100000Y-70980952D01*
X155147619Y-70933333D01*
X155242857Y-70885714D01*
X155433333Y-70838095D01*
X155671428Y-70838095D01*
X155861904Y-70885714D01*
X155957142Y-70933333D01*
X156004761Y-70980952D01*
X156052380Y-71076190D01*
X156052380Y-71171428D01*
X156004761Y-71266666D01*
X155957142Y-71314285D01*
X155861904Y-71361904D01*
X155671428Y-71409523D01*
X155433333Y-71409523D01*
X155242857Y-71361904D01*
X155147619Y-71314285D01*
X155100000Y-71266666D01*
X155052380Y-71171428D01*
X162233333Y-109857142D02*
X162185714Y-109904761D01*
X162042857Y-109952380D01*
X161947619Y-109952380D01*
X161804761Y-109904761D01*
X161709523Y-109809523D01*
X161661904Y-109714285D01*
X161614285Y-109523809D01*
X161614285Y-109380952D01*
X161661904Y-109190476D01*
X161709523Y-109095238D01*
X161804761Y-109000000D01*
X161947619Y-108952380D01*
X162042857Y-108952380D01*
X162185714Y-109000000D01*
X162233333Y-109047619D01*
X162566666Y-108952380D02*
X163233333Y-108952380D01*
X162804761Y-109952380D01*
X124733333Y-73357142D02*
X124685714Y-73404761D01*
X124542857Y-73452380D01*
X124447619Y-73452380D01*
X124304761Y-73404761D01*
X124209523Y-73309523D01*
X124161904Y-73214285D01*
X124114285Y-73023809D01*
X124114285Y-72880952D01*
X124161904Y-72690476D01*
X124209523Y-72595238D01*
X124304761Y-72500000D01*
X124447619Y-72452380D01*
X124542857Y-72452380D01*
X124685714Y-72500000D01*
X124733333Y-72547619D01*
X125590476Y-72785714D02*
X125590476Y-73452380D01*
X125352380Y-72404761D02*
X125114285Y-73119047D01*
X125733333Y-73119047D01*
X131433333Y-108857142D02*
X131385714Y-108904761D01*
X131242857Y-108952380D01*
X131147619Y-108952380D01*
X131004761Y-108904761D01*
X130909523Y-108809523D01*
X130861904Y-108714285D01*
X130814285Y-108523809D01*
X130814285Y-108380952D01*
X130861904Y-108190476D01*
X130909523Y-108095238D01*
X131004761Y-108000000D01*
X131147619Y-107952380D01*
X131242857Y-107952380D01*
X131385714Y-108000000D01*
X131433333Y-108047619D01*
X131766666Y-107952380D02*
X132385714Y-107952380D01*
X132052380Y-108333333D01*
X132195238Y-108333333D01*
X132290476Y-108380952D01*
X132338095Y-108428571D01*
X132385714Y-108523809D01*
X132385714Y-108761904D01*
X132338095Y-108857142D01*
X132290476Y-108904761D01*
X132195238Y-108952380D01*
X131909523Y-108952380D01*
X131814285Y-108904761D01*
X131766666Y-108857142D01*
X125133333Y-90357142D02*
X125085714Y-90404761D01*
X124942857Y-90452380D01*
X124847619Y-90452380D01*
X124704761Y-90404761D01*
X124609523Y-90309523D01*
X124561904Y-90214285D01*
X124514285Y-90023809D01*
X124514285Y-89880952D01*
X124561904Y-89690476D01*
X124609523Y-89595238D01*
X124704761Y-89500000D01*
X124847619Y-89452380D01*
X124942857Y-89452380D01*
X125085714Y-89500000D01*
X125133333Y-89547619D01*
X125514285Y-89547619D02*
X125561904Y-89500000D01*
X125657142Y-89452380D01*
X125895238Y-89452380D01*
X125990476Y-89500000D01*
X126038095Y-89547619D01*
X126085714Y-89642857D01*
X126085714Y-89738095D01*
X126038095Y-89880952D01*
X125466666Y-90452380D01*
X126085714Y-90452380D01*
X141004761Y-75452380D02*
X141576190Y-75452380D01*
X141290476Y-76452380D02*
X141290476Y-75452380D01*
X142052380Y-76452380D02*
X141957142Y-76404761D01*
X141909523Y-76357142D01*
X141861904Y-76261904D01*
X141861904Y-75976190D01*
X141909523Y-75880952D01*
X141957142Y-75833333D01*
X142052380Y-75785714D01*
X142195238Y-75785714D01*
X142290476Y-75833333D01*
X142338095Y-75880952D01*
X142385714Y-75976190D01*
X142385714Y-76261904D01*
X142338095Y-76357142D01*
X142290476Y-76404761D01*
X142195238Y-76452380D01*
X142052380Y-76452380D01*
X142814285Y-75785714D02*
X142814285Y-76452380D01*
X142814285Y-75880952D02*
X142861904Y-75833333D01*
X142957142Y-75785714D01*
X143100000Y-75785714D01*
X143195238Y-75833333D01*
X143242857Y-75928571D01*
X143242857Y-76452380D01*
X144100000Y-76404761D02*
X144004761Y-76452380D01*
X143814285Y-76452380D01*
X143719047Y-76404761D01*
X143671428Y-76309523D01*
X143671428Y-75928571D01*
X143719047Y-75833333D01*
X143814285Y-75785714D01*
X144004761Y-75785714D01*
X144100000Y-75833333D01*
X144147619Y-75928571D01*
X144147619Y-76023809D01*
X143671428Y-76119047D01*
X145100000Y-76452380D02*
X144528571Y-76452380D01*
X144814285Y-76452380D02*
X144814285Y-75452380D01*
X144719047Y-75595238D01*
X144623809Y-75690476D01*
X144528571Y-75738095D01*
X135038095Y-68054380D02*
X135609523Y-68054380D01*
X135323809Y-69054380D02*
X135323809Y-68054380D01*
X135942857Y-69054380D02*
X135942857Y-68054380D01*
X136323809Y-68054380D01*
X136419047Y-68102000D01*
X136466666Y-68149619D01*
X136514285Y-68244857D01*
X136514285Y-68387714D01*
X136466666Y-68482952D01*
X136419047Y-68530571D01*
X136323809Y-68578190D01*
X135942857Y-68578190D01*
X137371428Y-68054380D02*
X137180952Y-68054380D01*
X137085714Y-68102000D01*
X137038095Y-68149619D01*
X136942857Y-68292476D01*
X136895238Y-68482952D01*
X136895238Y-68863904D01*
X136942857Y-68959142D01*
X136990476Y-69006761D01*
X137085714Y-69054380D01*
X137276190Y-69054380D01*
X137371428Y-69006761D01*
X137419047Y-68959142D01*
X137466666Y-68863904D01*
X137466666Y-68625809D01*
X137419047Y-68530571D01*
X137371428Y-68482952D01*
X137276190Y-68435333D01*
X137085714Y-68435333D01*
X136990476Y-68482952D01*
X136942857Y-68530571D01*
X136895238Y-68625809D01*
X146338095Y-72552380D02*
X146909523Y-72552380D01*
X146623809Y-73552380D02*
X146623809Y-72552380D01*
X147242857Y-73552380D02*
X147242857Y-72552380D01*
X147623809Y-72552380D01*
X147719047Y-72600000D01*
X147766666Y-72647619D01*
X147814285Y-72742857D01*
X147814285Y-72885714D01*
X147766666Y-72980952D01*
X147719047Y-73028571D01*
X147623809Y-73076190D01*
X147242857Y-73076190D01*
X148719047Y-72552380D02*
X148242857Y-72552380D01*
X148195238Y-73028571D01*
X148242857Y-72980952D01*
X148338095Y-72933333D01*
X148576190Y-72933333D01*
X148671428Y-72980952D01*
X148719047Y-73028571D01*
X148766666Y-73123809D01*
X148766666Y-73361904D01*
X148719047Y-73457142D01*
X148671428Y-73504761D01*
X148576190Y-73552380D01*
X148338095Y-73552380D01*
X148242857Y-73504761D01*
X148195238Y-73457142D01*
X120138095Y-84552380D02*
X120709523Y-84552380D01*
X120423809Y-85552380D02*
X120423809Y-84552380D01*
X121042857Y-85552380D02*
X121042857Y-84552380D01*
X121423809Y-84552380D01*
X121519047Y-84600000D01*
X121566666Y-84647619D01*
X121614285Y-84742857D01*
X121614285Y-84885714D01*
X121566666Y-84980952D01*
X121519047Y-85028571D01*
X121423809Y-85076190D01*
X121042857Y-85076190D01*
X121947619Y-84552380D02*
X122566666Y-84552380D01*
X122233333Y-84933333D01*
X122376190Y-84933333D01*
X122471428Y-84980952D01*
X122519047Y-85028571D01*
X122566666Y-85123809D01*
X122566666Y-85361904D01*
X122519047Y-85457142D01*
X122471428Y-85504761D01*
X122376190Y-85552380D01*
X122090476Y-85552380D01*
X121995238Y-85504761D01*
X121947619Y-85457142D01*
X120038095Y-103652380D02*
X120609523Y-103652380D01*
X120323809Y-104652380D02*
X120323809Y-103652380D01*
X120942857Y-104652380D02*
X120942857Y-103652380D01*
X121323809Y-103652380D01*
X121419047Y-103700000D01*
X121466666Y-103747619D01*
X121514285Y-103842857D01*
X121514285Y-103985714D01*
X121466666Y-104080952D01*
X121419047Y-104128571D01*
X121323809Y-104176190D01*
X120942857Y-104176190D01*
X121895238Y-103747619D02*
X121942857Y-103700000D01*
X122038095Y-103652380D01*
X122276190Y-103652380D01*
X122371428Y-103700000D01*
X122419047Y-103747619D01*
X122466666Y-103842857D01*
X122466666Y-103938095D01*
X122419047Y-104080952D01*
X121847619Y-104652380D01*
X122466666Y-104652380D01*
X124938095Y-117654380D02*
X125509523Y-117654380D01*
X125223809Y-118654380D02*
X125223809Y-117654380D01*
X125842857Y-118654380D02*
X125842857Y-117654380D01*
X126223809Y-117654380D01*
X126319047Y-117702000D01*
X126366666Y-117749619D01*
X126414285Y-117844857D01*
X126414285Y-117987714D01*
X126366666Y-118082952D01*
X126319047Y-118130571D01*
X126223809Y-118178190D01*
X125842857Y-118178190D01*
X127366666Y-118654380D02*
X126795238Y-118654380D01*
X127080952Y-118654380D02*
X127080952Y-117654380D01*
X126985714Y-117797238D01*
X126890476Y-117892476D01*
X126795238Y-117940095D01*
X147852380Y-150262857D02*
X147376190Y-150596190D01*
X147852380Y-150834285D02*
X146852380Y-150834285D01*
X146852380Y-150453333D01*
X146900000Y-150358095D01*
X146947619Y-150310476D01*
X147042857Y-150262857D01*
X147185714Y-150262857D01*
X147280952Y-150310476D01*
X147328571Y-150358095D01*
X147376190Y-150453333D01*
X147376190Y-150834285D01*
X146947619Y-149881904D02*
X146900000Y-149834285D01*
X146852380Y-149739047D01*
X146852380Y-149500952D01*
X146900000Y-149405714D01*
X146947619Y-149358095D01*
X147042857Y-149310476D01*
X147138095Y-149310476D01*
X147280952Y-149358095D01*
X147852380Y-149929523D01*
X147852380Y-149310476D01*
X146852380Y-148977142D02*
X146852380Y-148358095D01*
X147233333Y-148691428D01*
X147233333Y-148548571D01*
X147280952Y-148453333D01*
X147328571Y-148405714D01*
X147423809Y-148358095D01*
X147661904Y-148358095D01*
X147757142Y-148405714D01*
X147804761Y-148453333D01*
X147852380Y-148548571D01*
X147852380Y-148834285D01*
X147804761Y-148929523D01*
X147757142Y-148977142D01*
X138552380Y-79582857D02*
X138076190Y-79916190D01*
X138552380Y-80154285D02*
X137552380Y-80154285D01*
X137552380Y-79773333D01*
X137600000Y-79678095D01*
X137647619Y-79630476D01*
X137742857Y-79582857D01*
X137885714Y-79582857D01*
X137980952Y-79630476D01*
X138028571Y-79678095D01*
X138076190Y-79773333D01*
X138076190Y-80154285D01*
X137647619Y-79201904D02*
X137600000Y-79154285D01*
X137552380Y-79059047D01*
X137552380Y-78820952D01*
X137600000Y-78725714D01*
X137647619Y-78678095D01*
X137742857Y-78630476D01*
X137838095Y-78630476D01*
X137980952Y-78678095D01*
X138552380Y-79249523D01*
X138552380Y-78630476D01*
X137647619Y-78249523D02*
X137600000Y-78201904D01*
X137552380Y-78106666D01*
X137552380Y-77868571D01*
X137600000Y-77773333D01*
X137647619Y-77725714D01*
X137742857Y-77678095D01*
X137838095Y-77678095D01*
X137980952Y-77725714D01*
X138552380Y-78297142D01*
X138552380Y-77678095D01*
X140252380Y-64242857D02*
X139776190Y-64576190D01*
X140252380Y-64814285D02*
X139252380Y-64814285D01*
X139252380Y-64433333D01*
X139300000Y-64338095D01*
X139347619Y-64290476D01*
X139442857Y-64242857D01*
X139585714Y-64242857D01*
X139680952Y-64290476D01*
X139728571Y-64338095D01*
X139776190Y-64433333D01*
X139776190Y-64814285D01*
X139347619Y-63861904D02*
X139300000Y-63814285D01*
X139252380Y-63719047D01*
X139252380Y-63480952D01*
X139300000Y-63385714D01*
X139347619Y-63338095D01*
X139442857Y-63290476D01*
X139538095Y-63290476D01*
X139680952Y-63338095D01*
X140252380Y-63909523D01*
X140252380Y-63290476D01*
X140252380Y-62338095D02*
X140252380Y-62909523D01*
X140252380Y-62623809D02*
X139252380Y-62623809D01*
X139395238Y-62719047D01*
X139490476Y-62814285D01*
X139538095Y-62909523D01*
X147837142Y-93652380D02*
X147503809Y-93176190D01*
X147265714Y-93652380D02*
X147265714Y-92652380D01*
X147646666Y-92652380D01*
X147741904Y-92700000D01*
X147789523Y-92747619D01*
X147837142Y-92842857D01*
X147837142Y-92985714D01*
X147789523Y-93080952D01*
X147741904Y-93128571D01*
X147646666Y-93176190D01*
X147265714Y-93176190D01*
X148218095Y-92747619D02*
X148265714Y-92700000D01*
X148360952Y-92652380D01*
X148599047Y-92652380D01*
X148694285Y-92700000D01*
X148741904Y-92747619D01*
X148789523Y-92842857D01*
X148789523Y-92938095D01*
X148741904Y-93080952D01*
X148170476Y-93652380D01*
X148789523Y-93652380D01*
X149408571Y-92652380D02*
X149503809Y-92652380D01*
X149599047Y-92700000D01*
X149646666Y-92747619D01*
X149694285Y-92842857D01*
X149741904Y-93033333D01*
X149741904Y-93271428D01*
X149694285Y-93461904D01*
X149646666Y-93557142D01*
X149599047Y-93604761D01*
X149503809Y-93652380D01*
X149408571Y-93652380D01*
X149313333Y-93604761D01*
X149265714Y-93557142D01*
X149218095Y-93461904D01*
X149170476Y-93271428D01*
X149170476Y-93033333D01*
X149218095Y-92842857D01*
X149265714Y-92747619D01*
X149313333Y-92700000D01*
X149408571Y-92652380D01*
X134652380Y-104262857D02*
X134176190Y-104596190D01*
X134652380Y-104834285D02*
X133652380Y-104834285D01*
X133652380Y-104453333D01*
X133700000Y-104358095D01*
X133747619Y-104310476D01*
X133842857Y-104262857D01*
X133985714Y-104262857D01*
X134080952Y-104310476D01*
X134128571Y-104358095D01*
X134176190Y-104453333D01*
X134176190Y-104834285D01*
X134652380Y-103310476D02*
X134652380Y-103881904D01*
X134652380Y-103596190D02*
X133652380Y-103596190D01*
X133795238Y-103691428D01*
X133890476Y-103786666D01*
X133938095Y-103881904D01*
X134652380Y-102834285D02*
X134652380Y-102643809D01*
X134604761Y-102548571D01*
X134557142Y-102500952D01*
X134414285Y-102405714D01*
X134223809Y-102358095D01*
X133842857Y-102358095D01*
X133747619Y-102405714D01*
X133700000Y-102453333D01*
X133652380Y-102548571D01*
X133652380Y-102739047D01*
X133700000Y-102834285D01*
X133747619Y-102881904D01*
X133842857Y-102929523D01*
X134080952Y-102929523D01*
X134176190Y-102881904D01*
X134223809Y-102834285D01*
X134271428Y-102739047D01*
X134271428Y-102548571D01*
X134223809Y-102453333D01*
X134176190Y-102405714D01*
X134080952Y-102358095D01*
X160852380Y-77742857D02*
X160376190Y-78076190D01*
X160852380Y-78314285D02*
X159852380Y-78314285D01*
X159852380Y-77933333D01*
X159900000Y-77838095D01*
X159947619Y-77790476D01*
X160042857Y-77742857D01*
X160185714Y-77742857D01*
X160280952Y-77790476D01*
X160328571Y-77838095D01*
X160376190Y-77933333D01*
X160376190Y-78314285D01*
X160852380Y-76790476D02*
X160852380Y-77361904D01*
X160852380Y-77076190D02*
X159852380Y-77076190D01*
X159995238Y-77171428D01*
X160090476Y-77266666D01*
X160138095Y-77361904D01*
X159852380Y-76457142D02*
X159852380Y-75790476D01*
X160852380Y-76219047D01*
X164252380Y-117042857D02*
X163776190Y-117376190D01*
X164252380Y-117614285D02*
X163252380Y-117614285D01*
X163252380Y-117233333D01*
X163300000Y-117138095D01*
X163347619Y-117090476D01*
X163442857Y-117042857D01*
X163585714Y-117042857D01*
X163680952Y-117090476D01*
X163728571Y-117138095D01*
X163776190Y-117233333D01*
X163776190Y-117614285D01*
X164252380Y-116090476D02*
X164252380Y-116661904D01*
X164252380Y-116376190D02*
X163252380Y-116376190D01*
X163395238Y-116471428D01*
X163490476Y-116566666D01*
X163538095Y-116661904D01*
X163252380Y-115233333D02*
X163252380Y-115423809D01*
X163300000Y-115519047D01*
X163347619Y-115566666D01*
X163490476Y-115661904D01*
X163680952Y-115709523D01*
X164061904Y-115709523D01*
X164157142Y-115661904D01*
X164204761Y-115614285D01*
X164252380Y-115519047D01*
X164252380Y-115328571D01*
X164204761Y-115233333D01*
X164157142Y-115185714D01*
X164061904Y-115138095D01*
X163823809Y-115138095D01*
X163728571Y-115185714D01*
X163680952Y-115233333D01*
X163633333Y-115328571D01*
X163633333Y-115519047D01*
X163680952Y-115614285D01*
X163728571Y-115661904D01*
X163823809Y-115709523D01*
X168952380Y-117042857D02*
X168476190Y-117376190D01*
X168952380Y-117614285D02*
X167952380Y-117614285D01*
X167952380Y-117233333D01*
X168000000Y-117138095D01*
X168047619Y-117090476D01*
X168142857Y-117042857D01*
X168285714Y-117042857D01*
X168380952Y-117090476D01*
X168428571Y-117138095D01*
X168476190Y-117233333D01*
X168476190Y-117614285D01*
X168952380Y-116090476D02*
X168952380Y-116661904D01*
X168952380Y-116376190D02*
X167952380Y-116376190D01*
X168095238Y-116471428D01*
X168190476Y-116566666D01*
X168238095Y-116661904D01*
X167952380Y-115185714D02*
X167952380Y-115661904D01*
X168428571Y-115709523D01*
X168380952Y-115661904D01*
X168333333Y-115566666D01*
X168333333Y-115328571D01*
X168380952Y-115233333D01*
X168428571Y-115185714D01*
X168523809Y-115138095D01*
X168761904Y-115138095D01*
X168857142Y-115185714D01*
X168904761Y-115233333D01*
X168952380Y-115328571D01*
X168952380Y-115566666D01*
X168904761Y-115661904D01*
X168857142Y-115709523D01*
X171952380Y-82442857D02*
X171476190Y-82776190D01*
X171952380Y-83014285D02*
X170952380Y-83014285D01*
X170952380Y-82633333D01*
X171000000Y-82538095D01*
X171047619Y-82490476D01*
X171142857Y-82442857D01*
X171285714Y-82442857D01*
X171380952Y-82490476D01*
X171428571Y-82538095D01*
X171476190Y-82633333D01*
X171476190Y-83014285D01*
X171952380Y-81490476D02*
X171952380Y-82061904D01*
X171952380Y-81776190D02*
X170952380Y-81776190D01*
X171095238Y-81871428D01*
X171190476Y-81966666D01*
X171238095Y-82061904D01*
X171285714Y-80633333D02*
X171952380Y-80633333D01*
X170904761Y-80871428D02*
X171619047Y-81109523D01*
X171619047Y-80490476D01*
X173352380Y-117062857D02*
X172876190Y-117396190D01*
X173352380Y-117634285D02*
X172352380Y-117634285D01*
X172352380Y-117253333D01*
X172400000Y-117158095D01*
X172447619Y-117110476D01*
X172542857Y-117062857D01*
X172685714Y-117062857D01*
X172780952Y-117110476D01*
X172828571Y-117158095D01*
X172876190Y-117253333D01*
X172876190Y-117634285D01*
X173352380Y-116110476D02*
X173352380Y-116681904D01*
X173352380Y-116396190D02*
X172352380Y-116396190D01*
X172495238Y-116491428D01*
X172590476Y-116586666D01*
X172638095Y-116681904D01*
X172352380Y-115777142D02*
X172352380Y-115158095D01*
X172733333Y-115491428D01*
X172733333Y-115348571D01*
X172780952Y-115253333D01*
X172828571Y-115205714D01*
X172923809Y-115158095D01*
X173161904Y-115158095D01*
X173257142Y-115205714D01*
X173304761Y-115253333D01*
X173352380Y-115348571D01*
X173352380Y-115634285D01*
X173304761Y-115729523D01*
X173257142Y-115777142D01*
X160352380Y-93142857D02*
X159876190Y-93476190D01*
X160352380Y-93714285D02*
X159352380Y-93714285D01*
X159352380Y-93333333D01*
X159400000Y-93238095D01*
X159447619Y-93190476D01*
X159542857Y-93142857D01*
X159685714Y-93142857D01*
X159780952Y-93190476D01*
X159828571Y-93238095D01*
X159876190Y-93333333D01*
X159876190Y-93714285D01*
X160352380Y-92190476D02*
X160352380Y-92761904D01*
X160352380Y-92476190D02*
X159352380Y-92476190D01*
X159495238Y-92571428D01*
X159590476Y-92666666D01*
X159638095Y-92761904D01*
X159447619Y-91809523D02*
X159400000Y-91761904D01*
X159352380Y-91666666D01*
X159352380Y-91428571D01*
X159400000Y-91333333D01*
X159447619Y-91285714D01*
X159542857Y-91238095D01*
X159638095Y-91238095D01*
X159780952Y-91285714D01*
X160352380Y-91857142D01*
X160352380Y-91238095D01*
X141657142Y-107752380D02*
X141323809Y-107276190D01*
X141085714Y-107752380D02*
X141085714Y-106752380D01*
X141466666Y-106752380D01*
X141561904Y-106800000D01*
X141609523Y-106847619D01*
X141657142Y-106942857D01*
X141657142Y-107085714D01*
X141609523Y-107180952D01*
X141561904Y-107228571D01*
X141466666Y-107276190D01*
X141085714Y-107276190D01*
X142609523Y-107752380D02*
X142038095Y-107752380D01*
X142323809Y-107752380D02*
X142323809Y-106752380D01*
X142228571Y-106895238D01*
X142133333Y-106990476D01*
X142038095Y-107038095D01*
X143228571Y-106752380D02*
X143323809Y-106752380D01*
X143419047Y-106800000D01*
X143466666Y-106847619D01*
X143514285Y-106942857D01*
X143561904Y-107133333D01*
X143561904Y-107371428D01*
X143514285Y-107561904D01*
X143466666Y-107657142D01*
X143419047Y-107704761D01*
X143323809Y-107752380D01*
X143228571Y-107752380D01*
X143133333Y-107704761D01*
X143085714Y-107657142D01*
X143038095Y-107561904D01*
X142990476Y-107371428D01*
X142990476Y-107133333D01*
X143038095Y-106942857D01*
X143085714Y-106847619D01*
X143133333Y-106800000D01*
X143228571Y-106752380D01*
X125733333Y-79952380D02*
X125400000Y-79476190D01*
X125161904Y-79952380D02*
X125161904Y-78952380D01*
X125542857Y-78952380D01*
X125638095Y-79000000D01*
X125685714Y-79047619D01*
X125733333Y-79142857D01*
X125733333Y-79285714D01*
X125685714Y-79380952D01*
X125638095Y-79428571D01*
X125542857Y-79476190D01*
X125161904Y-79476190D01*
X126209523Y-79952380D02*
X126400000Y-79952380D01*
X126495238Y-79904761D01*
X126542857Y-79857142D01*
X126638095Y-79714285D01*
X126685714Y-79523809D01*
X126685714Y-79142857D01*
X126638095Y-79047619D01*
X126590476Y-79000000D01*
X126495238Y-78952380D01*
X126304761Y-78952380D01*
X126209523Y-79000000D01*
X126161904Y-79047619D01*
X126114285Y-79142857D01*
X126114285Y-79380952D01*
X126161904Y-79476190D01*
X126209523Y-79523809D01*
X126304761Y-79571428D01*
X126495238Y-79571428D01*
X126590476Y-79523809D01*
X126638095Y-79476190D01*
X126685714Y-79380952D01*
X150933333Y-97052380D02*
X150600000Y-96576190D01*
X150361904Y-97052380D02*
X150361904Y-96052380D01*
X150742857Y-96052380D01*
X150838095Y-96100000D01*
X150885714Y-96147619D01*
X150933333Y-96242857D01*
X150933333Y-96385714D01*
X150885714Y-96480952D01*
X150838095Y-96528571D01*
X150742857Y-96576190D01*
X150361904Y-96576190D01*
X151504761Y-96480952D02*
X151409523Y-96433333D01*
X151361904Y-96385714D01*
X151314285Y-96290476D01*
X151314285Y-96242857D01*
X151361904Y-96147619D01*
X151409523Y-96100000D01*
X151504761Y-96052380D01*
X151695238Y-96052380D01*
X151790476Y-96100000D01*
X151838095Y-96147619D01*
X151885714Y-96242857D01*
X151885714Y-96290476D01*
X151838095Y-96385714D01*
X151790476Y-96433333D01*
X151695238Y-96480952D01*
X151504761Y-96480952D01*
X151409523Y-96528571D01*
X151361904Y-96576190D01*
X151314285Y-96671428D01*
X151314285Y-96861904D01*
X151361904Y-96957142D01*
X151409523Y-97004761D01*
X151504761Y-97052380D01*
X151695238Y-97052380D01*
X151790476Y-97004761D01*
X151838095Y-96957142D01*
X151885714Y-96861904D01*
X151885714Y-96671428D01*
X151838095Y-96576190D01*
X151790476Y-96528571D01*
X151695238Y-96480952D01*
X125933333Y-76652380D02*
X125600000Y-76176190D01*
X125361904Y-76652380D02*
X125361904Y-75652380D01*
X125742857Y-75652380D01*
X125838095Y-75700000D01*
X125885714Y-75747619D01*
X125933333Y-75842857D01*
X125933333Y-75985714D01*
X125885714Y-76080952D01*
X125838095Y-76128571D01*
X125742857Y-76176190D01*
X125361904Y-76176190D01*
X126266666Y-75652380D02*
X126933333Y-75652380D01*
X126504761Y-76652380D01*
X157752380Y-64186666D02*
X157276190Y-64520000D01*
X157752380Y-64758095D02*
X156752380Y-64758095D01*
X156752380Y-64377142D01*
X156800000Y-64281904D01*
X156847619Y-64234285D01*
X156942857Y-64186666D01*
X157085714Y-64186666D01*
X157180952Y-64234285D01*
X157228571Y-64281904D01*
X157276190Y-64377142D01*
X157276190Y-64758095D01*
X156752380Y-63329523D02*
X156752380Y-63520000D01*
X156800000Y-63615238D01*
X156847619Y-63662857D01*
X156990476Y-63758095D01*
X157180952Y-63805714D01*
X157561904Y-63805714D01*
X157657142Y-63758095D01*
X157704761Y-63710476D01*
X157752380Y-63615238D01*
X157752380Y-63424761D01*
X157704761Y-63329523D01*
X157657142Y-63281904D01*
X157561904Y-63234285D01*
X157323809Y-63234285D01*
X157228571Y-63281904D01*
X157180952Y-63329523D01*
X157133333Y-63424761D01*
X157133333Y-63615238D01*
X157180952Y-63710476D01*
X157228571Y-63758095D01*
X157323809Y-63805714D01*
X142133333Y-111052380D02*
X141800000Y-110576190D01*
X141561904Y-111052380D02*
X141561904Y-110052380D01*
X141942857Y-110052380D01*
X142038095Y-110100000D01*
X142085714Y-110147619D01*
X142133333Y-110242857D01*
X142133333Y-110385714D01*
X142085714Y-110480952D01*
X142038095Y-110528571D01*
X141942857Y-110576190D01*
X141561904Y-110576190D01*
X143038095Y-110052380D02*
X142561904Y-110052380D01*
X142514285Y-110528571D01*
X142561904Y-110480952D01*
X142657142Y-110433333D01*
X142895238Y-110433333D01*
X142990476Y-110480952D01*
X143038095Y-110528571D01*
X143085714Y-110623809D01*
X143085714Y-110861904D01*
X143038095Y-110957142D01*
X142990476Y-111004761D01*
X142895238Y-111052380D01*
X142657142Y-111052380D01*
X142561904Y-111004761D01*
X142514285Y-110957142D01*
X125933333Y-101752380D02*
X125600000Y-101276190D01*
X125361904Y-101752380D02*
X125361904Y-100752380D01*
X125742857Y-100752380D01*
X125838095Y-100800000D01*
X125885714Y-100847619D01*
X125933333Y-100942857D01*
X125933333Y-101085714D01*
X125885714Y-101180952D01*
X125838095Y-101228571D01*
X125742857Y-101276190D01*
X125361904Y-101276190D01*
X126790476Y-101085714D02*
X126790476Y-101752380D01*
X126552380Y-100704761D02*
X126314285Y-101419047D01*
X126933333Y-101419047D01*
X125813333Y-97952380D02*
X125480000Y-97476190D01*
X125241904Y-97952380D02*
X125241904Y-96952380D01*
X125622857Y-96952380D01*
X125718095Y-97000000D01*
X125765714Y-97047619D01*
X125813333Y-97142857D01*
X125813333Y-97285714D01*
X125765714Y-97380952D01*
X125718095Y-97428571D01*
X125622857Y-97476190D01*
X125241904Y-97476190D01*
X126146666Y-96952380D02*
X126765714Y-96952380D01*
X126432380Y-97333333D01*
X126575238Y-97333333D01*
X126670476Y-97380952D01*
X126718095Y-97428571D01*
X126765714Y-97523809D01*
X126765714Y-97761904D01*
X126718095Y-97857142D01*
X126670476Y-97904761D01*
X126575238Y-97952380D01*
X126289523Y-97952380D01*
X126194285Y-97904761D01*
X126146666Y-97857142D01*
X131252380Y-115866666D02*
X130776190Y-116200000D01*
X131252380Y-116438095D02*
X130252380Y-116438095D01*
X130252380Y-116057142D01*
X130300000Y-115961904D01*
X130347619Y-115914285D01*
X130442857Y-115866666D01*
X130585714Y-115866666D01*
X130680952Y-115914285D01*
X130728571Y-115961904D01*
X130776190Y-116057142D01*
X130776190Y-116438095D01*
X130347619Y-115485714D02*
X130300000Y-115438095D01*
X130252380Y-115342857D01*
X130252380Y-115104761D01*
X130300000Y-115009523D01*
X130347619Y-114961904D01*
X130442857Y-114914285D01*
X130538095Y-114914285D01*
X130680952Y-114961904D01*
X131252380Y-115533333D01*
X131252380Y-114914285D01*
X122152380Y-115766666D02*
X121676190Y-116100000D01*
X122152380Y-116338095D02*
X121152380Y-116338095D01*
X121152380Y-115957142D01*
X121200000Y-115861904D01*
X121247619Y-115814285D01*
X121342857Y-115766666D01*
X121485714Y-115766666D01*
X121580952Y-115814285D01*
X121628571Y-115861904D01*
X121676190Y-115957142D01*
X121676190Y-116338095D01*
X122152380Y-114814285D02*
X122152380Y-115385714D01*
X122152380Y-115100000D02*
X121152380Y-115100000D01*
X121295238Y-115195238D01*
X121390476Y-115290476D01*
X121438095Y-115385714D01*
X136752380Y-63838095D02*
X135752380Y-63838095D01*
X135752380Y-63600000D01*
X135800000Y-63457142D01*
X135895238Y-63361904D01*
X135990476Y-63314285D01*
X136180952Y-63266666D01*
X136323809Y-63266666D01*
X136514285Y-63314285D01*
X136609523Y-63361904D01*
X136704761Y-63457142D01*
X136752380Y-63600000D01*
X136752380Y-63838095D01*
X135752380Y-62409523D02*
X135752380Y-62600000D01*
X135800000Y-62695238D01*
X135847619Y-62742857D01*
X135990476Y-62838095D01*
X136180952Y-62885714D01*
X136561904Y-62885714D01*
X136657142Y-62838095D01*
X136704761Y-62790476D01*
X136752380Y-62695238D01*
X136752380Y-62504761D01*
X136704761Y-62409523D01*
X136657142Y-62361904D01*
X136561904Y-62314285D01*
X136323809Y-62314285D01*
X136228571Y-62361904D01*
X136180952Y-62409523D01*
X136133333Y-62504761D01*
X136133333Y-62695238D01*
X136180952Y-62790476D01*
X136228571Y-62838095D01*
X136323809Y-62885714D01*
X135052380Y-59061904D02*
X134052380Y-59061904D01*
X135052380Y-58490476D02*
X134480952Y-58919047D01*
X134052380Y-58490476D02*
X134623809Y-59061904D01*
X146361904Y-140952380D02*
X146361904Y-139952380D01*
X146600000Y-139952380D01*
X146742857Y-140000000D01*
X146838095Y-140095238D01*
X146885714Y-140190476D01*
X146933333Y-140380952D01*
X146933333Y-140523809D01*
X146885714Y-140714285D01*
X146838095Y-140809523D01*
X146742857Y-140904761D01*
X146600000Y-140952380D01*
X146361904Y-140952380D01*
X147838095Y-139952380D02*
X147361904Y-139952380D01*
X147314285Y-140428571D01*
X147361904Y-140380952D01*
X147457142Y-140333333D01*
X147695238Y-140333333D01*
X147790476Y-140380952D01*
X147838095Y-140428571D01*
X147885714Y-140523809D01*
X147885714Y-140761904D01*
X147838095Y-140857142D01*
X147790476Y-140904761D01*
X147695238Y-140952380D01*
X147457142Y-140952380D01*
X147361904Y-140904761D01*
X147314285Y-140857142D01*
X168561904Y-104152380D02*
X168561904Y-103152380D01*
X168800000Y-103152380D01*
X168942857Y-103200000D01*
X169038095Y-103295238D01*
X169085714Y-103390476D01*
X169133333Y-103580952D01*
X169133333Y-103723809D01*
X169085714Y-103914285D01*
X169038095Y-104009523D01*
X168942857Y-104104761D01*
X168800000Y-104152380D01*
X168561904Y-104152380D01*
X169990476Y-103485714D02*
X169990476Y-104152380D01*
X169752380Y-103104761D02*
X169514285Y-103819047D01*
X170133333Y-103819047D01*
X174638095Y-104252380D02*
X174638095Y-103252380D01*
X175209523Y-104252380D02*
X174780952Y-103680952D01*
X175209523Y-103252380D02*
X174638095Y-103823809D01*
X168651904Y-101152380D02*
X168651904Y-100152380D01*
X168890000Y-100152380D01*
X169032857Y-100200000D01*
X169128095Y-100295238D01*
X169175714Y-100390476D01*
X169223333Y-100580952D01*
X169223333Y-100723809D01*
X169175714Y-100914285D01*
X169128095Y-101009523D01*
X169032857Y-101104761D01*
X168890000Y-101152380D01*
X168651904Y-101152380D01*
X169556666Y-100152380D02*
X170175714Y-100152380D01*
X169842380Y-100533333D01*
X169985238Y-100533333D01*
X170080476Y-100580952D01*
X170128095Y-100628571D01*
X170175714Y-100723809D01*
X170175714Y-100961904D01*
X170128095Y-101057142D01*
X170080476Y-101104761D01*
X169985238Y-101152380D01*
X169699523Y-101152380D01*
X169604285Y-101104761D01*
X169556666Y-101057142D01*
X163538095Y-101152380D02*
X163538095Y-100152380D01*
X164109523Y-101152380D02*
X163680952Y-100580952D01*
X164109523Y-100152380D02*
X163538095Y-100723809D01*
X142361904Y-102052380D02*
X142361904Y-101052380D01*
X142600000Y-101052380D01*
X142742857Y-101100000D01*
X142838095Y-101195238D01*
X142885714Y-101290476D01*
X142933333Y-101480952D01*
X142933333Y-101623809D01*
X142885714Y-101814285D01*
X142838095Y-101909523D01*
X142742857Y-102004761D01*
X142600000Y-102052380D01*
X142361904Y-102052380D01*
X143314285Y-101147619D02*
X143361904Y-101100000D01*
X143457142Y-101052380D01*
X143695238Y-101052380D01*
X143790476Y-101100000D01*
X143838095Y-101147619D01*
X143885714Y-101242857D01*
X143885714Y-101338095D01*
X143838095Y-101480952D01*
X143266666Y-102052380D01*
X143885714Y-102052380D01*
X148538095Y-102052380D02*
X148538095Y-101052380D01*
X149109523Y-102052380D02*
X148680952Y-101480952D01*
X149109523Y-101052380D02*
X148538095Y-101623809D01*
X142961904Y-104752380D02*
X142961904Y-103752380D01*
X143200000Y-103752380D01*
X143342857Y-103800000D01*
X143438095Y-103895238D01*
X143485714Y-103990476D01*
X143533333Y-104180952D01*
X143533333Y-104323809D01*
X143485714Y-104514285D01*
X143438095Y-104609523D01*
X143342857Y-104704761D01*
X143200000Y-104752380D01*
X142961904Y-104752380D01*
X144485714Y-104752380D02*
X143914285Y-104752380D01*
X144200000Y-104752380D02*
X144200000Y-103752380D01*
X144104761Y-103895238D01*
X144009523Y-103990476D01*
X143914285Y-104038095D01*
X137638095Y-104752380D02*
X137638095Y-103752380D01*
X138209523Y-104752380D02*
X137780952Y-104180952D01*
X138209523Y-103752380D02*
X137638095Y-104323809D01*
X168033333Y-89257142D02*
X167985714Y-89304761D01*
X167842857Y-89352380D01*
X167747619Y-89352380D01*
X167604761Y-89304761D01*
X167509523Y-89209523D01*
X167461904Y-89114285D01*
X167414285Y-88923809D01*
X167414285Y-88780952D01*
X167461904Y-88590476D01*
X167509523Y-88495238D01*
X167604761Y-88400000D01*
X167747619Y-88352380D01*
X167842857Y-88352380D01*
X167985714Y-88400000D01*
X168033333Y-88447619D01*
X168604761Y-88780952D02*
X168509523Y-88733333D01*
X168461904Y-88685714D01*
X168414285Y-88590476D01*
X168414285Y-88542857D01*
X168461904Y-88447619D01*
X168509523Y-88400000D01*
X168604761Y-88352380D01*
X168795238Y-88352380D01*
X168890476Y-88400000D01*
X168938095Y-88447619D01*
X168985714Y-88542857D01*
X168985714Y-88590476D01*
X168938095Y-88685714D01*
X168890476Y-88733333D01*
X168795238Y-88780952D01*
X168604761Y-88780952D01*
X168509523Y-88828571D01*
X168461904Y-88876190D01*
X168414285Y-88971428D01*
X168414285Y-89161904D01*
X168461904Y-89257142D01*
X168509523Y-89304761D01*
X168604761Y-89352380D01*
X168795238Y-89352380D01*
X168890476Y-89304761D01*
X168938095Y-89257142D01*
X168985714Y-89161904D01*
X168985714Y-88971428D01*
X168938095Y-88876190D01*
X168890476Y-88828571D01*
X168795238Y-88780952D01*
X136733333Y-97557142D02*
X136685714Y-97604761D01*
X136542857Y-97652380D01*
X136447619Y-97652380D01*
X136304761Y-97604761D01*
X136209523Y-97509523D01*
X136161904Y-97414285D01*
X136114285Y-97223809D01*
X136114285Y-97080952D01*
X136161904Y-96890476D01*
X136209523Y-96795238D01*
X136304761Y-96700000D01*
X136447619Y-96652380D01*
X136542857Y-96652380D01*
X136685714Y-96700000D01*
X136733333Y-96747619D01*
X137638095Y-96652380D02*
X137161904Y-96652380D01*
X137114285Y-97128571D01*
X137161904Y-97080952D01*
X137257142Y-97033333D01*
X137495238Y-97033333D01*
X137590476Y-97080952D01*
X137638095Y-97128571D01*
X137685714Y-97223809D01*
X137685714Y-97461904D01*
X137638095Y-97557142D01*
X137590476Y-97604761D01*
X137495238Y-97652380D01*
X137257142Y-97652380D01*
X137161904Y-97604761D01*
X137114285Y-97557142D01*
X126433333Y-116907142D02*
X126385714Y-116954761D01*
X126242857Y-117002380D01*
X126147619Y-117002380D01*
X126004761Y-116954761D01*
X125909523Y-116859523D01*
X125861904Y-116764285D01*
X125814285Y-116573809D01*
X125814285Y-116430952D01*
X125861904Y-116240476D01*
X125909523Y-116145238D01*
X126004761Y-116050000D01*
X126147619Y-116002380D01*
X126242857Y-116002380D01*
X126385714Y-116050000D01*
X126433333Y-116097619D01*
X127385714Y-117002380D02*
X126814285Y-117002380D01*
X127100000Y-117002380D02*
X127100000Y-116002380D01*
X127004761Y-116145238D01*
X126909523Y-116240476D01*
X126814285Y-116288095D01*
X151457142Y-64457142D02*
X151409523Y-64504761D01*
X151266666Y-64552380D01*
X151171428Y-64552380D01*
X151028571Y-64504761D01*
X150933333Y-64409523D01*
X150885714Y-64314285D01*
X150838095Y-64123809D01*
X150838095Y-63980952D01*
X150885714Y-63790476D01*
X150933333Y-63695238D01*
X151028571Y-63600000D01*
X151171428Y-63552380D01*
X151266666Y-63552380D01*
X151409523Y-63600000D01*
X151457142Y-63647619D01*
X152409523Y-64552380D02*
X151838095Y-64552380D01*
X152123809Y-64552380D02*
X152123809Y-63552380D01*
X152028571Y-63695238D01*
X151933333Y-63790476D01*
X151838095Y-63838095D01*
X153266666Y-63885714D02*
X153266666Y-64552380D01*
X153028571Y-63504761D02*
X152790476Y-64219047D01*
X153409523Y-64219047D01*
X147166666Y-55328571D02*
X146833333Y-55328571D01*
X146833333Y-55852380D02*
X146833333Y-54852380D01*
X147309523Y-54852380D01*
X148214285Y-55852380D02*
X147642857Y-55852380D01*
X147928571Y-55852380D02*
X147928571Y-54852380D01*
X147833333Y-54995238D01*
X147738095Y-55090476D01*
X147642857Y-55138095D01*
X130847619Y-92495238D02*
X130800000Y-92590476D01*
X130704761Y-92685714D01*
X130561904Y-92828571D01*
X130514285Y-92923809D01*
X130514285Y-93019047D01*
X130752380Y-92971428D02*
X130704761Y-93066666D01*
X130609523Y-93161904D01*
X130419047Y-93209523D01*
X130085714Y-93209523D01*
X129895238Y-93161904D01*
X129800000Y-93066666D01*
X129752380Y-92971428D01*
X129752380Y-92780952D01*
X129800000Y-92685714D01*
X129895238Y-92590476D01*
X130085714Y-92542857D01*
X130419047Y-92542857D01*
X130609523Y-92590476D01*
X130704761Y-92685714D01*
X130752380Y-92780952D01*
X130752380Y-92971428D01*
X130752380Y-91590476D02*
X130752380Y-92161904D01*
X130752380Y-91876190D02*
X129752380Y-91876190D01*
X129895238Y-91971428D01*
X129990476Y-92066666D01*
X130038095Y-92161904D01*
X154804761Y-107247619D02*
X154709523Y-107200000D01*
X154614285Y-107104761D01*
X154471428Y-106961904D01*
X154376190Y-106914285D01*
X154280952Y-106914285D01*
X154328571Y-107152380D02*
X154233333Y-107104761D01*
X154138095Y-107009523D01*
X154090476Y-106819047D01*
X154090476Y-106485714D01*
X154138095Y-106295238D01*
X154233333Y-106200000D01*
X154328571Y-106152380D01*
X154519047Y-106152380D01*
X154614285Y-106200000D01*
X154709523Y-106295238D01*
X154757142Y-106485714D01*
X154757142Y-106819047D01*
X154709523Y-107009523D01*
X154614285Y-107104761D01*
X154519047Y-107152380D01*
X154328571Y-107152380D01*
X155138095Y-106247619D02*
X155185714Y-106200000D01*
X155280952Y-106152380D01*
X155519047Y-106152380D01*
X155614285Y-106200000D01*
X155661904Y-106247619D01*
X155709523Y-106342857D01*
X155709523Y-106438095D01*
X155661904Y-106580952D01*
X155090476Y-107152380D01*
X155709523Y-107152380D01*
X174004761Y-106647619D02*
X173909523Y-106600000D01*
X173814285Y-106504761D01*
X173671428Y-106361904D01*
X173576190Y-106314285D01*
X173480952Y-106314285D01*
X173528571Y-106552380D02*
X173433333Y-106504761D01*
X173338095Y-106409523D01*
X173290476Y-106219047D01*
X173290476Y-105885714D01*
X173338095Y-105695238D01*
X173433333Y-105600000D01*
X173528571Y-105552380D01*
X173719047Y-105552380D01*
X173814285Y-105600000D01*
X173909523Y-105695238D01*
X173957142Y-105885714D01*
X173957142Y-106219047D01*
X173909523Y-106409523D01*
X173814285Y-106504761D01*
X173719047Y-106552380D01*
X173528571Y-106552380D01*
X174290476Y-105552380D02*
X174909523Y-105552380D01*
X174576190Y-105933333D01*
X174719047Y-105933333D01*
X174814285Y-105980952D01*
X174861904Y-106028571D01*
X174909523Y-106123809D01*
X174909523Y-106361904D01*
X174861904Y-106457142D01*
X174814285Y-106504761D01*
X174719047Y-106552380D01*
X174433333Y-106552380D01*
X174338095Y-106504761D01*
X174290476Y-106457142D01*
X132504761Y-87447619D02*
X132409523Y-87400000D01*
X132314285Y-87304761D01*
X132171428Y-87161904D01*
X132076190Y-87114285D01*
X131980952Y-87114285D01*
X132028571Y-87352380D02*
X131933333Y-87304761D01*
X131838095Y-87209523D01*
X131790476Y-87019047D01*
X131790476Y-86685714D01*
X131838095Y-86495238D01*
X131933333Y-86400000D01*
X132028571Y-86352380D01*
X132219047Y-86352380D01*
X132314285Y-86400000D01*
X132409523Y-86495238D01*
X132457142Y-86685714D01*
X132457142Y-87019047D01*
X132409523Y-87209523D01*
X132314285Y-87304761D01*
X132219047Y-87352380D01*
X132028571Y-87352380D01*
X133314285Y-86685714D02*
X133314285Y-87352380D01*
X133076190Y-86304761D02*
X132838095Y-87019047D01*
X133457142Y-87019047D01*
X121638095Y-86354380D02*
X122209523Y-86354380D01*
X121923809Y-87354380D02*
X121923809Y-86354380D01*
X122542857Y-87354380D02*
X122542857Y-86354380D01*
X122923809Y-86354380D01*
X123019047Y-86402000D01*
X123066666Y-86449619D01*
X123114285Y-86544857D01*
X123114285Y-86687714D01*
X123066666Y-86782952D01*
X123019047Y-86830571D01*
X122923809Y-86878190D01*
X122542857Y-86878190D01*
X123447619Y-86354380D02*
X124114285Y-86354380D01*
X123685714Y-87354380D01*
X155238095Y-90454380D02*
X155809523Y-90454380D01*
X155523809Y-91454380D02*
X155523809Y-90454380D01*
X156142857Y-91454380D02*
X156142857Y-90454380D01*
X156523809Y-90454380D01*
X156619047Y-90502000D01*
X156666666Y-90549619D01*
X156714285Y-90644857D01*
X156714285Y-90787714D01*
X156666666Y-90882952D01*
X156619047Y-90930571D01*
X156523809Y-90978190D01*
X156142857Y-90978190D01*
X157285714Y-90882952D02*
X157190476Y-90835333D01*
X157142857Y-90787714D01*
X157095238Y-90692476D01*
X157095238Y-90644857D01*
X157142857Y-90549619D01*
X157190476Y-90502000D01*
X157285714Y-90454380D01*
X157476190Y-90454380D01*
X157571428Y-90502000D01*
X157619047Y-90549619D01*
X157666666Y-90644857D01*
X157666666Y-90692476D01*
X157619047Y-90787714D01*
X157571428Y-90835333D01*
X157476190Y-90882952D01*
X157285714Y-90882952D01*
X157190476Y-90930571D01*
X157142857Y-90978190D01*
X157095238Y-91073428D01*
X157095238Y-91263904D01*
X157142857Y-91359142D01*
X157190476Y-91406761D01*
X157285714Y-91454380D01*
X157476190Y-91454380D01*
X157571428Y-91406761D01*
X157619047Y-91359142D01*
X157666666Y-91263904D01*
X157666666Y-91073428D01*
X157619047Y-90978190D01*
X157571428Y-90930571D01*
X157476190Y-90882952D01*
X173038095Y-89452380D02*
X173609523Y-89452380D01*
X173323809Y-90452380D02*
X173323809Y-89452380D01*
X173942857Y-90452380D02*
X173942857Y-89452380D01*
X174323809Y-89452380D01*
X174419047Y-89500000D01*
X174466666Y-89547619D01*
X174514285Y-89642857D01*
X174514285Y-89785714D01*
X174466666Y-89880952D01*
X174419047Y-89928571D01*
X174323809Y-89976190D01*
X173942857Y-89976190D01*
X174990476Y-90452380D02*
X175180952Y-90452380D01*
X175276190Y-90404761D01*
X175323809Y-90357142D01*
X175419047Y-90214285D01*
X175466666Y-90023809D01*
X175466666Y-89642857D01*
X175419047Y-89547619D01*
X175371428Y-89500000D01*
X175276190Y-89452380D01*
X175085714Y-89452380D01*
X174990476Y-89500000D01*
X174942857Y-89547619D01*
X174895238Y-89642857D01*
X174895238Y-89880952D01*
X174942857Y-89976190D01*
X174990476Y-90023809D01*
X175085714Y-90071428D01*
X175276190Y-90071428D01*
X175371428Y-90023809D01*
X175419047Y-89976190D01*
X175466666Y-89880952D01*
X119922380Y-130433333D02*
X120636666Y-130433333D01*
X120779523Y-130480952D01*
X120874761Y-130576190D01*
X120922380Y-130719047D01*
X120922380Y-130814285D01*
X120017619Y-130004761D02*
X119970000Y-129957142D01*
X119922380Y-129861904D01*
X119922380Y-129623809D01*
X119970000Y-129528571D01*
X120017619Y-129480952D01*
X120112857Y-129433333D01*
X120208095Y-129433333D01*
X120350952Y-129480952D01*
X120922380Y-130052380D01*
X120922380Y-129433333D01*
X119922380Y-124033333D02*
X120636666Y-124033333D01*
X120779523Y-124080952D01*
X120874761Y-124176190D01*
X120922380Y-124319047D01*
X120922380Y-124414285D01*
X119922380Y-123652380D02*
X119922380Y-123033333D01*
X120303333Y-123366666D01*
X120303333Y-123223809D01*
X120350952Y-123128571D01*
X120398571Y-123080952D01*
X120493809Y-123033333D01*
X120731904Y-123033333D01*
X120827142Y-123080952D01*
X120874761Y-123128571D01*
X120922380Y-123223809D01*
X120922380Y-123509523D01*
X120874761Y-123604761D01*
X120827142Y-123652380D01*
M02*
