M48
; DRILL file {KiCad 5.1.5} date Wed 24 Jun 2020 07:21:35 PM CEST
; FORMAT={-:-/ absolute / inch / decimal}
; #@! TF.CreationDate,2020-06-24T19:21:35+02:00
; #@! TF.GenerationSoftware,Kicad,Pcbnew,5.1.5
; #@! TF.FileFunction,NonPlated,1,2,NPTH
FMAT,2
INCH
T1C0.0197
T2C0.0787
%
G90
G05
T1
X5.7618Y-4.5059
X5.7618Y-4.565
X5.7913Y-4.5059
X5.7913Y-4.565
X5.8209Y-4.5059
X5.8209Y-4.565
X6.5846Y-5.0217
X6.5846Y-5.0807
X6.6142Y-5.0217
X6.6142Y-5.0807
X6.6437Y-5.0217
X6.6437Y-5.0807
X6.2303Y-4.7697
X6.2303Y-4.7992
X6.2303Y-4.8287
X6.2894Y-4.7697
X6.2894Y-4.7992
X6.2894Y-4.8287
X5.2539Y-4.7697
X5.2539Y-4.7992
X5.2539Y-4.8287
X5.313Y-4.7697
X5.313Y-4.7992
X5.313Y-4.8287
X4.9783Y-5.0217
X4.9783Y-5.0807
X5.0079Y-5.0217
X5.0079Y-5.0807
X5.0374Y-5.0217
X5.0374Y-5.0807
T2
X6.3661Y-2.6378
X6.7126Y-2.6378
X4.8583Y-2.6378
X5.2047Y-2.6378
X5.6201Y-2.8898
X5.9665Y-2.8898
T0
M30
