G04 #@! TF.GenerationSoftware,KiCad,Pcbnew,5.1.5*
G04 #@! TF.CreationDate,2020-06-26T00:26:14+02:00*
G04 #@! TF.ProjectId,bigmuff,6269676d-7566-4662-9e6b-696361645f70,rev?*
G04 #@! TF.SameCoordinates,Original*
G04 #@! TF.FileFunction,Profile,NP*
%FSLAX46Y46*%
G04 Gerber Fmt 4.6, Leading zero omitted, Abs format (unit mm)*
G04 Created by KiCad (PCBNEW 5.1.5) date 2020-06-26 00:26:14*
%MOMM*%
%LPD*%
G04 APERTURE LIST*
%ADD10C,0.050000*%
G04 APERTURE END LIST*
D10*
X157000000Y-116200000D02*
G75*
G02X158000000Y-117200000I0J-1000000D01*
G01*
X175000000Y-129300000D02*
G75*
G02X176000000Y-130300000I0J-1000000D01*
G01*
X176000000Y-126300000D02*
G75*
G02X175000000Y-127300000I-1000000J0D01*
G01*
X118300000Y-130300000D02*
G75*
G02X119300000Y-129300000I1000000J0D01*
G01*
X119300000Y-127300000D02*
G75*
G02X118300000Y-126300000I0J1000000D01*
G01*
X133200000Y-126300000D02*
G75*
G02X132200000Y-127300000I-1000000J0D01*
G01*
X135200000Y-128300000D02*
G75*
G02X134200000Y-129300000I-1000000J0D01*
G01*
X124200000Y-127300000D02*
G75*
G02X124200000Y-129300000I0J-1000000D01*
G01*
X130200000Y-129300000D02*
G75*
G02X130200000Y-127300000I0J1000000D01*
G01*
X133200000Y-124900000D02*
G75*
G02X135200000Y-124900000I1000000J0D01*
G01*
X135200000Y-118900000D02*
G75*
G02X133200000Y-118900000I-1000000J0D01*
G01*
X133200000Y-115200000D02*
G75*
G02X134200000Y-114200000I1000000J0D01*
G01*
X135200000Y-117200000D02*
G75*
G02X136200000Y-116200000I1000000J0D01*
G01*
X144100000Y-114200000D02*
G75*
G02X144100000Y-116200000I0J-1000000D01*
G01*
X150100000Y-116200000D02*
G75*
G02X150100000Y-114200000I0J1000000D01*
G01*
X159000000Y-114200000D02*
G75*
G02X160000000Y-115200000I0J-1000000D01*
G01*
X160000000Y-118900000D02*
G75*
G02X158000000Y-118900000I-1000000J0D01*
G01*
X158000000Y-124900000D02*
G75*
G02X160000000Y-124900000I1000000J0D01*
G01*
X161000000Y-127300000D02*
G75*
G02X160000000Y-126300000I0J1000000D01*
G01*
X159000000Y-129300000D02*
G75*
G02X158000000Y-128300000I0J1000000D01*
G01*
X165000000Y-127300000D02*
G75*
G02X165000000Y-129300000I0J-1000000D01*
G01*
X171000000Y-129300000D02*
G75*
G02X171000000Y-127300000I0J1000000D01*
G01*
X175000000Y-129300000D02*
X171000000Y-129300000D01*
X161000000Y-127300000D02*
X165000000Y-127300000D01*
X171000000Y-127300000D02*
X175000000Y-127300000D01*
X165000000Y-129300000D02*
X159000000Y-129300000D01*
X160000000Y-124900000D02*
X160000000Y-126300000D01*
X158000000Y-128300000D02*
X158000000Y-124900000D01*
X160000000Y-118900000D02*
X160000000Y-115200000D01*
X158000000Y-117200000D02*
X158000000Y-118900000D01*
X159000000Y-114200000D02*
X150100000Y-114200000D01*
X150100000Y-116200000D02*
X157000000Y-116200000D01*
X134200000Y-114200000D02*
X144100000Y-114200000D01*
X144100000Y-116200000D02*
X136200000Y-116200000D01*
X133200000Y-118900000D02*
X133200000Y-115200000D01*
X135200000Y-117200000D02*
X135200000Y-118900000D01*
X135200000Y-128300000D02*
X135200000Y-124900000D01*
X133200000Y-124900000D02*
X133200000Y-126300000D01*
X130200000Y-129300000D02*
X134200000Y-129300000D01*
X124200000Y-127300000D02*
X119300000Y-127300000D01*
X132200000Y-127300000D02*
X130200000Y-127300000D01*
X119300000Y-129300000D02*
X124200000Y-129300000D01*
X122300000Y-50300000D02*
X172000000Y-50300000D01*
X118300000Y-154400000D02*
G75*
G02X122300000Y-158400000I0J-4000000D01*
G01*
X122300000Y-50300000D02*
G75*
G02X118300000Y-54300000I-4000000J0D01*
G01*
X176000000Y-54300000D02*
G75*
G02X172000000Y-50300000I0J4000000D01*
G01*
X172000000Y-158400000D02*
G75*
G02X176000000Y-154400000I4000000J0D01*
G01*
X176000000Y-154400000D02*
X176000000Y-130300000D01*
X118300000Y-154400000D02*
X118300000Y-130300000D01*
X176000000Y-126300000D02*
X176000000Y-54300000D01*
X122300000Y-158400000D02*
X172000000Y-158400000D01*
X118300000Y-54300000D02*
X118300000Y-126300000D01*
M02*
