G04 #@! TF.GenerationSoftware,KiCad,Pcbnew,5.1.5*
G04 #@! TF.CreationDate,2020-06-26T00:26:14+02:00*
G04 #@! TF.ProjectId,bigmuff,6269676d-7566-4662-9e6b-696361645f70,rev?*
G04 #@! TF.SameCoordinates,Original*
G04 #@! TF.FileFunction,Legend,Bot*
G04 #@! TF.FilePolarity,Positive*
%FSLAX46Y46*%
G04 Gerber Fmt 4.6, Leading zero omitted, Abs format (unit mm)*
G04 Created by KiCad (PCBNEW 5.1.5) date 2020-06-26 00:26:14*
%MOMM*%
%LPD*%
G04 APERTURE LIST*
%ADD10C,0.150000*%
%ADD11C,0.300000*%
%ADD12C,0.010000*%
%ADD13C,0.120000*%
G04 APERTURE END LIST*
D10*
X163171428Y-118914285D02*
X163171428Y-119676190D01*
X163552380Y-119295238D02*
X162790476Y-119295238D01*
X163552380Y-120200000D02*
X163552380Y-120390476D01*
X163504761Y-120485714D01*
X163457142Y-120533333D01*
X163314285Y-120628571D01*
X163123809Y-120676190D01*
X162742857Y-120676190D01*
X162647619Y-120628571D01*
X162600000Y-120580952D01*
X162552380Y-120485714D01*
X162552380Y-120295238D01*
X162600000Y-120200000D01*
X162647619Y-120152380D01*
X162742857Y-120104761D01*
X162980952Y-120104761D01*
X163076190Y-120152380D01*
X163123809Y-120200000D01*
X163171428Y-120295238D01*
X163171428Y-120485714D01*
X163123809Y-120580952D01*
X163076190Y-120628571D01*
X162980952Y-120676190D01*
X162552380Y-120961904D02*
X163552380Y-121295238D01*
X162552380Y-121628571D01*
X170052380Y-119200000D02*
X170052380Y-119390476D01*
X170100000Y-119485714D01*
X170195238Y-119580952D01*
X170385714Y-119628571D01*
X170719047Y-119628571D01*
X170909523Y-119580952D01*
X171004761Y-119485714D01*
X171052380Y-119390476D01*
X171052380Y-119200000D01*
X171004761Y-119104761D01*
X170909523Y-119009523D01*
X170719047Y-118961904D01*
X170385714Y-118961904D01*
X170195238Y-119009523D01*
X170100000Y-119104761D01*
X170052380Y-119200000D01*
X170052380Y-120057142D02*
X170861904Y-120057142D01*
X170957142Y-120104761D01*
X171004761Y-120152380D01*
X171052380Y-120247619D01*
X171052380Y-120438095D01*
X171004761Y-120533333D01*
X170957142Y-120580952D01*
X170861904Y-120628571D01*
X170052380Y-120628571D01*
X170052380Y-120961904D02*
X170052380Y-121533333D01*
X171052380Y-121247619D02*
X170052380Y-121247619D01*
X165100000Y-119438095D02*
X165052380Y-119342857D01*
X165052380Y-119200000D01*
X165100000Y-119057142D01*
X165195238Y-118961904D01*
X165290476Y-118914285D01*
X165480952Y-118866666D01*
X165623809Y-118866666D01*
X165814285Y-118914285D01*
X165909523Y-118961904D01*
X166004761Y-119057142D01*
X166052380Y-119200000D01*
X166052380Y-119295238D01*
X166004761Y-119438095D01*
X165957142Y-119485714D01*
X165623809Y-119485714D01*
X165623809Y-119295238D01*
X166052380Y-119914285D02*
X165052380Y-119914285D01*
X166052380Y-120485714D01*
X165052380Y-120485714D01*
X166052380Y-120961904D02*
X165052380Y-120961904D01*
X165052380Y-121200000D01*
X165100000Y-121342857D01*
X165195238Y-121438095D01*
X165290476Y-121485714D01*
X165480952Y-121533333D01*
X165623809Y-121533333D01*
X165814285Y-121485714D01*
X165909523Y-121438095D01*
X166004761Y-121342857D01*
X166052380Y-121200000D01*
X166052380Y-120961904D01*
X168552380Y-119676190D02*
X167552380Y-119676190D01*
X168552380Y-120152380D02*
X167552380Y-120152380D01*
X168552380Y-120723809D01*
X167552380Y-120723809D01*
X130352380Y-118500000D02*
X130352380Y-118690476D01*
X130400000Y-118785714D01*
X130495238Y-118880952D01*
X130685714Y-118928571D01*
X131019047Y-118928571D01*
X131209523Y-118880952D01*
X131304761Y-118785714D01*
X131352380Y-118690476D01*
X131352380Y-118500000D01*
X131304761Y-118404761D01*
X131209523Y-118309523D01*
X131019047Y-118261904D01*
X130685714Y-118261904D01*
X130495238Y-118309523D01*
X130400000Y-118404761D01*
X130352380Y-118500000D01*
X130352380Y-119357142D02*
X131161904Y-119357142D01*
X131257142Y-119404761D01*
X131304761Y-119452380D01*
X131352380Y-119547619D01*
X131352380Y-119738095D01*
X131304761Y-119833333D01*
X131257142Y-119880952D01*
X131161904Y-119928571D01*
X130352380Y-119928571D01*
X130352380Y-120261904D02*
X130352380Y-120833333D01*
X131352380Y-120547619D02*
X130352380Y-120547619D01*
X128852380Y-118976190D02*
X127852380Y-118976190D01*
X128852380Y-119452380D02*
X127852380Y-119452380D01*
X128852380Y-120023809D01*
X127852380Y-120023809D01*
X125400000Y-118738095D02*
X125352380Y-118642857D01*
X125352380Y-118500000D01*
X125400000Y-118357142D01*
X125495238Y-118261904D01*
X125590476Y-118214285D01*
X125780952Y-118166666D01*
X125923809Y-118166666D01*
X126114285Y-118214285D01*
X126209523Y-118261904D01*
X126304761Y-118357142D01*
X126352380Y-118500000D01*
X126352380Y-118595238D01*
X126304761Y-118738095D01*
X126257142Y-118785714D01*
X125923809Y-118785714D01*
X125923809Y-118595238D01*
X126352380Y-119214285D02*
X125352380Y-119214285D01*
X126352380Y-119785714D01*
X125352380Y-119785714D01*
X126352380Y-120261904D02*
X125352380Y-120261904D01*
X125352380Y-120500000D01*
X125400000Y-120642857D01*
X125495238Y-120738095D01*
X125590476Y-120785714D01*
X125780952Y-120833333D01*
X125923809Y-120833333D01*
X126114285Y-120785714D01*
X126209523Y-120738095D01*
X126304761Y-120642857D01*
X126352380Y-120500000D01*
X126352380Y-120261904D01*
X123471428Y-118214285D02*
X123471428Y-118976190D01*
X123852380Y-118595238D02*
X123090476Y-118595238D01*
X123852380Y-119500000D02*
X123852380Y-119690476D01*
X123804761Y-119785714D01*
X123757142Y-119833333D01*
X123614285Y-119928571D01*
X123423809Y-119976190D01*
X123042857Y-119976190D01*
X122947619Y-119928571D01*
X122900000Y-119880952D01*
X122852380Y-119785714D01*
X122852380Y-119595238D01*
X122900000Y-119500000D01*
X122947619Y-119452380D01*
X123042857Y-119404761D01*
X123280952Y-119404761D01*
X123376190Y-119452380D01*
X123423809Y-119500000D01*
X123471428Y-119595238D01*
X123471428Y-119785714D01*
X123423809Y-119880952D01*
X123376190Y-119928571D01*
X123280952Y-119976190D01*
X122852380Y-120261904D02*
X123852380Y-120595238D01*
X122852380Y-120928571D01*
D11*
X135792857Y-141728571D02*
X135792857Y-140942857D01*
X135864285Y-140800000D01*
X136007142Y-140728571D01*
X136292857Y-140728571D01*
X136435714Y-140800000D01*
X135792857Y-141657142D02*
X135935714Y-141728571D01*
X136292857Y-141728571D01*
X136435714Y-141657142D01*
X136507142Y-141514285D01*
X136507142Y-141371428D01*
X136435714Y-141228571D01*
X136292857Y-141157142D01*
X135935714Y-141157142D01*
X135792857Y-141085714D01*
X134864285Y-141728571D02*
X135007142Y-141657142D01*
X135078571Y-141514285D01*
X135078571Y-140228571D01*
X134292857Y-141728571D02*
X134292857Y-140228571D01*
X134292857Y-140800000D02*
X134150000Y-140728571D01*
X133864285Y-140728571D01*
X133721428Y-140800000D01*
X133650000Y-140871428D01*
X133578571Y-141014285D01*
X133578571Y-141442857D01*
X133650000Y-141585714D01*
X133721428Y-141657142D01*
X133864285Y-141728571D01*
X134150000Y-141728571D01*
X134292857Y-141657142D01*
X132364285Y-141657142D02*
X132507142Y-141728571D01*
X132792857Y-141728571D01*
X132935714Y-141657142D01*
X133007142Y-141514285D01*
X133007142Y-140942857D01*
X132935714Y-140800000D01*
X132792857Y-140728571D01*
X132507142Y-140728571D01*
X132364285Y-140800000D01*
X132292857Y-140942857D01*
X132292857Y-141085714D01*
X133007142Y-141228571D01*
X131650000Y-141728571D02*
X131650000Y-140728571D01*
X131650000Y-141014285D02*
X131578571Y-140871428D01*
X131507142Y-140800000D01*
X131364285Y-140728571D01*
X131221428Y-140728571D01*
X130078571Y-141728571D02*
X130078571Y-140942857D01*
X130150000Y-140800000D01*
X130292857Y-140728571D01*
X130578571Y-140728571D01*
X130721428Y-140800000D01*
X130078571Y-141657142D02*
X130221428Y-141728571D01*
X130578571Y-141728571D01*
X130721428Y-141657142D01*
X130792857Y-141514285D01*
X130792857Y-141371428D01*
X130721428Y-141228571D01*
X130578571Y-141157142D01*
X130221428Y-141157142D01*
X130078571Y-141085714D01*
X129364285Y-140728571D02*
X129364285Y-141728571D01*
X129364285Y-140871428D02*
X129292857Y-140800000D01*
X129150000Y-140728571D01*
X128935714Y-140728571D01*
X128792857Y-140800000D01*
X128721428Y-140942857D01*
X128721428Y-141728571D01*
X127364285Y-141728571D02*
X127364285Y-140228571D01*
X127364285Y-141657142D02*
X127507142Y-141728571D01*
X127792857Y-141728571D01*
X127935714Y-141657142D01*
X128007142Y-141585714D01*
X128078571Y-141442857D01*
X128078571Y-141014285D01*
X128007142Y-140871428D01*
X127935714Y-140800000D01*
X127792857Y-140728571D01*
X127507142Y-140728571D01*
X127364285Y-140800000D01*
X135578571Y-144278571D02*
X135578571Y-143278571D01*
X135578571Y-143564285D02*
X135507142Y-143421428D01*
X135435714Y-143350000D01*
X135292857Y-143278571D01*
X135150000Y-143278571D01*
X134078571Y-144207142D02*
X134221428Y-144278571D01*
X134507142Y-144278571D01*
X134650000Y-144207142D01*
X134721428Y-144064285D01*
X134721428Y-143492857D01*
X134650000Y-143350000D01*
X134507142Y-143278571D01*
X134221428Y-143278571D01*
X134078571Y-143350000D01*
X134007142Y-143492857D01*
X134007142Y-143635714D01*
X134721428Y-143778571D01*
X133507142Y-143278571D02*
X133150000Y-144278571D01*
X132792857Y-143278571D01*
X130292857Y-144278571D02*
X131150000Y-144278571D01*
X130721428Y-144278571D02*
X130721428Y-142778571D01*
X130864285Y-142992857D01*
X131007142Y-143135714D01*
X131150000Y-143207142D01*
X129650000Y-144135714D02*
X129578571Y-144207142D01*
X129650000Y-144278571D01*
X129721428Y-144207142D01*
X129650000Y-144135714D01*
X129650000Y-144278571D01*
X128650000Y-142778571D02*
X128507142Y-142778571D01*
X128364285Y-142850000D01*
X128292857Y-142921428D01*
X128221428Y-143064285D01*
X128150000Y-143350000D01*
X128150000Y-143707142D01*
X128221428Y-143992857D01*
X128292857Y-144135714D01*
X128364285Y-144207142D01*
X128507142Y-144278571D01*
X128650000Y-144278571D01*
X128792857Y-144207142D01*
X128864285Y-144135714D01*
X128935714Y-143992857D01*
X129007142Y-143707142D01*
X129007142Y-143350000D01*
X128935714Y-143064285D01*
X128864285Y-142921428D01*
X128792857Y-142850000D01*
X128650000Y-142778571D01*
X134471428Y-145471428D02*
X134400000Y-145400000D01*
X134257142Y-145328571D01*
X133900000Y-145328571D01*
X133757142Y-145400000D01*
X133685714Y-145471428D01*
X133614285Y-145614285D01*
X133614285Y-145757142D01*
X133685714Y-145971428D01*
X134542857Y-146828571D01*
X133614285Y-146828571D01*
X132685714Y-145328571D02*
X132542857Y-145328571D01*
X132400000Y-145400000D01*
X132328571Y-145471428D01*
X132257142Y-145614285D01*
X132185714Y-145900000D01*
X132185714Y-146257142D01*
X132257142Y-146542857D01*
X132328571Y-146685714D01*
X132400000Y-146757142D01*
X132542857Y-146828571D01*
X132685714Y-146828571D01*
X132828571Y-146757142D01*
X132900000Y-146685714D01*
X132971428Y-146542857D01*
X133042857Y-146257142D01*
X133042857Y-145900000D01*
X132971428Y-145614285D01*
X132900000Y-145471428D01*
X132828571Y-145400000D01*
X132685714Y-145328571D01*
X131614285Y-145471428D02*
X131542857Y-145400000D01*
X131400000Y-145328571D01*
X131042857Y-145328571D01*
X130900000Y-145400000D01*
X130828571Y-145471428D01*
X130757142Y-145614285D01*
X130757142Y-145757142D01*
X130828571Y-145971428D01*
X131685714Y-146828571D01*
X130757142Y-146828571D01*
X129828571Y-145328571D02*
X129685714Y-145328571D01*
X129542857Y-145400000D01*
X129471428Y-145471428D01*
X129400000Y-145614285D01*
X129328571Y-145900000D01*
X129328571Y-146257142D01*
X129400000Y-146542857D01*
X129471428Y-146685714D01*
X129542857Y-146757142D01*
X129685714Y-146828571D01*
X129828571Y-146828571D01*
X129971428Y-146757142D01*
X130042857Y-146685714D01*
X130114285Y-146542857D01*
X130185714Y-146257142D01*
X130185714Y-145900000D01*
X130114285Y-145614285D01*
X130042857Y-145471428D01*
X129971428Y-145400000D01*
X129828571Y-145328571D01*
D10*
X157428571Y-61885714D02*
X157428571Y-61123809D01*
X157047619Y-61504761D02*
X157809523Y-61504761D01*
X157047619Y-60600000D02*
X157047619Y-60409523D01*
X157095238Y-60314285D01*
X157142857Y-60266666D01*
X157285714Y-60171428D01*
X157476190Y-60123809D01*
X157857142Y-60123809D01*
X157952380Y-60171428D01*
X158000000Y-60219047D01*
X158047619Y-60314285D01*
X158047619Y-60504761D01*
X158000000Y-60600000D01*
X157952380Y-60647619D01*
X157857142Y-60695238D01*
X157619047Y-60695238D01*
X157523809Y-60647619D01*
X157476190Y-60600000D01*
X157428571Y-60504761D01*
X157428571Y-60314285D01*
X157476190Y-60219047D01*
X157523809Y-60171428D01*
X157619047Y-60123809D01*
X158047619Y-59838095D02*
X157047619Y-59504761D01*
X158047619Y-59171428D01*
X160600000Y-61261904D02*
X160647619Y-61357142D01*
X160647619Y-61500000D01*
X160600000Y-61642857D01*
X160504761Y-61738095D01*
X160409523Y-61785714D01*
X160219047Y-61833333D01*
X160076190Y-61833333D01*
X159885714Y-61785714D01*
X159790476Y-61738095D01*
X159695238Y-61642857D01*
X159647619Y-61500000D01*
X159647619Y-61404761D01*
X159695238Y-61261904D01*
X159742857Y-61214285D01*
X160076190Y-61214285D01*
X160076190Y-61404761D01*
X159647619Y-60785714D02*
X160647619Y-60785714D01*
X159647619Y-60214285D01*
X160647619Y-60214285D01*
X159647619Y-59738095D02*
X160647619Y-59738095D01*
X160647619Y-59500000D01*
X160600000Y-59357142D01*
X160504761Y-59261904D01*
X160409523Y-59214285D01*
X160219047Y-59166666D01*
X160076190Y-59166666D01*
X159885714Y-59214285D01*
X159790476Y-59261904D01*
X159695238Y-59357142D01*
X159647619Y-59500000D01*
X159647619Y-59738095D01*
X131961904Y-59200000D02*
X132057142Y-59152380D01*
X132200000Y-59152380D01*
X132342857Y-59200000D01*
X132438095Y-59295238D01*
X132485714Y-59390476D01*
X132533333Y-59580952D01*
X132533333Y-59723809D01*
X132485714Y-59914285D01*
X132438095Y-60009523D01*
X132342857Y-60104761D01*
X132200000Y-60152380D01*
X132104761Y-60152380D01*
X131961904Y-60104761D01*
X131914285Y-60057142D01*
X131914285Y-59723809D01*
X132104761Y-59723809D01*
X131485714Y-60152380D02*
X131485714Y-59152380D01*
X130914285Y-60152380D01*
X130914285Y-59152380D01*
X130438095Y-60152380D02*
X130438095Y-59152380D01*
X130200000Y-59152380D01*
X130057142Y-59200000D01*
X129961904Y-59295238D01*
X129914285Y-59390476D01*
X129866666Y-59580952D01*
X129866666Y-59723809D01*
X129914285Y-59914285D01*
X129961904Y-60009523D01*
X130057142Y-60104761D01*
X130200000Y-60152380D01*
X130438095Y-60152380D01*
X132685714Y-54671428D02*
X131923809Y-54671428D01*
X132304761Y-55052380D02*
X132304761Y-54290476D01*
X131400000Y-55052380D02*
X131209523Y-55052380D01*
X131114285Y-55004761D01*
X131066666Y-54957142D01*
X130971428Y-54814285D01*
X130923809Y-54623809D01*
X130923809Y-54242857D01*
X130971428Y-54147619D01*
X131019047Y-54100000D01*
X131114285Y-54052380D01*
X131304761Y-54052380D01*
X131400000Y-54100000D01*
X131447619Y-54147619D01*
X131495238Y-54242857D01*
X131495238Y-54480952D01*
X131447619Y-54576190D01*
X131400000Y-54623809D01*
X131304761Y-54671428D01*
X131114285Y-54671428D01*
X131019047Y-54623809D01*
X130971428Y-54576190D01*
X130923809Y-54480952D01*
X130638095Y-54052380D02*
X130304761Y-55052380D01*
X129971428Y-54052380D01*
X131961904Y-56700000D02*
X132057142Y-56652380D01*
X132200000Y-56652380D01*
X132342857Y-56700000D01*
X132438095Y-56795238D01*
X132485714Y-56890476D01*
X132533333Y-57080952D01*
X132533333Y-57223809D01*
X132485714Y-57414285D01*
X132438095Y-57509523D01*
X132342857Y-57604761D01*
X132200000Y-57652380D01*
X132104761Y-57652380D01*
X131961904Y-57604761D01*
X131914285Y-57557142D01*
X131914285Y-57223809D01*
X132104761Y-57223809D01*
X131485714Y-57652380D02*
X131485714Y-56652380D01*
X130914285Y-57652380D01*
X130914285Y-56652380D01*
X130438095Y-57652380D02*
X130438095Y-56652380D01*
X130200000Y-56652380D01*
X130057142Y-56700000D01*
X129961904Y-56795238D01*
X129914285Y-56890476D01*
X129866666Y-57080952D01*
X129866666Y-57223809D01*
X129914285Y-57414285D01*
X129961904Y-57509523D01*
X130057142Y-57604761D01*
X130200000Y-57652380D01*
X130438095Y-57652380D01*
D12*
G36*
X162560122Y-139887776D02*
G01*
X162454388Y-139888355D01*
X162377868Y-139889922D01*
X162325628Y-139892972D01*
X162292737Y-139897996D01*
X162274263Y-139905489D01*
X162265273Y-139915944D01*
X162260837Y-139929853D01*
X162260406Y-139931654D01*
X162253667Y-139964145D01*
X162241192Y-140028252D01*
X162224281Y-140117151D01*
X162204229Y-140224019D01*
X162182336Y-140342033D01*
X162181571Y-140346178D01*
X162159641Y-140461831D01*
X162139123Y-140564014D01*
X162121341Y-140646598D01*
X162107619Y-140703456D01*
X162099282Y-140728458D01*
X162098884Y-140728901D01*
X162074323Y-140741110D01*
X162023685Y-140761456D01*
X161957905Y-140785545D01*
X161957539Y-140785674D01*
X161874683Y-140816818D01*
X161777000Y-140856491D01*
X161684923Y-140896381D01*
X161680566Y-140898353D01*
X161530593Y-140966420D01*
X161198502Y-140739639D01*
X161096626Y-140670504D01*
X161004343Y-140608697D01*
X160926997Y-140557733D01*
X160869936Y-140521127D01*
X160838505Y-140502394D01*
X160835521Y-140501004D01*
X160812679Y-140507190D01*
X160770018Y-140537035D01*
X160705872Y-140591947D01*
X160618579Y-140673334D01*
X160529465Y-140759922D01*
X160443559Y-140845247D01*
X160366673Y-140923108D01*
X160303436Y-140988697D01*
X160258477Y-141037205D01*
X160236424Y-141063825D01*
X160235604Y-141065195D01*
X160233166Y-141083463D01*
X160242350Y-141113295D01*
X160265426Y-141158721D01*
X160304663Y-141223770D01*
X160362330Y-141312470D01*
X160439205Y-141426657D01*
X160507430Y-141527162D01*
X160568418Y-141617303D01*
X160618644Y-141691849D01*
X160654584Y-141745565D01*
X160672713Y-141773218D01*
X160673854Y-141775095D01*
X160671641Y-141801590D01*
X160654862Y-141853086D01*
X160626858Y-141919851D01*
X160616878Y-141941172D01*
X160573328Y-142036159D01*
X160526866Y-142143937D01*
X160489123Y-142237192D01*
X160461927Y-142306406D01*
X160440325Y-142359006D01*
X160427842Y-142386497D01*
X160426291Y-142388616D01*
X160403332Y-142392124D01*
X160349214Y-142401738D01*
X160271132Y-142416089D01*
X160176281Y-142433807D01*
X160071857Y-142453525D01*
X159965056Y-142473874D01*
X159863074Y-142493486D01*
X159773106Y-142510991D01*
X159702347Y-142525022D01*
X159657994Y-142534209D01*
X159647115Y-142536807D01*
X159635878Y-142543218D01*
X159627395Y-142557697D01*
X159621286Y-142585133D01*
X159617168Y-142630411D01*
X159614659Y-142698420D01*
X159613379Y-142794047D01*
X159612946Y-142922180D01*
X159612923Y-142974701D01*
X159612923Y-143401845D01*
X159715500Y-143422091D01*
X159772569Y-143433070D01*
X159857731Y-143449095D01*
X159960628Y-143468233D01*
X160070904Y-143488551D01*
X160101385Y-143494132D01*
X160203145Y-143513917D01*
X160291795Y-143533373D01*
X160359892Y-143550697D01*
X160399996Y-143564088D01*
X160406677Y-143568079D01*
X160423081Y-143596342D01*
X160446601Y-143651109D01*
X160472684Y-143721588D01*
X160477858Y-143736769D01*
X160512044Y-143830896D01*
X160554477Y-143937101D01*
X160596003Y-144032473D01*
X160596208Y-144032916D01*
X160665360Y-144182525D01*
X160210488Y-144851617D01*
X160502500Y-145144116D01*
X160590820Y-145231170D01*
X160671375Y-145307909D01*
X160739640Y-145370237D01*
X160791092Y-145414056D01*
X160821206Y-145435270D01*
X160825526Y-145436616D01*
X160850889Y-145426016D01*
X160902642Y-145396547D01*
X160975132Y-145351705D01*
X161062706Y-145294984D01*
X161157388Y-145231462D01*
X161253484Y-145166668D01*
X161339163Y-145110287D01*
X161408984Y-145065788D01*
X161457506Y-145036639D01*
X161479218Y-145026308D01*
X161505707Y-145035050D01*
X161555938Y-145058087D01*
X161619549Y-145090631D01*
X161626292Y-145094249D01*
X161711954Y-145137210D01*
X161770694Y-145158279D01*
X161807228Y-145158503D01*
X161826269Y-145138928D01*
X161826380Y-145138654D01*
X161835898Y-145115472D01*
X161858597Y-145060441D01*
X161892718Y-144977822D01*
X161936500Y-144871872D01*
X161988184Y-144746852D01*
X162046008Y-144607020D01*
X162102009Y-144471637D01*
X162163553Y-144322234D01*
X162220061Y-144183832D01*
X162269839Y-144060673D01*
X162311194Y-143957002D01*
X162342432Y-143877059D01*
X162361859Y-143825088D01*
X162367846Y-143805692D01*
X162352832Y-143783443D01*
X162313561Y-143747982D01*
X162261193Y-143708887D01*
X162112059Y-143585245D01*
X161995489Y-143443522D01*
X161912882Y-143286704D01*
X161865634Y-143117775D01*
X161855143Y-142939722D01*
X161862769Y-142857539D01*
X161904318Y-142687031D01*
X161975877Y-142536459D01*
X162073005Y-142407309D01*
X162191266Y-142301064D01*
X162326220Y-142219210D01*
X162473429Y-142163232D01*
X162628456Y-142134615D01*
X162786861Y-142134844D01*
X162944206Y-142165405D01*
X163096054Y-142227782D01*
X163237965Y-142323460D01*
X163297197Y-142377572D01*
X163410797Y-142516520D01*
X163489894Y-142668361D01*
X163535014Y-142828667D01*
X163546684Y-142993012D01*
X163525431Y-143156971D01*
X163471780Y-143316118D01*
X163386260Y-143466025D01*
X163269395Y-143602267D01*
X163138807Y-143708887D01*
X163084412Y-143749642D01*
X163045986Y-143784718D01*
X163032154Y-143805726D01*
X163039397Y-143828635D01*
X163059995Y-143883365D01*
X163092254Y-143965672D01*
X163134479Y-144071315D01*
X163184977Y-144196050D01*
X163242052Y-144335636D01*
X163298146Y-144471670D01*
X163360033Y-144621201D01*
X163417356Y-144759767D01*
X163468356Y-144883107D01*
X163511273Y-144986964D01*
X163544347Y-145067080D01*
X163565819Y-145119195D01*
X163573775Y-145138654D01*
X163592571Y-145158423D01*
X163628926Y-145158365D01*
X163687521Y-145137441D01*
X163773032Y-145094613D01*
X163773708Y-145094249D01*
X163838093Y-145061012D01*
X163890139Y-145036802D01*
X163919488Y-145026404D01*
X163920783Y-145026308D01*
X163942876Y-145036855D01*
X163991652Y-145066184D01*
X164061669Y-145110827D01*
X164147486Y-145167314D01*
X164242612Y-145231462D01*
X164339460Y-145296411D01*
X164426747Y-145352896D01*
X164498819Y-145397421D01*
X164550023Y-145426490D01*
X164574474Y-145436616D01*
X164596990Y-145423307D01*
X164642258Y-145386112D01*
X164705756Y-145329128D01*
X164782961Y-145256449D01*
X164869349Y-145172171D01*
X164897601Y-145144016D01*
X165189713Y-144851416D01*
X164967369Y-144525104D01*
X164899798Y-144424897D01*
X164840493Y-144334963D01*
X164792783Y-144260510D01*
X164759993Y-144206751D01*
X164745452Y-144178894D01*
X164745026Y-144176912D01*
X164752692Y-144150655D01*
X164773311Y-144097837D01*
X164803315Y-144027310D01*
X164824375Y-143980093D01*
X164863752Y-143889694D01*
X164900835Y-143798366D01*
X164929585Y-143721200D01*
X164937395Y-143697692D01*
X164959583Y-143634916D01*
X164981273Y-143586411D01*
X164993187Y-143568079D01*
X165019477Y-143556859D01*
X165076858Y-143540954D01*
X165157882Y-143522167D01*
X165255105Y-143502299D01*
X165298615Y-143494132D01*
X165409104Y-143473829D01*
X165515084Y-143454170D01*
X165606199Y-143437088D01*
X165672092Y-143424518D01*
X165684500Y-143422091D01*
X165787077Y-143401845D01*
X165787077Y-142974701D01*
X165786847Y-142834246D01*
X165785901Y-142727979D01*
X165783859Y-142651013D01*
X165780338Y-142598460D01*
X165774957Y-142565433D01*
X165767334Y-142547045D01*
X165757088Y-142538408D01*
X165752885Y-142536807D01*
X165727530Y-142531127D01*
X165671516Y-142519795D01*
X165592036Y-142504179D01*
X165496288Y-142485647D01*
X165391467Y-142465569D01*
X165284768Y-142445312D01*
X165183387Y-142426246D01*
X165094521Y-142409739D01*
X165025363Y-142397159D01*
X164983111Y-142389875D01*
X164973710Y-142388616D01*
X164965193Y-142371763D01*
X164946340Y-142326870D01*
X164920676Y-142262430D01*
X164910877Y-142237192D01*
X164871352Y-142139686D01*
X164824808Y-142031959D01*
X164783123Y-141941172D01*
X164752450Y-141871753D01*
X164732044Y-141814710D01*
X164725232Y-141779777D01*
X164726318Y-141775095D01*
X164740715Y-141752991D01*
X164773588Y-141703831D01*
X164821410Y-141632848D01*
X164880652Y-141545278D01*
X164947785Y-141446357D01*
X164961059Y-141426830D01*
X165038954Y-141311140D01*
X165096213Y-141223044D01*
X165135119Y-141158486D01*
X165157956Y-141113411D01*
X165167006Y-141083763D01*
X165164552Y-141065485D01*
X165164489Y-141065369D01*
X165145173Y-141041361D01*
X165102449Y-140994947D01*
X165040949Y-140930937D01*
X164965302Y-140854145D01*
X164880139Y-140769382D01*
X164870535Y-140759922D01*
X164763210Y-140655989D01*
X164680385Y-140579675D01*
X164620395Y-140529571D01*
X164581577Y-140504270D01*
X164564480Y-140501004D01*
X164539527Y-140515250D01*
X164487745Y-140548156D01*
X164414480Y-140596208D01*
X164325080Y-140655890D01*
X164224889Y-140723688D01*
X164201499Y-140739639D01*
X163869407Y-140966420D01*
X163719435Y-140898353D01*
X163628230Y-140858685D01*
X163530331Y-140818791D01*
X163446169Y-140786983D01*
X163442462Y-140785674D01*
X163376631Y-140761576D01*
X163325884Y-140741200D01*
X163301158Y-140728936D01*
X163301116Y-140728901D01*
X163293271Y-140706734D01*
X163279934Y-140652217D01*
X163262430Y-140571480D01*
X163242083Y-140470650D01*
X163220218Y-140355856D01*
X163218429Y-140346178D01*
X163196496Y-140227904D01*
X163176360Y-140120542D01*
X163159320Y-140030917D01*
X163146672Y-139965851D01*
X163139716Y-139932168D01*
X163139594Y-139931654D01*
X163135361Y-139917325D01*
X163127129Y-139906507D01*
X163109967Y-139898706D01*
X163078942Y-139893429D01*
X163029122Y-139890182D01*
X162955576Y-139888472D01*
X162853371Y-139887807D01*
X162717575Y-139887693D01*
X162700000Y-139887692D01*
X162560122Y-139887776D01*
G37*
X162560122Y-139887776D02*
X162454388Y-139888355D01*
X162377868Y-139889922D01*
X162325628Y-139892972D01*
X162292737Y-139897996D01*
X162274263Y-139905489D01*
X162265273Y-139915944D01*
X162260837Y-139929853D01*
X162260406Y-139931654D01*
X162253667Y-139964145D01*
X162241192Y-140028252D01*
X162224281Y-140117151D01*
X162204229Y-140224019D01*
X162182336Y-140342033D01*
X162181571Y-140346178D01*
X162159641Y-140461831D01*
X162139123Y-140564014D01*
X162121341Y-140646598D01*
X162107619Y-140703456D01*
X162099282Y-140728458D01*
X162098884Y-140728901D01*
X162074323Y-140741110D01*
X162023685Y-140761456D01*
X161957905Y-140785545D01*
X161957539Y-140785674D01*
X161874683Y-140816818D01*
X161777000Y-140856491D01*
X161684923Y-140896381D01*
X161680566Y-140898353D01*
X161530593Y-140966420D01*
X161198502Y-140739639D01*
X161096626Y-140670504D01*
X161004343Y-140608697D01*
X160926997Y-140557733D01*
X160869936Y-140521127D01*
X160838505Y-140502394D01*
X160835521Y-140501004D01*
X160812679Y-140507190D01*
X160770018Y-140537035D01*
X160705872Y-140591947D01*
X160618579Y-140673334D01*
X160529465Y-140759922D01*
X160443559Y-140845247D01*
X160366673Y-140923108D01*
X160303436Y-140988697D01*
X160258477Y-141037205D01*
X160236424Y-141063825D01*
X160235604Y-141065195D01*
X160233166Y-141083463D01*
X160242350Y-141113295D01*
X160265426Y-141158721D01*
X160304663Y-141223770D01*
X160362330Y-141312470D01*
X160439205Y-141426657D01*
X160507430Y-141527162D01*
X160568418Y-141617303D01*
X160618644Y-141691849D01*
X160654584Y-141745565D01*
X160672713Y-141773218D01*
X160673854Y-141775095D01*
X160671641Y-141801590D01*
X160654862Y-141853086D01*
X160626858Y-141919851D01*
X160616878Y-141941172D01*
X160573328Y-142036159D01*
X160526866Y-142143937D01*
X160489123Y-142237192D01*
X160461927Y-142306406D01*
X160440325Y-142359006D01*
X160427842Y-142386497D01*
X160426291Y-142388616D01*
X160403332Y-142392124D01*
X160349214Y-142401738D01*
X160271132Y-142416089D01*
X160176281Y-142433807D01*
X160071857Y-142453525D01*
X159965056Y-142473874D01*
X159863074Y-142493486D01*
X159773106Y-142510991D01*
X159702347Y-142525022D01*
X159657994Y-142534209D01*
X159647115Y-142536807D01*
X159635878Y-142543218D01*
X159627395Y-142557697D01*
X159621286Y-142585133D01*
X159617168Y-142630411D01*
X159614659Y-142698420D01*
X159613379Y-142794047D01*
X159612946Y-142922180D01*
X159612923Y-142974701D01*
X159612923Y-143401845D01*
X159715500Y-143422091D01*
X159772569Y-143433070D01*
X159857731Y-143449095D01*
X159960628Y-143468233D01*
X160070904Y-143488551D01*
X160101385Y-143494132D01*
X160203145Y-143513917D01*
X160291795Y-143533373D01*
X160359892Y-143550697D01*
X160399996Y-143564088D01*
X160406677Y-143568079D01*
X160423081Y-143596342D01*
X160446601Y-143651109D01*
X160472684Y-143721588D01*
X160477858Y-143736769D01*
X160512044Y-143830896D01*
X160554477Y-143937101D01*
X160596003Y-144032473D01*
X160596208Y-144032916D01*
X160665360Y-144182525D01*
X160210488Y-144851617D01*
X160502500Y-145144116D01*
X160590820Y-145231170D01*
X160671375Y-145307909D01*
X160739640Y-145370237D01*
X160791092Y-145414056D01*
X160821206Y-145435270D01*
X160825526Y-145436616D01*
X160850889Y-145426016D01*
X160902642Y-145396547D01*
X160975132Y-145351705D01*
X161062706Y-145294984D01*
X161157388Y-145231462D01*
X161253484Y-145166668D01*
X161339163Y-145110287D01*
X161408984Y-145065788D01*
X161457506Y-145036639D01*
X161479218Y-145026308D01*
X161505707Y-145035050D01*
X161555938Y-145058087D01*
X161619549Y-145090631D01*
X161626292Y-145094249D01*
X161711954Y-145137210D01*
X161770694Y-145158279D01*
X161807228Y-145158503D01*
X161826269Y-145138928D01*
X161826380Y-145138654D01*
X161835898Y-145115472D01*
X161858597Y-145060441D01*
X161892718Y-144977822D01*
X161936500Y-144871872D01*
X161988184Y-144746852D01*
X162046008Y-144607020D01*
X162102009Y-144471637D01*
X162163553Y-144322234D01*
X162220061Y-144183832D01*
X162269839Y-144060673D01*
X162311194Y-143957002D01*
X162342432Y-143877059D01*
X162361859Y-143825088D01*
X162367846Y-143805692D01*
X162352832Y-143783443D01*
X162313561Y-143747982D01*
X162261193Y-143708887D01*
X162112059Y-143585245D01*
X161995489Y-143443522D01*
X161912882Y-143286704D01*
X161865634Y-143117775D01*
X161855143Y-142939722D01*
X161862769Y-142857539D01*
X161904318Y-142687031D01*
X161975877Y-142536459D01*
X162073005Y-142407309D01*
X162191266Y-142301064D01*
X162326220Y-142219210D01*
X162473429Y-142163232D01*
X162628456Y-142134615D01*
X162786861Y-142134844D01*
X162944206Y-142165405D01*
X163096054Y-142227782D01*
X163237965Y-142323460D01*
X163297197Y-142377572D01*
X163410797Y-142516520D01*
X163489894Y-142668361D01*
X163535014Y-142828667D01*
X163546684Y-142993012D01*
X163525431Y-143156971D01*
X163471780Y-143316118D01*
X163386260Y-143466025D01*
X163269395Y-143602267D01*
X163138807Y-143708887D01*
X163084412Y-143749642D01*
X163045986Y-143784718D01*
X163032154Y-143805726D01*
X163039397Y-143828635D01*
X163059995Y-143883365D01*
X163092254Y-143965672D01*
X163134479Y-144071315D01*
X163184977Y-144196050D01*
X163242052Y-144335636D01*
X163298146Y-144471670D01*
X163360033Y-144621201D01*
X163417356Y-144759767D01*
X163468356Y-144883107D01*
X163511273Y-144986964D01*
X163544347Y-145067080D01*
X163565819Y-145119195D01*
X163573775Y-145138654D01*
X163592571Y-145158423D01*
X163628926Y-145158365D01*
X163687521Y-145137441D01*
X163773032Y-145094613D01*
X163773708Y-145094249D01*
X163838093Y-145061012D01*
X163890139Y-145036802D01*
X163919488Y-145026404D01*
X163920783Y-145026308D01*
X163942876Y-145036855D01*
X163991652Y-145066184D01*
X164061669Y-145110827D01*
X164147486Y-145167314D01*
X164242612Y-145231462D01*
X164339460Y-145296411D01*
X164426747Y-145352896D01*
X164498819Y-145397421D01*
X164550023Y-145426490D01*
X164574474Y-145436616D01*
X164596990Y-145423307D01*
X164642258Y-145386112D01*
X164705756Y-145329128D01*
X164782961Y-145256449D01*
X164869349Y-145172171D01*
X164897601Y-145144016D01*
X165189713Y-144851416D01*
X164967369Y-144525104D01*
X164899798Y-144424897D01*
X164840493Y-144334963D01*
X164792783Y-144260510D01*
X164759993Y-144206751D01*
X164745452Y-144178894D01*
X164745026Y-144176912D01*
X164752692Y-144150655D01*
X164773311Y-144097837D01*
X164803315Y-144027310D01*
X164824375Y-143980093D01*
X164863752Y-143889694D01*
X164900835Y-143798366D01*
X164929585Y-143721200D01*
X164937395Y-143697692D01*
X164959583Y-143634916D01*
X164981273Y-143586411D01*
X164993187Y-143568079D01*
X165019477Y-143556859D01*
X165076858Y-143540954D01*
X165157882Y-143522167D01*
X165255105Y-143502299D01*
X165298615Y-143494132D01*
X165409104Y-143473829D01*
X165515084Y-143454170D01*
X165606199Y-143437088D01*
X165672092Y-143424518D01*
X165684500Y-143422091D01*
X165787077Y-143401845D01*
X165787077Y-142974701D01*
X165786847Y-142834246D01*
X165785901Y-142727979D01*
X165783859Y-142651013D01*
X165780338Y-142598460D01*
X165774957Y-142565433D01*
X165767334Y-142547045D01*
X165757088Y-142538408D01*
X165752885Y-142536807D01*
X165727530Y-142531127D01*
X165671516Y-142519795D01*
X165592036Y-142504179D01*
X165496288Y-142485647D01*
X165391467Y-142465569D01*
X165284768Y-142445312D01*
X165183387Y-142426246D01*
X165094521Y-142409739D01*
X165025363Y-142397159D01*
X164983111Y-142389875D01*
X164973710Y-142388616D01*
X164965193Y-142371763D01*
X164946340Y-142326870D01*
X164920676Y-142262430D01*
X164910877Y-142237192D01*
X164871352Y-142139686D01*
X164824808Y-142031959D01*
X164783123Y-141941172D01*
X164752450Y-141871753D01*
X164732044Y-141814710D01*
X164725232Y-141779777D01*
X164726318Y-141775095D01*
X164740715Y-141752991D01*
X164773588Y-141703831D01*
X164821410Y-141632848D01*
X164880652Y-141545278D01*
X164947785Y-141446357D01*
X164961059Y-141426830D01*
X165038954Y-141311140D01*
X165096213Y-141223044D01*
X165135119Y-141158486D01*
X165157956Y-141113411D01*
X165167006Y-141083763D01*
X165164552Y-141065485D01*
X165164489Y-141065369D01*
X165145173Y-141041361D01*
X165102449Y-140994947D01*
X165040949Y-140930937D01*
X164965302Y-140854145D01*
X164880139Y-140769382D01*
X164870535Y-140759922D01*
X164763210Y-140655989D01*
X164680385Y-140579675D01*
X164620395Y-140529571D01*
X164581577Y-140504270D01*
X164564480Y-140501004D01*
X164539527Y-140515250D01*
X164487745Y-140548156D01*
X164414480Y-140596208D01*
X164325080Y-140655890D01*
X164224889Y-140723688D01*
X164201499Y-140739639D01*
X163869407Y-140966420D01*
X163719435Y-140898353D01*
X163628230Y-140858685D01*
X163530331Y-140818791D01*
X163446169Y-140786983D01*
X163442462Y-140785674D01*
X163376631Y-140761576D01*
X163325884Y-140741200D01*
X163301158Y-140728936D01*
X163301116Y-140728901D01*
X163293271Y-140706734D01*
X163279934Y-140652217D01*
X163262430Y-140571480D01*
X163242083Y-140470650D01*
X163220218Y-140355856D01*
X163218429Y-140346178D01*
X163196496Y-140227904D01*
X163176360Y-140120542D01*
X163159320Y-140030917D01*
X163146672Y-139965851D01*
X163139716Y-139932168D01*
X163139594Y-139931654D01*
X163135361Y-139917325D01*
X163127129Y-139906507D01*
X163109967Y-139898706D01*
X163078942Y-139893429D01*
X163029122Y-139890182D01*
X162955576Y-139888472D01*
X162853371Y-139887807D01*
X162717575Y-139887693D01*
X162700000Y-139887692D01*
X162560122Y-139887776D01*
G36*
X158454776Y-146247838D02*
G01*
X158377472Y-146298361D01*
X158340186Y-146343590D01*
X158310647Y-146425663D01*
X158308301Y-146490607D01*
X158313615Y-146577445D01*
X158513885Y-146665103D01*
X158611261Y-146709887D01*
X158674887Y-146745913D01*
X158707971Y-146777117D01*
X158713720Y-146807436D01*
X158695342Y-146840805D01*
X158675077Y-146862923D01*
X158616111Y-146898393D01*
X158551976Y-146900879D01*
X158493074Y-146873235D01*
X158449803Y-146818320D01*
X158442064Y-146798928D01*
X158404994Y-146738364D01*
X158362346Y-146712552D01*
X158303846Y-146690471D01*
X158303846Y-146774184D01*
X158309018Y-146831150D01*
X158329277Y-146879189D01*
X158371738Y-146934346D01*
X158378049Y-146941514D01*
X158425280Y-146990585D01*
X158465879Y-147016920D01*
X158516672Y-147029035D01*
X158558780Y-147033003D01*
X158634098Y-147033991D01*
X158687714Y-147021466D01*
X158721162Y-147002869D01*
X158773732Y-146961975D01*
X158810121Y-146917748D01*
X158833150Y-146862126D01*
X158845641Y-146787047D01*
X158850413Y-146684449D01*
X158850794Y-146632376D01*
X158849499Y-146569948D01*
X158731529Y-146569948D01*
X158730161Y-146603438D01*
X158726751Y-146608923D01*
X158704247Y-146601472D01*
X158655818Y-146581753D01*
X158591092Y-146553718D01*
X158577557Y-146547692D01*
X158495756Y-146506096D01*
X158450688Y-146469538D01*
X158440783Y-146435296D01*
X158464474Y-146400648D01*
X158484040Y-146385339D01*
X158554640Y-146354721D01*
X158620720Y-146359780D01*
X158676041Y-146397151D01*
X158714364Y-146463473D01*
X158726651Y-146516116D01*
X158731529Y-146569948D01*
X158849499Y-146569948D01*
X158848270Y-146510720D01*
X158838968Y-146420710D01*
X158820540Y-146355167D01*
X158790640Y-146306912D01*
X158746920Y-146268767D01*
X158727859Y-146256440D01*
X158641274Y-146224336D01*
X158546478Y-146222316D01*
X158454776Y-146247838D01*
G37*
X158454776Y-146247838D02*
X158377472Y-146298361D01*
X158340186Y-146343590D01*
X158310647Y-146425663D01*
X158308301Y-146490607D01*
X158313615Y-146577445D01*
X158513885Y-146665103D01*
X158611261Y-146709887D01*
X158674887Y-146745913D01*
X158707971Y-146777117D01*
X158713720Y-146807436D01*
X158695342Y-146840805D01*
X158675077Y-146862923D01*
X158616111Y-146898393D01*
X158551976Y-146900879D01*
X158493074Y-146873235D01*
X158449803Y-146818320D01*
X158442064Y-146798928D01*
X158404994Y-146738364D01*
X158362346Y-146712552D01*
X158303846Y-146690471D01*
X158303846Y-146774184D01*
X158309018Y-146831150D01*
X158329277Y-146879189D01*
X158371738Y-146934346D01*
X158378049Y-146941514D01*
X158425280Y-146990585D01*
X158465879Y-147016920D01*
X158516672Y-147029035D01*
X158558780Y-147033003D01*
X158634098Y-147033991D01*
X158687714Y-147021466D01*
X158721162Y-147002869D01*
X158773732Y-146961975D01*
X158810121Y-146917748D01*
X158833150Y-146862126D01*
X158845641Y-146787047D01*
X158850413Y-146684449D01*
X158850794Y-146632376D01*
X158849499Y-146569948D01*
X158731529Y-146569948D01*
X158730161Y-146603438D01*
X158726751Y-146608923D01*
X158704247Y-146601472D01*
X158655818Y-146581753D01*
X158591092Y-146553718D01*
X158577557Y-146547692D01*
X158495756Y-146506096D01*
X158450688Y-146469538D01*
X158440783Y-146435296D01*
X158464474Y-146400648D01*
X158484040Y-146385339D01*
X158554640Y-146354721D01*
X158620720Y-146359780D01*
X158676041Y-146397151D01*
X158714364Y-146463473D01*
X158726651Y-146516116D01*
X158731529Y-146569948D01*
X158849499Y-146569948D01*
X158848270Y-146510720D01*
X158838968Y-146420710D01*
X158820540Y-146355167D01*
X158790640Y-146306912D01*
X158746920Y-146268767D01*
X158727859Y-146256440D01*
X158641274Y-146224336D01*
X158546478Y-146222316D01*
X158454776Y-146247838D01*
G36*
X159129193Y-146236782D02*
G01*
X159105839Y-146246988D01*
X159050098Y-146291134D01*
X159002431Y-146354967D01*
X158972952Y-146423087D01*
X158968154Y-146456670D01*
X158984240Y-146503556D01*
X159019525Y-146528365D01*
X159057356Y-146543387D01*
X159074679Y-146546155D01*
X159083114Y-146526066D01*
X159099770Y-146482351D01*
X159107077Y-146462598D01*
X159148052Y-146394271D01*
X159207378Y-146360191D01*
X159283448Y-146361239D01*
X159289082Y-146362581D01*
X159329695Y-146381836D01*
X159359552Y-146419375D01*
X159379945Y-146479809D01*
X159392164Y-146567751D01*
X159397500Y-146687813D01*
X159398000Y-146751698D01*
X159398248Y-146852403D01*
X159399874Y-146921054D01*
X159404199Y-146964673D01*
X159412546Y-146990282D01*
X159426235Y-147004903D01*
X159446589Y-147015558D01*
X159447766Y-147016095D01*
X159486962Y-147032667D01*
X159506381Y-147038769D01*
X159509365Y-147020319D01*
X159511919Y-146969323D01*
X159513860Y-146892308D01*
X159515003Y-146795805D01*
X159515231Y-146725184D01*
X159514068Y-146588525D01*
X159509521Y-146484851D01*
X159500001Y-146408108D01*
X159483919Y-146352246D01*
X159459687Y-146311212D01*
X159425714Y-146278954D01*
X159392167Y-146256440D01*
X159311501Y-146226476D01*
X159217619Y-146219718D01*
X159129193Y-146236782D01*
G37*
X159129193Y-146236782D02*
X159105839Y-146246988D01*
X159050098Y-146291134D01*
X159002431Y-146354967D01*
X158972952Y-146423087D01*
X158968154Y-146456670D01*
X158984240Y-146503556D01*
X159019525Y-146528365D01*
X159057356Y-146543387D01*
X159074679Y-146546155D01*
X159083114Y-146526066D01*
X159099770Y-146482351D01*
X159107077Y-146462598D01*
X159148052Y-146394271D01*
X159207378Y-146360191D01*
X159283448Y-146361239D01*
X159289082Y-146362581D01*
X159329695Y-146381836D01*
X159359552Y-146419375D01*
X159379945Y-146479809D01*
X159392164Y-146567751D01*
X159397500Y-146687813D01*
X159398000Y-146751698D01*
X159398248Y-146852403D01*
X159399874Y-146921054D01*
X159404199Y-146964673D01*
X159412546Y-146990282D01*
X159426235Y-147004903D01*
X159446589Y-147015558D01*
X159447766Y-147016095D01*
X159486962Y-147032667D01*
X159506381Y-147038769D01*
X159509365Y-147020319D01*
X159511919Y-146969323D01*
X159513860Y-146892308D01*
X159515003Y-146795805D01*
X159515231Y-146725184D01*
X159514068Y-146588525D01*
X159509521Y-146484851D01*
X159500001Y-146408108D01*
X159483919Y-146352246D01*
X159459687Y-146311212D01*
X159425714Y-146278954D01*
X159392167Y-146256440D01*
X159311501Y-146226476D01*
X159217619Y-146219718D01*
X159129193Y-146236782D01*
G36*
X159812667Y-146233528D02*
G01*
X159756410Y-146259117D01*
X159712253Y-146290124D01*
X159679899Y-146324795D01*
X159657562Y-146369520D01*
X159643454Y-146430692D01*
X159635789Y-146514701D01*
X159632780Y-146627940D01*
X159632462Y-146702509D01*
X159632462Y-146993420D01*
X159682227Y-147016095D01*
X159721424Y-147032667D01*
X159740843Y-147038769D01*
X159744558Y-147020610D01*
X159747505Y-146971648D01*
X159749309Y-146900153D01*
X159749692Y-146843385D01*
X159751339Y-146761371D01*
X159755778Y-146696309D01*
X159762260Y-146656467D01*
X159767410Y-146648000D01*
X159802023Y-146656646D01*
X159856360Y-146678823D01*
X159919278Y-146708886D01*
X159979632Y-146741192D01*
X160026279Y-146770098D01*
X160048074Y-146789961D01*
X160048161Y-146790175D01*
X160046286Y-146826935D01*
X160029475Y-146862026D01*
X159999961Y-146890528D01*
X159956884Y-146900061D01*
X159920068Y-146898950D01*
X159867926Y-146898133D01*
X159840556Y-146910349D01*
X159824118Y-146942624D01*
X159822045Y-146948710D01*
X159814919Y-146994739D01*
X159833976Y-147022687D01*
X159883647Y-147036007D01*
X159937303Y-147038470D01*
X160033858Y-147020210D01*
X160083841Y-146994131D01*
X160145571Y-146932868D01*
X160178310Y-146857670D01*
X160181247Y-146778211D01*
X160153576Y-146704167D01*
X160111953Y-146657769D01*
X160070396Y-146631793D01*
X160005078Y-146598907D01*
X159928962Y-146565557D01*
X159916274Y-146560461D01*
X159832667Y-146523565D01*
X159784470Y-146491046D01*
X159768970Y-146458718D01*
X159783450Y-146422394D01*
X159808308Y-146394000D01*
X159867061Y-146359039D01*
X159931707Y-146356417D01*
X159990992Y-146383358D01*
X160033661Y-146437088D01*
X160039261Y-146450950D01*
X160071867Y-146501936D01*
X160119470Y-146539787D01*
X160179539Y-146570850D01*
X160179539Y-146482768D01*
X160176003Y-146428951D01*
X160160844Y-146386534D01*
X160127232Y-146341279D01*
X160094965Y-146306420D01*
X160044791Y-146257062D01*
X160005807Y-146230547D01*
X159963936Y-146219911D01*
X159916540Y-146218154D01*
X159812667Y-146233528D01*
G37*
X159812667Y-146233528D02*
X159756410Y-146259117D01*
X159712253Y-146290124D01*
X159679899Y-146324795D01*
X159657562Y-146369520D01*
X159643454Y-146430692D01*
X159635789Y-146514701D01*
X159632780Y-146627940D01*
X159632462Y-146702509D01*
X159632462Y-146993420D01*
X159682227Y-147016095D01*
X159721424Y-147032667D01*
X159740843Y-147038769D01*
X159744558Y-147020610D01*
X159747505Y-146971648D01*
X159749309Y-146900153D01*
X159749692Y-146843385D01*
X159751339Y-146761371D01*
X159755778Y-146696309D01*
X159762260Y-146656467D01*
X159767410Y-146648000D01*
X159802023Y-146656646D01*
X159856360Y-146678823D01*
X159919278Y-146708886D01*
X159979632Y-146741192D01*
X160026279Y-146770098D01*
X160048074Y-146789961D01*
X160048161Y-146790175D01*
X160046286Y-146826935D01*
X160029475Y-146862026D01*
X159999961Y-146890528D01*
X159956884Y-146900061D01*
X159920068Y-146898950D01*
X159867926Y-146898133D01*
X159840556Y-146910349D01*
X159824118Y-146942624D01*
X159822045Y-146948710D01*
X159814919Y-146994739D01*
X159833976Y-147022687D01*
X159883647Y-147036007D01*
X159937303Y-147038470D01*
X160033858Y-147020210D01*
X160083841Y-146994131D01*
X160145571Y-146932868D01*
X160178310Y-146857670D01*
X160181247Y-146778211D01*
X160153576Y-146704167D01*
X160111953Y-146657769D01*
X160070396Y-146631793D01*
X160005078Y-146598907D01*
X159928962Y-146565557D01*
X159916274Y-146560461D01*
X159832667Y-146523565D01*
X159784470Y-146491046D01*
X159768970Y-146458718D01*
X159783450Y-146422394D01*
X159808308Y-146394000D01*
X159867061Y-146359039D01*
X159931707Y-146356417D01*
X159990992Y-146383358D01*
X160033661Y-146437088D01*
X160039261Y-146450950D01*
X160071867Y-146501936D01*
X160119470Y-146539787D01*
X160179539Y-146570850D01*
X160179539Y-146482768D01*
X160176003Y-146428951D01*
X160160844Y-146386534D01*
X160127232Y-146341279D01*
X160094965Y-146306420D01*
X160044791Y-146257062D01*
X160005807Y-146230547D01*
X159963936Y-146219911D01*
X159916540Y-146218154D01*
X159812667Y-146233528D01*
G36*
X160304071Y-146236662D02*
G01*
X160301089Y-146288068D01*
X160298753Y-146366192D01*
X160297251Y-146464857D01*
X160296769Y-146568343D01*
X160296769Y-146918533D01*
X160358599Y-146980363D01*
X160401207Y-147018462D01*
X160438610Y-147033895D01*
X160489730Y-147032918D01*
X160510022Y-147030433D01*
X160573446Y-147023200D01*
X160625905Y-147019055D01*
X160638692Y-147018672D01*
X160681801Y-147021176D01*
X160743456Y-147027462D01*
X160767362Y-147030433D01*
X160826078Y-147035028D01*
X160865536Y-147025046D01*
X160904662Y-146994228D01*
X160918785Y-146980363D01*
X160980615Y-146918533D01*
X160980615Y-146263503D01*
X160930850Y-146240829D01*
X160887998Y-146224034D01*
X160862927Y-146218154D01*
X160856499Y-146236736D01*
X160850491Y-146288655D01*
X160845303Y-146368172D01*
X160841336Y-146469546D01*
X160839423Y-146555192D01*
X160834077Y-146892231D01*
X160787440Y-146898825D01*
X160745024Y-146894214D01*
X160724240Y-146879287D01*
X160718430Y-146851377D01*
X160713470Y-146791925D01*
X160709754Y-146708466D01*
X160707676Y-146608532D01*
X160707376Y-146557104D01*
X160707077Y-146261054D01*
X160645546Y-146239604D01*
X160601996Y-146225020D01*
X160578306Y-146218219D01*
X160577623Y-146218154D01*
X160575246Y-146236642D01*
X160572634Y-146287906D01*
X160570005Y-146365649D01*
X160567579Y-146463574D01*
X160565885Y-146555192D01*
X160560539Y-146892231D01*
X160443308Y-146892231D01*
X160437928Y-146584746D01*
X160432549Y-146277261D01*
X160375399Y-146247707D01*
X160333203Y-146227413D01*
X160308230Y-146218204D01*
X160307509Y-146218154D01*
X160304071Y-146236662D01*
G37*
X160304071Y-146236662D02*
X160301089Y-146288068D01*
X160298753Y-146366192D01*
X160297251Y-146464857D01*
X160296769Y-146568343D01*
X160296769Y-146918533D01*
X160358599Y-146980363D01*
X160401207Y-147018462D01*
X160438610Y-147033895D01*
X160489730Y-147032918D01*
X160510022Y-147030433D01*
X160573446Y-147023200D01*
X160625905Y-147019055D01*
X160638692Y-147018672D01*
X160681801Y-147021176D01*
X160743456Y-147027462D01*
X160767362Y-147030433D01*
X160826078Y-147035028D01*
X160865536Y-147025046D01*
X160904662Y-146994228D01*
X160918785Y-146980363D01*
X160980615Y-146918533D01*
X160980615Y-146263503D01*
X160930850Y-146240829D01*
X160887998Y-146224034D01*
X160862927Y-146218154D01*
X160856499Y-146236736D01*
X160850491Y-146288655D01*
X160845303Y-146368172D01*
X160841336Y-146469546D01*
X160839423Y-146555192D01*
X160834077Y-146892231D01*
X160787440Y-146898825D01*
X160745024Y-146894214D01*
X160724240Y-146879287D01*
X160718430Y-146851377D01*
X160713470Y-146791925D01*
X160709754Y-146708466D01*
X160707676Y-146608532D01*
X160707376Y-146557104D01*
X160707077Y-146261054D01*
X160645546Y-146239604D01*
X160601996Y-146225020D01*
X160578306Y-146218219D01*
X160577623Y-146218154D01*
X160575246Y-146236642D01*
X160572634Y-146287906D01*
X160570005Y-146365649D01*
X160567579Y-146463574D01*
X160565885Y-146555192D01*
X160560539Y-146892231D01*
X160443308Y-146892231D01*
X160437928Y-146584746D01*
X160432549Y-146277261D01*
X160375399Y-146247707D01*
X160333203Y-146227413D01*
X160308230Y-146218204D01*
X160307509Y-146218154D01*
X160304071Y-146236662D01*
G36*
X161097919Y-146380289D02*
G01*
X161098167Y-146526320D01*
X161099128Y-146638655D01*
X161101206Y-146722678D01*
X161104807Y-146783769D01*
X161110335Y-146827309D01*
X161118196Y-146858679D01*
X161128793Y-146883262D01*
X161136818Y-146897294D01*
X161203272Y-146973388D01*
X161287530Y-147021084D01*
X161380751Y-147038199D01*
X161474100Y-147022546D01*
X161529688Y-146994418D01*
X161588043Y-146945760D01*
X161627814Y-146886333D01*
X161651810Y-146808507D01*
X161662839Y-146704652D01*
X161664401Y-146628462D01*
X161664191Y-146622986D01*
X161527692Y-146622986D01*
X161526859Y-146710355D01*
X161523039Y-146768192D01*
X161514254Y-146806029D01*
X161498526Y-146833398D01*
X161479734Y-146854042D01*
X161416625Y-146893890D01*
X161348863Y-146897295D01*
X161284821Y-146864025D01*
X161279836Y-146859517D01*
X161258561Y-146836067D01*
X161245221Y-146808166D01*
X161237999Y-146766641D01*
X161235077Y-146702316D01*
X161234615Y-146631200D01*
X161235617Y-146541858D01*
X161239762Y-146482258D01*
X161248764Y-146443089D01*
X161264333Y-146415040D01*
X161277098Y-146400144D01*
X161336400Y-146362575D01*
X161404699Y-146358057D01*
X161469890Y-146386753D01*
X161482472Y-146397406D01*
X161503889Y-146421063D01*
X161517256Y-146449251D01*
X161524434Y-146491245D01*
X161527281Y-146556319D01*
X161527692Y-146622986D01*
X161664191Y-146622986D01*
X161659678Y-146505765D01*
X161643638Y-146413577D01*
X161613472Y-146344269D01*
X161566371Y-146290211D01*
X161529688Y-146262505D01*
X161463010Y-146232572D01*
X161385728Y-146218678D01*
X161313890Y-146222397D01*
X161273692Y-146237400D01*
X161257918Y-146241670D01*
X161247450Y-146225750D01*
X161240144Y-146183089D01*
X161234615Y-146118106D01*
X161228563Y-146045732D01*
X161220156Y-146002187D01*
X161204859Y-145977287D01*
X161178136Y-145960845D01*
X161161346Y-145953564D01*
X161097846Y-145926963D01*
X161097919Y-146380289D01*
G37*
X161097919Y-146380289D02*
X161098167Y-146526320D01*
X161099128Y-146638655D01*
X161101206Y-146722678D01*
X161104807Y-146783769D01*
X161110335Y-146827309D01*
X161118196Y-146858679D01*
X161128793Y-146883262D01*
X161136818Y-146897294D01*
X161203272Y-146973388D01*
X161287530Y-147021084D01*
X161380751Y-147038199D01*
X161474100Y-147022546D01*
X161529688Y-146994418D01*
X161588043Y-146945760D01*
X161627814Y-146886333D01*
X161651810Y-146808507D01*
X161662839Y-146704652D01*
X161664401Y-146628462D01*
X161664191Y-146622986D01*
X161527692Y-146622986D01*
X161526859Y-146710355D01*
X161523039Y-146768192D01*
X161514254Y-146806029D01*
X161498526Y-146833398D01*
X161479734Y-146854042D01*
X161416625Y-146893890D01*
X161348863Y-146897295D01*
X161284821Y-146864025D01*
X161279836Y-146859517D01*
X161258561Y-146836067D01*
X161245221Y-146808166D01*
X161237999Y-146766641D01*
X161235077Y-146702316D01*
X161234615Y-146631200D01*
X161235617Y-146541858D01*
X161239762Y-146482258D01*
X161248764Y-146443089D01*
X161264333Y-146415040D01*
X161277098Y-146400144D01*
X161336400Y-146362575D01*
X161404699Y-146358057D01*
X161469890Y-146386753D01*
X161482472Y-146397406D01*
X161503889Y-146421063D01*
X161517256Y-146449251D01*
X161524434Y-146491245D01*
X161527281Y-146556319D01*
X161527692Y-146622986D01*
X161664191Y-146622986D01*
X161659678Y-146505765D01*
X161643638Y-146413577D01*
X161613472Y-146344269D01*
X161566371Y-146290211D01*
X161529688Y-146262505D01*
X161463010Y-146232572D01*
X161385728Y-146218678D01*
X161313890Y-146222397D01*
X161273692Y-146237400D01*
X161257918Y-146241670D01*
X161247450Y-146225750D01*
X161240144Y-146183089D01*
X161234615Y-146118106D01*
X161228563Y-146045732D01*
X161220156Y-146002187D01*
X161204859Y-145977287D01*
X161178136Y-145960845D01*
X161161346Y-145953564D01*
X161097846Y-145926963D01*
X161097919Y-146380289D01*
G36*
X161986638Y-146224670D02*
G01*
X161897883Y-146257421D01*
X161825978Y-146315350D01*
X161797856Y-146356128D01*
X161767198Y-146430954D01*
X161767835Y-146485058D01*
X161800013Y-146521446D01*
X161811919Y-146527633D01*
X161863325Y-146546925D01*
X161889578Y-146541982D01*
X161898470Y-146509587D01*
X161898923Y-146491692D01*
X161915203Y-146425859D01*
X161957635Y-146379807D01*
X162016612Y-146357564D01*
X162082525Y-146363161D01*
X162136105Y-146392229D01*
X162154202Y-146408810D01*
X162167029Y-146428925D01*
X162175694Y-146459332D01*
X162181304Y-146506788D01*
X162184965Y-146578050D01*
X162187785Y-146679875D01*
X162188516Y-146712115D01*
X162191180Y-146822410D01*
X162194208Y-146900036D01*
X162198750Y-146951396D01*
X162205954Y-146982890D01*
X162216967Y-147000920D01*
X162232940Y-147011888D01*
X162243166Y-147016733D01*
X162286594Y-147033301D01*
X162312158Y-147038769D01*
X162320605Y-147020507D01*
X162325761Y-146965296D01*
X162327654Y-146872499D01*
X162326311Y-146741478D01*
X162325893Y-146721269D01*
X162322942Y-146601733D01*
X162319452Y-146514449D01*
X162314486Y-146452591D01*
X162307107Y-146409336D01*
X162296376Y-146377860D01*
X162281355Y-146351339D01*
X162273498Y-146339975D01*
X162228447Y-146289692D01*
X162178060Y-146250581D01*
X162171892Y-146247167D01*
X162081542Y-146220212D01*
X161986638Y-146224670D01*
G37*
X161986638Y-146224670D02*
X161897883Y-146257421D01*
X161825978Y-146315350D01*
X161797856Y-146356128D01*
X161767198Y-146430954D01*
X161767835Y-146485058D01*
X161800013Y-146521446D01*
X161811919Y-146527633D01*
X161863325Y-146546925D01*
X161889578Y-146541982D01*
X161898470Y-146509587D01*
X161898923Y-146491692D01*
X161915203Y-146425859D01*
X161957635Y-146379807D01*
X162016612Y-146357564D01*
X162082525Y-146363161D01*
X162136105Y-146392229D01*
X162154202Y-146408810D01*
X162167029Y-146428925D01*
X162175694Y-146459332D01*
X162181304Y-146506788D01*
X162184965Y-146578050D01*
X162187785Y-146679875D01*
X162188516Y-146712115D01*
X162191180Y-146822410D01*
X162194208Y-146900036D01*
X162198750Y-146951396D01*
X162205954Y-146982890D01*
X162216967Y-147000920D01*
X162232940Y-147011888D01*
X162243166Y-147016733D01*
X162286594Y-147033301D01*
X162312158Y-147038769D01*
X162320605Y-147020507D01*
X162325761Y-146965296D01*
X162327654Y-146872499D01*
X162326311Y-146741478D01*
X162325893Y-146721269D01*
X162322942Y-146601733D01*
X162319452Y-146514449D01*
X162314486Y-146452591D01*
X162307107Y-146409336D01*
X162296376Y-146377860D01*
X162281355Y-146351339D01*
X162273498Y-146339975D01*
X162228447Y-146289692D01*
X162178060Y-146250581D01*
X162171892Y-146247167D01*
X162081542Y-146220212D01*
X161986638Y-146224670D01*
G36*
X162646499Y-146226303D02*
G01*
X162569940Y-146254733D01*
X162569064Y-146255279D01*
X162521715Y-146290127D01*
X162486759Y-146330852D01*
X162462175Y-146383925D01*
X162445938Y-146455814D01*
X162436025Y-146552992D01*
X162430414Y-146681928D01*
X162429923Y-146700298D01*
X162422859Y-146977287D01*
X162482305Y-147008028D01*
X162525319Y-147028802D01*
X162551290Y-147038646D01*
X162552491Y-147038769D01*
X162556986Y-147020606D01*
X162560556Y-146971612D01*
X162562752Y-146900031D01*
X162563231Y-146842068D01*
X162563242Y-146748170D01*
X162567534Y-146689203D01*
X162582497Y-146661079D01*
X162614518Y-146659706D01*
X162669986Y-146680998D01*
X162753731Y-146720136D01*
X162815311Y-146752643D01*
X162846983Y-146780845D01*
X162856294Y-146811582D01*
X162856308Y-146813104D01*
X162840943Y-146866054D01*
X162795453Y-146894660D01*
X162725834Y-146898803D01*
X162675687Y-146898084D01*
X162649246Y-146912527D01*
X162632757Y-146947218D01*
X162623267Y-146991416D01*
X162636943Y-147016493D01*
X162642093Y-147020082D01*
X162690575Y-147034496D01*
X162758469Y-147036537D01*
X162828388Y-147026983D01*
X162877932Y-147009522D01*
X162946430Y-146951364D01*
X162985366Y-146870408D01*
X162993077Y-146807160D01*
X162987193Y-146750111D01*
X162965899Y-146703542D01*
X162923735Y-146662181D01*
X162855241Y-146620755D01*
X162754956Y-146573993D01*
X162748846Y-146571350D01*
X162658510Y-146529617D01*
X162602765Y-146495391D01*
X162578871Y-146464635D01*
X162584087Y-146433311D01*
X162615672Y-146397383D01*
X162625117Y-146389116D01*
X162688383Y-146357058D01*
X162753936Y-146358407D01*
X162811028Y-146389838D01*
X162848907Y-146448024D01*
X162852426Y-146459446D01*
X162886700Y-146514837D01*
X162930191Y-146541518D01*
X162993077Y-146567960D01*
X162993077Y-146499548D01*
X162973948Y-146400110D01*
X162917169Y-146308902D01*
X162887622Y-146278389D01*
X162820458Y-146239228D01*
X162735044Y-146221500D01*
X162646499Y-146226303D01*
G37*
X162646499Y-146226303D02*
X162569940Y-146254733D01*
X162569064Y-146255279D01*
X162521715Y-146290127D01*
X162486759Y-146330852D01*
X162462175Y-146383925D01*
X162445938Y-146455814D01*
X162436025Y-146552992D01*
X162430414Y-146681928D01*
X162429923Y-146700298D01*
X162422859Y-146977287D01*
X162482305Y-147008028D01*
X162525319Y-147028802D01*
X162551290Y-147038646D01*
X162552491Y-147038769D01*
X162556986Y-147020606D01*
X162560556Y-146971612D01*
X162562752Y-146900031D01*
X162563231Y-146842068D01*
X162563242Y-146748170D01*
X162567534Y-146689203D01*
X162582497Y-146661079D01*
X162614518Y-146659706D01*
X162669986Y-146680998D01*
X162753731Y-146720136D01*
X162815311Y-146752643D01*
X162846983Y-146780845D01*
X162856294Y-146811582D01*
X162856308Y-146813104D01*
X162840943Y-146866054D01*
X162795453Y-146894660D01*
X162725834Y-146898803D01*
X162675687Y-146898084D01*
X162649246Y-146912527D01*
X162632757Y-146947218D01*
X162623267Y-146991416D01*
X162636943Y-147016493D01*
X162642093Y-147020082D01*
X162690575Y-147034496D01*
X162758469Y-147036537D01*
X162828388Y-147026983D01*
X162877932Y-147009522D01*
X162946430Y-146951364D01*
X162985366Y-146870408D01*
X162993077Y-146807160D01*
X162987193Y-146750111D01*
X162965899Y-146703542D01*
X162923735Y-146662181D01*
X162855241Y-146620755D01*
X162754956Y-146573993D01*
X162748846Y-146571350D01*
X162658510Y-146529617D01*
X162602765Y-146495391D01*
X162578871Y-146464635D01*
X162584087Y-146433311D01*
X162615672Y-146397383D01*
X162625117Y-146389116D01*
X162688383Y-146357058D01*
X162753936Y-146358407D01*
X162811028Y-146389838D01*
X162848907Y-146448024D01*
X162852426Y-146459446D01*
X162886700Y-146514837D01*
X162930191Y-146541518D01*
X162993077Y-146567960D01*
X162993077Y-146499548D01*
X162973948Y-146400110D01*
X162917169Y-146308902D01*
X162887622Y-146278389D01*
X162820458Y-146239228D01*
X162735044Y-146221500D01*
X162646499Y-146226303D01*
G36*
X163540154Y-146092120D02*
G01*
X163534428Y-146171980D01*
X163527851Y-146219039D01*
X163518738Y-146239566D01*
X163505402Y-146239829D01*
X163501077Y-146237378D01*
X163443556Y-146219636D01*
X163368732Y-146220672D01*
X163292661Y-146238910D01*
X163245082Y-146262505D01*
X163196298Y-146300198D01*
X163160636Y-146342855D01*
X163136155Y-146397057D01*
X163120913Y-146469384D01*
X163112970Y-146566419D01*
X163110384Y-146694742D01*
X163110338Y-146719358D01*
X163110308Y-146995870D01*
X163171839Y-147017320D01*
X163215541Y-147031912D01*
X163239518Y-147038706D01*
X163240223Y-147038769D01*
X163242585Y-147020345D01*
X163244594Y-146969526D01*
X163246099Y-146892993D01*
X163246947Y-146797430D01*
X163247077Y-146739329D01*
X163247349Y-146624771D01*
X163248748Y-146542667D01*
X163252151Y-146486393D01*
X163258433Y-146449326D01*
X163268471Y-146424844D01*
X163283139Y-146406325D01*
X163292298Y-146397406D01*
X163355211Y-146361466D01*
X163423864Y-146358775D01*
X163486152Y-146389170D01*
X163497671Y-146400144D01*
X163514567Y-146420779D01*
X163526286Y-146445256D01*
X163533767Y-146480647D01*
X163537946Y-146534026D01*
X163539763Y-146612466D01*
X163540154Y-146720617D01*
X163540154Y-146995870D01*
X163601685Y-147017320D01*
X163645387Y-147031912D01*
X163669364Y-147038706D01*
X163670070Y-147038769D01*
X163671874Y-147020069D01*
X163673500Y-146967322D01*
X163674883Y-146885557D01*
X163675958Y-146779805D01*
X163676660Y-146655094D01*
X163676923Y-146516455D01*
X163676923Y-145981806D01*
X163549923Y-145928236D01*
X163540154Y-146092120D01*
G37*
X163540154Y-146092120D02*
X163534428Y-146171980D01*
X163527851Y-146219039D01*
X163518738Y-146239566D01*
X163505402Y-146239829D01*
X163501077Y-146237378D01*
X163443556Y-146219636D01*
X163368732Y-146220672D01*
X163292661Y-146238910D01*
X163245082Y-146262505D01*
X163196298Y-146300198D01*
X163160636Y-146342855D01*
X163136155Y-146397057D01*
X163120913Y-146469384D01*
X163112970Y-146566419D01*
X163110384Y-146694742D01*
X163110338Y-146719358D01*
X163110308Y-146995870D01*
X163171839Y-147017320D01*
X163215541Y-147031912D01*
X163239518Y-147038706D01*
X163240223Y-147038769D01*
X163242585Y-147020345D01*
X163244594Y-146969526D01*
X163246099Y-146892993D01*
X163246947Y-146797430D01*
X163247077Y-146739329D01*
X163247349Y-146624771D01*
X163248748Y-146542667D01*
X163252151Y-146486393D01*
X163258433Y-146449326D01*
X163268471Y-146424844D01*
X163283139Y-146406325D01*
X163292298Y-146397406D01*
X163355211Y-146361466D01*
X163423864Y-146358775D01*
X163486152Y-146389170D01*
X163497671Y-146400144D01*
X163514567Y-146420779D01*
X163526286Y-146445256D01*
X163533767Y-146480647D01*
X163537946Y-146534026D01*
X163539763Y-146612466D01*
X163540154Y-146720617D01*
X163540154Y-146995870D01*
X163601685Y-147017320D01*
X163645387Y-147031912D01*
X163669364Y-147038706D01*
X163670070Y-147038769D01*
X163671874Y-147020069D01*
X163673500Y-146967322D01*
X163674883Y-146885557D01*
X163675958Y-146779805D01*
X163676660Y-146655094D01*
X163676923Y-146516455D01*
X163676923Y-145981806D01*
X163549923Y-145928236D01*
X163540154Y-146092120D01*
G36*
X165165746Y-146199745D02*
G01*
X165088714Y-146251567D01*
X165029184Y-146326412D01*
X164993622Y-146421654D01*
X164986429Y-146491756D01*
X164987246Y-146521009D01*
X164994086Y-146543407D01*
X165012888Y-146563474D01*
X165049592Y-146585733D01*
X165110138Y-146614709D01*
X165200466Y-146654927D01*
X165200923Y-146655129D01*
X165284067Y-146693210D01*
X165352247Y-146727025D01*
X165398495Y-146752933D01*
X165415842Y-146767295D01*
X165415846Y-146767411D01*
X165400557Y-146798685D01*
X165364804Y-146833157D01*
X165323758Y-146857990D01*
X165302963Y-146862923D01*
X165246230Y-146845862D01*
X165197373Y-146803133D01*
X165173535Y-146756155D01*
X165150603Y-146721522D01*
X165105682Y-146682081D01*
X165052877Y-146648009D01*
X165006290Y-146629480D01*
X164996548Y-146628462D01*
X164985582Y-146645215D01*
X164984921Y-146688039D01*
X164992980Y-146745781D01*
X165008173Y-146807289D01*
X165028914Y-146861409D01*
X165029962Y-146863510D01*
X165092379Y-146950660D01*
X165173274Y-147009939D01*
X165265144Y-147039034D01*
X165360487Y-147035634D01*
X165451802Y-146997428D01*
X165455862Y-146994741D01*
X165527694Y-146929642D01*
X165574927Y-146844705D01*
X165601066Y-146733021D01*
X165604574Y-146701643D01*
X165610787Y-146553536D01*
X165603339Y-146484468D01*
X165415846Y-146484468D01*
X165413410Y-146527552D01*
X165400086Y-146540126D01*
X165366868Y-146530719D01*
X165314506Y-146508483D01*
X165255976Y-146480610D01*
X165254521Y-146479872D01*
X165204911Y-146453777D01*
X165185000Y-146436363D01*
X165189910Y-146418107D01*
X165210584Y-146394120D01*
X165263181Y-146359406D01*
X165319823Y-146356856D01*
X165370631Y-146382119D01*
X165405724Y-146430847D01*
X165415846Y-146484468D01*
X165603339Y-146484468D01*
X165598008Y-146435036D01*
X165565222Y-146341055D01*
X165519579Y-146275215D01*
X165437198Y-146208681D01*
X165346454Y-146175676D01*
X165253815Y-146173573D01*
X165165746Y-146199745D01*
G37*
X165165746Y-146199745D02*
X165088714Y-146251567D01*
X165029184Y-146326412D01*
X164993622Y-146421654D01*
X164986429Y-146491756D01*
X164987246Y-146521009D01*
X164994086Y-146543407D01*
X165012888Y-146563474D01*
X165049592Y-146585733D01*
X165110138Y-146614709D01*
X165200466Y-146654927D01*
X165200923Y-146655129D01*
X165284067Y-146693210D01*
X165352247Y-146727025D01*
X165398495Y-146752933D01*
X165415842Y-146767295D01*
X165415846Y-146767411D01*
X165400557Y-146798685D01*
X165364804Y-146833157D01*
X165323758Y-146857990D01*
X165302963Y-146862923D01*
X165246230Y-146845862D01*
X165197373Y-146803133D01*
X165173535Y-146756155D01*
X165150603Y-146721522D01*
X165105682Y-146682081D01*
X165052877Y-146648009D01*
X165006290Y-146629480D01*
X164996548Y-146628462D01*
X164985582Y-146645215D01*
X164984921Y-146688039D01*
X164992980Y-146745781D01*
X165008173Y-146807289D01*
X165028914Y-146861409D01*
X165029962Y-146863510D01*
X165092379Y-146950660D01*
X165173274Y-147009939D01*
X165265144Y-147039034D01*
X165360487Y-147035634D01*
X165451802Y-146997428D01*
X165455862Y-146994741D01*
X165527694Y-146929642D01*
X165574927Y-146844705D01*
X165601066Y-146733021D01*
X165604574Y-146701643D01*
X165610787Y-146553536D01*
X165603339Y-146484468D01*
X165415846Y-146484468D01*
X165413410Y-146527552D01*
X165400086Y-146540126D01*
X165366868Y-146530719D01*
X165314506Y-146508483D01*
X165255976Y-146480610D01*
X165254521Y-146479872D01*
X165204911Y-146453777D01*
X165185000Y-146436363D01*
X165189910Y-146418107D01*
X165210584Y-146394120D01*
X165263181Y-146359406D01*
X165319823Y-146356856D01*
X165370631Y-146382119D01*
X165405724Y-146430847D01*
X165415846Y-146484468D01*
X165603339Y-146484468D01*
X165598008Y-146435036D01*
X165565222Y-146341055D01*
X165519579Y-146275215D01*
X165437198Y-146208681D01*
X165346454Y-146175676D01*
X165253815Y-146173573D01*
X165165746Y-146199745D01*
G36*
X166683114Y-146187256D02*
G01*
X166591536Y-146235409D01*
X166523951Y-146312905D01*
X166499943Y-146362727D01*
X166481262Y-146437533D01*
X166471699Y-146532052D01*
X166470792Y-146635210D01*
X166478079Y-146735935D01*
X166493097Y-146823153D01*
X166515385Y-146885791D01*
X166522235Y-146896579D01*
X166603368Y-146977105D01*
X166699734Y-147025336D01*
X166804299Y-147039450D01*
X166910032Y-147017629D01*
X166939457Y-147004547D01*
X166996759Y-146964231D01*
X167047050Y-146910775D01*
X167051803Y-146903995D01*
X167071122Y-146871321D01*
X167083892Y-146836394D01*
X167091436Y-146790414D01*
X167095076Y-146724584D01*
X167096135Y-146630105D01*
X167096154Y-146608923D01*
X167096106Y-146602182D01*
X166900769Y-146602182D01*
X166899632Y-146691349D01*
X166895159Y-146750520D01*
X166885754Y-146788741D01*
X166869824Y-146815053D01*
X166861692Y-146823846D01*
X166814942Y-146857261D01*
X166769553Y-146855737D01*
X166723660Y-146826752D01*
X166696288Y-146795809D01*
X166680077Y-146750643D01*
X166670974Y-146679420D01*
X166670349Y-146671114D01*
X166668796Y-146542037D01*
X166685035Y-146446172D01*
X166718848Y-146384107D01*
X166770016Y-146356432D01*
X166788280Y-146354923D01*
X166836240Y-146362513D01*
X166869047Y-146388808D01*
X166889105Y-146439095D01*
X166898822Y-146518664D01*
X166900769Y-146602182D01*
X167096106Y-146602182D01*
X167095426Y-146508249D01*
X167092371Y-146437906D01*
X167085678Y-146389163D01*
X167074040Y-146353288D01*
X167056147Y-146321548D01*
X167052192Y-146315648D01*
X166985733Y-146236104D01*
X166913315Y-146189929D01*
X166825151Y-146171599D01*
X166795213Y-146170703D01*
X166683114Y-146187256D01*
G37*
X166683114Y-146187256D02*
X166591536Y-146235409D01*
X166523951Y-146312905D01*
X166499943Y-146362727D01*
X166481262Y-146437533D01*
X166471699Y-146532052D01*
X166470792Y-146635210D01*
X166478079Y-146735935D01*
X166493097Y-146823153D01*
X166515385Y-146885791D01*
X166522235Y-146896579D01*
X166603368Y-146977105D01*
X166699734Y-147025336D01*
X166804299Y-147039450D01*
X166910032Y-147017629D01*
X166939457Y-147004547D01*
X166996759Y-146964231D01*
X167047050Y-146910775D01*
X167051803Y-146903995D01*
X167071122Y-146871321D01*
X167083892Y-146836394D01*
X167091436Y-146790414D01*
X167095076Y-146724584D01*
X167096135Y-146630105D01*
X167096154Y-146608923D01*
X167096106Y-146602182D01*
X166900769Y-146602182D01*
X166899632Y-146691349D01*
X166895159Y-146750520D01*
X166885754Y-146788741D01*
X166869824Y-146815053D01*
X166861692Y-146823846D01*
X166814942Y-146857261D01*
X166769553Y-146855737D01*
X166723660Y-146826752D01*
X166696288Y-146795809D01*
X166680077Y-146750643D01*
X166670974Y-146679420D01*
X166670349Y-146671114D01*
X166668796Y-146542037D01*
X166685035Y-146446172D01*
X166718848Y-146384107D01*
X166770016Y-146356432D01*
X166788280Y-146354923D01*
X166836240Y-146362513D01*
X166869047Y-146388808D01*
X166889105Y-146439095D01*
X166898822Y-146518664D01*
X166900769Y-146602182D01*
X167096106Y-146602182D01*
X167095426Y-146508249D01*
X167092371Y-146437906D01*
X167085678Y-146389163D01*
X167074040Y-146353288D01*
X167056147Y-146321548D01*
X167052192Y-146315648D01*
X166985733Y-146236104D01*
X166913315Y-146189929D01*
X166825151Y-146171599D01*
X166795213Y-146170703D01*
X166683114Y-146187256D01*
G36*
X164428336Y-146195089D02*
G01*
X164365633Y-146231358D01*
X164322039Y-146267358D01*
X164290155Y-146305075D01*
X164268190Y-146351199D01*
X164254351Y-146412421D01*
X164246847Y-146495431D01*
X164243883Y-146606919D01*
X164243539Y-146687062D01*
X164243539Y-146982065D01*
X164409615Y-147056515D01*
X164419385Y-146733402D01*
X164423421Y-146612729D01*
X164427656Y-146525141D01*
X164432903Y-146464650D01*
X164439975Y-146425268D01*
X164449689Y-146401007D01*
X164462856Y-146385880D01*
X164467081Y-146382606D01*
X164531091Y-146357034D01*
X164595792Y-146367153D01*
X164634308Y-146394000D01*
X164649975Y-146413024D01*
X164660820Y-146437988D01*
X164667712Y-146475834D01*
X164671521Y-146533502D01*
X164673117Y-146617935D01*
X164673385Y-146705928D01*
X164673437Y-146816323D01*
X164675328Y-146894463D01*
X164681655Y-146947165D01*
X164695017Y-146981242D01*
X164718015Y-147003511D01*
X164753246Y-147020787D01*
X164800303Y-147038738D01*
X164851697Y-147058278D01*
X164845579Y-146711485D01*
X164843116Y-146586468D01*
X164840233Y-146494082D01*
X164836102Y-146427881D01*
X164829893Y-146381420D01*
X164820774Y-146348256D01*
X164807917Y-146321944D01*
X164792416Y-146298729D01*
X164717629Y-146224569D01*
X164626372Y-146181684D01*
X164527117Y-146171412D01*
X164428336Y-146195089D01*
G37*
X164428336Y-146195089D02*
X164365633Y-146231358D01*
X164322039Y-146267358D01*
X164290155Y-146305075D01*
X164268190Y-146351199D01*
X164254351Y-146412421D01*
X164246847Y-146495431D01*
X164243883Y-146606919D01*
X164243539Y-146687062D01*
X164243539Y-146982065D01*
X164409615Y-147056515D01*
X164419385Y-146733402D01*
X164423421Y-146612729D01*
X164427656Y-146525141D01*
X164432903Y-146464650D01*
X164439975Y-146425268D01*
X164449689Y-146401007D01*
X164462856Y-146385880D01*
X164467081Y-146382606D01*
X164531091Y-146357034D01*
X164595792Y-146367153D01*
X164634308Y-146394000D01*
X164649975Y-146413024D01*
X164660820Y-146437988D01*
X164667712Y-146475834D01*
X164671521Y-146533502D01*
X164673117Y-146617935D01*
X164673385Y-146705928D01*
X164673437Y-146816323D01*
X164675328Y-146894463D01*
X164681655Y-146947165D01*
X164695017Y-146981242D01*
X164718015Y-147003511D01*
X164753246Y-147020787D01*
X164800303Y-147038738D01*
X164851697Y-147058278D01*
X164845579Y-146711485D01*
X164843116Y-146586468D01*
X164840233Y-146494082D01*
X164836102Y-146427881D01*
X164829893Y-146381420D01*
X164820774Y-146348256D01*
X164807917Y-146321944D01*
X164792416Y-146298729D01*
X164717629Y-146224569D01*
X164626372Y-146181684D01*
X164527117Y-146171412D01*
X164428336Y-146195089D01*
G36*
X165931114Y-146184505D02*
G01*
X165856461Y-146221727D01*
X165790569Y-146290261D01*
X165772423Y-146315648D01*
X165752655Y-146348866D01*
X165739828Y-146384945D01*
X165732490Y-146433098D01*
X165729187Y-146502536D01*
X165728462Y-146594206D01*
X165731737Y-146719830D01*
X165743123Y-146814154D01*
X165764959Y-146884523D01*
X165799581Y-146938286D01*
X165849330Y-146982788D01*
X165852986Y-146985423D01*
X165902015Y-147012377D01*
X165961055Y-147025712D01*
X166036141Y-147029000D01*
X166158205Y-147029000D01*
X166158256Y-147147497D01*
X166159392Y-147213492D01*
X166166314Y-147252202D01*
X166184402Y-147275419D01*
X166219038Y-147294933D01*
X166227355Y-147298920D01*
X166266280Y-147317603D01*
X166296417Y-147329403D01*
X166318826Y-147330422D01*
X166334567Y-147316761D01*
X166344698Y-147284522D01*
X166350277Y-147229804D01*
X166352365Y-147148711D01*
X166352019Y-147037344D01*
X166350300Y-146891802D01*
X166349763Y-146848269D01*
X166347828Y-146698205D01*
X166346096Y-146600042D01*
X166158308Y-146600042D01*
X166157252Y-146683364D01*
X166152562Y-146737880D01*
X166141949Y-146773837D01*
X166123128Y-146801482D01*
X166110350Y-146814965D01*
X166058110Y-146854417D01*
X166011858Y-146857628D01*
X165964133Y-146825049D01*
X165962923Y-146823846D01*
X165943506Y-146798668D01*
X165931693Y-146764447D01*
X165925735Y-146711748D01*
X165923880Y-146631131D01*
X165923846Y-146613271D01*
X165928330Y-146502175D01*
X165942926Y-146425161D01*
X165969350Y-146378147D01*
X166009317Y-146357050D01*
X166032416Y-146354923D01*
X166087238Y-146364900D01*
X166124842Y-146397752D01*
X166147477Y-146457857D01*
X166157394Y-146549598D01*
X166158308Y-146600042D01*
X166346096Y-146600042D01*
X166345778Y-146582060D01*
X166343127Y-146494679D01*
X166339394Y-146430905D01*
X166334093Y-146385582D01*
X166326742Y-146353555D01*
X166316857Y-146329668D01*
X166303954Y-146308764D01*
X166298421Y-146300898D01*
X166225031Y-146226595D01*
X166132240Y-146184467D01*
X166024904Y-146172722D01*
X165931114Y-146184505D01*
G37*
X165931114Y-146184505D02*
X165856461Y-146221727D01*
X165790569Y-146290261D01*
X165772423Y-146315648D01*
X165752655Y-146348866D01*
X165739828Y-146384945D01*
X165732490Y-146433098D01*
X165729187Y-146502536D01*
X165728462Y-146594206D01*
X165731737Y-146719830D01*
X165743123Y-146814154D01*
X165764959Y-146884523D01*
X165799581Y-146938286D01*
X165849330Y-146982788D01*
X165852986Y-146985423D01*
X165902015Y-147012377D01*
X165961055Y-147025712D01*
X166036141Y-147029000D01*
X166158205Y-147029000D01*
X166158256Y-147147497D01*
X166159392Y-147213492D01*
X166166314Y-147252202D01*
X166184402Y-147275419D01*
X166219038Y-147294933D01*
X166227355Y-147298920D01*
X166266280Y-147317603D01*
X166296417Y-147329403D01*
X166318826Y-147330422D01*
X166334567Y-147316761D01*
X166344698Y-147284522D01*
X166350277Y-147229804D01*
X166352365Y-147148711D01*
X166352019Y-147037344D01*
X166350300Y-146891802D01*
X166349763Y-146848269D01*
X166347828Y-146698205D01*
X166346096Y-146600042D01*
X166158308Y-146600042D01*
X166157252Y-146683364D01*
X166152562Y-146737880D01*
X166141949Y-146773837D01*
X166123128Y-146801482D01*
X166110350Y-146814965D01*
X166058110Y-146854417D01*
X166011858Y-146857628D01*
X165964133Y-146825049D01*
X165962923Y-146823846D01*
X165943506Y-146798668D01*
X165931693Y-146764447D01*
X165925735Y-146711748D01*
X165923880Y-146631131D01*
X165923846Y-146613271D01*
X165928330Y-146502175D01*
X165942926Y-146425161D01*
X165969350Y-146378147D01*
X166009317Y-146357050D01*
X166032416Y-146354923D01*
X166087238Y-146364900D01*
X166124842Y-146397752D01*
X166147477Y-146457857D01*
X166157394Y-146549598D01*
X166158308Y-146600042D01*
X166346096Y-146600042D01*
X166345778Y-146582060D01*
X166343127Y-146494679D01*
X166339394Y-146430905D01*
X166334093Y-146385582D01*
X166326742Y-146353555D01*
X166316857Y-146329668D01*
X166303954Y-146308764D01*
X166298421Y-146300898D01*
X166225031Y-146226595D01*
X166132240Y-146184467D01*
X166024904Y-146172722D01*
X165931114Y-146184505D01*
D13*
X129330000Y-53270000D02*
X128000000Y-53270000D01*
X129330000Y-54600000D02*
X129330000Y-53270000D01*
X129330000Y-55870000D02*
X126670000Y-55870000D01*
X126670000Y-55870000D02*
X126670000Y-61010000D01*
X129330000Y-55870000D02*
X129330000Y-61010000D01*
X129330000Y-61010000D02*
X126670000Y-61010000D01*
D10*
X128333333Y-51722380D02*
X128333333Y-52436666D01*
X128380952Y-52579523D01*
X128476190Y-52674761D01*
X128619047Y-52722380D01*
X128714285Y-52722380D01*
X127333333Y-52722380D02*
X127904761Y-52722380D01*
X127619047Y-52722380D02*
X127619047Y-51722380D01*
X127714285Y-51865238D01*
X127809523Y-51960476D01*
X127904761Y-52008095D01*
X131523809Y-62462380D02*
X131523809Y-61462380D01*
X131142857Y-61462380D01*
X131047619Y-61510000D01*
X131000000Y-61557619D01*
X130952380Y-61652857D01*
X130952380Y-61795714D01*
X131000000Y-61890952D01*
X131047619Y-61938571D01*
X131142857Y-61986190D01*
X131523809Y-61986190D01*
X130619047Y-61462380D02*
X130380952Y-62462380D01*
X130190476Y-61748095D01*
X130000000Y-62462380D01*
X129761904Y-61462380D01*
X128809523Y-62462380D02*
X129142857Y-61986190D01*
X129380952Y-62462380D02*
X129380952Y-61462380D01*
X129000000Y-61462380D01*
X128904761Y-61510000D01*
X128857142Y-61557619D01*
X128809523Y-61652857D01*
X128809523Y-61795714D01*
X128857142Y-61890952D01*
X128904761Y-61938571D01*
X129000000Y-61986190D01*
X129380952Y-61986190D01*
X127333333Y-61462380D02*
X127333333Y-62176666D01*
X127380952Y-62319523D01*
X127476190Y-62414761D01*
X127619047Y-62462380D01*
X127714285Y-62462380D01*
X126904761Y-62176666D02*
X126428571Y-62176666D01*
X127000000Y-62462380D02*
X126666666Y-61462380D01*
X126333333Y-62462380D01*
X125428571Y-62367142D02*
X125476190Y-62414761D01*
X125619047Y-62462380D01*
X125714285Y-62462380D01*
X125857142Y-62414761D01*
X125952380Y-62319523D01*
X126000000Y-62224285D01*
X126047619Y-62033809D01*
X126047619Y-61890952D01*
X126000000Y-61700476D01*
X125952380Y-61605238D01*
X125857142Y-61510000D01*
X125714285Y-61462380D01*
X125619047Y-61462380D01*
X125476190Y-61510000D01*
X125428571Y-61557619D01*
X125000000Y-62462380D02*
X125000000Y-61462380D01*
X124428571Y-62462380D02*
X124857142Y-61890952D01*
X124428571Y-61462380D02*
X125000000Y-62033809D01*
X160800000Y-54728571D02*
X160657142Y-54776190D01*
X160609523Y-54823809D01*
X160561904Y-54919047D01*
X160561904Y-55061904D01*
X160609523Y-55157142D01*
X160657142Y-55204761D01*
X160752380Y-55252380D01*
X161133333Y-55252380D01*
X161133333Y-54252380D01*
X160800000Y-54252380D01*
X160704761Y-54300000D01*
X160657142Y-54347619D01*
X160609523Y-54442857D01*
X160609523Y-54538095D01*
X160657142Y-54633333D01*
X160704761Y-54680952D01*
X160800000Y-54728571D01*
X161133333Y-54728571D01*
X160180952Y-54966666D02*
X159704761Y-54966666D01*
X160276190Y-55252380D02*
X159942857Y-54252380D01*
X159609523Y-55252380D01*
X159419047Y-54252380D02*
X158847619Y-54252380D01*
X159133333Y-55252380D02*
X159133333Y-54252380D01*
X158657142Y-54252380D02*
X158085714Y-54252380D01*
X158371428Y-55252380D02*
X158371428Y-54252380D01*
X157752380Y-54728571D02*
X157419047Y-54728571D01*
X157276190Y-55252380D02*
X157752380Y-55252380D01*
X157752380Y-54252380D01*
X157276190Y-54252380D01*
X156276190Y-55252380D02*
X156609523Y-54776190D01*
X156847619Y-55252380D02*
X156847619Y-54252380D01*
X156466666Y-54252380D01*
X156371428Y-54300000D01*
X156323809Y-54347619D01*
X156276190Y-54442857D01*
X156276190Y-54585714D01*
X156323809Y-54680952D01*
X156371428Y-54728571D01*
X156466666Y-54776190D01*
X156847619Y-54776190D01*
X155657142Y-54776190D02*
X155657142Y-55252380D01*
X155990476Y-54252380D02*
X155657142Y-54776190D01*
X155323809Y-54252380D01*
M02*
