G04 #@! TF.GenerationSoftware,KiCad,Pcbnew,5.1.9*
G04 #@! TF.CreationDate,2021-01-07T13:44:28+01:00*
G04 #@! TF.ProjectId,fuzzpedal,66757a7a-7065-4646-916c-2e6b69636164,rev?*
G04 #@! TF.SameCoordinates,Original*
G04 #@! TF.FileFunction,Legend,Bot*
G04 #@! TF.FilePolarity,Positive*
%FSLAX46Y46*%
G04 Gerber Fmt 4.6, Leading zero omitted, Abs format (unit mm)*
G04 Created by KiCad (PCBNEW 5.1.9) date 2021-01-07 13:44:28*
%MOMM*%
%LPD*%
G01*
G04 APERTURE LIST*
%ADD10C,0.150000*%
%ADD11C,0.300000*%
%ADD12C,0.010000*%
%ADD13C,0.120000*%
G04 APERTURE END LIST*
D10*
X130352380Y-117000000D02*
X130352380Y-117190476D01*
X130400000Y-117285714D01*
X130495238Y-117380952D01*
X130685714Y-117428571D01*
X131019047Y-117428571D01*
X131209523Y-117380952D01*
X131304761Y-117285714D01*
X131352380Y-117190476D01*
X131352380Y-117000000D01*
X131304761Y-116904761D01*
X131209523Y-116809523D01*
X131019047Y-116761904D01*
X130685714Y-116761904D01*
X130495238Y-116809523D01*
X130400000Y-116904761D01*
X130352380Y-117000000D01*
X130352380Y-117857142D02*
X131161904Y-117857142D01*
X131257142Y-117904761D01*
X131304761Y-117952380D01*
X131352380Y-118047619D01*
X131352380Y-118238095D01*
X131304761Y-118333333D01*
X131257142Y-118380952D01*
X131161904Y-118428571D01*
X130352380Y-118428571D01*
X130352380Y-118761904D02*
X130352380Y-119333333D01*
X131352380Y-119047619D02*
X130352380Y-119047619D01*
X157566666Y-55128571D02*
X157900000Y-55128571D01*
X157900000Y-55652380D02*
X157900000Y-54652380D01*
X157423809Y-54652380D01*
X156900000Y-55652380D02*
X156995238Y-55604761D01*
X157042857Y-55557142D01*
X157090476Y-55461904D01*
X157090476Y-55176190D01*
X157042857Y-55080952D01*
X156995238Y-55033333D01*
X156900000Y-54985714D01*
X156757142Y-54985714D01*
X156661904Y-55033333D01*
X156614285Y-55080952D01*
X156566666Y-55176190D01*
X156566666Y-55461904D01*
X156614285Y-55557142D01*
X156661904Y-55604761D01*
X156757142Y-55652380D01*
X156900000Y-55652380D01*
X156138095Y-55652380D02*
X156138095Y-54985714D01*
X156138095Y-55176190D02*
X156090476Y-55080952D01*
X156042857Y-55033333D01*
X155947619Y-54985714D01*
X155852380Y-54985714D01*
X154804761Y-55604761D02*
X154709523Y-55652380D01*
X154519047Y-55652380D01*
X154423809Y-55604761D01*
X154376190Y-55509523D01*
X154376190Y-55461904D01*
X154423809Y-55366666D01*
X154519047Y-55319047D01*
X154661904Y-55319047D01*
X154757142Y-55271428D01*
X154804761Y-55176190D01*
X154804761Y-55128571D01*
X154757142Y-55033333D01*
X154661904Y-54985714D01*
X154519047Y-54985714D01*
X154423809Y-55033333D01*
X153519047Y-55604761D02*
X153614285Y-55652380D01*
X153804761Y-55652380D01*
X153900000Y-55604761D01*
X153947619Y-55557142D01*
X153995238Y-55461904D01*
X153995238Y-55176190D01*
X153947619Y-55080952D01*
X153900000Y-55033333D01*
X153804761Y-54985714D01*
X153614285Y-54985714D01*
X153519047Y-55033333D01*
X152947619Y-55652380D02*
X153042857Y-55604761D01*
X153090476Y-55557142D01*
X153138095Y-55461904D01*
X153138095Y-55176190D01*
X153090476Y-55080952D01*
X153042857Y-55033333D01*
X152947619Y-54985714D01*
X152804761Y-54985714D01*
X152709523Y-55033333D01*
X152661904Y-55080952D01*
X152614285Y-55176190D01*
X152614285Y-55461904D01*
X152661904Y-55557142D01*
X152709523Y-55604761D01*
X152804761Y-55652380D01*
X152947619Y-55652380D01*
X152185714Y-54985714D02*
X152185714Y-55985714D01*
X152185714Y-55033333D02*
X152090476Y-54985714D01*
X151900000Y-54985714D01*
X151804761Y-55033333D01*
X151757142Y-55080952D01*
X151709523Y-55176190D01*
X151709523Y-55461904D01*
X151757142Y-55557142D01*
X151804761Y-55604761D01*
X151900000Y-55652380D01*
X152090476Y-55652380D01*
X152185714Y-55604761D01*
X150900000Y-55604761D02*
X150995238Y-55652380D01*
X151185714Y-55652380D01*
X151280952Y-55604761D01*
X151328571Y-55509523D01*
X151328571Y-55128571D01*
X151280952Y-55033333D01*
X151185714Y-54985714D01*
X150995238Y-54985714D01*
X150900000Y-55033333D01*
X150852380Y-55128571D01*
X150852380Y-55223809D01*
X151328571Y-55319047D01*
X128852380Y-117476190D02*
X127852380Y-117476190D01*
X128852380Y-117952380D02*
X127852380Y-117952380D01*
X128852380Y-118523809D01*
X127852380Y-118523809D01*
X125400000Y-117238095D02*
X125352380Y-117142857D01*
X125352380Y-117000000D01*
X125400000Y-116857142D01*
X125495238Y-116761904D01*
X125590476Y-116714285D01*
X125780952Y-116666666D01*
X125923809Y-116666666D01*
X126114285Y-116714285D01*
X126209523Y-116761904D01*
X126304761Y-116857142D01*
X126352380Y-117000000D01*
X126352380Y-117095238D01*
X126304761Y-117238095D01*
X126257142Y-117285714D01*
X125923809Y-117285714D01*
X125923809Y-117095238D01*
X126352380Y-117714285D02*
X125352380Y-117714285D01*
X126352380Y-118285714D01*
X125352380Y-118285714D01*
X126352380Y-118761904D02*
X125352380Y-118761904D01*
X125352380Y-119000000D01*
X125400000Y-119142857D01*
X125495238Y-119238095D01*
X125590476Y-119285714D01*
X125780952Y-119333333D01*
X125923809Y-119333333D01*
X126114285Y-119285714D01*
X126209523Y-119238095D01*
X126304761Y-119142857D01*
X126352380Y-119000000D01*
X126352380Y-118761904D01*
X123471428Y-116714285D02*
X123471428Y-117476190D01*
X123852380Y-117095238D02*
X123090476Y-117095238D01*
X123852380Y-118000000D02*
X123852380Y-118190476D01*
X123804761Y-118285714D01*
X123757142Y-118333333D01*
X123614285Y-118428571D01*
X123423809Y-118476190D01*
X123042857Y-118476190D01*
X122947619Y-118428571D01*
X122900000Y-118380952D01*
X122852380Y-118285714D01*
X122852380Y-118095238D01*
X122900000Y-118000000D01*
X122947619Y-117952380D01*
X123042857Y-117904761D01*
X123280952Y-117904761D01*
X123376190Y-117952380D01*
X123423809Y-118000000D01*
X123471428Y-118095238D01*
X123471428Y-118285714D01*
X123423809Y-118380952D01*
X123376190Y-118428571D01*
X123280952Y-118476190D01*
X122852380Y-118761904D02*
X123852380Y-119095238D01*
X122852380Y-119428571D01*
D11*
X135792857Y-140228571D02*
X135792857Y-139442857D01*
X135864285Y-139300000D01*
X136007142Y-139228571D01*
X136292857Y-139228571D01*
X136435714Y-139300000D01*
X135792857Y-140157142D02*
X135935714Y-140228571D01*
X136292857Y-140228571D01*
X136435714Y-140157142D01*
X136507142Y-140014285D01*
X136507142Y-139871428D01*
X136435714Y-139728571D01*
X136292857Y-139657142D01*
X135935714Y-139657142D01*
X135792857Y-139585714D01*
X134864285Y-140228571D02*
X135007142Y-140157142D01*
X135078571Y-140014285D01*
X135078571Y-138728571D01*
X134292857Y-140228571D02*
X134292857Y-138728571D01*
X134292857Y-139300000D02*
X134150000Y-139228571D01*
X133864285Y-139228571D01*
X133721428Y-139300000D01*
X133650000Y-139371428D01*
X133578571Y-139514285D01*
X133578571Y-139942857D01*
X133650000Y-140085714D01*
X133721428Y-140157142D01*
X133864285Y-140228571D01*
X134150000Y-140228571D01*
X134292857Y-140157142D01*
X132364285Y-140157142D02*
X132507142Y-140228571D01*
X132792857Y-140228571D01*
X132935714Y-140157142D01*
X133007142Y-140014285D01*
X133007142Y-139442857D01*
X132935714Y-139300000D01*
X132792857Y-139228571D01*
X132507142Y-139228571D01*
X132364285Y-139300000D01*
X132292857Y-139442857D01*
X132292857Y-139585714D01*
X133007142Y-139728571D01*
X131650000Y-140228571D02*
X131650000Y-139228571D01*
X131650000Y-139514285D02*
X131578571Y-139371428D01*
X131507142Y-139300000D01*
X131364285Y-139228571D01*
X131221428Y-139228571D01*
X130078571Y-140228571D02*
X130078571Y-139442857D01*
X130150000Y-139300000D01*
X130292857Y-139228571D01*
X130578571Y-139228571D01*
X130721428Y-139300000D01*
X130078571Y-140157142D02*
X130221428Y-140228571D01*
X130578571Y-140228571D01*
X130721428Y-140157142D01*
X130792857Y-140014285D01*
X130792857Y-139871428D01*
X130721428Y-139728571D01*
X130578571Y-139657142D01*
X130221428Y-139657142D01*
X130078571Y-139585714D01*
X129364285Y-139228571D02*
X129364285Y-140228571D01*
X129364285Y-139371428D02*
X129292857Y-139300000D01*
X129150000Y-139228571D01*
X128935714Y-139228571D01*
X128792857Y-139300000D01*
X128721428Y-139442857D01*
X128721428Y-140228571D01*
X127364285Y-140228571D02*
X127364285Y-138728571D01*
X127364285Y-140157142D02*
X127507142Y-140228571D01*
X127792857Y-140228571D01*
X127935714Y-140157142D01*
X128007142Y-140085714D01*
X128078571Y-139942857D01*
X128078571Y-139514285D01*
X128007142Y-139371428D01*
X127935714Y-139300000D01*
X127792857Y-139228571D01*
X127507142Y-139228571D01*
X127364285Y-139300000D01*
X135578571Y-142778571D02*
X135578571Y-141778571D01*
X135578571Y-142064285D02*
X135507142Y-141921428D01*
X135435714Y-141850000D01*
X135292857Y-141778571D01*
X135150000Y-141778571D01*
X134078571Y-142707142D02*
X134221428Y-142778571D01*
X134507142Y-142778571D01*
X134650000Y-142707142D01*
X134721428Y-142564285D01*
X134721428Y-141992857D01*
X134650000Y-141850000D01*
X134507142Y-141778571D01*
X134221428Y-141778571D01*
X134078571Y-141850000D01*
X134007142Y-141992857D01*
X134007142Y-142135714D01*
X134721428Y-142278571D01*
X133507142Y-141778571D02*
X133150000Y-142778571D01*
X132792857Y-141778571D01*
X131150000Y-141421428D02*
X131078571Y-141350000D01*
X130935714Y-141278571D01*
X130578571Y-141278571D01*
X130435714Y-141350000D01*
X130364285Y-141421428D01*
X130292857Y-141564285D01*
X130292857Y-141707142D01*
X130364285Y-141921428D01*
X131221428Y-142778571D01*
X130292857Y-142778571D01*
X129650000Y-142635714D02*
X129578571Y-142707142D01*
X129650000Y-142778571D01*
X129721428Y-142707142D01*
X129650000Y-142635714D01*
X129650000Y-142778571D01*
X128650000Y-141278571D02*
X128507142Y-141278571D01*
X128364285Y-141350000D01*
X128292857Y-141421428D01*
X128221428Y-141564285D01*
X128150000Y-141850000D01*
X128150000Y-142207142D01*
X128221428Y-142492857D01*
X128292857Y-142635714D01*
X128364285Y-142707142D01*
X128507142Y-142778571D01*
X128650000Y-142778571D01*
X128792857Y-142707142D01*
X128864285Y-142635714D01*
X128935714Y-142492857D01*
X129007142Y-142207142D01*
X129007142Y-141850000D01*
X128935714Y-141564285D01*
X128864285Y-141421428D01*
X128792857Y-141350000D01*
X128650000Y-141278571D01*
X134471428Y-143971428D02*
X134400000Y-143900000D01*
X134257142Y-143828571D01*
X133900000Y-143828571D01*
X133757142Y-143900000D01*
X133685714Y-143971428D01*
X133614285Y-144114285D01*
X133614285Y-144257142D01*
X133685714Y-144471428D01*
X134542857Y-145328571D01*
X133614285Y-145328571D01*
X132685714Y-143828571D02*
X132542857Y-143828571D01*
X132400000Y-143900000D01*
X132328571Y-143971428D01*
X132257142Y-144114285D01*
X132185714Y-144400000D01*
X132185714Y-144757142D01*
X132257142Y-145042857D01*
X132328571Y-145185714D01*
X132400000Y-145257142D01*
X132542857Y-145328571D01*
X132685714Y-145328571D01*
X132828571Y-145257142D01*
X132900000Y-145185714D01*
X132971428Y-145042857D01*
X133042857Y-144757142D01*
X133042857Y-144400000D01*
X132971428Y-144114285D01*
X132900000Y-143971428D01*
X132828571Y-143900000D01*
X132685714Y-143828571D01*
X131614285Y-143971428D02*
X131542857Y-143900000D01*
X131400000Y-143828571D01*
X131042857Y-143828571D01*
X130900000Y-143900000D01*
X130828571Y-143971428D01*
X130757142Y-144114285D01*
X130757142Y-144257142D01*
X130828571Y-144471428D01*
X131685714Y-145328571D01*
X130757142Y-145328571D01*
X129828571Y-143828571D02*
X129685714Y-143828571D01*
X129542857Y-143900000D01*
X129471428Y-143971428D01*
X129400000Y-144114285D01*
X129328571Y-144400000D01*
X129328571Y-144757142D01*
X129400000Y-145042857D01*
X129471428Y-145185714D01*
X129542857Y-145257142D01*
X129685714Y-145328571D01*
X129828571Y-145328571D01*
X129971428Y-145257142D01*
X130042857Y-145185714D01*
X130114285Y-145042857D01*
X130185714Y-144757142D01*
X130185714Y-144400000D01*
X130114285Y-144114285D01*
X130042857Y-143971428D01*
X129971428Y-143900000D01*
X129828571Y-143828571D01*
D10*
X159500000Y-53561904D02*
X159547619Y-53657142D01*
X159547619Y-53800000D01*
X159500000Y-53942857D01*
X159404761Y-54038095D01*
X159309523Y-54085714D01*
X159119047Y-54133333D01*
X158976190Y-54133333D01*
X158785714Y-54085714D01*
X158690476Y-54038095D01*
X158595238Y-53942857D01*
X158547619Y-53800000D01*
X158547619Y-53704761D01*
X158595238Y-53561904D01*
X158642857Y-53514285D01*
X158976190Y-53514285D01*
X158976190Y-53704761D01*
X158547619Y-53085714D02*
X159547619Y-53085714D01*
X158547619Y-52514285D01*
X159547619Y-52514285D01*
X158547619Y-52038095D02*
X159547619Y-52038095D01*
X159547619Y-51800000D01*
X159500000Y-51657142D01*
X159404761Y-51561904D01*
X159309523Y-51514285D01*
X159119047Y-51466666D01*
X158976190Y-51466666D01*
X158785714Y-51514285D01*
X158690476Y-51561904D01*
X158595238Y-51657142D01*
X158547619Y-51800000D01*
X158547619Y-52038095D01*
X139371428Y-54514285D02*
X139371428Y-55276190D01*
X139752380Y-54895238D02*
X138990476Y-54895238D01*
X139752380Y-55800000D02*
X139752380Y-55990476D01*
X139704761Y-56085714D01*
X139657142Y-56133333D01*
X139514285Y-56228571D01*
X139323809Y-56276190D01*
X138942857Y-56276190D01*
X138847619Y-56228571D01*
X138800000Y-56180952D01*
X138752380Y-56085714D01*
X138752380Y-55895238D01*
X138800000Y-55800000D01*
X138847619Y-55752380D01*
X138942857Y-55704761D01*
X139180952Y-55704761D01*
X139276190Y-55752380D01*
X139323809Y-55800000D01*
X139371428Y-55895238D01*
X139371428Y-56085714D01*
X139323809Y-56180952D01*
X139276190Y-56228571D01*
X139180952Y-56276190D01*
X138752380Y-56561904D02*
X139752380Y-56895238D01*
X138752380Y-57228571D01*
X141871428Y-54414285D02*
X141871428Y-55176190D01*
X142252380Y-54795238D02*
X141490476Y-54795238D01*
X142252380Y-55700000D02*
X142252380Y-55890476D01*
X142204761Y-55985714D01*
X142157142Y-56033333D01*
X142014285Y-56128571D01*
X141823809Y-56176190D01*
X141442857Y-56176190D01*
X141347619Y-56128571D01*
X141300000Y-56080952D01*
X141252380Y-55985714D01*
X141252380Y-55795238D01*
X141300000Y-55700000D01*
X141347619Y-55652380D01*
X141442857Y-55604761D01*
X141680952Y-55604761D01*
X141776190Y-55652380D01*
X141823809Y-55700000D01*
X141871428Y-55795238D01*
X141871428Y-55985714D01*
X141823809Y-56080952D01*
X141776190Y-56128571D01*
X141680952Y-56176190D01*
X141252380Y-56461904D02*
X142252380Y-56795238D01*
X141252380Y-57128571D01*
X136200000Y-55038095D02*
X136152380Y-54942857D01*
X136152380Y-54800000D01*
X136200000Y-54657142D01*
X136295238Y-54561904D01*
X136390476Y-54514285D01*
X136580952Y-54466666D01*
X136723809Y-54466666D01*
X136914285Y-54514285D01*
X137009523Y-54561904D01*
X137104761Y-54657142D01*
X137152380Y-54800000D01*
X137152380Y-54895238D01*
X137104761Y-55038095D01*
X137057142Y-55085714D01*
X136723809Y-55085714D01*
X136723809Y-54895238D01*
X137152380Y-55514285D02*
X136152380Y-55514285D01*
X137152380Y-56085714D01*
X136152380Y-56085714D01*
X137152380Y-56561904D02*
X136152380Y-56561904D01*
X136152380Y-56800000D01*
X136200000Y-56942857D01*
X136295238Y-57038095D01*
X136390476Y-57085714D01*
X136580952Y-57133333D01*
X136723809Y-57133333D01*
X136914285Y-57085714D01*
X137009523Y-57038095D01*
X137104761Y-56942857D01*
X137152380Y-56800000D01*
X137152380Y-56561904D01*
D12*
G36*
X167528100Y-146261903D02*
G01*
X167416550Y-146317522D01*
X167318092Y-146419931D01*
X167290977Y-146457864D01*
X167261438Y-146507500D01*
X167242272Y-146561412D01*
X167231307Y-146633364D01*
X167226371Y-146737122D01*
X167225287Y-146874101D01*
X167230182Y-147061815D01*
X167247196Y-147202758D01*
X167279823Y-147307908D01*
X167331558Y-147388243D01*
X167405896Y-147454741D01*
X167411358Y-147458678D01*
X167484620Y-147498953D01*
X167572840Y-147518880D01*
X167685038Y-147523793D01*
X167867433Y-147523793D01*
X167867509Y-147700857D01*
X167869207Y-147799470D01*
X167879550Y-147857314D01*
X167906578Y-147892006D01*
X167958332Y-147921164D01*
X167970761Y-147927121D01*
X168028923Y-147955039D01*
X168073956Y-147972672D01*
X168107441Y-147974194D01*
X168130962Y-147953781D01*
X168146100Y-147905607D01*
X168154437Y-147823846D01*
X168157556Y-147702672D01*
X168157040Y-147536260D01*
X168154471Y-147318785D01*
X168153668Y-147253736D01*
X168150778Y-147029502D01*
X168148188Y-146882821D01*
X167867586Y-146882821D01*
X167866009Y-147007326D01*
X167859000Y-147088787D01*
X167843142Y-147142515D01*
X167815019Y-147183823D01*
X167795925Y-147203971D01*
X167717865Y-147262921D01*
X167648753Y-147267720D01*
X167577440Y-147219038D01*
X167575632Y-147217241D01*
X167546617Y-147179618D01*
X167528967Y-147128484D01*
X167520064Y-147049738D01*
X167517291Y-146929276D01*
X167517241Y-146902588D01*
X167523942Y-146736583D01*
X167545752Y-146621505D01*
X167585235Y-146551254D01*
X167644956Y-146519729D01*
X167679472Y-146516552D01*
X167761389Y-146531460D01*
X167817579Y-146580548D01*
X167851402Y-146670362D01*
X167866220Y-146807445D01*
X167867586Y-146882821D01*
X168148188Y-146882821D01*
X168147713Y-146855952D01*
X168143753Y-146725382D01*
X168138174Y-146630087D01*
X168130254Y-146562364D01*
X168119269Y-146514507D01*
X168104499Y-146478813D01*
X168085218Y-146447578D01*
X168076951Y-146435824D01*
X167967288Y-146324797D01*
X167828635Y-146261847D01*
X167668246Y-146244297D01*
X167528100Y-146261903D01*
G37*
X167528100Y-146261903D02*
X167416550Y-146317522D01*
X167318092Y-146419931D01*
X167290977Y-146457864D01*
X167261438Y-146507500D01*
X167242272Y-146561412D01*
X167231307Y-146633364D01*
X167226371Y-146737122D01*
X167225287Y-146874101D01*
X167230182Y-147061815D01*
X167247196Y-147202758D01*
X167279823Y-147307908D01*
X167331558Y-147388243D01*
X167405896Y-147454741D01*
X167411358Y-147458678D01*
X167484620Y-147498953D01*
X167572840Y-147518880D01*
X167685038Y-147523793D01*
X167867433Y-147523793D01*
X167867509Y-147700857D01*
X167869207Y-147799470D01*
X167879550Y-147857314D01*
X167906578Y-147892006D01*
X167958332Y-147921164D01*
X167970761Y-147927121D01*
X168028923Y-147955039D01*
X168073956Y-147972672D01*
X168107441Y-147974194D01*
X168130962Y-147953781D01*
X168146100Y-147905607D01*
X168154437Y-147823846D01*
X168157556Y-147702672D01*
X168157040Y-147536260D01*
X168154471Y-147318785D01*
X168153668Y-147253736D01*
X168150778Y-147029502D01*
X168148188Y-146882821D01*
X167867586Y-146882821D01*
X167866009Y-147007326D01*
X167859000Y-147088787D01*
X167843142Y-147142515D01*
X167815019Y-147183823D01*
X167795925Y-147203971D01*
X167717865Y-147262921D01*
X167648753Y-147267720D01*
X167577440Y-147219038D01*
X167575632Y-147217241D01*
X167546617Y-147179618D01*
X167528967Y-147128484D01*
X167520064Y-147049738D01*
X167517291Y-146929276D01*
X167517241Y-146902588D01*
X167523942Y-146736583D01*
X167545752Y-146621505D01*
X167585235Y-146551254D01*
X167644956Y-146519729D01*
X167679472Y-146516552D01*
X167761389Y-146531460D01*
X167817579Y-146580548D01*
X167851402Y-146670362D01*
X167866220Y-146807445D01*
X167867586Y-146882821D01*
X168148188Y-146882821D01*
X168147713Y-146855952D01*
X168143753Y-146725382D01*
X168138174Y-146630087D01*
X168130254Y-146562364D01*
X168119269Y-146514507D01*
X168104499Y-146478813D01*
X168085218Y-146447578D01*
X168076951Y-146435824D01*
X167967288Y-146324797D01*
X167828635Y-146261847D01*
X167668246Y-146244297D01*
X167528100Y-146261903D01*
G36*
X165282571Y-146277719D02*
G01*
X165188877Y-146331914D01*
X165123736Y-146385707D01*
X165076093Y-146442066D01*
X165043272Y-146510987D01*
X165022594Y-146602468D01*
X165011380Y-146726506D01*
X165006951Y-146893098D01*
X165006437Y-147012851D01*
X165006437Y-147453659D01*
X165130517Y-147509283D01*
X165254598Y-147564907D01*
X165269195Y-147082095D01*
X165275227Y-146901779D01*
X165281555Y-146770901D01*
X165289394Y-146680511D01*
X165299963Y-146621664D01*
X165314477Y-146585413D01*
X165334152Y-146562810D01*
X165340465Y-146557917D01*
X165436112Y-146519706D01*
X165532793Y-146534827D01*
X165590345Y-146574943D01*
X165613755Y-146603370D01*
X165629961Y-146640672D01*
X165640259Y-146697223D01*
X165645951Y-146783394D01*
X165648336Y-146909558D01*
X165648736Y-147041042D01*
X165648814Y-147205999D01*
X165651639Y-147322761D01*
X165661093Y-147401510D01*
X165681060Y-147452431D01*
X165715424Y-147485706D01*
X165768068Y-147511520D01*
X165838383Y-147538344D01*
X165915180Y-147567542D01*
X165906038Y-147049346D01*
X165902357Y-146862539D01*
X165898050Y-146724490D01*
X165891877Y-146625568D01*
X165882598Y-146556145D01*
X165868973Y-146506590D01*
X165849761Y-146467273D01*
X165826598Y-146432584D01*
X165714848Y-146321770D01*
X165578487Y-146257689D01*
X165430175Y-146242339D01*
X165282571Y-146277719D01*
G37*
X165282571Y-146277719D02*
X165188877Y-146331914D01*
X165123736Y-146385707D01*
X165076093Y-146442066D01*
X165043272Y-146510987D01*
X165022594Y-146602468D01*
X165011380Y-146726506D01*
X165006951Y-146893098D01*
X165006437Y-147012851D01*
X165006437Y-147453659D01*
X165130517Y-147509283D01*
X165254598Y-147564907D01*
X165269195Y-147082095D01*
X165275227Y-146901779D01*
X165281555Y-146770901D01*
X165289394Y-146680511D01*
X165299963Y-146621664D01*
X165314477Y-146585413D01*
X165334152Y-146562810D01*
X165340465Y-146557917D01*
X165436112Y-146519706D01*
X165532793Y-146534827D01*
X165590345Y-146574943D01*
X165613755Y-146603370D01*
X165629961Y-146640672D01*
X165640259Y-146697223D01*
X165645951Y-146783394D01*
X165648336Y-146909558D01*
X165648736Y-147041042D01*
X165648814Y-147205999D01*
X165651639Y-147322761D01*
X165661093Y-147401510D01*
X165681060Y-147452431D01*
X165715424Y-147485706D01*
X165768068Y-147511520D01*
X165838383Y-147538344D01*
X165915180Y-147567542D01*
X165906038Y-147049346D01*
X165902357Y-146862539D01*
X165898050Y-146724490D01*
X165891877Y-146625568D01*
X165882598Y-146556145D01*
X165868973Y-146506590D01*
X165849761Y-146467273D01*
X165826598Y-146432584D01*
X165714848Y-146321770D01*
X165578487Y-146257689D01*
X165430175Y-146242339D01*
X165282571Y-146277719D01*
G36*
X168651779Y-146266015D02*
G01*
X168514939Y-146337968D01*
X168413949Y-146453766D01*
X168378075Y-146528213D01*
X168350161Y-146639992D01*
X168335871Y-146781227D01*
X168334516Y-146935371D01*
X168345405Y-147085879D01*
X168367847Y-147216205D01*
X168401150Y-147309803D01*
X168411385Y-147325922D01*
X168532618Y-147446249D01*
X168676613Y-147518317D01*
X168832861Y-147539408D01*
X168990852Y-147506802D01*
X169034820Y-147487253D01*
X169120444Y-147427012D01*
X169195592Y-147347135D01*
X169202694Y-147337004D01*
X169231561Y-147288181D01*
X169250643Y-147235990D01*
X169261916Y-147167285D01*
X169267355Y-147068918D01*
X169268938Y-146927744D01*
X169268965Y-146896092D01*
X169268893Y-146886019D01*
X168977011Y-146886019D01*
X168975313Y-147019256D01*
X168968628Y-147107674D01*
X168954575Y-147164785D01*
X168930771Y-147204102D01*
X168918621Y-147217241D01*
X168848764Y-147267172D01*
X168780941Y-147264895D01*
X168712365Y-147221584D01*
X168671465Y-147175346D01*
X168647242Y-147107857D01*
X168633639Y-147001433D01*
X168632706Y-146989020D01*
X168630384Y-146796147D01*
X168654650Y-146652900D01*
X168705176Y-146560160D01*
X168781632Y-146518807D01*
X168808924Y-146516552D01*
X168880589Y-146527893D01*
X168929610Y-146567184D01*
X168959582Y-146642326D01*
X168974101Y-146761222D01*
X168977011Y-146886019D01*
X169268893Y-146886019D01*
X169267878Y-146745659D01*
X169263312Y-146640549D01*
X169253312Y-146567714D01*
X169235921Y-146514108D01*
X169209184Y-146466681D01*
X169203276Y-146457864D01*
X169103968Y-146339007D01*
X168995758Y-146270008D01*
X168864019Y-146242619D01*
X168819283Y-146241281D01*
X168651779Y-146266015D01*
G37*
X168651779Y-146266015D02*
X168514939Y-146337968D01*
X168413949Y-146453766D01*
X168378075Y-146528213D01*
X168350161Y-146639992D01*
X168335871Y-146781227D01*
X168334516Y-146935371D01*
X168345405Y-147085879D01*
X168367847Y-147216205D01*
X168401150Y-147309803D01*
X168411385Y-147325922D01*
X168532618Y-147446249D01*
X168676613Y-147518317D01*
X168832861Y-147539408D01*
X168990852Y-147506802D01*
X169034820Y-147487253D01*
X169120444Y-147427012D01*
X169195592Y-147347135D01*
X169202694Y-147337004D01*
X169231561Y-147288181D01*
X169250643Y-147235990D01*
X169261916Y-147167285D01*
X169267355Y-147068918D01*
X169268938Y-146927744D01*
X169268965Y-146896092D01*
X169268893Y-146886019D01*
X168977011Y-146886019D01*
X168975313Y-147019256D01*
X168968628Y-147107674D01*
X168954575Y-147164785D01*
X168930771Y-147204102D01*
X168918621Y-147217241D01*
X168848764Y-147267172D01*
X168780941Y-147264895D01*
X168712365Y-147221584D01*
X168671465Y-147175346D01*
X168647242Y-147107857D01*
X168633639Y-147001433D01*
X168632706Y-146989020D01*
X168630384Y-146796147D01*
X168654650Y-146652900D01*
X168705176Y-146560160D01*
X168781632Y-146518807D01*
X168808924Y-146516552D01*
X168880589Y-146527893D01*
X168929610Y-146567184D01*
X168959582Y-146642326D01*
X168974101Y-146761222D01*
X168977011Y-146886019D01*
X169268893Y-146886019D01*
X169267878Y-146745659D01*
X169263312Y-146640549D01*
X169253312Y-146567714D01*
X169235921Y-146514108D01*
X169209184Y-146466681D01*
X169203276Y-146457864D01*
X169103968Y-146339007D01*
X168995758Y-146270008D01*
X168864019Y-146242619D01*
X168819283Y-146241281D01*
X168651779Y-146266015D01*
G36*
X166384448Y-146284676D02*
G01*
X166269342Y-146362111D01*
X166180389Y-146473949D01*
X166127251Y-146616265D01*
X166116503Y-146721015D01*
X166117724Y-146764726D01*
X166127944Y-146798194D01*
X166156039Y-146828179D01*
X166210884Y-146861440D01*
X166301355Y-146904738D01*
X166436328Y-146964833D01*
X166437011Y-146965134D01*
X166561249Y-147022037D01*
X166663127Y-147072565D01*
X166732233Y-147111280D01*
X166758154Y-147132740D01*
X166758161Y-147132913D01*
X166735315Y-147179644D01*
X166681891Y-147231154D01*
X166620558Y-147268261D01*
X166589485Y-147275632D01*
X166504711Y-147250138D01*
X166431707Y-147186291D01*
X166396087Y-147116094D01*
X166361820Y-147064343D01*
X166294697Y-147005409D01*
X166215792Y-146954496D01*
X166146179Y-146926809D01*
X166131623Y-146925287D01*
X166115237Y-146950321D01*
X166114250Y-147014311D01*
X166126292Y-147100593D01*
X166148993Y-147192501D01*
X166179986Y-147273369D01*
X166181552Y-147276509D01*
X166274819Y-147406734D01*
X166395696Y-147495311D01*
X166532973Y-147538786D01*
X166675440Y-147533706D01*
X166811888Y-147476616D01*
X166817955Y-147472602D01*
X166925290Y-147375326D01*
X166995868Y-147248409D01*
X167034926Y-147081526D01*
X167040168Y-147034639D01*
X167049452Y-146813329D01*
X167038322Y-146710124D01*
X166758161Y-146710124D01*
X166754521Y-146774503D01*
X166734611Y-146793291D01*
X166684974Y-146779235D01*
X166606733Y-146746009D01*
X166519274Y-146704359D01*
X166517101Y-146703256D01*
X166442970Y-146664265D01*
X166413219Y-146638244D01*
X166420555Y-146610965D01*
X166451447Y-146575121D01*
X166530040Y-146523251D01*
X166614677Y-146519439D01*
X166690597Y-146557189D01*
X166743035Y-146630001D01*
X166758161Y-146710124D01*
X167038322Y-146710124D01*
X167030356Y-146636261D01*
X166981366Y-146495829D01*
X166913164Y-146397447D01*
X166790065Y-146298030D01*
X166654472Y-146248711D01*
X166516045Y-146245568D01*
X166384448Y-146284676D01*
G37*
X166384448Y-146284676D02*
X166269342Y-146362111D01*
X166180389Y-146473949D01*
X166127251Y-146616265D01*
X166116503Y-146721015D01*
X166117724Y-146764726D01*
X166127944Y-146798194D01*
X166156039Y-146828179D01*
X166210884Y-146861440D01*
X166301355Y-146904738D01*
X166436328Y-146964833D01*
X166437011Y-146965134D01*
X166561249Y-147022037D01*
X166663127Y-147072565D01*
X166732233Y-147111280D01*
X166758154Y-147132740D01*
X166758161Y-147132913D01*
X166735315Y-147179644D01*
X166681891Y-147231154D01*
X166620558Y-147268261D01*
X166589485Y-147275632D01*
X166504711Y-147250138D01*
X166431707Y-147186291D01*
X166396087Y-147116094D01*
X166361820Y-147064343D01*
X166294697Y-147005409D01*
X166215792Y-146954496D01*
X166146179Y-146926809D01*
X166131623Y-146925287D01*
X166115237Y-146950321D01*
X166114250Y-147014311D01*
X166126292Y-147100593D01*
X166148993Y-147192501D01*
X166179986Y-147273369D01*
X166181552Y-147276509D01*
X166274819Y-147406734D01*
X166395696Y-147495311D01*
X166532973Y-147538786D01*
X166675440Y-147533706D01*
X166811888Y-147476616D01*
X166817955Y-147472602D01*
X166925290Y-147375326D01*
X166995868Y-147248409D01*
X167034926Y-147081526D01*
X167040168Y-147034639D01*
X167049452Y-146813329D01*
X167038322Y-146710124D01*
X166758161Y-146710124D01*
X166754521Y-146774503D01*
X166734611Y-146793291D01*
X166684974Y-146779235D01*
X166606733Y-146746009D01*
X166519274Y-146704359D01*
X166517101Y-146703256D01*
X166442970Y-146664265D01*
X166413219Y-146638244D01*
X166420555Y-146610965D01*
X166451447Y-146575121D01*
X166530040Y-146523251D01*
X166614677Y-146519439D01*
X166690597Y-146557189D01*
X166743035Y-146630001D01*
X166758161Y-146710124D01*
X167038322Y-146710124D01*
X167030356Y-146636261D01*
X166981366Y-146495829D01*
X166913164Y-146397447D01*
X166790065Y-146298030D01*
X166654472Y-146248711D01*
X166516045Y-146245568D01*
X166384448Y-146284676D01*
G36*
X163955402Y-146123857D02*
G01*
X163946846Y-146243188D01*
X163937019Y-146313506D01*
X163923401Y-146344179D01*
X163903473Y-146344571D01*
X163897011Y-146340910D01*
X163811060Y-146314398D01*
X163699255Y-146315946D01*
X163585586Y-146343199D01*
X163514490Y-146378455D01*
X163441595Y-146434778D01*
X163388307Y-146498519D01*
X163351725Y-146579510D01*
X163328950Y-146687586D01*
X163317081Y-146832580D01*
X163313218Y-147024326D01*
X163313149Y-147061109D01*
X163313103Y-147474288D01*
X163405046Y-147506339D01*
X163470348Y-147528144D01*
X163506176Y-147538297D01*
X163507230Y-147538391D01*
X163510758Y-147510860D01*
X163513761Y-147434923D01*
X163516010Y-147320565D01*
X163517276Y-147177769D01*
X163517471Y-147090951D01*
X163517877Y-146919773D01*
X163519968Y-146797088D01*
X163525053Y-146713000D01*
X163534440Y-146657614D01*
X163549439Y-146621032D01*
X163571358Y-146593359D01*
X163585043Y-146580032D01*
X163679051Y-146526328D01*
X163781636Y-146522307D01*
X163874710Y-146567725D01*
X163891922Y-146584123D01*
X163917168Y-146614957D01*
X163934680Y-146651531D01*
X163945858Y-146704415D01*
X163952104Y-146784177D01*
X163954818Y-146901385D01*
X163955402Y-147062991D01*
X163955402Y-147474288D01*
X164047345Y-147506339D01*
X164112647Y-147528144D01*
X164148475Y-147538297D01*
X164149529Y-147538391D01*
X164152225Y-147510448D01*
X164154655Y-147431630D01*
X164156722Y-147309453D01*
X164158329Y-147151432D01*
X164159377Y-146965083D01*
X164159769Y-146757920D01*
X164159770Y-146748706D01*
X164159770Y-145959020D01*
X164064885Y-145918997D01*
X163970000Y-145878973D01*
X163955402Y-146123857D01*
G37*
X163955402Y-146123857D02*
X163946846Y-146243188D01*
X163937019Y-146313506D01*
X163923401Y-146344179D01*
X163903473Y-146344571D01*
X163897011Y-146340910D01*
X163811060Y-146314398D01*
X163699255Y-146315946D01*
X163585586Y-146343199D01*
X163514490Y-146378455D01*
X163441595Y-146434778D01*
X163388307Y-146498519D01*
X163351725Y-146579510D01*
X163328950Y-146687586D01*
X163317081Y-146832580D01*
X163313218Y-147024326D01*
X163313149Y-147061109D01*
X163313103Y-147474288D01*
X163405046Y-147506339D01*
X163470348Y-147528144D01*
X163506176Y-147538297D01*
X163507230Y-147538391D01*
X163510758Y-147510860D01*
X163513761Y-147434923D01*
X163516010Y-147320565D01*
X163517276Y-147177769D01*
X163517471Y-147090951D01*
X163517877Y-146919773D01*
X163519968Y-146797088D01*
X163525053Y-146713000D01*
X163534440Y-146657614D01*
X163549439Y-146621032D01*
X163571358Y-146593359D01*
X163585043Y-146580032D01*
X163679051Y-146526328D01*
X163781636Y-146522307D01*
X163874710Y-146567725D01*
X163891922Y-146584123D01*
X163917168Y-146614957D01*
X163934680Y-146651531D01*
X163945858Y-146704415D01*
X163952104Y-146784177D01*
X163954818Y-146901385D01*
X163955402Y-147062991D01*
X163955402Y-147474288D01*
X164047345Y-147506339D01*
X164112647Y-147528144D01*
X164148475Y-147538297D01*
X164149529Y-147538391D01*
X164152225Y-147510448D01*
X164154655Y-147431630D01*
X164156722Y-147309453D01*
X164158329Y-147151432D01*
X164159377Y-146965083D01*
X164159769Y-146757920D01*
X164159770Y-146748706D01*
X164159770Y-145959020D01*
X164064885Y-145918997D01*
X163970000Y-145878973D01*
X163955402Y-146123857D01*
G36*
X162620056Y-146324360D02*
G01*
X162505657Y-146366842D01*
X162504348Y-146367658D01*
X162433597Y-146419730D01*
X162381364Y-146480584D01*
X162344629Y-146559887D01*
X162320366Y-146667309D01*
X162305555Y-146812517D01*
X162297171Y-147005179D01*
X162296436Y-147032628D01*
X162285880Y-147446521D01*
X162374709Y-147492456D01*
X162438982Y-147523498D01*
X162477790Y-147538206D01*
X162479585Y-147538391D01*
X162486300Y-147511250D01*
X162491635Y-147438041D01*
X162494917Y-147331081D01*
X162495632Y-147244469D01*
X162495649Y-147104162D01*
X162502063Y-147016051D01*
X162524420Y-146974025D01*
X162572268Y-146971975D01*
X162655151Y-147003790D01*
X162780287Y-147062272D01*
X162872303Y-147110845D01*
X162919629Y-147152986D01*
X162933542Y-147198916D01*
X162933563Y-147201189D01*
X162910605Y-147280311D01*
X162842630Y-147323055D01*
X162738602Y-147329246D01*
X162663670Y-147328172D01*
X162624161Y-147349753D01*
X162599522Y-147401591D01*
X162585341Y-147467632D01*
X162605777Y-147505104D01*
X162613472Y-147510467D01*
X162685917Y-147532006D01*
X162787367Y-147535055D01*
X162891843Y-147520778D01*
X162965875Y-147494688D01*
X163068228Y-147407785D01*
X163126409Y-147286816D01*
X163137931Y-147192308D01*
X163129138Y-147107062D01*
X163097320Y-147037476D01*
X163034316Y-146975672D01*
X162931969Y-146913772D01*
X162782118Y-146843897D01*
X162772988Y-146839948D01*
X162638003Y-146777588D01*
X162554706Y-146726446D01*
X162519003Y-146680488D01*
X162526797Y-146633683D01*
X162573993Y-146579998D01*
X162588106Y-146567644D01*
X162682641Y-146519741D01*
X162780594Y-146521758D01*
X162865903Y-146568724D01*
X162922504Y-146655669D01*
X162927763Y-146672734D01*
X162978977Y-146755504D01*
X163043963Y-146795372D01*
X163137931Y-146834882D01*
X163137931Y-146732658D01*
X163109347Y-146584072D01*
X163024505Y-146447784D01*
X162980355Y-146402191D01*
X162879995Y-146343674D01*
X162752365Y-146317184D01*
X162620056Y-146324360D01*
G37*
X162620056Y-146324360D02*
X162505657Y-146366842D01*
X162504348Y-146367658D01*
X162433597Y-146419730D01*
X162381364Y-146480584D01*
X162344629Y-146559887D01*
X162320366Y-146667309D01*
X162305555Y-146812517D01*
X162297171Y-147005179D01*
X162296436Y-147032628D01*
X162285880Y-147446521D01*
X162374709Y-147492456D01*
X162438982Y-147523498D01*
X162477790Y-147538206D01*
X162479585Y-147538391D01*
X162486300Y-147511250D01*
X162491635Y-147438041D01*
X162494917Y-147331081D01*
X162495632Y-147244469D01*
X162495649Y-147104162D01*
X162502063Y-147016051D01*
X162524420Y-146974025D01*
X162572268Y-146971975D01*
X162655151Y-147003790D01*
X162780287Y-147062272D01*
X162872303Y-147110845D01*
X162919629Y-147152986D01*
X162933542Y-147198916D01*
X162933563Y-147201189D01*
X162910605Y-147280311D01*
X162842630Y-147323055D01*
X162738602Y-147329246D01*
X162663670Y-147328172D01*
X162624161Y-147349753D01*
X162599522Y-147401591D01*
X162585341Y-147467632D01*
X162605777Y-147505104D01*
X162613472Y-147510467D01*
X162685917Y-147532006D01*
X162787367Y-147535055D01*
X162891843Y-147520778D01*
X162965875Y-147494688D01*
X163068228Y-147407785D01*
X163126409Y-147286816D01*
X163137931Y-147192308D01*
X163129138Y-147107062D01*
X163097320Y-147037476D01*
X163034316Y-146975672D01*
X162931969Y-146913772D01*
X162782118Y-146843897D01*
X162772988Y-146839948D01*
X162638003Y-146777588D01*
X162554706Y-146726446D01*
X162519003Y-146680488D01*
X162526797Y-146633683D01*
X162573993Y-146579998D01*
X162588106Y-146567644D01*
X162682641Y-146519741D01*
X162780594Y-146521758D01*
X162865903Y-146568724D01*
X162922504Y-146655669D01*
X162927763Y-146672734D01*
X162978977Y-146755504D01*
X163043963Y-146795372D01*
X163137931Y-146834882D01*
X163137931Y-146732658D01*
X163109347Y-146584072D01*
X163024505Y-146447784D01*
X162980355Y-146402191D01*
X162879995Y-146343674D01*
X162752365Y-146317184D01*
X162620056Y-146324360D01*
G36*
X161634057Y-146321920D02*
G01*
X161501435Y-146370859D01*
X161393990Y-146457419D01*
X161351968Y-146518352D01*
X161306157Y-146630161D01*
X161307109Y-146711006D01*
X161355192Y-146765378D01*
X161372983Y-146774624D01*
X161449796Y-146803450D01*
X161489024Y-146796065D01*
X161502311Y-146747658D01*
X161502988Y-146720920D01*
X161527314Y-146622548D01*
X161590719Y-146553734D01*
X161678846Y-146520498D01*
X161777337Y-146528861D01*
X161857398Y-146572296D01*
X161884439Y-146597072D01*
X161903606Y-146627129D01*
X161916554Y-146672565D01*
X161924936Y-146743476D01*
X161930407Y-146849960D01*
X161934622Y-147002112D01*
X161935713Y-147050287D01*
X161939693Y-147215095D01*
X161944219Y-147331088D01*
X161951005Y-147407833D01*
X161961769Y-147454893D01*
X161978227Y-147481835D01*
X162002094Y-147498223D01*
X162017374Y-147505463D01*
X162082267Y-147530220D01*
X162120466Y-147538391D01*
X162133088Y-147511103D01*
X162140792Y-147428603D01*
X162143620Y-147289941D01*
X162141614Y-147094162D01*
X162140989Y-147063965D01*
X162136579Y-146885349D01*
X162131365Y-146754923D01*
X162123945Y-146662492D01*
X162112918Y-146597858D01*
X162096883Y-146550825D01*
X162074439Y-146511196D01*
X162062698Y-146494215D01*
X161995381Y-146419080D01*
X161920090Y-146360638D01*
X161910872Y-146355536D01*
X161775867Y-146315260D01*
X161634057Y-146321920D01*
G37*
X161634057Y-146321920D02*
X161501435Y-146370859D01*
X161393990Y-146457419D01*
X161351968Y-146518352D01*
X161306157Y-146630161D01*
X161307109Y-146711006D01*
X161355192Y-146765378D01*
X161372983Y-146774624D01*
X161449796Y-146803450D01*
X161489024Y-146796065D01*
X161502311Y-146747658D01*
X161502988Y-146720920D01*
X161527314Y-146622548D01*
X161590719Y-146553734D01*
X161678846Y-146520498D01*
X161777337Y-146528861D01*
X161857398Y-146572296D01*
X161884439Y-146597072D01*
X161903606Y-146627129D01*
X161916554Y-146672565D01*
X161924936Y-146743476D01*
X161930407Y-146849960D01*
X161934622Y-147002112D01*
X161935713Y-147050287D01*
X161939693Y-147215095D01*
X161944219Y-147331088D01*
X161951005Y-147407833D01*
X161961769Y-147454893D01*
X161978227Y-147481835D01*
X162002094Y-147498223D01*
X162017374Y-147505463D01*
X162082267Y-147530220D01*
X162120466Y-147538391D01*
X162133088Y-147511103D01*
X162140792Y-147428603D01*
X162143620Y-147289941D01*
X162141614Y-147094162D01*
X162140989Y-147063965D01*
X162136579Y-146885349D01*
X162131365Y-146754923D01*
X162123945Y-146662492D01*
X162112918Y-146597858D01*
X162096883Y-146550825D01*
X162074439Y-146511196D01*
X162062698Y-146494215D01*
X161995381Y-146419080D01*
X161920090Y-146360638D01*
X161910872Y-146355536D01*
X161775867Y-146315260D01*
X161634057Y-146321920D01*
G36*
X160306086Y-146554455D02*
G01*
X160306457Y-146772661D01*
X160307892Y-146940519D01*
X160310998Y-147066070D01*
X160316378Y-147157355D01*
X160324638Y-147222415D01*
X160336384Y-147269291D01*
X160352219Y-147306024D01*
X160364210Y-147326991D01*
X160463510Y-147440694D01*
X160589412Y-147511965D01*
X160728709Y-147537538D01*
X160868195Y-147514150D01*
X160951257Y-147472119D01*
X161038455Y-147399411D01*
X161097883Y-147310612D01*
X161133739Y-147194320D01*
X161150219Y-147039135D01*
X161152553Y-146925287D01*
X161152239Y-146917106D01*
X160948276Y-146917106D01*
X160947030Y-147047657D01*
X160941322Y-147134080D01*
X160928196Y-147190618D01*
X160904694Y-147231514D01*
X160876614Y-147262362D01*
X160782312Y-147321905D01*
X160681060Y-147326992D01*
X160585364Y-147277279D01*
X160577916Y-147270543D01*
X160546126Y-147235502D01*
X160526192Y-147193811D01*
X160515400Y-147131762D01*
X160511035Y-147035644D01*
X160510345Y-146929379D01*
X160511841Y-146795880D01*
X160518036Y-146706822D01*
X160531486Y-146648293D01*
X160554749Y-146606382D01*
X160573825Y-146584123D01*
X160662437Y-146527985D01*
X160764492Y-146521235D01*
X160861905Y-146564114D01*
X160880704Y-146580032D01*
X160912707Y-146615382D01*
X160932682Y-146657502D01*
X160943407Y-146720251D01*
X160947661Y-146817487D01*
X160948276Y-146917106D01*
X161152239Y-146917106D01*
X161145496Y-146741947D01*
X161121528Y-146604195D01*
X161076452Y-146500632D01*
X161006072Y-146419856D01*
X160951257Y-146378455D01*
X160851624Y-146333728D01*
X160736145Y-146312967D01*
X160628801Y-146318525D01*
X160568736Y-146340943D01*
X160545165Y-146347323D01*
X160529523Y-146323535D01*
X160518605Y-146259788D01*
X160510345Y-146162687D01*
X160501301Y-146054541D01*
X160488739Y-145989475D01*
X160465881Y-145952268D01*
X160425949Y-145927699D01*
X160400862Y-145916819D01*
X160305977Y-145877072D01*
X160306086Y-146554455D01*
G37*
X160306086Y-146554455D02*
X160306457Y-146772661D01*
X160307892Y-146940519D01*
X160310998Y-147066070D01*
X160316378Y-147157355D01*
X160324638Y-147222415D01*
X160336384Y-147269291D01*
X160352219Y-147306024D01*
X160364210Y-147326991D01*
X160463510Y-147440694D01*
X160589412Y-147511965D01*
X160728709Y-147537538D01*
X160868195Y-147514150D01*
X160951257Y-147472119D01*
X161038455Y-147399411D01*
X161097883Y-147310612D01*
X161133739Y-147194320D01*
X161150219Y-147039135D01*
X161152553Y-146925287D01*
X161152239Y-146917106D01*
X160948276Y-146917106D01*
X160947030Y-147047657D01*
X160941322Y-147134080D01*
X160928196Y-147190618D01*
X160904694Y-147231514D01*
X160876614Y-147262362D01*
X160782312Y-147321905D01*
X160681060Y-147326992D01*
X160585364Y-147277279D01*
X160577916Y-147270543D01*
X160546126Y-147235502D01*
X160526192Y-147193811D01*
X160515400Y-147131762D01*
X160511035Y-147035644D01*
X160510345Y-146929379D01*
X160511841Y-146795880D01*
X160518036Y-146706822D01*
X160531486Y-146648293D01*
X160554749Y-146606382D01*
X160573825Y-146584123D01*
X160662437Y-146527985D01*
X160764492Y-146521235D01*
X160861905Y-146564114D01*
X160880704Y-146580032D01*
X160912707Y-146615382D01*
X160932682Y-146657502D01*
X160943407Y-146720251D01*
X160947661Y-146817487D01*
X160948276Y-146917106D01*
X161152239Y-146917106D01*
X161145496Y-146741947D01*
X161121528Y-146604195D01*
X161076452Y-146500632D01*
X161006072Y-146419856D01*
X160951257Y-146378455D01*
X160851624Y-146333728D01*
X160736145Y-146312967D01*
X160628801Y-146318525D01*
X160568736Y-146340943D01*
X160545165Y-146347323D01*
X160529523Y-146323535D01*
X160518605Y-146259788D01*
X160510345Y-146162687D01*
X160501301Y-146054541D01*
X160488739Y-145989475D01*
X160465881Y-145952268D01*
X160425949Y-145927699D01*
X160400862Y-145916819D01*
X160305977Y-145877072D01*
X160306086Y-146554455D01*
G36*
X159119876Y-146339840D02*
G01*
X159115421Y-146416653D01*
X159111929Y-146533391D01*
X159109685Y-146680821D01*
X159108965Y-146835455D01*
X159108965Y-147358727D01*
X159201355Y-147451117D01*
X159265022Y-147508047D01*
X159320911Y-147531107D01*
X159397298Y-147529647D01*
X159427620Y-147525934D01*
X159522390Y-147515126D01*
X159600778Y-147508933D01*
X159619885Y-147508361D01*
X159684301Y-147512102D01*
X159776429Y-147521494D01*
X159812150Y-147525934D01*
X159899886Y-147532801D01*
X159958847Y-147517885D01*
X160017310Y-147471835D01*
X160038415Y-147451117D01*
X160130805Y-147358727D01*
X160130805Y-146379947D01*
X160056442Y-146346066D01*
X159992410Y-146320970D01*
X159954948Y-146312184D01*
X159945343Y-146339950D01*
X159936365Y-146417530D01*
X159928614Y-146536348D01*
X159922686Y-146687828D01*
X159919827Y-146815805D01*
X159911839Y-147319425D01*
X159842152Y-147329278D01*
X159778771Y-147322389D01*
X159747714Y-147300083D01*
X159739033Y-147258379D01*
X159731622Y-147169544D01*
X159726069Y-147044834D01*
X159722964Y-146895507D01*
X159722516Y-146818661D01*
X159722069Y-146376287D01*
X159630126Y-146344235D01*
X159565051Y-146322443D01*
X159529653Y-146312281D01*
X159528632Y-146312184D01*
X159525080Y-146339809D01*
X159521177Y-146416411D01*
X159517249Y-146532579D01*
X159513624Y-146678904D01*
X159511092Y-146815805D01*
X159503103Y-147319425D01*
X159327931Y-147319425D01*
X159319893Y-146859965D01*
X159311854Y-146400505D01*
X159226457Y-146356344D01*
X159163407Y-146326019D01*
X159126090Y-146312258D01*
X159125013Y-146312184D01*
X159119876Y-146339840D01*
G37*
X159119876Y-146339840D02*
X159115421Y-146416653D01*
X159111929Y-146533391D01*
X159109685Y-146680821D01*
X159108965Y-146835455D01*
X159108965Y-147358727D01*
X159201355Y-147451117D01*
X159265022Y-147508047D01*
X159320911Y-147531107D01*
X159397298Y-147529647D01*
X159427620Y-147525934D01*
X159522390Y-147515126D01*
X159600778Y-147508933D01*
X159619885Y-147508361D01*
X159684301Y-147512102D01*
X159776429Y-147521494D01*
X159812150Y-147525934D01*
X159899886Y-147532801D01*
X159958847Y-147517885D01*
X160017310Y-147471835D01*
X160038415Y-147451117D01*
X160130805Y-147358727D01*
X160130805Y-146379947D01*
X160056442Y-146346066D01*
X159992410Y-146320970D01*
X159954948Y-146312184D01*
X159945343Y-146339950D01*
X159936365Y-146417530D01*
X159928614Y-146536348D01*
X159922686Y-146687828D01*
X159919827Y-146815805D01*
X159911839Y-147319425D01*
X159842152Y-147329278D01*
X159778771Y-147322389D01*
X159747714Y-147300083D01*
X159739033Y-147258379D01*
X159731622Y-147169544D01*
X159726069Y-147044834D01*
X159722964Y-146895507D01*
X159722516Y-146818661D01*
X159722069Y-146376287D01*
X159630126Y-146344235D01*
X159565051Y-146322443D01*
X159529653Y-146312281D01*
X159528632Y-146312184D01*
X159525080Y-146339809D01*
X159521177Y-146416411D01*
X159517249Y-146532579D01*
X159513624Y-146678904D01*
X159511092Y-146815805D01*
X159503103Y-147319425D01*
X159327931Y-147319425D01*
X159319893Y-146859965D01*
X159311854Y-146400505D01*
X159226457Y-146356344D01*
X159163407Y-146326019D01*
X159126090Y-146312258D01*
X159125013Y-146312184D01*
X159119876Y-146339840D01*
G36*
X158385594Y-146335156D02*
G01*
X158301531Y-146373393D01*
X158235550Y-146419726D01*
X158187206Y-146471532D01*
X158153828Y-146538363D01*
X158132747Y-146629769D01*
X158121293Y-146755301D01*
X158116797Y-146924508D01*
X158116322Y-147035933D01*
X158116322Y-147470627D01*
X158190684Y-147504509D01*
X158249254Y-147529272D01*
X158278270Y-147538391D01*
X158283821Y-147511257D01*
X158288225Y-147438094D01*
X158290922Y-147331263D01*
X158291494Y-147246437D01*
X158293954Y-147123887D01*
X158300588Y-147026668D01*
X158310274Y-146967134D01*
X158317968Y-146954483D01*
X158369689Y-146967402D01*
X158450883Y-147000539D01*
X158544898Y-147045461D01*
X158635083Y-147093735D01*
X158704785Y-147136928D01*
X158737352Y-147166608D01*
X158737481Y-147166929D01*
X158734680Y-147221857D01*
X158709561Y-147274292D01*
X158665459Y-147316881D01*
X158601091Y-147331126D01*
X158546079Y-147329466D01*
X158468165Y-147328245D01*
X158427268Y-147346498D01*
X158402705Y-147394726D01*
X158399608Y-147403820D01*
X158388960Y-147472598D01*
X158417435Y-147514360D01*
X158491656Y-147534263D01*
X158571832Y-147537944D01*
X158716110Y-147510658D01*
X158790797Y-147471690D01*
X158883037Y-147380148D01*
X158931957Y-147267782D01*
X158936346Y-147149051D01*
X158894999Y-147038411D01*
X158832803Y-146969080D01*
X158770706Y-146930265D01*
X158673105Y-146881125D01*
X158559368Y-146831292D01*
X158540410Y-146823677D01*
X158415479Y-146768545D01*
X158343461Y-146719954D01*
X158320300Y-146671647D01*
X158341936Y-146617370D01*
X158379080Y-146574943D01*
X158466873Y-146522702D01*
X158563470Y-146518784D01*
X158652056Y-146559041D01*
X158715814Y-146639326D01*
X158724183Y-146660040D01*
X158772904Y-146736225D01*
X158844035Y-146792785D01*
X158933793Y-146839201D01*
X158933793Y-146707584D01*
X158928510Y-146627168D01*
X158905858Y-146563786D01*
X158855633Y-146496163D01*
X158807418Y-146444076D01*
X158732446Y-146370322D01*
X158674194Y-146330702D01*
X158611628Y-146314810D01*
X158540807Y-146312184D01*
X158385594Y-146335156D01*
G37*
X158385594Y-146335156D02*
X158301531Y-146373393D01*
X158235550Y-146419726D01*
X158187206Y-146471532D01*
X158153828Y-146538363D01*
X158132747Y-146629769D01*
X158121293Y-146755301D01*
X158116797Y-146924508D01*
X158116322Y-147035933D01*
X158116322Y-147470627D01*
X158190684Y-147504509D01*
X158249254Y-147529272D01*
X158278270Y-147538391D01*
X158283821Y-147511257D01*
X158288225Y-147438094D01*
X158290922Y-147331263D01*
X158291494Y-147246437D01*
X158293954Y-147123887D01*
X158300588Y-147026668D01*
X158310274Y-146967134D01*
X158317968Y-146954483D01*
X158369689Y-146967402D01*
X158450883Y-147000539D01*
X158544898Y-147045461D01*
X158635083Y-147093735D01*
X158704785Y-147136928D01*
X158737352Y-147166608D01*
X158737481Y-147166929D01*
X158734680Y-147221857D01*
X158709561Y-147274292D01*
X158665459Y-147316881D01*
X158601091Y-147331126D01*
X158546079Y-147329466D01*
X158468165Y-147328245D01*
X158427268Y-147346498D01*
X158402705Y-147394726D01*
X158399608Y-147403820D01*
X158388960Y-147472598D01*
X158417435Y-147514360D01*
X158491656Y-147534263D01*
X158571832Y-147537944D01*
X158716110Y-147510658D01*
X158790797Y-147471690D01*
X158883037Y-147380148D01*
X158931957Y-147267782D01*
X158936346Y-147149051D01*
X158894999Y-147038411D01*
X158832803Y-146969080D01*
X158770706Y-146930265D01*
X158673105Y-146881125D01*
X158559368Y-146831292D01*
X158540410Y-146823677D01*
X158415479Y-146768545D01*
X158343461Y-146719954D01*
X158320300Y-146671647D01*
X158341936Y-146617370D01*
X158379080Y-146574943D01*
X158466873Y-146522702D01*
X158563470Y-146518784D01*
X158652056Y-146559041D01*
X158715814Y-146639326D01*
X158724183Y-146660040D01*
X158772904Y-146736225D01*
X158844035Y-146792785D01*
X158933793Y-146839201D01*
X158933793Y-146707584D01*
X158928510Y-146627168D01*
X158905858Y-146563786D01*
X158855633Y-146496163D01*
X158807418Y-146444076D01*
X158732446Y-146370322D01*
X158674194Y-146330702D01*
X158611628Y-146314810D01*
X158540807Y-146312184D01*
X158385594Y-146335156D01*
G36*
X157364310Y-146340018D02*
G01*
X157329415Y-146355269D01*
X157246123Y-146421235D01*
X157174897Y-146516618D01*
X157130847Y-146618406D01*
X157123678Y-146668587D01*
X157147715Y-146738647D01*
X157200439Y-146775717D01*
X157256969Y-146798164D01*
X157282854Y-146802300D01*
X157295458Y-146772283D01*
X157320346Y-146706961D01*
X157331265Y-146677445D01*
X157392492Y-146575348D01*
X157481139Y-146524423D01*
X157594807Y-146525989D01*
X157603226Y-146527994D01*
X157663912Y-146556767D01*
X157708526Y-146612859D01*
X157738998Y-146703163D01*
X157757256Y-146834571D01*
X157765229Y-147013974D01*
X157765977Y-147109433D01*
X157766348Y-147259913D01*
X157768777Y-147362495D01*
X157775240Y-147427672D01*
X157787712Y-147465938D01*
X157808167Y-147487785D01*
X157838581Y-147503707D01*
X157840339Y-147504509D01*
X157898909Y-147529272D01*
X157927925Y-147538391D01*
X157932384Y-147510822D01*
X157936201Y-147434620D01*
X157939101Y-147319541D01*
X157940809Y-147175341D01*
X157941149Y-147069814D01*
X157939412Y-146865613D01*
X157932618Y-146710697D01*
X157918393Y-146596024D01*
X157894362Y-146512551D01*
X157858152Y-146451236D01*
X157807388Y-146403034D01*
X157757261Y-146369393D01*
X157636725Y-146324619D01*
X157496443Y-146314521D01*
X157364310Y-146340018D01*
G37*
X157364310Y-146340018D02*
X157329415Y-146355269D01*
X157246123Y-146421235D01*
X157174897Y-146516618D01*
X157130847Y-146618406D01*
X157123678Y-146668587D01*
X157147715Y-146738647D01*
X157200439Y-146775717D01*
X157256969Y-146798164D01*
X157282854Y-146802300D01*
X157295458Y-146772283D01*
X157320346Y-146706961D01*
X157331265Y-146677445D01*
X157392492Y-146575348D01*
X157481139Y-146524423D01*
X157594807Y-146525989D01*
X157603226Y-146527994D01*
X157663912Y-146556767D01*
X157708526Y-146612859D01*
X157738998Y-146703163D01*
X157757256Y-146834571D01*
X157765229Y-147013974D01*
X157765977Y-147109433D01*
X157766348Y-147259913D01*
X157768777Y-147362495D01*
X157775240Y-147427672D01*
X157787712Y-147465938D01*
X157808167Y-147487785D01*
X157838581Y-147503707D01*
X157840339Y-147504509D01*
X157898909Y-147529272D01*
X157927925Y-147538391D01*
X157932384Y-147510822D01*
X157936201Y-147434620D01*
X157939101Y-147319541D01*
X157940809Y-147175341D01*
X157941149Y-147069814D01*
X157939412Y-146865613D01*
X157932618Y-146710697D01*
X157918393Y-146596024D01*
X157894362Y-146512551D01*
X157858152Y-146451236D01*
X157807388Y-146403034D01*
X157757261Y-146369393D01*
X157636725Y-146324619D01*
X157496443Y-146314521D01*
X157364310Y-146340018D01*
G36*
X156356561Y-146356540D02*
G01*
X156241050Y-146432034D01*
X156185336Y-146499617D01*
X156141196Y-146622255D01*
X156137691Y-146719298D01*
X156145632Y-146849056D01*
X156444885Y-146980039D01*
X156590389Y-147046958D01*
X156685463Y-147100790D01*
X156734899Y-147147416D01*
X156743489Y-147192720D01*
X156716028Y-147242582D01*
X156685747Y-147275632D01*
X156597637Y-147328633D01*
X156501804Y-147332347D01*
X156413788Y-147291041D01*
X156349131Y-147208983D01*
X156337567Y-147180008D01*
X156282175Y-147089509D01*
X156218447Y-147050940D01*
X156131034Y-147017946D01*
X156131034Y-147143034D01*
X156138762Y-147228156D01*
X156169034Y-147299938D01*
X156232482Y-147382356D01*
X156241912Y-147393066D01*
X156312487Y-147466391D01*
X156373153Y-147505742D01*
X156449050Y-147523845D01*
X156511970Y-147529774D01*
X156624513Y-147531251D01*
X156704630Y-147512535D01*
X156754610Y-147484747D01*
X156833162Y-147423641D01*
X156887537Y-147357554D01*
X156921948Y-147274441D01*
X156940612Y-147162254D01*
X156947744Y-147008946D01*
X156948313Y-146931136D01*
X156946378Y-146837853D01*
X156770101Y-146837853D01*
X156768056Y-146887896D01*
X156762961Y-146896092D01*
X156729334Y-146884958D01*
X156656970Y-146855493D01*
X156560253Y-146813601D01*
X156540027Y-146804597D01*
X156417797Y-146742442D01*
X156350453Y-146687815D01*
X156335652Y-146636649D01*
X156371053Y-146584876D01*
X156400289Y-146562000D01*
X156505784Y-146516250D01*
X156604524Y-146523808D01*
X156687188Y-146579651D01*
X156744452Y-146678753D01*
X156762812Y-146757414D01*
X156770101Y-146837853D01*
X156946378Y-146837853D01*
X156944541Y-146749351D01*
X156930641Y-146614853D01*
X156903106Y-146516916D01*
X156858428Y-146444811D01*
X156793099Y-146387813D01*
X156764617Y-146369393D01*
X156635237Y-146321422D01*
X156493588Y-146318403D01*
X156356561Y-146356540D01*
G37*
X156356561Y-146356540D02*
X156241050Y-146432034D01*
X156185336Y-146499617D01*
X156141196Y-146622255D01*
X156137691Y-146719298D01*
X156145632Y-146849056D01*
X156444885Y-146980039D01*
X156590389Y-147046958D01*
X156685463Y-147100790D01*
X156734899Y-147147416D01*
X156743489Y-147192720D01*
X156716028Y-147242582D01*
X156685747Y-147275632D01*
X156597637Y-147328633D01*
X156501804Y-147332347D01*
X156413788Y-147291041D01*
X156349131Y-147208983D01*
X156337567Y-147180008D01*
X156282175Y-147089509D01*
X156218447Y-147050940D01*
X156131034Y-147017946D01*
X156131034Y-147143034D01*
X156138762Y-147228156D01*
X156169034Y-147299938D01*
X156232482Y-147382356D01*
X156241912Y-147393066D01*
X156312487Y-147466391D01*
X156373153Y-147505742D01*
X156449050Y-147523845D01*
X156511970Y-147529774D01*
X156624513Y-147531251D01*
X156704630Y-147512535D01*
X156754610Y-147484747D01*
X156833162Y-147423641D01*
X156887537Y-147357554D01*
X156921948Y-147274441D01*
X156940612Y-147162254D01*
X156947744Y-147008946D01*
X156948313Y-146931136D01*
X156946378Y-146837853D01*
X156770101Y-146837853D01*
X156768056Y-146887896D01*
X156762961Y-146896092D01*
X156729334Y-146884958D01*
X156656970Y-146855493D01*
X156560253Y-146813601D01*
X156540027Y-146804597D01*
X156417797Y-146742442D01*
X156350453Y-146687815D01*
X156335652Y-146636649D01*
X156371053Y-146584876D01*
X156400289Y-146562000D01*
X156505784Y-146516250D01*
X156604524Y-146523808D01*
X156687188Y-146579651D01*
X156744452Y-146678753D01*
X156762812Y-146757414D01*
X156770101Y-146837853D01*
X156946378Y-146837853D01*
X156944541Y-146749351D01*
X156930641Y-146614853D01*
X156903106Y-146516916D01*
X156858428Y-146444811D01*
X156793099Y-146387813D01*
X156764617Y-146369393D01*
X156635237Y-146321422D01*
X156493588Y-146318403D01*
X156356561Y-146356540D01*
G36*
X162490986Y-136852998D02*
G01*
X162332994Y-136853863D01*
X162218653Y-136856205D01*
X162140593Y-136860762D01*
X162091446Y-136868270D01*
X162063841Y-136879466D01*
X162050408Y-136895088D01*
X162043779Y-136915873D01*
X162043135Y-136918563D01*
X162033065Y-136967113D01*
X162014425Y-137062905D01*
X161989155Y-137195743D01*
X161959193Y-137355431D01*
X161926478Y-137531774D01*
X161925336Y-137537967D01*
X161892567Y-137710782D01*
X161861907Y-137863469D01*
X161835336Y-137986871D01*
X161814833Y-138071831D01*
X161802374Y-138109190D01*
X161801780Y-138109852D01*
X161765081Y-138128095D01*
X161689414Y-138158497D01*
X161591122Y-138194493D01*
X161590575Y-138194685D01*
X161466767Y-138241222D01*
X161320804Y-138300504D01*
X161183219Y-138360109D01*
X161176707Y-138363056D01*
X160952610Y-138464765D01*
X160456381Y-138125897D01*
X160304154Y-138022592D01*
X160166259Y-137930237D01*
X160050685Y-137854084D01*
X159965421Y-137799385D01*
X159918456Y-137771393D01*
X159913996Y-137769317D01*
X159879866Y-137778560D01*
X159816119Y-137823156D01*
X159720269Y-137905209D01*
X159589831Y-138026821D01*
X159456672Y-138156205D01*
X159328306Y-138283702D01*
X159213419Y-138400046D01*
X159118927Y-138498052D01*
X159051747Y-138570536D01*
X159018794Y-138610313D01*
X159017568Y-138612361D01*
X159013926Y-138639656D01*
X159027650Y-138684234D01*
X159062131Y-138752112D01*
X159120761Y-138849311D01*
X159206930Y-138981851D01*
X159321800Y-139152476D01*
X159423746Y-139302655D01*
X159514877Y-139437350D01*
X159589927Y-139548740D01*
X159643631Y-139629005D01*
X159670720Y-139670325D01*
X159672426Y-139673130D01*
X159669118Y-139712721D01*
X159644047Y-139789669D01*
X159602202Y-139889432D01*
X159587288Y-139921291D01*
X159522214Y-140063226D01*
X159452788Y-140224273D01*
X159396391Y-140363621D01*
X159355753Y-140467044D01*
X159323474Y-140545642D01*
X159304822Y-140586720D01*
X159302503Y-140589885D01*
X159268197Y-140595128D01*
X159187331Y-140609494D01*
X159070657Y-140630937D01*
X158928925Y-140657413D01*
X158772890Y-140686877D01*
X158613302Y-140717283D01*
X158460915Y-140746588D01*
X158326479Y-140772745D01*
X158220748Y-140793710D01*
X158154474Y-140807439D01*
X158138218Y-140811320D01*
X158121427Y-140820900D01*
X158108751Y-140842536D01*
X158099622Y-140883531D01*
X158093469Y-140951189D01*
X158089720Y-141052812D01*
X158087808Y-141195703D01*
X158087160Y-141387165D01*
X158087126Y-141465645D01*
X158087126Y-142103906D01*
X158240402Y-142134160D01*
X158325678Y-142150564D01*
X158452930Y-142174509D01*
X158606685Y-142203107D01*
X158771466Y-142233467D01*
X158817011Y-142241806D01*
X158969068Y-142271370D01*
X159101532Y-142300442D01*
X159203286Y-142326329D01*
X159263212Y-142346337D01*
X159273195Y-142352301D01*
X159297707Y-142394534D01*
X159332852Y-142476370D01*
X159371827Y-142581683D01*
X159379558Y-142604368D01*
X159430640Y-142745018D01*
X159494046Y-142903714D01*
X159556096Y-143046225D01*
X159556402Y-143046886D01*
X159659733Y-143270440D01*
X158980039Y-144270232D01*
X159416379Y-144707300D01*
X159548351Y-144837381D01*
X159668721Y-144952048D01*
X159770727Y-145045181D01*
X159847609Y-145110658D01*
X159892607Y-145142357D01*
X159899062Y-145144368D01*
X159936960Y-145128529D01*
X160014292Y-145084496D01*
X160122611Y-145017490D01*
X160253468Y-144932734D01*
X160394948Y-144837816D01*
X160538539Y-144740998D01*
X160666565Y-144656751D01*
X160770895Y-144590258D01*
X160843400Y-144546702D01*
X160875842Y-144531264D01*
X160915424Y-144544328D01*
X160990481Y-144578750D01*
X161085532Y-144627380D01*
X161095608Y-144632785D01*
X161223609Y-144696980D01*
X161311382Y-144728463D01*
X161365972Y-144728798D01*
X161394425Y-144699548D01*
X161394590Y-144699138D01*
X161408812Y-144664498D01*
X161442731Y-144582269D01*
X161493716Y-144458814D01*
X161559138Y-144300498D01*
X161636366Y-144113686D01*
X161722771Y-143904742D01*
X161806449Y-143702446D01*
X161898412Y-143479200D01*
X161982850Y-143272392D01*
X162057231Y-143088362D01*
X162119026Y-142933451D01*
X162165703Y-142813996D01*
X162194732Y-142736339D01*
X162203678Y-142707356D01*
X162181244Y-142674110D01*
X162122561Y-142621123D01*
X162044311Y-142562704D01*
X161821466Y-142377952D01*
X161647282Y-142166182D01*
X161523846Y-141931856D01*
X161453246Y-141679434D01*
X161437569Y-141413377D01*
X161448964Y-141290575D01*
X161511050Y-141035793D01*
X161617977Y-140810801D01*
X161763111Y-140617817D01*
X161939822Y-140459061D01*
X162141478Y-140336750D01*
X162361446Y-140253105D01*
X162593094Y-140210344D01*
X162829791Y-140210687D01*
X163064905Y-140256352D01*
X163291804Y-140349559D01*
X163503856Y-140492527D01*
X163592364Y-140573383D01*
X163762111Y-140781007D01*
X163880301Y-141007895D01*
X163947722Y-141247433D01*
X163965160Y-141493007D01*
X163933402Y-141738003D01*
X163853235Y-141975808D01*
X163725445Y-142199807D01*
X163550820Y-142403387D01*
X163355688Y-142562704D01*
X163274409Y-142623602D01*
X163216991Y-142676015D01*
X163196322Y-142707406D01*
X163207144Y-142741639D01*
X163237923Y-142823419D01*
X163286126Y-142946407D01*
X163349222Y-143104263D01*
X163424678Y-143290649D01*
X163509962Y-143499226D01*
X163593781Y-143702496D01*
X163686255Y-143925933D01*
X163771911Y-144132984D01*
X163848118Y-144317286D01*
X163912247Y-144472475D01*
X163961668Y-144592188D01*
X163993752Y-144670061D01*
X164005641Y-144699138D01*
X164033726Y-144728677D01*
X164088051Y-144728591D01*
X164175605Y-144697326D01*
X164303381Y-144633329D01*
X164304392Y-144632785D01*
X164400598Y-144583121D01*
X164478369Y-144546945D01*
X164522223Y-144531408D01*
X164524158Y-144531264D01*
X164557171Y-144547024D01*
X164630054Y-144590850D01*
X164734678Y-144657557D01*
X164862910Y-144741964D01*
X165005052Y-144837816D01*
X165149767Y-144934867D01*
X165280196Y-145019270D01*
X165387890Y-145085801D01*
X165464402Y-145129238D01*
X165500938Y-145144368D01*
X165534582Y-145124482D01*
X165602224Y-145068903D01*
X165697107Y-144983754D01*
X165812470Y-144875153D01*
X165941555Y-144749221D01*
X165983771Y-144707149D01*
X166420261Y-144269931D01*
X166088023Y-143782340D01*
X165987054Y-143632605D01*
X165898438Y-143498220D01*
X165827146Y-143386969D01*
X165778150Y-143306639D01*
X165756422Y-143265014D01*
X165755785Y-143262053D01*
X165767240Y-143222818D01*
X165798051Y-143143895D01*
X165842884Y-143038509D01*
X165874353Y-142967954D01*
X165933192Y-142832876D01*
X165988604Y-142696409D01*
X166031564Y-142581103D01*
X166043234Y-142545977D01*
X166076389Y-142452174D01*
X166108799Y-142379694D01*
X166126601Y-142352301D01*
X166165886Y-142335536D01*
X166251626Y-142311770D01*
X166372697Y-142283697D01*
X166517973Y-142254009D01*
X166582988Y-142241806D01*
X166748087Y-142211468D01*
X166906448Y-142182093D01*
X167042596Y-142156569D01*
X167141057Y-142137785D01*
X167159598Y-142134160D01*
X167312873Y-142103906D01*
X167312873Y-141465645D01*
X167312529Y-141255770D01*
X167311116Y-141096980D01*
X167308064Y-140981973D01*
X167302803Y-140903446D01*
X167294763Y-140854096D01*
X167283373Y-140826619D01*
X167268063Y-140813713D01*
X167261782Y-140811320D01*
X167223896Y-140802833D01*
X167140195Y-140785900D01*
X167021433Y-140762566D01*
X166878361Y-140734875D01*
X166721732Y-140704873D01*
X166562297Y-140674604D01*
X166410809Y-140646115D01*
X166278019Y-140621449D01*
X166174681Y-140602651D01*
X166111545Y-140591767D01*
X166097497Y-140589885D01*
X166084770Y-140564704D01*
X166056600Y-140497622D01*
X166018252Y-140401333D01*
X166003609Y-140363621D01*
X165944548Y-140217921D01*
X165875000Y-140056951D01*
X165812712Y-139921291D01*
X165766879Y-139817561D01*
X165736387Y-139732326D01*
X165726208Y-139680126D01*
X165727831Y-139673130D01*
X165749343Y-139640102D01*
X165798465Y-139566643D01*
X165869923Y-139460577D01*
X165958445Y-139329726D01*
X166058759Y-139181912D01*
X166078594Y-139152734D01*
X166194988Y-138979863D01*
X166280548Y-138848226D01*
X166338684Y-138751761D01*
X166372808Y-138684408D01*
X166386331Y-138640106D01*
X166382664Y-138612794D01*
X166382570Y-138612620D01*
X166353707Y-138576746D01*
X166289867Y-138507391D01*
X166197969Y-138411745D01*
X166084933Y-138296999D01*
X165957679Y-138170341D01*
X165943328Y-138156205D01*
X165782957Y-138000903D01*
X165659195Y-137886870D01*
X165569555Y-137812002D01*
X165511552Y-137774196D01*
X165486004Y-137769317D01*
X165448718Y-137790603D01*
X165371343Y-137839773D01*
X165261867Y-137911575D01*
X165128280Y-138000755D01*
X164978570Y-138102063D01*
X164943618Y-138125897D01*
X164447390Y-138464765D01*
X164223293Y-138363056D01*
X164087011Y-138303783D01*
X163940724Y-138244170D01*
X163814965Y-138196640D01*
X163809425Y-138194685D01*
X163711057Y-138158677D01*
X163635229Y-138128229D01*
X163598282Y-138109905D01*
X163598220Y-138109852D01*
X163586496Y-138076729D01*
X163566568Y-137995267D01*
X163540413Y-137874625D01*
X163510010Y-137723959D01*
X163477337Y-137552428D01*
X163474664Y-137537967D01*
X163441890Y-137361235D01*
X163411802Y-137200810D01*
X163386339Y-137066888D01*
X163367441Y-136969663D01*
X163357047Y-136919332D01*
X163356865Y-136918563D01*
X163350539Y-136897153D01*
X163338239Y-136880988D01*
X163312594Y-136869331D01*
X163266235Y-136861445D01*
X163191792Y-136856593D01*
X163081895Y-136854039D01*
X162929175Y-136853045D01*
X162726262Y-136852874D01*
X162700000Y-136852874D01*
X162490986Y-136852998D01*
G37*
X162490986Y-136852998D02*
X162332994Y-136853863D01*
X162218653Y-136856205D01*
X162140593Y-136860762D01*
X162091446Y-136868270D01*
X162063841Y-136879466D01*
X162050408Y-136895088D01*
X162043779Y-136915873D01*
X162043135Y-136918563D01*
X162033065Y-136967113D01*
X162014425Y-137062905D01*
X161989155Y-137195743D01*
X161959193Y-137355431D01*
X161926478Y-137531774D01*
X161925336Y-137537967D01*
X161892567Y-137710782D01*
X161861907Y-137863469D01*
X161835336Y-137986871D01*
X161814833Y-138071831D01*
X161802374Y-138109190D01*
X161801780Y-138109852D01*
X161765081Y-138128095D01*
X161689414Y-138158497D01*
X161591122Y-138194493D01*
X161590575Y-138194685D01*
X161466767Y-138241222D01*
X161320804Y-138300504D01*
X161183219Y-138360109D01*
X161176707Y-138363056D01*
X160952610Y-138464765D01*
X160456381Y-138125897D01*
X160304154Y-138022592D01*
X160166259Y-137930237D01*
X160050685Y-137854084D01*
X159965421Y-137799385D01*
X159918456Y-137771393D01*
X159913996Y-137769317D01*
X159879866Y-137778560D01*
X159816119Y-137823156D01*
X159720269Y-137905209D01*
X159589831Y-138026821D01*
X159456672Y-138156205D01*
X159328306Y-138283702D01*
X159213419Y-138400046D01*
X159118927Y-138498052D01*
X159051747Y-138570536D01*
X159018794Y-138610313D01*
X159017568Y-138612361D01*
X159013926Y-138639656D01*
X159027650Y-138684234D01*
X159062131Y-138752112D01*
X159120761Y-138849311D01*
X159206930Y-138981851D01*
X159321800Y-139152476D01*
X159423746Y-139302655D01*
X159514877Y-139437350D01*
X159589927Y-139548740D01*
X159643631Y-139629005D01*
X159670720Y-139670325D01*
X159672426Y-139673130D01*
X159669118Y-139712721D01*
X159644047Y-139789669D01*
X159602202Y-139889432D01*
X159587288Y-139921291D01*
X159522214Y-140063226D01*
X159452788Y-140224273D01*
X159396391Y-140363621D01*
X159355753Y-140467044D01*
X159323474Y-140545642D01*
X159304822Y-140586720D01*
X159302503Y-140589885D01*
X159268197Y-140595128D01*
X159187331Y-140609494D01*
X159070657Y-140630937D01*
X158928925Y-140657413D01*
X158772890Y-140686877D01*
X158613302Y-140717283D01*
X158460915Y-140746588D01*
X158326479Y-140772745D01*
X158220748Y-140793710D01*
X158154474Y-140807439D01*
X158138218Y-140811320D01*
X158121427Y-140820900D01*
X158108751Y-140842536D01*
X158099622Y-140883531D01*
X158093469Y-140951189D01*
X158089720Y-141052812D01*
X158087808Y-141195703D01*
X158087160Y-141387165D01*
X158087126Y-141465645D01*
X158087126Y-142103906D01*
X158240402Y-142134160D01*
X158325678Y-142150564D01*
X158452930Y-142174509D01*
X158606685Y-142203107D01*
X158771466Y-142233467D01*
X158817011Y-142241806D01*
X158969068Y-142271370D01*
X159101532Y-142300442D01*
X159203286Y-142326329D01*
X159263212Y-142346337D01*
X159273195Y-142352301D01*
X159297707Y-142394534D01*
X159332852Y-142476370D01*
X159371827Y-142581683D01*
X159379558Y-142604368D01*
X159430640Y-142745018D01*
X159494046Y-142903714D01*
X159556096Y-143046225D01*
X159556402Y-143046886D01*
X159659733Y-143270440D01*
X158980039Y-144270232D01*
X159416379Y-144707300D01*
X159548351Y-144837381D01*
X159668721Y-144952048D01*
X159770727Y-145045181D01*
X159847609Y-145110658D01*
X159892607Y-145142357D01*
X159899062Y-145144368D01*
X159936960Y-145128529D01*
X160014292Y-145084496D01*
X160122611Y-145017490D01*
X160253468Y-144932734D01*
X160394948Y-144837816D01*
X160538539Y-144740998D01*
X160666565Y-144656751D01*
X160770895Y-144590258D01*
X160843400Y-144546702D01*
X160875842Y-144531264D01*
X160915424Y-144544328D01*
X160990481Y-144578750D01*
X161085532Y-144627380D01*
X161095608Y-144632785D01*
X161223609Y-144696980D01*
X161311382Y-144728463D01*
X161365972Y-144728798D01*
X161394425Y-144699548D01*
X161394590Y-144699138D01*
X161408812Y-144664498D01*
X161442731Y-144582269D01*
X161493716Y-144458814D01*
X161559138Y-144300498D01*
X161636366Y-144113686D01*
X161722771Y-143904742D01*
X161806449Y-143702446D01*
X161898412Y-143479200D01*
X161982850Y-143272392D01*
X162057231Y-143088362D01*
X162119026Y-142933451D01*
X162165703Y-142813996D01*
X162194732Y-142736339D01*
X162203678Y-142707356D01*
X162181244Y-142674110D01*
X162122561Y-142621123D01*
X162044311Y-142562704D01*
X161821466Y-142377952D01*
X161647282Y-142166182D01*
X161523846Y-141931856D01*
X161453246Y-141679434D01*
X161437569Y-141413377D01*
X161448964Y-141290575D01*
X161511050Y-141035793D01*
X161617977Y-140810801D01*
X161763111Y-140617817D01*
X161939822Y-140459061D01*
X162141478Y-140336750D01*
X162361446Y-140253105D01*
X162593094Y-140210344D01*
X162829791Y-140210687D01*
X163064905Y-140256352D01*
X163291804Y-140349559D01*
X163503856Y-140492527D01*
X163592364Y-140573383D01*
X163762111Y-140781007D01*
X163880301Y-141007895D01*
X163947722Y-141247433D01*
X163965160Y-141493007D01*
X163933402Y-141738003D01*
X163853235Y-141975808D01*
X163725445Y-142199807D01*
X163550820Y-142403387D01*
X163355688Y-142562704D01*
X163274409Y-142623602D01*
X163216991Y-142676015D01*
X163196322Y-142707406D01*
X163207144Y-142741639D01*
X163237923Y-142823419D01*
X163286126Y-142946407D01*
X163349222Y-143104263D01*
X163424678Y-143290649D01*
X163509962Y-143499226D01*
X163593781Y-143702496D01*
X163686255Y-143925933D01*
X163771911Y-144132984D01*
X163848118Y-144317286D01*
X163912247Y-144472475D01*
X163961668Y-144592188D01*
X163993752Y-144670061D01*
X164005641Y-144699138D01*
X164033726Y-144728677D01*
X164088051Y-144728591D01*
X164175605Y-144697326D01*
X164303381Y-144633329D01*
X164304392Y-144632785D01*
X164400598Y-144583121D01*
X164478369Y-144546945D01*
X164522223Y-144531408D01*
X164524158Y-144531264D01*
X164557171Y-144547024D01*
X164630054Y-144590850D01*
X164734678Y-144657557D01*
X164862910Y-144741964D01*
X165005052Y-144837816D01*
X165149767Y-144934867D01*
X165280196Y-145019270D01*
X165387890Y-145085801D01*
X165464402Y-145129238D01*
X165500938Y-145144368D01*
X165534582Y-145124482D01*
X165602224Y-145068903D01*
X165697107Y-144983754D01*
X165812470Y-144875153D01*
X165941555Y-144749221D01*
X165983771Y-144707149D01*
X166420261Y-144269931D01*
X166088023Y-143782340D01*
X165987054Y-143632605D01*
X165898438Y-143498220D01*
X165827146Y-143386969D01*
X165778150Y-143306639D01*
X165756422Y-143265014D01*
X165755785Y-143262053D01*
X165767240Y-143222818D01*
X165798051Y-143143895D01*
X165842884Y-143038509D01*
X165874353Y-142967954D01*
X165933192Y-142832876D01*
X165988604Y-142696409D01*
X166031564Y-142581103D01*
X166043234Y-142545977D01*
X166076389Y-142452174D01*
X166108799Y-142379694D01*
X166126601Y-142352301D01*
X166165886Y-142335536D01*
X166251626Y-142311770D01*
X166372697Y-142283697D01*
X166517973Y-142254009D01*
X166582988Y-142241806D01*
X166748087Y-142211468D01*
X166906448Y-142182093D01*
X167042596Y-142156569D01*
X167141057Y-142137785D01*
X167159598Y-142134160D01*
X167312873Y-142103906D01*
X167312873Y-141465645D01*
X167312529Y-141255770D01*
X167311116Y-141096980D01*
X167308064Y-140981973D01*
X167302803Y-140903446D01*
X167294763Y-140854096D01*
X167283373Y-140826619D01*
X167268063Y-140813713D01*
X167261782Y-140811320D01*
X167223896Y-140802833D01*
X167140195Y-140785900D01*
X167021433Y-140762566D01*
X166878361Y-140734875D01*
X166721732Y-140704873D01*
X166562297Y-140674604D01*
X166410809Y-140646115D01*
X166278019Y-140621449D01*
X166174681Y-140602651D01*
X166111545Y-140591767D01*
X166097497Y-140589885D01*
X166084770Y-140564704D01*
X166056600Y-140497622D01*
X166018252Y-140401333D01*
X166003609Y-140363621D01*
X165944548Y-140217921D01*
X165875000Y-140056951D01*
X165812712Y-139921291D01*
X165766879Y-139817561D01*
X165736387Y-139732326D01*
X165726208Y-139680126D01*
X165727831Y-139673130D01*
X165749343Y-139640102D01*
X165798465Y-139566643D01*
X165869923Y-139460577D01*
X165958445Y-139329726D01*
X166058759Y-139181912D01*
X166078594Y-139152734D01*
X166194988Y-138979863D01*
X166280548Y-138848226D01*
X166338684Y-138751761D01*
X166372808Y-138684408D01*
X166386331Y-138640106D01*
X166382664Y-138612794D01*
X166382570Y-138612620D01*
X166353707Y-138576746D01*
X166289867Y-138507391D01*
X166197969Y-138411745D01*
X166084933Y-138296999D01*
X165957679Y-138170341D01*
X165943328Y-138156205D01*
X165782957Y-138000903D01*
X165659195Y-137886870D01*
X165569555Y-137812002D01*
X165511552Y-137774196D01*
X165486004Y-137769317D01*
X165448718Y-137790603D01*
X165371343Y-137839773D01*
X165261867Y-137911575D01*
X165128280Y-138000755D01*
X164978570Y-138102063D01*
X164943618Y-138125897D01*
X164447390Y-138464765D01*
X164223293Y-138363056D01*
X164087011Y-138303783D01*
X163940724Y-138244170D01*
X163814965Y-138196640D01*
X163809425Y-138194685D01*
X163711057Y-138158677D01*
X163635229Y-138128229D01*
X163598282Y-138109905D01*
X163598220Y-138109852D01*
X163586496Y-138076729D01*
X163566568Y-137995267D01*
X163540413Y-137874625D01*
X163510010Y-137723959D01*
X163477337Y-137552428D01*
X163474664Y-137537967D01*
X163441890Y-137361235D01*
X163411802Y-137200810D01*
X163386339Y-137066888D01*
X163367441Y-136969663D01*
X163357047Y-136919332D01*
X163356865Y-136918563D01*
X163350539Y-136897153D01*
X163338239Y-136880988D01*
X163312594Y-136869331D01*
X163266235Y-136861445D01*
X163191792Y-136856593D01*
X163081895Y-136854039D01*
X162929175Y-136853045D01*
X162726262Y-136852874D01*
X162700000Y-136852874D01*
X162490986Y-136852998D01*
D13*
X143110000Y-51370000D02*
X143110000Y-54030000D01*
X137970000Y-51370000D02*
X143110000Y-51370000D01*
X137970000Y-54030000D02*
X143110000Y-54030000D01*
X137970000Y-51370000D02*
X137970000Y-54030000D01*
X136700000Y-51370000D02*
X135370000Y-51370000D01*
X135370000Y-51370000D02*
X135370000Y-52700000D01*
X154970000Y-51370000D02*
X157630000Y-51370000D01*
X154970000Y-51430000D02*
X154970000Y-51370000D01*
X157630000Y-51430000D02*
X157630000Y-51370000D01*
X154970000Y-51430000D02*
X157630000Y-51430000D01*
X154970000Y-52700000D02*
X154970000Y-54030000D01*
X154970000Y-54030000D02*
X156300000Y-54030000D01*
D10*
X133822380Y-52366666D02*
X134536666Y-52366666D01*
X134679523Y-52319047D01*
X134774761Y-52223809D01*
X134822380Y-52080952D01*
X134822380Y-51985714D01*
X134822380Y-53366666D02*
X134822380Y-52795238D01*
X134822380Y-53080952D02*
X133822380Y-53080952D01*
X133965238Y-52985714D01*
X134060476Y-52890476D01*
X134108095Y-52795238D01*
X142823809Y-50852380D02*
X142823809Y-49852380D01*
X142442857Y-49852380D01*
X142347619Y-49900000D01*
X142299999Y-49947619D01*
X142252380Y-50042857D01*
X142252380Y-50185714D01*
X142299999Y-50280952D01*
X142347619Y-50328571D01*
X142442857Y-50376190D01*
X142823809Y-50376190D01*
X141919047Y-49852380D02*
X141680952Y-50852380D01*
X141490476Y-50138095D01*
X141299999Y-50852380D01*
X141061904Y-49852380D01*
X140109523Y-50852380D02*
X140442857Y-50376190D01*
X140680952Y-50852380D02*
X140680952Y-49852380D01*
X140300000Y-49852380D01*
X140204761Y-49900000D01*
X140157142Y-49947619D01*
X140109523Y-50042857D01*
X140109523Y-50185714D01*
X140157142Y-50280952D01*
X140204761Y-50328571D01*
X140300000Y-50376190D01*
X140680952Y-50376190D01*
X138633333Y-49852380D02*
X138633333Y-50566666D01*
X138680952Y-50709523D01*
X138776190Y-50804761D01*
X138919047Y-50852380D01*
X139014285Y-50852380D01*
X138204761Y-50566666D02*
X137728571Y-50566666D01*
X138299999Y-50852380D02*
X137966666Y-49852380D01*
X137633333Y-50852380D01*
X136728571Y-50757142D02*
X136776190Y-50804761D01*
X136919047Y-50852380D01*
X137014285Y-50852380D01*
X137157142Y-50804761D01*
X137252380Y-50709523D01*
X137299999Y-50614285D01*
X137347619Y-50423809D01*
X137347619Y-50280952D01*
X137299999Y-50090476D01*
X137252380Y-49995238D01*
X137157142Y-49900000D01*
X137014285Y-49852380D01*
X136919047Y-49852380D01*
X136776190Y-49900000D01*
X136728571Y-49947619D01*
X136299999Y-50852380D02*
X136299999Y-49852380D01*
X135728571Y-50852380D02*
X136157142Y-50280952D01*
X135728571Y-49852380D02*
X136299999Y-50423809D01*
M02*
