M48
; DRILL file {KiCad 5.1.9} date Thu Jan  7 13:45:45 2021
; FORMAT={-:-/ absolute / inch / decimal}
; #@! TF.CreationDate,2021-01-07T13:45:45+01:00
; #@! TF.GenerationSoftware,Kicad,Pcbnew,5.1.9
; #@! TF.FileFunction,NonPlated,1,2,NPTH
FMAT,2
INCH
T1C0.0197
T2C0.0787
%
G90
G05
T1
X4.9488Y-4.9626
X4.9488Y-5.0217
X4.9783Y-4.9626
X4.9783Y-5.0217
X5.0079Y-4.9626
X5.0079Y-5.0217
X5.0374Y-4.9626
X5.0374Y-5.0217
X5.0669Y-4.9626
X5.0669Y-5.0217
X5.7323Y-4.4469
X5.7323Y-4.5059
X5.7618Y-4.4469
X5.7618Y-4.5059
X5.7913Y-4.4469
X5.7913Y-4.5059
X5.8209Y-4.4469
X5.8209Y-4.5059
X5.8504Y-4.4469
X5.8504Y-4.5059
X6.5551Y-4.9626
X6.5551Y-5.0217
X6.5846Y-4.9626
X6.5846Y-5.0217
X6.6142Y-4.9626
X6.6142Y-5.0217
X6.6437Y-4.9626
X6.6437Y-5.0217
X6.6732Y-4.9626
X6.6732Y-5.0217
T2
X4.8189Y-2.4606
X5.1654Y-2.4606
X5.6181Y-3.2677
X5.9646Y-3.2677
X6.4213Y-2.4606
X6.7677Y-2.4606
T0
M30
